G04*
G04 #@! TF.GenerationSoftware,Altium Limited,Altium Designer,19.1.1 (5)*
G04*
G04 Layer_Color=16711935*
%FSLAX44Y44*%
%MOMM*%
G71*
G01*
G75*
%ADD19C,2.2032*%
%ADD20C,1.5032*%
%ADD21C,2.5032*%
%ADD52R,1.0032X1.1032*%
%ADD53O,0.7032X1.3032*%
%ADD54R,0.7032X1.3032*%
%ADD55R,2.4232X1.4432*%
G04:AMPARAMS|DCode=56|XSize=0.7932mm|YSize=1.5733mm|CornerRadius=0.1459mm|HoleSize=0mm|Usage=FLASHONLY|Rotation=90.000|XOffset=0mm|YOffset=0mm|HoleType=Round|Shape=RoundedRectangle|*
%AMROUNDEDRECTD56*
21,1,0.7932,1.2816,0,0,90.0*
21,1,0.5015,1.5733,0,0,90.0*
1,1,0.2917,0.6408,0.2508*
1,1,0.2917,0.6408,-0.2508*
1,1,0.2917,-0.6408,-0.2508*
1,1,0.2917,-0.6408,0.2508*
%
%ADD56ROUNDEDRECTD56*%
%ADD57R,0.7400X0.7000*%
%ADD58R,0.7000X0.7400*%
%ADD59R,1.1032X1.0032*%
%ADD60R,0.4572X0.7620*%
%ADD61R,0.9032X0.5032*%
%ADD62R,1.2192X1.4732*%
%ADD63R,1.0531X0.4333*%
%ADD64R,1.2032X0.4333*%
%ADD65R,1.5832X2.0033*%
%ADD66R,2.2032X1.9032*%
%ADD67R,0.8532X1.3033*%
%ADD68R,0.8128X0.4572*%
%ADD69R,0.4572X0.8128*%
%ADD70R,1.1032X0.8032*%
%ADD71R,1.4732X1.0652*%
%ADD72R,0.8032X1.1032*%
D19*
X30000Y30000D02*
D03*
Y370000D02*
D03*
X370000Y30000D02*
D03*
Y370000D02*
D03*
D20*
X246789Y112251D02*
D03*
X102791Y284249D02*
D03*
D21*
X113789Y92251D02*
D03*
X235791D02*
D03*
X113789Y304249D02*
D03*
X235791D02*
D03*
D52*
X31350Y74910D02*
D03*
X46590D02*
D03*
X125930Y258900D02*
D03*
X141170D02*
D03*
X125510Y273060D02*
D03*
X140750D02*
D03*
X46480Y90610D02*
D03*
X31240D02*
D03*
D53*
X28740Y109950D02*
D03*
X47740D02*
D03*
Y136950D02*
D03*
X38240D02*
D03*
D54*
X28740D02*
D03*
D55*
X57480Y176689D02*
D03*
Y154891D02*
D03*
D56*
X32140Y259500D02*
D03*
Y269000D02*
D03*
Y278500D02*
D03*
X55640D02*
D03*
Y259500D02*
D03*
X185350Y365330D02*
D03*
Y355830D02*
D03*
Y346330D02*
D03*
X161850D02*
D03*
Y365330D02*
D03*
D57*
X124020Y245010D02*
D03*
Y234850D02*
D03*
X123990Y212890D02*
D03*
Y223050D02*
D03*
X124020Y197820D02*
D03*
Y187660D02*
D03*
X123500Y157100D02*
D03*
Y167260D02*
D03*
X157850Y202640D02*
D03*
Y212800D02*
D03*
X150060Y192200D02*
D03*
Y182040D02*
D03*
X161060Y192250D02*
D03*
Y182090D02*
D03*
X333290Y78640D02*
D03*
Y88800D02*
D03*
X207090Y211040D02*
D03*
Y221200D02*
D03*
X223820Y225330D02*
D03*
Y235490D02*
D03*
X193520Y272090D02*
D03*
Y261930D02*
D03*
X247350Y365210D02*
D03*
Y355050D02*
D03*
X307280Y257810D02*
D03*
Y267970D02*
D03*
X370310Y283780D02*
D03*
Y273620D02*
D03*
X234760Y365320D02*
D03*
Y355160D02*
D03*
X270400Y309720D02*
D03*
Y299560D02*
D03*
X235370Y271910D02*
D03*
Y282070D02*
D03*
X12440Y120500D02*
D03*
Y110340D02*
D03*
X12310Y93290D02*
D03*
Y83130D02*
D03*
X12140Y269850D02*
D03*
Y259690D02*
D03*
X75130Y269660D02*
D03*
Y259500D02*
D03*
X223510Y204060D02*
D03*
Y214220D02*
D03*
D58*
X171290Y202980D02*
D03*
X181450D02*
D03*
X171400Y192000D02*
D03*
X181560D02*
D03*
X173520Y215800D02*
D03*
X183680D02*
D03*
X168340Y257580D02*
D03*
X178500D02*
D03*
X198200Y165620D02*
D03*
X208360D02*
D03*
X233490Y181840D02*
D03*
X223330D02*
D03*
X280110Y362940D02*
D03*
X290270D02*
D03*
X33810Y236900D02*
D03*
X23650D02*
D03*
X230200Y379400D02*
D03*
X220040D02*
D03*
X129170Y365420D02*
D03*
X139330D02*
D03*
D59*
X145510Y203780D02*
D03*
Y219020D02*
D03*
X236440Y220130D02*
D03*
Y235370D02*
D03*
X250110Y220180D02*
D03*
Y235420D02*
D03*
D60*
X319930Y97818D02*
D03*
X314930D02*
D03*
X309930D02*
D03*
X304930D02*
D03*
Y68842D02*
D03*
X309930D02*
D03*
X314930D02*
D03*
X319930D02*
D03*
D61*
X271529Y175851D02*
D03*
Y170349D02*
D03*
X284031D02*
D03*
Y175851D02*
D03*
X284421Y159311D02*
D03*
Y153809D02*
D03*
X271919D02*
D03*
Y159311D02*
D03*
X284621Y141601D02*
D03*
Y136099D02*
D03*
X272119D02*
D03*
Y141601D02*
D03*
D62*
X350149Y268112D02*
D03*
X331893Y268191D02*
D03*
X331972Y291369D02*
D03*
X350467Y291448D02*
D03*
D63*
X325100Y181999D02*
D03*
Y186000D02*
D03*
Y190000D02*
D03*
Y194000D02*
D03*
Y198001D02*
D03*
Y201999D02*
D03*
Y206000D02*
D03*
Y210000D02*
D03*
Y214000D02*
D03*
Y218001D02*
D03*
D64*
X337351Y184000D02*
D03*
Y188001D02*
D03*
Y191999D02*
D03*
Y196000D02*
D03*
Y200000D02*
D03*
Y204000D02*
D03*
Y208001D02*
D03*
Y211999D02*
D03*
Y216000D02*
D03*
D65*
X339250Y228499D02*
D03*
Y171501D02*
D03*
D66*
X372850Y228999D02*
D03*
Y171001D02*
D03*
D67*
X280380Y345620D02*
D03*
X270779Y324620D02*
D03*
X289981D02*
D03*
D68*
X274209Y277110D02*
D03*
Y272110D02*
D03*
Y267110D02*
D03*
X257191D02*
D03*
Y272110D02*
D03*
Y277110D02*
D03*
X222439Y277060D02*
D03*
Y272060D02*
D03*
Y267060D02*
D03*
X205421D02*
D03*
Y272060D02*
D03*
Y277060D02*
D03*
D69*
X39170Y206141D02*
D03*
X34170D02*
D03*
X29170D02*
D03*
Y223159D02*
D03*
X34170D02*
D03*
X39170D02*
D03*
D70*
X220160Y350060D02*
D03*
Y365300D02*
D03*
D71*
X64100Y194290D02*
D03*
Y213290D02*
D03*
D72*
X76190Y74770D02*
D03*
X60950D02*
D03*
M02*
