G04*
G04 #@! TF.GenerationSoftware,Altium Limited,Altium Designer,19.1.1 (5)*
G04*
G04 Layer_Physical_Order=4*
G04 Layer_Color=16711680*
%FSLAX44Y44*%
%MOMM*%
G71*
G01*
G75*
%ADD22C,0.1500*%
%ADD23C,0.2000*%
%ADD24C,0.3000*%
%ADD25C,0.2540*%
%ADD26C,2.0000*%
%ADD27C,1.3000*%
%ADD28C,2.3000*%
%ADD29C,0.4000*%
%ADD30C,0.5000*%
%ADD31R,0.8000X0.9000*%
%ADD32O,0.5000X1.1000*%
%ADD33R,0.5000X1.1000*%
%ADD34R,2.2200X1.2400*%
G04:AMPARAMS|DCode=35|XSize=0.59mm|YSize=1.3701mm|CornerRadius=0.0443mm|HoleSize=0mm|Usage=FLASHONLY|Rotation=90.000|XOffset=0mm|YOffset=0mm|HoleType=Round|Shape=RoundedRectangle|*
%AMROUNDEDRECTD35*
21,1,0.5900,1.2816,0,0,90.0*
21,1,0.5015,1.3701,0,0,90.0*
1,1,0.0885,0.6408,0.2508*
1,1,0.0885,0.6408,-0.2508*
1,1,0.0885,-0.6408,-0.2508*
1,1,0.0885,-0.6408,0.2508*
%
%ADD35ROUNDEDRECTD35*%
%ADD36R,0.6000X0.5600*%
%ADD37R,0.5600X0.6000*%
%ADD38R,0.9000X0.8000*%
%ADD39R,0.2540X0.5588*%
%ADD40R,0.7000X0.3000*%
%ADD41R,1.0160X1.2700*%
%ADD42R,0.8499X0.2301*%
%ADD43R,1.0000X0.2301*%
%ADD44R,1.3800X1.8001*%
%ADD45R,2.0000X1.7000*%
%ADD46R,0.6500X1.1001*%
%ADD47R,0.6096X0.2540*%
%ADD48R,0.2540X0.6096*%
%ADD49R,0.9000X0.6000*%
%ADD50R,1.2700X0.8620*%
%ADD51R,0.6000X0.9000*%
G36*
X221660Y364030D02*
X178700D01*
X178640Y364180D01*
Y392190D01*
X221660D01*
Y364030D01*
D02*
G37*
G36*
X396431Y3569D02*
X3569D01*
Y396431D01*
X178076D01*
X178201Y395161D01*
X177470Y395016D01*
X176477Y394353D01*
X175814Y393360D01*
X175581Y392190D01*
Y368586D01*
X175432Y367837D01*
Y362822D01*
X175699Y361479D01*
X176460Y360340D01*
X177599Y359579D01*
X178942Y359312D01*
X191758D01*
X193101Y359579D01*
X194240Y360340D01*
X194508Y360741D01*
X212660D01*
Y359300D01*
X227660D01*
X227660Y359300D01*
X228760Y358890D01*
Y356470D01*
X227660Y356060D01*
X227490Y356060D01*
X212660D01*
Y356059D01*
X204490D01*
X203319Y355826D01*
X202327Y355163D01*
X201664Y354170D01*
X201431Y353000D01*
Y331820D01*
X201664Y330649D01*
X202327Y329657D01*
X203319Y328994D01*
X204490Y328761D01*
X224550D01*
X225721Y328994D01*
X226713Y329657D01*
X227376Y330649D01*
X227609Y331820D01*
Y344060D01*
X227660D01*
Y348950D01*
X228760Y349360D01*
X228930Y349360D01*
X240760D01*
Y349360D01*
X241350Y349250D01*
X241350Y349250D01*
X241984Y349250D01*
X253350D01*
Y350462D01*
X274130D01*
Y337120D01*
X286630D01*
Y354121D01*
X284968D01*
Y356940D01*
X285910D01*
Y368940D01*
X274310D01*
Y359638D01*
X260552D01*
X260166Y360908D01*
X261165Y361575D01*
X262270Y363229D01*
X262658Y365180D01*
X262270Y367131D01*
X261165Y368785D01*
X259511Y369890D01*
X257560Y370278D01*
X255609Y369890D01*
X254686Y369273D01*
X253350D01*
Y371010D01*
X241350D01*
Y371010D01*
X240760Y371120D01*
X240760Y371120D01*
X240126Y371120D01*
X228760D01*
Y371120D01*
X227660Y371300D01*
X227660Y371300D01*
X227565Y371300D01*
X224748D01*
Y373400D01*
X225840D01*
Y385400D01*
X224719D01*
Y392190D01*
X224486Y393360D01*
X223823Y394353D01*
X222831Y395016D01*
X222099Y395161D01*
X222224Y396431D01*
X396431D01*
Y3569D01*
D02*
G37*
G36*
X224560Y348880D02*
X224550D01*
Y331820D01*
X204490D01*
Y353000D01*
X224560D01*
Y348880D01*
D02*
G37*
%LPC*%
G36*
X370000Y383112D02*
X366606Y382665D01*
X363444Y381356D01*
X360728Y379272D01*
X358644Y376556D01*
X357335Y373394D01*
X356888Y370000D01*
X357335Y366606D01*
X358644Y363444D01*
X360728Y360728D01*
X363444Y358644D01*
X366606Y357335D01*
X370000Y356888D01*
X373394Y357335D01*
X376556Y358644D01*
X379272Y360728D01*
X381356Y363444D01*
X382665Y366606D01*
X383112Y370000D01*
X382665Y373394D01*
X381356Y376556D01*
X379272Y379272D01*
X376556Y381356D01*
X373394Y382665D01*
X370000Y383112D01*
D02*
G37*
G36*
X30000D02*
X26606Y382665D01*
X23444Y381356D01*
X20728Y379272D01*
X18644Y376556D01*
X17335Y373394D01*
X16888Y370000D01*
X17335Y366606D01*
X18644Y363444D01*
X20728Y360728D01*
X23444Y358644D01*
X26606Y357335D01*
X30000Y356888D01*
X33394Y357335D01*
X36556Y358644D01*
X39272Y360728D01*
X41356Y363444D01*
X42665Y366606D01*
X43112Y370000D01*
X42665Y373394D01*
X41356Y376556D01*
X39272Y379272D01*
X36556Y381356D01*
X33394Y382665D01*
X30000Y383112D01*
D02*
G37*
G36*
X168580Y376689D02*
X135900D01*
X134729Y376456D01*
X133737Y375793D01*
X133074Y374800D01*
X132841Y373630D01*
Y355600D01*
X133074Y354430D01*
X133737Y353437D01*
X134729Y352774D01*
X135900Y352541D01*
X152502D01*
X152871Y351559D01*
X152928Y351271D01*
X152199Y350181D01*
X151932Y348838D01*
Y343823D01*
X152199Y342480D01*
X152960Y341341D01*
X154099Y340580D01*
X155442Y340313D01*
X168258D01*
X169601Y340580D01*
X170740Y341341D01*
X171501Y342480D01*
X171768Y343823D01*
Y348838D01*
X171501Y350181D01*
X170740Y351320D01*
X170213Y351672D01*
X170289Y353140D01*
X170733Y353437D01*
X171396Y354430D01*
X171629Y355600D01*
Y362123D01*
X171768Y362822D01*
Y367837D01*
X171639Y368486D01*
Y373630D01*
X171406Y374800D01*
X170743Y375793D01*
X169750Y376456D01*
X168580Y376689D01*
D02*
G37*
G36*
X191758Y352348D02*
X178942D01*
X177599Y352081D01*
X176460Y351320D01*
X175699Y350181D01*
X175432Y348838D01*
Y343823D01*
X175699Y342480D01*
X176460Y341341D01*
X177599Y340580D01*
X178942Y340313D01*
X181162D01*
Y337696D01*
X180530Y336751D01*
X180142Y334800D01*
X180530Y332849D01*
X181635Y331195D01*
X183289Y330090D01*
X185240Y329702D01*
X187191Y330090D01*
X188845Y331195D01*
X189950Y332849D01*
X190338Y334800D01*
X189950Y336751D01*
X189318Y337696D01*
Y340313D01*
X191758D01*
X193101Y340580D01*
X194240Y341341D01*
X195001Y342480D01*
X195268Y343823D01*
Y348838D01*
X195001Y350181D01*
X194240Y351320D01*
X193101Y352081D01*
X191758Y352348D01*
D02*
G37*
G36*
X277029Y333120D02*
X264529D01*
Y316119D01*
X264529D01*
X264400Y315520D01*
X264400Y315520D01*
X264400Y314903D01*
Y303914D01*
X262360D01*
X260694Y303582D01*
X259282Y302638D01*
X243491Y286849D01*
X243316Y286585D01*
X241605Y286311D01*
X241370Y286494D01*
Y287870D01*
X229370D01*
Y287183D01*
X225768D01*
X224441Y288070D01*
X222490Y288458D01*
X220539Y288070D01*
X218885Y286965D01*
X217780Y285311D01*
X217392Y283360D01*
X217543Y282600D01*
X216501Y281330D01*
X216391D01*
Y276414D01*
X211469D01*
Y281330D01*
X208713D01*
Y283272D01*
X209600Y284599D01*
X209988Y286550D01*
X209600Y288501D01*
X208495Y290155D01*
X206841Y291260D01*
X204890Y291648D01*
X202939Y291260D01*
X201285Y290155D01*
X200180Y288501D01*
X199792Y286550D01*
X200180Y284599D01*
X201067Y283272D01*
Y281330D01*
X199373D01*
X198343Y281910D01*
X198180Y282731D01*
X197075Y284385D01*
X195421Y285490D01*
X193470Y285878D01*
X191519Y285490D01*
X189865Y284385D01*
X188760Y282731D01*
X188372Y280780D01*
X188694Y279160D01*
X188144Y278186D01*
X187860Y277890D01*
X187520D01*
Y266290D01*
Y256130D01*
X190987D01*
X191513Y254860D01*
X187946Y251294D01*
X187118Y250053D01*
X186827Y248590D01*
Y241128D01*
X185940Y239801D01*
X185552Y237850D01*
X185940Y235899D01*
X187045Y234245D01*
X188699Y233140D01*
X190650Y232752D01*
X192601Y233140D01*
X194255Y234245D01*
X195360Y235899D01*
X195748Y237850D01*
X195360Y239801D01*
X194473Y241128D01*
Y247006D01*
X196884Y249417D01*
X207310D01*
X208773Y249708D01*
X210014Y250536D01*
X214046Y254569D01*
X215611Y254880D01*
X217265Y255985D01*
X218370Y257639D01*
X218758Y259590D01*
X218428Y261251D01*
X219568Y261657D01*
X220396Y260416D01*
X230356Y250456D01*
X231597Y249628D01*
X233060Y249337D01*
X259266D01*
X263607Y244996D01*
Y212170D01*
X263898Y210707D01*
X264726Y209466D01*
X267079Y207114D01*
X267390Y205549D01*
X268495Y203895D01*
X270149Y202790D01*
X272100Y202402D01*
X274051Y202790D01*
X274764Y203266D01*
X275228Y203124D01*
X275984Y202555D01*
Y200379D01*
X275912Y200271D01*
X275602Y198710D01*
X275912Y197149D01*
X276796Y195826D01*
X278119Y194942D01*
X279680Y194632D01*
X281241Y194942D01*
X282564Y195826D01*
X282946Y196209D01*
X282946Y196209D01*
X283831Y197532D01*
X284141Y199093D01*
X284141Y199093D01*
Y201203D01*
X285227Y202289D01*
X286605Y201871D01*
X286850Y200639D01*
X287217Y200090D01*
X286850Y199541D01*
X286462Y197590D01*
X286850Y195639D01*
X287955Y193985D01*
X289609Y192880D01*
X291560Y192492D01*
X293511Y192880D01*
X295165Y193985D01*
X295339Y194247D01*
X298300D01*
X298786Y193073D01*
X295706Y189994D01*
X294822Y188671D01*
X294512Y187110D01*
X294822Y185549D01*
X295706Y184226D01*
X297029Y183342D01*
X298590Y183032D01*
X300151Y183342D01*
X301474Y184226D01*
X301491Y184243D01*
X302661Y183617D01*
X302487Y182740D01*
Y129706D01*
X302455Y129685D01*
X301350Y128031D01*
X300962Y126080D01*
X301350Y124129D01*
X302455Y122475D01*
X304109Y121370D01*
X306060Y120982D01*
X308011Y121370D01*
X308607Y120292D01*
X308736Y119728D01*
X308370Y119181D01*
X307982Y117230D01*
X308370Y115279D01*
X309475Y113625D01*
X311129Y112520D01*
X313080Y112132D01*
X315031Y112520D01*
X316685Y113625D01*
X317790Y115279D01*
X318178Y117230D01*
X317790Y119181D01*
X316903Y120508D01*
Y167153D01*
X318173Y167831D01*
X318819Y167400D01*
X320770Y167012D01*
X322721Y167400D01*
X324375Y168505D01*
X325480Y170159D01*
X325791Y171724D01*
X327804Y173736D01*
X328633Y174977D01*
X328923Y176440D01*
Y177848D01*
X332350D01*
Y179850D01*
X341246D01*
X341371Y178580D01*
X340909Y178488D01*
X339585Y177604D01*
X339585Y177604D01*
X336367Y174385D01*
X335482Y173062D01*
X335172Y171501D01*
X335482Y169940D01*
X336367Y168617D01*
X337690Y167733D01*
X339250Y167423D01*
X340811Y167733D01*
X342134Y168617D01*
X344159Y170642D01*
X346880D01*
X346880Y170642D01*
X348441Y170952D01*
X349764Y171836D01*
X351374Y173446D01*
X351374Y173446D01*
X352258Y174769D01*
X352568Y176330D01*
Y181586D01*
X353550Y182392D01*
X353643Y182373D01*
X365918D01*
X367381Y182664D01*
X368621Y183493D01*
X373284Y188156D01*
X378623D01*
X378632Y188154D01*
X378692D01*
X378865Y187894D01*
X380519Y186789D01*
X382470Y186401D01*
X384421Y186789D01*
X386075Y187894D01*
X387180Y189548D01*
X387568Y191499D01*
X387180Y193450D01*
X386813Y193999D01*
X387180Y194548D01*
X387568Y196499D01*
X387180Y198450D01*
X386075Y200104D01*
X384421Y201209D01*
X384028Y202506D01*
X384555Y203092D01*
X384614Y203132D01*
X386536Y203515D01*
X388190Y204620D01*
X389295Y206274D01*
X389683Y208225D01*
X389295Y210175D01*
X388190Y211829D01*
X386536Y212934D01*
X385889Y213063D01*
X385760Y213711D01*
X384655Y215365D01*
X383001Y216470D01*
X381050Y216858D01*
X379099Y216470D01*
X377445Y215365D01*
X376340Y213711D01*
X375967Y211833D01*
X359812D01*
X359133Y213103D01*
X359398Y213499D01*
X359708Y215060D01*
X359398Y216621D01*
X358514Y217944D01*
X357854Y218385D01*
X357042Y219457D01*
X357333Y220920D01*
Y242810D01*
X357042Y244273D01*
X356724Y244750D01*
X356350Y246631D01*
X355245Y248285D01*
X353591Y249390D01*
X351640Y249778D01*
X349689Y249390D01*
X348035Y248285D01*
X346930Y246631D01*
X346542Y244680D01*
X346930Y242729D01*
X348035Y241075D01*
X349687Y239972D01*
Y222504D01*
X347006Y219823D01*
X345350D01*
Y220150D01*
X332350D01*
Y222152D01*
X331879D01*
Y246310D01*
X331646Y247481D01*
X330983Y248473D01*
X329991Y249136D01*
X328820Y249369D01*
X306066D01*
X305580Y250542D01*
X307048Y252010D01*
X313280D01*
Y263892D01*
X323813D01*
Y258841D01*
X339973D01*
Y277541D01*
X323813D01*
Y272048D01*
X313280D01*
Y273770D01*
X301280D01*
Y262170D01*
Y257778D01*
X295707Y252205D01*
X295540Y252238D01*
X293589Y251850D01*
X291935Y250745D01*
X290830Y249091D01*
X290442Y247140D01*
X290830Y245189D01*
X291935Y243535D01*
X293589Y242430D01*
X295540Y242042D01*
X297491Y242430D01*
X299145Y243535D01*
X299371Y243874D01*
X300641Y243489D01*
Y230085D01*
X299468Y229599D01*
X295924Y233144D01*
X294683Y233972D01*
X293220Y234263D01*
X292978D01*
X291651Y235150D01*
X289700Y235538D01*
X287749Y235150D01*
X286095Y234045D01*
X284990Y232391D01*
X284602Y230440D01*
X284990Y228489D01*
X285285Y228048D01*
X284686Y226928D01*
X283179D01*
X280928Y229179D01*
Y246811D01*
X292544Y258426D01*
X292544Y258426D01*
X293428Y259749D01*
X293738Y261310D01*
X293738Y261310D01*
Y282904D01*
X294370Y283849D01*
X294758Y285800D01*
X294370Y287751D01*
X293265Y289405D01*
X291611Y290510D01*
X289660Y290898D01*
X287709Y290510D01*
X286055Y289405D01*
X284950Y287751D01*
X284562Y285800D01*
X284950Y283849D01*
X285582Y282904D01*
Y262999D01*
X277137Y254554D01*
X275963Y255040D01*
Y262840D01*
X280257D01*
Y267840D01*
Y276380D01*
X268161D01*
Y267840D01*
Y262840D01*
X268317D01*
Y252760D01*
X267143Y252274D01*
X263554Y255864D01*
X262313Y256692D01*
X260850Y256983D01*
X247838D01*
X247404Y258253D01*
X248330Y259639D01*
X248641Y261204D01*
X249991Y262554D01*
X251143Y262840D01*
Y262840D01*
X263239D01*
Y272840D01*
Y281380D01*
X252133D01*
X251607Y282650D01*
X263130Y294173D01*
X264400Y293760D01*
Y293760D01*
X276400D01*
Y295206D01*
X306797D01*
X313713Y288290D01*
X315125Y287347D01*
X316791Y287015D01*
X323892D01*
Y282019D01*
X340052D01*
Y287015D01*
X342387D01*
Y282098D01*
X358547D01*
Y287094D01*
X360639D01*
X364310Y283423D01*
Y277980D01*
X376310D01*
Y289580D01*
X370467D01*
X365520Y294527D01*
X364108Y295470D01*
X362442Y295802D01*
X358547D01*
Y300798D01*
X342387D01*
Y295723D01*
X340052D01*
Y300719D01*
X323892D01*
Y295723D01*
X318594D01*
X311679Y302638D01*
X310266Y303582D01*
X308600Y303914D01*
X276400D01*
Y315520D01*
X277029Y316119D01*
X277029D01*
Y333120D01*
D02*
G37*
G36*
X235791Y318874D02*
X232006Y318376D01*
X228478Y316915D01*
X225449Y314591D01*
X223125Y311562D01*
X221664Y308034D01*
X221166Y304249D01*
X221664Y300464D01*
X223125Y296937D01*
X225449Y293908D01*
X228478Y291584D01*
X232006Y290123D01*
X235791Y289624D01*
X239576Y290123D01*
X243103Y291584D01*
X246132Y293908D01*
X248456Y296937D01*
X249917Y300464D01*
X250416Y304249D01*
X249917Y308034D01*
X248456Y311562D01*
X246132Y314591D01*
X243103Y316915D01*
X239576Y318376D01*
X235791Y318874D01*
D02*
G37*
G36*
X62048Y284517D02*
X49232D01*
X47889Y284250D01*
X46750Y283489D01*
X45989Y282351D01*
X45722Y281007D01*
Y275992D01*
X45989Y274649D01*
X46750Y273510D01*
X47889Y272749D01*
X49232Y272482D01*
X62048D01*
X63391Y272749D01*
X64530Y273510D01*
X65291Y274649D01*
X65558Y275992D01*
Y281007D01*
X65291Y282351D01*
X64530Y283489D01*
X63391Y284250D01*
X62048Y284517D01*
D02*
G37*
G36*
X31810Y295008D02*
X29859Y294620D01*
X28205Y293515D01*
X27100Y291861D01*
X26712Y289910D01*
X27100Y287959D01*
X27732Y287014D01*
Y284517D01*
X25732D01*
X24389Y284250D01*
X23250Y283489D01*
X22489Y282351D01*
X22222Y281007D01*
Y275992D01*
X22489Y274649D01*
X23250Y273510D01*
X24389Y272749D01*
X25732Y272482D01*
X38548D01*
X39891Y272749D01*
X41030Y273510D01*
X41791Y274649D01*
X42058Y275992D01*
Y281007D01*
X41791Y282351D01*
X41030Y283489D01*
X39891Y284250D01*
X38548Y284517D01*
X35888D01*
Y287014D01*
X36520Y287959D01*
X36908Y289910D01*
X36520Y291861D01*
X35415Y293515D01*
X33761Y294620D01*
X31810Y295008D01*
D02*
G37*
G36*
X113789Y318874D02*
X110004Y318376D01*
X106477Y316915D01*
X103448Y314591D01*
X101124Y311562D01*
X99663Y308034D01*
X99164Y304249D01*
X99663Y300464D01*
X100422Y298630D01*
X99905Y297733D01*
X99528Y297471D01*
X99271Y297383D01*
X98878Y297305D01*
X96324Y296247D01*
X95992Y296025D01*
X95633Y295848D01*
X93440Y294165D01*
X93176Y293864D01*
X92875Y293601D01*
X91192Y291407D01*
X91015Y291048D01*
X90793Y290716D01*
X89735Y288162D01*
X89657Y287769D01*
X89528Y287390D01*
X89167Y284649D01*
X89193Y284250D01*
X89167Y283851D01*
X89528Y281110D01*
X89657Y280731D01*
X89735Y280338D01*
X90793Y277784D01*
X91015Y277452D01*
X91192Y277093D01*
X92875Y274900D01*
X93176Y274636D01*
X93440Y274335D01*
X95633Y272652D01*
X95992Y272475D01*
X96324Y272253D01*
X98878Y271195D01*
X99271Y271117D01*
X99650Y270988D01*
X102391Y270627D01*
X102790Y270653D01*
X103189Y270627D01*
X105930Y270988D01*
X106309Y271117D01*
X106701Y271195D01*
X109256Y272253D01*
X109588Y272475D01*
X109947Y272652D01*
X112141Y274335D01*
X112404Y274636D01*
X112705Y274900D01*
X114388Y277093D01*
X114565Y277452D01*
X114787Y277784D01*
X115845Y280338D01*
X115923Y280731D01*
X116052Y281110D01*
X116413Y283851D01*
X116387Y284250D01*
X116413Y284649D01*
X116052Y287390D01*
X115923Y287769D01*
X115845Y288162D01*
X115564Y288842D01*
X116199Y289942D01*
X117575Y290123D01*
X121102Y291584D01*
X124131Y293908D01*
X126455Y296937D01*
X127916Y300464D01*
X128414Y304249D01*
X127916Y308034D01*
X126455Y311562D01*
X124131Y314591D01*
X121102Y316915D01*
X117575Y318376D01*
X113789Y318874D01*
D02*
G37*
G36*
X38548Y265518D02*
X25732D01*
X24389Y265251D01*
X23250Y264490D01*
X22741Y264190D01*
X20790Y264578D01*
X19410Y264303D01*
X18272Y265048D01*
X18140Y265247D01*
Y265490D01*
X6140D01*
Y253890D01*
X18140D01*
Y253890D01*
X19410Y254657D01*
X20790Y254382D01*
X22741Y254770D01*
X22973Y254925D01*
X23250Y254511D01*
X24389Y253750D01*
X25732Y253483D01*
X38548D01*
X39891Y253750D01*
X41030Y254511D01*
X41791Y255650D01*
X42058Y256993D01*
Y262008D01*
X41791Y263351D01*
X41030Y264490D01*
X39891Y265251D01*
X38548Y265518D01*
D02*
G37*
G36*
X62048D02*
X49232D01*
X47889Y265251D01*
X46750Y264490D01*
X45989Y263351D01*
X45722Y262008D01*
Y256993D01*
X45761Y256797D01*
Y246190D01*
X45994Y245019D01*
X46657Y244027D01*
X47649Y243364D01*
X48820Y243131D01*
X89730D01*
X90900Y243364D01*
X91893Y244027D01*
X92556Y245019D01*
X92789Y246190D01*
Y262170D01*
X92556Y263340D01*
X91893Y264333D01*
X90900Y264996D01*
X89730Y265229D01*
X81130D01*
Y265300D01*
X69130D01*
Y265229D01*
X63424D01*
X63391Y265251D01*
X62048Y265518D01*
D02*
G37*
G36*
X184300Y263580D02*
X172700D01*
Y251580D01*
X174316D01*
Y249850D01*
X174130Y249571D01*
X173742Y247620D01*
X174130Y245669D01*
X175235Y244015D01*
X176889Y242910D01*
X178840Y242522D01*
X180791Y242910D01*
X182445Y244015D01*
X183550Y245669D01*
X183938Y247620D01*
X183550Y249571D01*
X183056Y250310D01*
X183307Y251580D01*
X184300D01*
Y263580D01*
D02*
G37*
G36*
X257610Y242420D02*
X242610D01*
Y242370D01*
X228940D01*
Y241290D01*
X217820D01*
Y239897D01*
X216489Y239632D01*
X215375Y238888D01*
X214129Y238640D01*
X212475Y237535D01*
X211370Y235881D01*
X210982Y233930D01*
X211370Y231979D01*
X212475Y230325D01*
X214129Y229220D01*
X216080Y228832D01*
X218031Y229220D01*
X218734Y229690D01*
X228940D01*
Y228370D01*
X243940D01*
Y228420D01*
X257610D01*
Y242420D01*
D02*
G37*
G36*
X147750Y280560D02*
X133750D01*
Y265560D01*
X134170D01*
Y251400D01*
X136909D01*
X137092Y250240D01*
X137402Y248679D01*
X138286Y247356D01*
X147436Y238206D01*
X147436Y238206D01*
X148759Y237322D01*
X150320Y237012D01*
X158991D01*
X162872Y233131D01*
Y232716D01*
X162240Y231771D01*
X161852Y229820D01*
X162240Y227869D01*
X162980Y226762D01*
X163345Y226215D01*
X162539Y225309D01*
X162050Y225636D01*
X161772Y225691D01*
X160921Y226260D01*
X158970Y226648D01*
X157019Y226260D01*
X156486Y225904D01*
X153010D01*
Y226020D01*
X138406D01*
X138030Y227910D01*
X136925Y229564D01*
X136755Y229678D01*
Y230315D01*
X137860Y231969D01*
X138248Y233920D01*
X137860Y235871D01*
X136755Y237525D01*
X135101Y238630D01*
X133150Y239018D01*
X131290Y238648D01*
X131128Y238657D01*
X130020Y239073D01*
Y240650D01*
X118020D01*
Y229050D01*
X118020D01*
X117990Y228850D01*
X117990Y228850D01*
Y228302D01*
X117092Y227404D01*
X94673D01*
X82099Y239979D01*
X80686Y240922D01*
X79020Y241254D01*
X39610D01*
Y242900D01*
X29595D01*
X28789Y243882D01*
X28958Y244730D01*
X28570Y246681D01*
X27465Y248335D01*
X25811Y249440D01*
X23860Y249828D01*
X21909Y249440D01*
X20255Y248335D01*
X19150Y246681D01*
X18762Y244730D01*
X18931Y243882D01*
X18125Y242900D01*
X17850D01*
Y230900D01*
X19777D01*
Y230507D01*
X20068Y229044D01*
X20896Y227803D01*
X24900Y223800D01*
Y217111D01*
X29816D01*
Y212189D01*
X24900D01*
Y200093D01*
X24900D01*
X24617Y198940D01*
X24430Y198661D01*
X24042Y196710D01*
X24430Y194759D01*
X25535Y193105D01*
X27189Y192000D01*
X29140Y191612D01*
X31091Y192000D01*
X32745Y193105D01*
X33850Y194759D01*
X34238Y196710D01*
X33850Y198661D01*
X33742Y198823D01*
X34420Y200093D01*
X42275D01*
X43306Y198823D01*
X43271Y198650D01*
Y170510D01*
X43274Y170495D01*
X43261Y170430D01*
X43341Y170028D01*
X43371Y169619D01*
X43380Y169600D01*
Y167489D01*
X45657D01*
X45940Y167395D01*
X46132Y167409D01*
X46320Y167371D01*
X75110D01*
X76280Y167604D01*
X77273Y168267D01*
X77936Y169259D01*
X78169Y170430D01*
Y172116D01*
X86507D01*
Y153619D01*
X86782Y152235D01*
Y141310D01*
X78872Y133400D01*
X77699Y133886D01*
Y160980D01*
X77466Y162150D01*
X76803Y163143D01*
X75810Y163806D01*
X74640Y164039D01*
X71580D01*
Y164091D01*
X43380D01*
Y163319D01*
X43117Y163143D01*
X42454Y162150D01*
X42221Y160980D01*
Y140397D01*
X42132Y139950D01*
Y133950D01*
X42201Y133603D01*
Y132060D01*
X42434Y130890D01*
X43097Y129897D01*
X44089Y129234D01*
X44510Y129150D01*
X44703Y128785D01*
X44030Y127558D01*
X35141D01*
X34240Y128450D01*
X34240Y128828D01*
Y145450D01*
X23240D01*
Y141028D01*
X18689D01*
X14878Y144839D01*
Y221818D01*
X15160Y222239D01*
X15548Y224190D01*
X15160Y226141D01*
X14055Y227795D01*
X12401Y228900D01*
X10450Y229288D01*
X8499Y228900D01*
X6845Y227795D01*
X5740Y226141D01*
X5352Y224190D01*
X5740Y222239D01*
X6722Y220770D01*
Y143150D01*
X6722Y143150D01*
X7032Y141589D01*
X7916Y140266D01*
X14116Y134066D01*
X14116Y134066D01*
X15439Y133182D01*
X17000Y132872D01*
X23240D01*
Y128828D01*
X23240Y128450D01*
X22339Y127558D01*
X15620D01*
X15620Y127558D01*
X14059Y127248D01*
X12736Y126364D01*
X12736Y126364D01*
X12672Y126300D01*
X6440D01*
Y114700D01*
Y104540D01*
X8362D01*
Y99090D01*
X6310D01*
Y87490D01*
X18310D01*
Y99090D01*
X16518D01*
Y104540D01*
X18440D01*
Y106262D01*
X23269D01*
X23559Y104804D01*
X24775Y102985D01*
X26594Y101769D01*
X28740Y101342D01*
X30886Y101769D01*
X32705Y102985D01*
X33921Y104804D01*
X34348Y106950D01*
Y112950D01*
X33921Y115096D01*
X32705Y116915D01*
X30886Y118131D01*
X30882Y118132D01*
X31007Y119402D01*
X45473D01*
X45598Y118132D01*
X45594Y118131D01*
X43775Y116915D01*
X42559Y115096D01*
X42132Y112950D01*
Y98110D01*
X39480D01*
Y83635D01*
X39480Y83110D01*
X39480Y83110D01*
X39590Y82410D01*
X39590D01*
Y67410D01*
X53590D01*
Y69232D01*
X54950D01*
Y67270D01*
X66950D01*
Y82270D01*
X54950D01*
Y80448D01*
X53590D01*
Y81886D01*
X53590Y82410D01*
X53590Y82410D01*
X53480Y83110D01*
X53480D01*
Y98110D01*
X53348D01*
Y112950D01*
X52921Y115096D01*
X51705Y116915D01*
X49886Y118131D01*
X49882Y118132D01*
X50007Y119402D01*
X74720D01*
X74720Y119402D01*
X76281Y119712D01*
X77604Y120596D01*
X93744Y136737D01*
X93744Y136737D01*
X94628Y138060D01*
X94939Y139621D01*
X94939Y139621D01*
Y141725D01*
X96112Y142211D01*
X106802Y131522D01*
X108214Y130578D01*
X109880Y130246D01*
X138061D01*
Y126190D01*
X138294Y125020D01*
X138957Y124027D01*
X139950Y123364D01*
X141120Y123131D01*
X157760D01*
X158931Y123364D01*
X159923Y124027D01*
X160074Y124254D01*
X161664Y124425D01*
X171063Y115026D01*
X172303Y114198D01*
X173767Y113907D01*
X222693D01*
X224157Y114198D01*
X225397Y115026D01*
X238914Y128543D01*
X239742Y129783D01*
X240033Y131247D01*
Y155746D01*
X246627Y162340D01*
X247614Y161531D01*
X247360Y161151D01*
X246972Y159200D01*
X247360Y157249D01*
X247727Y156700D01*
X247360Y156151D01*
X246972Y154200D01*
X247360Y152249D01*
X248465Y150595D01*
X250119Y149490D01*
X252070Y149102D01*
X254021Y149490D01*
X255675Y150595D01*
X255849Y150857D01*
X258150D01*
X258150Y150857D01*
X265419D01*
Y149309D01*
X290921D01*
X290921Y149309D01*
X292173Y149266D01*
X293700Y148962D01*
X295651Y149350D01*
X297305Y150455D01*
X298410Y152109D01*
X298798Y154060D01*
X298410Y156011D01*
X298043Y156560D01*
X298410Y157109D01*
X298798Y159060D01*
X298410Y161011D01*
X297305Y162665D01*
X295651Y163770D01*
X293700Y164158D01*
X292173Y163854D01*
X290921Y163811D01*
X290921Y163811D01*
X290921Y163811D01*
X265419D01*
Y162543D01*
X259824D01*
X259823Y162544D01*
X255849D01*
X255675Y162805D01*
X254021Y163910D01*
X252070Y164298D01*
X250119Y163910D01*
X249739Y163656D01*
X248930Y164643D01*
X251544Y167257D01*
X265029D01*
Y165849D01*
X290531D01*
X290531Y165849D01*
X291801Y165858D01*
X293590Y165502D01*
X295541Y165890D01*
X297195Y166995D01*
X298300Y168649D01*
X298688Y170600D01*
X298300Y172551D01*
X297933Y173100D01*
X298300Y173649D01*
X298688Y175600D01*
X298300Y177551D01*
X297195Y179205D01*
X295541Y180310D01*
X293590Y180698D01*
X291801Y180342D01*
X290531Y180351D01*
X290531Y180351D01*
X290531Y180351D01*
X265029D01*
Y178944D01*
X248287D01*
X246824Y178652D01*
X245583Y177824D01*
X229466Y161707D01*
X228638Y160467D01*
X228347Y159003D01*
Y155349D01*
X227077Y154670D01*
X226012Y155381D01*
X224061Y155769D01*
X223753Y155708D01*
X220817Y158643D01*
X221770Y160069D01*
X222158Y162020D01*
X221770Y163971D01*
X220665Y165625D01*
X219011Y166730D01*
X217060Y167118D01*
X215430Y166794D01*
X214466Y167335D01*
X214160Y167623D01*
Y171620D01*
X202560D01*
Y159798D01*
X195865D01*
X195865Y159798D01*
X195528D01*
X195480Y160041D01*
X194375Y161695D01*
X192721Y162800D01*
X190770Y163188D01*
X188819Y162800D01*
X187165Y161695D01*
X186060Y160041D01*
X185768Y158570D01*
X184482Y158060D01*
X183858Y158684D01*
X182618Y159512D01*
X181155Y159803D01*
X179437D01*
X179370Y160141D01*
X178265Y161795D01*
X176611Y162900D01*
X174660Y163288D01*
X172709Y162900D01*
X171055Y161795D01*
X169950Y160141D01*
X169562Y158190D01*
X169619Y157902D01*
X168449Y157277D01*
X166737Y158989D01*
X165497Y159817D01*
X164033Y160108D01*
X163240D01*
X163180Y160411D01*
X162075Y162065D01*
X160421Y163170D01*
X158470Y163558D01*
X156519Y163170D01*
X154865Y162065D01*
X153760Y160411D01*
X153372Y158460D01*
X153760Y156509D01*
X154705Y155095D01*
X154799Y154265D01*
X154705Y153435D01*
X153760Y152021D01*
X153372Y150070D01*
X153760Y148119D01*
X154402Y147159D01*
X153723Y145889D01*
X141130D01*
X139959Y145656D01*
X138967Y144993D01*
X138304Y144001D01*
X138071Y142830D01*
Y138954D01*
X111683D01*
X95214Y155423D01*
Y173573D01*
X95900Y174599D01*
X96087Y175539D01*
X103854Y183306D01*
X118020D01*
Y181860D01*
X123863D01*
X126482Y179241D01*
X127895Y178297D01*
X129561Y177966D01*
X130748D01*
X131699Y177330D01*
X133650Y176942D01*
X135601Y177330D01*
X137255Y178435D01*
X138360Y180089D01*
X138748Y182040D01*
X138360Y183991D01*
X137255Y185645D01*
X135601Y186750D01*
X133650Y187138D01*
X131699Y186750D01*
X131584Y186673D01*
X131364D01*
X130020Y188017D01*
Y193460D01*
X118020D01*
Y192014D01*
X102051D01*
X100384Y191682D01*
X98972Y190739D01*
X89557Y181323D01*
X89239Y181260D01*
X88586Y180824D01*
X78169D01*
Y198650D01*
X77936Y199820D01*
X77273Y200813D01*
X76280Y201476D01*
X75110Y201709D01*
X49995D01*
X49425Y202979D01*
X50240Y204199D01*
X50628Y206150D01*
X50240Y208101D01*
X49135Y209755D01*
X47481Y210860D01*
X45530Y211248D01*
X44710Y211085D01*
X43440Y212127D01*
Y212189D01*
X38524D01*
Y217111D01*
X43440D01*
Y218531D01*
X44710Y219210D01*
X45189Y218890D01*
X47140Y218502D01*
X49091Y218890D01*
X50745Y219995D01*
X51850Y221649D01*
X52238Y223600D01*
X51850Y225551D01*
X50745Y227205D01*
X49091Y228310D01*
X47140Y228698D01*
X45189Y228310D01*
X44710Y227990D01*
X43440Y228669D01*
Y229207D01*
X38524D01*
Y230900D01*
X39610D01*
Y232546D01*
X77217D01*
X89791Y219972D01*
X91204Y219028D01*
X92870Y218696D01*
X117990D01*
Y217250D01*
X129990D01*
Y220760D01*
X131260Y221322D01*
X131369Y221249D01*
X133320Y220861D01*
X135271Y221249D01*
X136691Y222198D01*
X137540Y221928D01*
X137961Y221636D01*
Y218240D01*
X137951Y218190D01*
Y214870D01*
X138010Y214575D01*
Y212020D01*
X139960D01*
X141010Y211811D01*
X151801D01*
Y210050D01*
X151850Y209805D01*
Y207000D01*
X154816D01*
X154860Y206991D01*
X160880D01*
X160924Y207000D01*
X163850D01*
Y209604D01*
X163939Y210050D01*
Y220900D01*
X164068Y221550D01*
X163939Y222199D01*
Y222810D01*
X163706Y223981D01*
X163043Y224973D01*
X163849Y225879D01*
X164353Y225542D01*
X164999Y225110D01*
X166950Y224722D01*
X168901Y225110D01*
X170061Y225886D01*
X171355Y226235D01*
X173009Y225130D01*
X174960Y224742D01*
X176911Y225130D01*
X178565Y226235D01*
X179670Y227889D01*
X180058Y229840D01*
X179670Y231791D01*
X179314Y232324D01*
Y235810D01*
X178982Y237476D01*
X178039Y238888D01*
X167348Y249578D01*
X165936Y250522D01*
X164270Y250854D01*
X160953D01*
X158604Y253203D01*
Y267960D01*
X158272Y269626D01*
X157329Y271038D01*
X152228Y276138D01*
X150816Y277082D01*
X149150Y277414D01*
X147750D01*
Y280560D01*
D02*
G37*
G36*
X198590Y227308D02*
X196639Y226920D01*
X194985Y225815D01*
X193880Y224161D01*
X193492Y222210D01*
X193880Y220259D01*
X194970Y218628D01*
X194105Y217795D01*
X192451Y218900D01*
X191626Y219064D01*
X190536Y219792D01*
X189480Y220002D01*
Y221800D01*
X177880D01*
Y209800D01*
X176950Y208980D01*
X175650D01*
Y196980D01*
X175721D01*
Y189142D01*
X175681Y188941D01*
X175681Y188940D01*
X175681Y188940D01*
Y183980D01*
X175914Y182810D01*
X176577Y181817D01*
X177570Y181154D01*
X178740Y180921D01*
X191460D01*
X192631Y181154D01*
X193623Y181817D01*
X194286Y182810D01*
X194519Y183980D01*
Y184888D01*
X194748Y186040D01*
X194519Y187192D01*
Y201873D01*
X194538Y201970D01*
X194519Y202067D01*
Y206150D01*
X194286Y207320D01*
X193623Y208313D01*
X193306Y208524D01*
X193290Y210041D01*
X194105Y210585D01*
X195210Y212239D01*
X195598Y214190D01*
X195210Y216141D01*
X194120Y217772D01*
X194985Y218605D01*
X196639Y217500D01*
X198590Y217112D01*
X199820Y217357D01*
X201090Y216620D01*
Y215400D01*
X213090D01*
Y227000D01*
X201090D01*
X201090Y227000D01*
X199844Y227059D01*
X198590Y227308D01*
D02*
G37*
G36*
X229510Y209860D02*
X217510D01*
Y204417D01*
X215614Y202521D01*
X215330Y202578D01*
X213379Y202190D01*
X211725Y201085D01*
X210620Y199431D01*
X210232Y197480D01*
X210514Y196064D01*
X210077Y194682D01*
X208836Y193854D01*
X204026Y189044D01*
X203198Y187803D01*
X202907Y186340D01*
Y185258D01*
X202020Y183931D01*
X201632Y181980D01*
X202020Y180029D01*
X203125Y178375D01*
X204779Y177270D01*
X206730Y176882D01*
X208681Y177270D01*
X210069Y178198D01*
X211554Y178262D01*
X211725Y178005D01*
X213379Y176900D01*
X215330Y176512D01*
X216260Y176697D01*
X217530Y175840D01*
Y175840D01*
X229130D01*
Y187327D01*
X232910D01*
X234373Y187618D01*
X235614Y188446D01*
X238706Y191539D01*
X240271Y191850D01*
X241925Y192955D01*
X243030Y194609D01*
X243418Y196560D01*
X243030Y198511D01*
X241925Y200165D01*
X240271Y201270D01*
X238320Y201658D01*
X236369Y201270D01*
X234715Y200165D01*
X233610Y198511D01*
X233299Y196946D01*
X231326Y194973D01*
X222040D01*
X221554Y196147D01*
X223667Y198260D01*
X229510D01*
Y209860D01*
D02*
G37*
G36*
X167060Y187890D02*
X155060D01*
Y187840D01*
X144060D01*
Y176240D01*
X152756D01*
X153601Y174970D01*
X153332Y173620D01*
X153720Y171669D01*
X154825Y170015D01*
X156479Y168910D01*
X158430Y168522D01*
X160381Y168910D01*
X160914Y169266D01*
X173665D01*
X173981Y169329D01*
X174720Y169182D01*
X176671Y169570D01*
X177204Y169926D01*
X187773D01*
X189249Y168940D01*
X191200Y168552D01*
X193151Y168940D01*
X194805Y170045D01*
X195910Y171699D01*
X196298Y173650D01*
X195910Y175601D01*
X194805Y177255D01*
X193151Y178360D01*
X191200Y178748D01*
X190400Y178589D01*
X190175Y178634D01*
X177204D01*
X176671Y178990D01*
X174720Y179378D01*
X172769Y178990D01*
X171248Y177974D01*
X167060D01*
Y187890D01*
D02*
G37*
G36*
X133320Y175168D02*
X131369Y174780D01*
X130836Y174424D01*
X126180D01*
X124514Y174092D01*
X123102Y173148D01*
X123013Y173060D01*
X117500D01*
Y161460D01*
X129500D01*
Y165716D01*
X130836D01*
X131369Y165360D01*
X133320Y164972D01*
X135271Y165360D01*
X136925Y166465D01*
X138030Y168119D01*
X138418Y170070D01*
X138030Y172021D01*
X136925Y173675D01*
X135271Y174780D01*
X133320Y175168D01*
D02*
G37*
G36*
X251800Y146788D02*
X249849Y146400D01*
X248195Y145295D01*
X247090Y143641D01*
X246702Y141690D01*
X247090Y139739D01*
X247457Y139190D01*
X247090Y138641D01*
X246702Y136690D01*
X247090Y134739D01*
X248195Y133085D01*
X249849Y131980D01*
X251800Y131592D01*
X253751Y131980D01*
X255405Y133085D01*
X255579Y133347D01*
X257445D01*
X257445Y133347D01*
X265619D01*
Y131599D01*
X291121D01*
X291121Y131599D01*
X292372Y131552D01*
X293880Y131252D01*
X295831Y131640D01*
X297485Y132745D01*
X298590Y134399D01*
X298978Y136350D01*
X298590Y138301D01*
X298223Y138850D01*
X298590Y139399D01*
X298978Y141350D01*
X298590Y143301D01*
X297485Y144955D01*
X295831Y146060D01*
X293880Y146448D01*
X292372Y146148D01*
X291121Y146101D01*
X291121Y146101D01*
X291121Y146101D01*
X265619D01*
Y145034D01*
X259119D01*
X259118Y145034D01*
X255579D01*
X255405Y145295D01*
X253751Y146400D01*
X251800Y146788D01*
D02*
G37*
G36*
X247189Y125874D02*
X246790Y125848D01*
X246391Y125874D01*
X243649Y125513D01*
X243271Y125385D01*
X242878Y125307D01*
X240324Y124249D01*
X239991Y124026D01*
X239632Y123849D01*
X237439Y122166D01*
X237175Y121865D01*
X236874Y121601D01*
X235191Y119408D01*
X235014Y119049D01*
X234792Y118716D01*
X233733Y116162D01*
X233655Y115769D01*
X233527Y115391D01*
X233166Y112649D01*
X233192Y112250D01*
X233166Y111851D01*
X233527Y109109D01*
X233655Y108730D01*
X233733Y108338D01*
X234015Y107658D01*
X233380Y106558D01*
X232006Y106377D01*
X228478Y104916D01*
X225449Y102592D01*
X223125Y99563D01*
X221664Y96036D01*
X221166Y92251D01*
X221664Y88465D01*
X223125Y84938D01*
X225449Y81909D01*
X228478Y79585D01*
X232006Y78124D01*
X235791Y77626D01*
X239576Y78124D01*
X243103Y79585D01*
X246132Y81909D01*
X248456Y84938D01*
X249917Y88465D01*
X250416Y92251D01*
X249917Y96036D01*
X249158Y97869D01*
X249676Y98765D01*
X250053Y99028D01*
X250310Y99115D01*
X250702Y99193D01*
X253256Y100251D01*
X253589Y100474D01*
X253948Y100651D01*
X256141Y102334D01*
X256405Y102635D01*
X256706Y102899D01*
X258389Y105092D01*
X258566Y105451D01*
X258789Y105784D01*
X259847Y108338D01*
X259925Y108730D01*
X260053Y109109D01*
X260414Y111851D01*
X260388Y112250D01*
X260414Y112649D01*
X260053Y115391D01*
X259925Y115769D01*
X259847Y116162D01*
X258789Y118716D01*
X258566Y119049D01*
X258389Y119408D01*
X256706Y121601D01*
X256405Y121865D01*
X256141Y122166D01*
X253948Y123849D01*
X253589Y124026D01*
X253256Y124249D01*
X250702Y125307D01*
X250310Y125385D01*
X249931Y125513D01*
X247189Y125874D01*
D02*
G37*
G36*
X286190Y119838D02*
X284239Y119450D01*
X282585Y118345D01*
X281480Y116691D01*
X281092Y114740D01*
X281480Y112789D01*
X282585Y111135D01*
X284239Y110030D01*
X286190Y109642D01*
X288141Y110030D01*
X289468Y110917D01*
X296786D01*
X301106Y106596D01*
Y103612D01*
X300660D01*
Y92024D01*
X304147D01*
X304634Y90851D01*
X302606Y88823D01*
X290744D01*
X284573Y94994D01*
Y100527D01*
X285490Y101899D01*
X285878Y103850D01*
X285490Y105801D01*
X284385Y107455D01*
X282731Y108560D01*
X280780Y108948D01*
X278829Y108560D01*
X277175Y107455D01*
X276070Y105801D01*
X275682Y103850D01*
X276070Y101899D01*
X276927Y100617D01*
Y93410D01*
X277218Y91947D01*
X278046Y90706D01*
X286456Y82296D01*
X287697Y81468D01*
X289160Y81177D01*
X304190D01*
X305653Y81468D01*
X306894Y82296D01*
X312634Y88036D01*
X313462Y89277D01*
X313753Y90740D01*
Y92024D01*
X315419D01*
X315691Y90654D01*
X316686Y89166D01*
X320296Y85556D01*
X321784Y84561D01*
X323540Y84212D01*
X327290D01*
Y83000D01*
X339290D01*
Y84212D01*
X340702D01*
X342410Y83872D01*
X344361Y84260D01*
X346015Y85365D01*
X347120Y87019D01*
X347508Y88970D01*
X347120Y90921D01*
X346015Y92575D01*
X344361Y93680D01*
X342410Y94068D01*
X340560Y93700D01*
X340404Y93714D01*
X339290Y94404D01*
Y94600D01*
X327290D01*
Y93388D01*
X325440D01*
X324518Y94311D01*
Y97818D01*
X324200Y99417D01*
Y103612D01*
X308753D01*
Y108180D01*
X308462Y109643D01*
X307633Y110884D01*
X301074Y117444D01*
X299833Y118272D01*
X298370Y118563D01*
X289468D01*
X288141Y119450D01*
X286190Y119838D01*
D02*
G37*
G36*
X113789Y106876D02*
X110004Y106377D01*
X106477Y104916D01*
X103448Y102592D01*
X101124Y99563D01*
X99663Y96036D01*
X99164Y92251D01*
X99663Y88465D01*
X101124Y84938D01*
X103448Y81909D01*
X106477Y79585D01*
X110004Y78124D01*
X113789Y77626D01*
X117575Y78124D01*
X121102Y79585D01*
X124131Y81909D01*
X126455Y84938D01*
X127916Y88465D01*
X128414Y92251D01*
X127916Y96036D01*
X126455Y99563D01*
X124131Y102592D01*
X121102Y104916D01*
X117575Y106377D01*
X113789Y106876D01*
D02*
G37*
G36*
X324200Y74636D02*
X305660D01*
Y63048D01*
X324200D01*
Y74636D01*
D02*
G37*
G36*
X90230Y96199D02*
X73140D01*
X71969Y95966D01*
X70977Y95303D01*
X70314Y94311D01*
X70081Y93140D01*
Y63700D01*
X70314Y62530D01*
X70977Y61537D01*
X71969Y60874D01*
X73140Y60641D01*
X90230D01*
X91400Y60874D01*
X92393Y61537D01*
X93056Y62530D01*
X93289Y63700D01*
Y93140D01*
X93056Y94311D01*
X92393Y95303D01*
X91400Y95966D01*
X90230Y96199D01*
D02*
G37*
G36*
X370000Y43112D02*
X366606Y42665D01*
X363444Y41356D01*
X360728Y39272D01*
X358644Y36556D01*
X357335Y33394D01*
X356888Y30000D01*
X357335Y26606D01*
X358644Y23444D01*
X360728Y20728D01*
X363444Y18644D01*
X366606Y17335D01*
X370000Y16888D01*
X373394Y17335D01*
X376556Y18644D01*
X379272Y20728D01*
X381356Y23444D01*
X382665Y26606D01*
X383112Y30000D01*
X382665Y33394D01*
X381356Y36556D01*
X379272Y39272D01*
X376556Y41356D01*
X373394Y42665D01*
X370000Y43112D01*
D02*
G37*
G36*
X30000D02*
X26606Y42665D01*
X23444Y41356D01*
X20728Y39272D01*
X18644Y36556D01*
X17335Y33394D01*
X16888Y30000D01*
X17335Y26606D01*
X18644Y23444D01*
X20728Y20728D01*
X23444Y18644D01*
X26606Y17335D01*
X30000Y16888D01*
X33394Y17335D01*
X36556Y18644D01*
X39272Y20728D01*
X41356Y23444D01*
X42665Y26606D01*
X43112Y30000D01*
X42665Y33394D01*
X41356Y36556D01*
X39272Y39272D01*
X36556Y41356D01*
X33394Y42665D01*
X30000Y43112D01*
D02*
G37*
%LPD*%
G36*
X168580Y362380D02*
X168570D01*
Y355600D01*
X135900D01*
Y373630D01*
X168580D01*
Y362380D01*
D02*
G37*
G36*
X328820Y218151D02*
X317851D01*
Y217824D01*
X311966D01*
X303700Y226090D01*
Y246310D01*
X328820D01*
Y218151D01*
D02*
G37*
G36*
X105531Y294479D02*
X108085Y293421D01*
X110279Y291738D01*
X111961Y289545D01*
X113019Y286991D01*
X113380Y284250D01*
X113019Y281509D01*
X111961Y278955D01*
X110279Y276761D01*
X108085Y275079D01*
X105531Y274021D01*
X102790Y273660D01*
X100049Y274021D01*
X97495Y275079D01*
X95302Y276761D01*
X93619Y278955D01*
X92561Y281509D01*
X92200Y284250D01*
X92561Y286991D01*
X93619Y289545D01*
X95302Y291738D01*
X97495Y293421D01*
X100049Y294479D01*
X102790Y294840D01*
X105531Y294479D01*
D02*
G37*
G36*
X89730Y246190D02*
X48820D01*
Y262170D01*
X89730D01*
Y246190D01*
D02*
G37*
G36*
X160880Y210050D02*
X154860D01*
Y214870D01*
X141010D01*
Y218190D01*
X141020Y218230D01*
Y222810D01*
X160880D01*
Y210050D01*
D02*
G37*
G36*
X75110Y170430D02*
X46320D01*
X46330Y170510D01*
Y198650D01*
X75110D01*
Y170430D01*
D02*
G37*
G36*
X215428Y147136D02*
X215816Y145185D01*
X216921Y143531D01*
X218575Y142426D01*
X220526Y142038D01*
X222477Y142426D01*
X224130Y143531D01*
X225236Y145185D01*
X225364Y145832D01*
X226012Y145961D01*
X227077Y146673D01*
X228347Y145994D01*
Y134504D01*
X219436Y125593D01*
X177024D01*
X171563Y131054D01*
Y144438D01*
X172488Y144933D01*
X172833Y144995D01*
X174660Y144632D01*
X175555Y144810D01*
X176537Y144004D01*
Y138067D01*
X176828Y136603D01*
X177656Y135363D01*
X182713Y130306D01*
X183953Y129478D01*
X185417Y129187D01*
X206381D01*
X206555Y128925D01*
X208209Y127820D01*
X210160Y127432D01*
X212111Y127820D01*
X213765Y128925D01*
X214870Y130579D01*
X215258Y132530D01*
X214870Y134481D01*
X214503Y135030D01*
X214870Y135579D01*
X215258Y137530D01*
X214870Y139481D01*
X213765Y141135D01*
X212111Y142240D01*
X210160Y142628D01*
X208209Y142240D01*
X206555Y141135D01*
X206381Y140873D01*
X188674D01*
X188223Y141324D01*
Y144130D01*
X189494Y144986D01*
X190820Y144722D01*
X192771Y145110D01*
X194425Y146215D01*
X195530Y147869D01*
X195578Y148112D01*
X214524D01*
X215428Y147136D01*
D02*
G37*
G36*
X74640Y132060D02*
X45260D01*
Y133820D01*
X45280D01*
Y160980D01*
X74640D01*
Y132060D01*
D02*
G37*
G36*
X157760Y126190D02*
X141120D01*
Y134700D01*
X141130Y134740D01*
Y142830D01*
X157760D01*
Y126190D01*
D02*
G37*
G36*
X191460Y183980D02*
X178740D01*
Y188940D01*
X178780Y188980D01*
Y206150D01*
X191460D01*
Y183980D01*
D02*
G37*
G36*
X249531Y122481D02*
X252086Y121423D01*
X254279Y119739D01*
X255963Y117546D01*
X257021Y114991D01*
X257382Y112250D01*
X257021Y109509D01*
X255963Y106954D01*
X254279Y104761D01*
X252086Y103077D01*
X249531Y102019D01*
X246790Y101658D01*
X244049Y102019D01*
X241494Y103077D01*
X239301Y104761D01*
X237617Y106954D01*
X236559Y109509D01*
X236198Y112250D01*
X236559Y114991D01*
X237617Y117546D01*
X239301Y119739D01*
X241494Y121423D01*
X244049Y122481D01*
X246790Y122842D01*
X249531Y122481D01*
D02*
G37*
G36*
X90230Y63700D02*
X73140D01*
Y93140D01*
X90230D01*
Y63700D01*
D02*
G37*
D22*
X23650Y236900D02*
X23860Y237110D01*
X23600Y236850D02*
X23650Y236900D01*
X280110Y215260D02*
X288270D01*
X272140Y223230D02*
X280110Y215260D01*
X272140Y223230D02*
Y265041D01*
X223100Y265943D02*
X224217Y267060D01*
X309660Y214000D02*
X325100D01*
X293220Y230440D02*
X309660Y214000D01*
X289700Y230440D02*
X293220D01*
X285152Y154540D02*
X291571D01*
X284421Y153809D02*
X285152Y154540D01*
X285152Y158580D02*
X291571D01*
X284421Y159311D02*
X285152Y158580D01*
X337351Y204000D02*
X337390Y203961D01*
X381050Y211084D02*
Y211760D01*
X337351Y208001D02*
X337390Y208041D01*
X358139D01*
X358170Y208010D01*
X377979D01*
X379884Y209915D01*
Y209918D01*
X381050Y211084D01*
X337351Y204000D02*
X356466D01*
X356497Y203970D01*
X379652D01*
X382741Y207059D01*
X382743D01*
X383909Y208225D01*
X384585D01*
X355317Y190237D02*
X364244D01*
X349514Y196039D02*
X355317Y190237D01*
X337390Y196039D02*
X349514D01*
X353510Y220920D02*
Y242810D01*
X348590Y216000D02*
X353510Y220920D01*
X337351Y216000D02*
X348590D01*
X371700Y191979D02*
X378630D01*
X370027Y196019D02*
X378630D01*
Y191979D02*
X378632Y191978D01*
X381992D01*
X382470Y191499D01*
X285352Y140870D02*
X291751D01*
X284621Y141601D02*
X285352Y140870D01*
X381992Y196021D02*
X382470Y196499D01*
X378632Y196021D02*
X381992D01*
X378630Y196019D02*
X378632Y196021D01*
X285352Y136830D02*
X291751D01*
X293402Y136828D02*
X293880Y136350D01*
X291753Y136828D02*
X293402D01*
X291751Y136830D02*
X291753Y136828D01*
X284621Y136099D02*
X285352Y136830D01*
X364244Y190237D02*
X370027Y196019D01*
X353643Y186197D02*
X365918D01*
X371700Y191979D01*
X347841Y191999D02*
X353643Y186197D01*
X337351Y196000D02*
X337390Y196039D01*
X337351Y191999D02*
X347841D01*
X204890Y277580D02*
Y286550D01*
Y277580D02*
X205410Y277060D01*
X205421D01*
X223100Y263120D02*
Y265943D01*
Y263120D02*
X233060Y253160D01*
X272140Y265041D02*
X274209Y267110D01*
X267430Y212170D02*
X272100Y207500D01*
X267430Y212170D02*
Y246580D01*
X260850Y253160D02*
X267430Y246580D01*
X233060Y253160D02*
X260850D01*
X222439Y267060D02*
X224217D01*
X222490Y283360D02*
X234080D01*
X222490Y277111D02*
Y283360D01*
X23860Y237110D02*
Y244730D01*
X320770Y172110D02*
X325100Y176440D01*
Y181999D01*
X39170Y223159D02*
X39611Y223600D01*
X47140D01*
X306310Y126330D02*
Y182740D01*
X306060Y126080D02*
X306310Y126330D01*
Y182740D02*
X313570Y190000D01*
X325100D01*
X29140Y196710D02*
X29155Y196725D01*
Y206126D01*
X29170Y206141D01*
X313080Y180440D02*
X318601Y185961D01*
X325061D01*
X325100Y186000D01*
X313080Y117230D02*
Y180440D01*
X304930Y97818D02*
Y108180D01*
X270779Y310099D02*
Y324620D01*
X232910Y191150D02*
X238320Y196560D01*
X211540Y191150D02*
X232910D01*
X206730Y186340D02*
X211540Y191150D01*
X206730Y181980D02*
Y186340D01*
X249140Y267110D02*
X257191D01*
X243620Y261590D02*
X249140Y267110D01*
X207310Y253240D02*
X213660Y259590D01*
X195300Y253240D02*
X207310D01*
X222439Y277060D02*
X222490Y277111D01*
X234080Y283360D02*
X235370Y282070D01*
X190650Y248590D02*
X195300Y253240D01*
X190650Y237850D02*
Y248590D01*
X194490Y260960D02*
X202120D01*
X193520Y261930D02*
X194490Y260960D01*
X206070Y264300D02*
Y266411D01*
X203208Y261438D02*
X206070Y264300D01*
X202598Y261438D02*
X203208D01*
X205421Y267060D02*
X206070Y266411D01*
X202120Y260960D02*
X202598Y261438D01*
X39179Y206150D02*
X45530D01*
X39170Y206141D02*
X39179Y206150D01*
X23600Y230507D02*
Y236850D01*
Y230507D02*
X29170Y224937D01*
Y223159D02*
Y224937D01*
X270400Y309720D02*
X270779Y310099D01*
X298370Y114740D02*
X304930Y108180D01*
X286190Y114740D02*
X298370D01*
X351640Y244680D02*
X353510Y242810D01*
X280750Y93410D02*
Y103820D01*
X280780Y103850D01*
X289160Y85000D02*
X304190D01*
X280750Y93410D02*
X289160Y85000D01*
X304190D02*
X309930Y90740D01*
Y97818D01*
X271369Y136849D02*
X272119Y136099D01*
X267451Y136849D02*
X271369D01*
X267130Y137170D02*
X267451Y136849D01*
X271728Y141210D02*
X272119Y141601D01*
X259118Y141210D02*
X271728D01*
X257445Y137170D02*
X267130D01*
X257445Y137170D02*
X257445Y137170D01*
X253929Y137170D02*
X257445D01*
X253927Y137168D02*
X253929Y137170D01*
X252278Y137168D02*
X253927D01*
X251800Y136690D02*
X252278Y137168D01*
X259118Y141210D02*
X259118Y141210D01*
X253929Y141210D02*
X259118D01*
X253927Y141212D02*
X253929Y141210D01*
X252278Y141212D02*
X253927D01*
X251800Y141690D02*
X252278Y141212D01*
X223382Y150671D02*
X224061D01*
X220526Y147136D02*
Y147814D01*
X216405Y151935D02*
X220526Y147814D01*
X218078Y155975D02*
X223382Y150671D01*
X194191Y151935D02*
X216405D01*
X195865Y155975D02*
X218078D01*
X194191Y151935D02*
X194191Y151935D01*
X192949Y151935D02*
X194191D01*
X190834Y149820D02*
X192949Y151935D01*
X190820Y149820D02*
X190834D01*
X195865Y155975D02*
X195865Y155975D01*
X192899Y155975D02*
X195865D01*
X190784Y158090D02*
X192899Y155975D01*
X190770Y158090D02*
X190784D01*
X271169Y154559D02*
X271919Y153809D01*
X268391Y154559D02*
X271169D01*
X268270Y154680D02*
X268391Y154559D01*
X271328Y158720D02*
X271919Y159311D01*
X259823Y158720D02*
X271328D01*
X258150Y154680D02*
X268270D01*
X258150Y154680D02*
X258150Y154680D01*
X254199Y154680D02*
X258150D01*
X254197Y154678D02*
X254199Y154680D01*
X252548Y154678D02*
X254197D01*
X252070Y154200D02*
X252548Y154678D01*
X259823Y158720D02*
X259823Y158720D01*
X254199Y158720D02*
X259823D01*
X254197Y158722D02*
X254199Y158720D01*
X252548Y158722D02*
X254197D01*
X252070Y159200D02*
X252548Y158722D01*
X209680Y133010D02*
X210160Y132530D01*
X185417Y133010D02*
X209680D01*
X209680Y137050D02*
X210160Y137530D01*
X187090Y137050D02*
X209680D01*
X184400Y139740D02*
X187090Y137050D01*
X180360Y138067D02*
X185417Y133010D01*
X180360Y138067D02*
Y151061D01*
X179481Y151940D02*
X180360Y151061D01*
X184400Y139740D02*
Y152735D01*
X181155Y155980D02*
X184400Y152735D01*
X176870Y155980D02*
X181155D01*
X176870Y151940D02*
X179481D01*
X174660Y149730D02*
X176870Y151940D01*
X174660Y158190D02*
X176870Y155980D01*
X270798Y171080D02*
X271529Y170349D01*
X249960Y171080D02*
X270798D01*
X236210Y157330D02*
X249960Y171080D01*
X270798Y175120D02*
X271529Y175851D01*
X248287Y175120D02*
X270798D01*
X232170Y159003D02*
X248287Y175120D01*
X293112Y171078D02*
X293590Y170600D01*
X293112Y175122D02*
X293590Y175600D01*
X236210Y131247D02*
Y157330D01*
X232170Y132920D02*
Y159003D01*
X222693Y117730D02*
X236210Y131247D01*
X221020Y121770D02*
X232170Y132920D01*
X175440Y121770D02*
X221020D01*
X173767Y117730D02*
X222693D01*
X163700Y127797D02*
X173767Y117730D01*
X167740Y129470D02*
X175440Y121770D01*
X163700Y127797D02*
Y150905D01*
X167740Y129470D02*
Y152578D01*
X162360Y152245D02*
X163700Y150905D01*
X164033Y156285D02*
X167740Y152578D01*
X160645Y156285D02*
X164033D01*
X160645Y152245D02*
X162360D01*
X158470Y150070D02*
X160645Y152245D01*
X158470Y158460D02*
X160645Y156285D01*
X293689Y202110D02*
X324989D01*
X325100Y201999D01*
X293689Y198070D02*
X325031D01*
X325100Y198001D01*
X291560Y202590D02*
X292038Y202112D01*
X293687D01*
X293689Y202110D01*
X291560Y197590D02*
X292038Y198068D01*
X293687D01*
X293689Y198070D01*
X291463Y171078D02*
X293112D01*
X291461Y171080D02*
X291463Y171078D01*
X284762Y171080D02*
X291461D01*
X284031Y170349D02*
X284762Y171080D01*
X291463Y175122D02*
X293112D01*
X291461Y175120D02*
X291463Y175122D01*
X284762Y175120D02*
X291461D01*
X284031Y175851D02*
X284762Y175120D01*
D23*
X280063Y199093D02*
Y202893D01*
X279680Y198710D02*
X280063Y199093D01*
Y202893D02*
X286480Y209310D01*
X297370D01*
X300681Y206000D01*
X325100D01*
X292760Y222850D02*
X305610Y210000D01*
X281490Y222850D02*
X292760D01*
X276850Y227490D02*
X281490Y222850D01*
X298590Y187110D02*
X305480Y194000D01*
X325100D01*
X289660Y261310D02*
Y285800D01*
X276850Y248500D02*
X289660Y261310D01*
X355089Y215060D02*
X355630D01*
X352028Y211999D02*
X355089Y215060D01*
X337351Y211999D02*
X352028D01*
X337360Y199990D02*
X352830D01*
X348490Y176330D02*
Y185060D01*
X345549Y188001D02*
X348490Y185060D01*
X337351Y188001D02*
X345549D01*
X342469Y174720D02*
X346880D01*
X348490Y176330D01*
X356050Y196770D02*
X357600D01*
X352830Y199990D02*
X356050Y196770D01*
X337351Y200000D02*
X337360Y199990D01*
X339250Y171501D02*
X342469Y174720D01*
X276850Y227490D02*
Y248500D01*
X74720Y123480D02*
X90861Y139621D01*
X15620Y123480D02*
X74720D01*
X12640Y120500D02*
X15620Y123480D01*
X90861Y139621D02*
Y153619D01*
X12440Y120500D02*
X12640D01*
X10800Y143150D02*
Y223840D01*
X10450Y224190D02*
X10800Y223840D01*
Y143150D02*
X17000Y136950D01*
X28740D01*
X31810Y278830D02*
X32140Y278500D01*
X31810Y278830D02*
Y289910D01*
X185240Y346220D02*
X185350Y346330D01*
X185240Y334800D02*
Y346220D01*
X257545Y365195D02*
X257560Y365180D01*
X247365Y365195D02*
X257545D01*
X247350Y365210D02*
X247365Y365195D01*
X12310Y93290D02*
X12440Y93420D01*
Y110340D01*
X28350D01*
X28740Y109950D01*
X141170Y250240D02*
X150320Y241090D01*
X141170Y250240D02*
Y258900D01*
X150320Y241090D02*
X160680D01*
X166950Y234820D01*
Y229820D02*
Y234820D01*
X295540Y247140D02*
X295923Y247523D01*
X296793D01*
X307080Y257810D01*
X307280D01*
Y267970D02*
X331672D01*
X331893Y268191D01*
X305610Y210000D02*
X325100D01*
D24*
X185350Y365330D02*
X220160D01*
X12235Y259595D02*
X32045D01*
X76270Y89990D02*
X76350Y90070D01*
X76270Y74850D02*
Y89990D01*
X76190Y74770D02*
X76270Y74850D01*
X323540Y88800D02*
X333290D01*
X319930Y92410D02*
X323540Y88800D01*
X319930Y92410D02*
Y97818D01*
X333290Y88800D02*
X342240D01*
X342410Y88970D01*
X220160Y350060D02*
X220180Y350040D01*
Y338470D02*
Y350040D01*
X198590Y222210D02*
X198781Y222019D01*
X206271D01*
X207090Y221200D01*
X12140Y259690D02*
X12235Y259595D01*
X32045D02*
X32140Y259500D01*
X280380Y355030D02*
Y362670D01*
Y345620D02*
Y355030D01*
X280360Y355050D02*
X280380Y355030D01*
X247350Y355050D02*
X280360D01*
X247295Y355105D02*
X247350Y355050D01*
X234815Y355105D02*
X247295D01*
X234760Y355160D02*
X234815Y355105D01*
X280110Y362940D02*
X280380Y362670D01*
X234750Y365310D02*
X234760Y365320D01*
X220170Y365310D02*
X234750D01*
X220160Y365300D02*
X220170Y365310D01*
X220160Y365300D02*
Y365330D01*
X218810Y379840D02*
X220160Y378490D01*
Y365330D02*
Y378490D01*
D25*
X235370Y272110D02*
X246570D01*
X193495Y272085D02*
Y280755D01*
X222439Y272060D02*
X235370D01*
X193520D02*
X205421D01*
X193495Y272085D02*
X193520Y272060D01*
X139330Y365330D02*
X161850D01*
X34170Y236540D02*
X34530Y236900D01*
X350467Y291448D02*
X362442D01*
X370110Y283780D01*
X370310D01*
X350388Y291369D02*
X350467Y291448D01*
X331972Y291369D02*
X350388D01*
X308600Y299560D02*
X316791Y291369D01*
X331972D01*
X270400Y299560D02*
X308600D01*
X246570Y272110D02*
X257191D01*
X246570Y283770D02*
X262360Y299560D01*
X270400D01*
X246570Y272110D02*
Y283770D01*
X208445Y165705D02*
X212130Y162020D01*
X91065Y176675D02*
X102051Y187660D01*
X109880Y134600D02*
X152200D01*
X90861Y153619D02*
X109880Y134600D01*
X90861Y153619D02*
Y176470D01*
X57480Y176689D02*
X62410Y181619D01*
X57451Y176660D02*
X57480Y176689D01*
X62410Y181619D02*
Y192600D01*
X64100Y194290D01*
X57920Y176470D02*
X90861D01*
X92870Y223050D02*
X123990D01*
X79020Y236900D02*
X92870Y223050D01*
X34530Y236900D02*
X79020D01*
X102051Y187660D02*
X124020D01*
X144010Y219110D02*
X146450Y221550D01*
X86945Y259615D02*
X87060Y259730D01*
X75245Y259615D02*
X86945D01*
X75130Y259500D02*
X75245Y259615D01*
X193470Y280780D02*
X193495Y280755D01*
X223281Y181889D02*
X223330Y181840D01*
X140750Y273060D02*
X149150D01*
X154250Y267960D01*
Y251400D02*
Y267960D01*
Y251400D02*
X159150Y246500D01*
X164270D01*
X174960Y235810D01*
Y229840D02*
Y235810D01*
X34170Y206141D02*
Y223159D01*
Y236540D01*
X75130Y259500D02*
X75130Y259500D01*
X55640Y259500D02*
X75130D01*
X55640Y259500D02*
X55640Y259500D01*
X139330Y365330D02*
Y365420D01*
X235370Y272060D02*
Y272110D01*
Y271910D02*
Y272060D01*
X205421D02*
X222439D01*
X212130Y162020D02*
X217060D01*
X127679Y225959D02*
X133320D01*
X125554Y223834D02*
X127679Y225959D01*
X124774Y223834D02*
X125554D01*
X123990Y223050D02*
X124774Y223834D01*
X126180Y170070D02*
X133320D01*
X123695Y167585D02*
X126180Y170070D01*
X123695Y167455D02*
Y167585D01*
X123500Y167260D02*
X123695Y167455D01*
X208360Y165620D02*
X208445Y165705D01*
X189371Y186319D02*
X189650Y186040D01*
X187041Y186319D02*
X189371D01*
X181560Y191800D02*
X187041Y186319D01*
X181560Y191800D02*
Y192000D01*
X215330Y197480D02*
X215609Y197759D01*
X217009D01*
X223310Y204060D01*
X223510D01*
X215330Y181610D02*
X215609Y181889D01*
X223281D01*
X223330Y181640D02*
Y181840D01*
X181505Y202925D02*
X182181Y202249D01*
X181505Y192055D02*
X181560Y192000D01*
X181505Y192055D02*
Y202925D01*
X181450Y202980D02*
X181505Y202925D01*
X189161Y202249D02*
X189440Y201970D01*
X182181Y202249D02*
X189161D01*
X250060Y235370D02*
X250110Y235420D01*
X236440Y235370D02*
X250060D01*
X236320Y235490D02*
X236440Y235370D01*
X223820Y235490D02*
X236320D01*
X218155Y235610D02*
X223700D01*
X223820Y235490D01*
X216475Y233930D02*
X218155Y235610D01*
X216080Y233930D02*
X216475D01*
X178670Y247790D02*
X178840Y247620D01*
X178670Y247790D02*
Y257410D01*
X178500Y257580D02*
X178670Y257410D01*
X132871Y234199D02*
X133150Y233920D01*
X124671Y234199D02*
X132871D01*
X124020Y234850D02*
X124671Y234199D01*
X133371Y182319D02*
X133650Y182040D01*
X129561Y182319D02*
X133371D01*
X124220Y187660D02*
X129561Y182319D01*
X124020Y187660D02*
X124220D01*
X190805Y173650D02*
X191200D01*
X190175Y174280D02*
X190805Y173650D01*
X174720Y174280D02*
X190175D01*
X174325D02*
X174720D01*
X173665Y173620D02*
X174325Y174280D01*
X158430Y173620D02*
X173665D01*
X161035Y182065D02*
X161060Y182090D01*
X159895Y180925D02*
X161035Y182065D01*
X158430Y173620D02*
Y174015D01*
X159895Y175480D01*
Y180925D01*
X150085Y182065D02*
X161035D01*
X150060Y182040D02*
X150085Y182065D01*
X183710Y215770D02*
X188870D01*
X183680Y215800D02*
X183710Y215770D01*
X188870D02*
X190450Y214190D01*
X190500D01*
X158691Y221271D02*
X158970Y221550D01*
X158691Y213641D02*
Y221271D01*
X157850Y212800D02*
X158691Y213641D01*
X146450Y221550D02*
X158970D01*
D26*
X30000Y30000D02*
D03*
Y370000D02*
D03*
X370000Y30000D02*
D03*
Y370000D02*
D03*
D27*
X246789Y112251D02*
D03*
X102791Y284249D02*
D03*
D28*
X113789Y92251D02*
D03*
X235791D02*
D03*
X113789Y304249D02*
D03*
X235791D02*
D03*
D29*
X211890Y342110D02*
D03*
X207840Y349150D02*
D03*
X207480Y334510D02*
D03*
X203200Y371540D02*
D03*
X203450Y381690D02*
D03*
X193310Y381360D02*
D03*
X203660Y389130D02*
D03*
X193470Y388920D02*
D03*
X183120Y388760D02*
D03*
X86210Y66940D02*
D03*
Y74110D02*
D03*
X86170Y81750D02*
D03*
Y89970D02*
D03*
X154690Y139530D02*
D03*
X144910Y129610D02*
D03*
X144450Y139310D02*
D03*
X69790Y249680D02*
D03*
X61880Y249550D02*
D03*
X53560Y249320D02*
D03*
X87170Y250250D02*
D03*
X157300Y358240D02*
D03*
X149070Y358140D02*
D03*
X139780D02*
D03*
X163020Y282070D02*
D03*
X178960Y282190D02*
D03*
X178840Y274990D02*
D03*
X163020D02*
D03*
X62540Y113310D02*
D03*
X72410Y113080D02*
D03*
X83970Y113160D02*
D03*
X19130Y187930D02*
D03*
X18950Y178000D02*
D03*
X19130Y166590D02*
D03*
X81430Y215390D02*
D03*
X81200Y205520D02*
D03*
X81280Y193960D02*
D03*
X106410Y174570D02*
D03*
X106180Y164700D02*
D03*
X106260Y153140D02*
D03*
X250550Y326740D02*
D03*
X240680Y326970D02*
D03*
X229120Y326890D02*
D03*
X384920Y104850D02*
D03*
X385150Y114720D02*
D03*
X385070Y126280D02*
D03*
X387490Y263980D02*
D03*
X387720Y273850D02*
D03*
X387640Y285410D02*
D03*
X354960Y325240D02*
D03*
X355190Y335110D02*
D03*
X355110Y346670D02*
D03*
X370810Y325740D02*
D03*
X371040Y335610D02*
D03*
X370960Y347170D02*
D03*
X385170Y325740D02*
D03*
X385400Y335610D02*
D03*
X385320Y347170D02*
D03*
X321300Y358490D02*
D03*
X331170Y358260D02*
D03*
X342730Y358340D02*
D03*
X321120Y371830D02*
D03*
X330990Y371600D02*
D03*
X342550Y371680D02*
D03*
X321360Y384720D02*
D03*
X331230Y384490D02*
D03*
X342790Y384570D02*
D03*
X285300Y384720D02*
D03*
X295170Y384490D02*
D03*
X306730Y384570D02*
D03*
X188820Y313530D02*
D03*
X198690Y313300D02*
D03*
X210250Y313380D02*
D03*
X127300Y289490D02*
D03*
X137170Y289260D02*
D03*
X148730Y289340D02*
D03*
X188560Y82580D02*
D03*
X198430Y82350D02*
D03*
X209990Y82430D02*
D03*
X137360Y81750D02*
D03*
X147230Y81520D02*
D03*
X158790Y81600D02*
D03*
X162850Y97420D02*
D03*
X172720Y97190D02*
D03*
X184280Y97270D02*
D03*
X12590Y53010D02*
D03*
X22460Y52780D02*
D03*
X34020Y52860D02*
D03*
X364260Y57170D02*
D03*
X374130Y56940D02*
D03*
X385690Y57020D02*
D03*
X363930Y68200D02*
D03*
X373800Y67970D02*
D03*
X385360Y68050D02*
D03*
X363600Y78230D02*
D03*
X373470Y78000D02*
D03*
X385030Y78080D02*
D03*
X283700Y17050D02*
D03*
X293570Y16820D02*
D03*
X305130Y16900D02*
D03*
X241910Y16380D02*
D03*
X251780Y16150D02*
D03*
X263340Y16230D02*
D03*
X196120Y16380D02*
D03*
X205990Y16150D02*
D03*
X217550Y16230D02*
D03*
X152620Y16710D02*
D03*
X162490Y16480D02*
D03*
X174050Y16560D02*
D03*
X104220Y16710D02*
D03*
X114090Y16480D02*
D03*
X125650Y16560D02*
D03*
X60180Y16910D02*
D03*
X70050Y16680D02*
D03*
X81610Y16760D02*
D03*
X111050Y115130D02*
D03*
X120920Y114900D02*
D03*
X111200Y123520D02*
D03*
X121070Y123290D02*
D03*
X67200Y305540D02*
D03*
X77070Y305310D02*
D03*
X88630Y305390D02*
D03*
X67200Y314630D02*
D03*
X77070Y314400D02*
D03*
X88630Y314480D02*
D03*
X12520Y335380D02*
D03*
X22390Y335150D02*
D03*
X33950Y335230D02*
D03*
X12710Y346130D02*
D03*
X22580Y345900D02*
D03*
X34140Y345980D02*
D03*
X89810Y343910D02*
D03*
X99680Y343680D02*
D03*
X111240Y343760D02*
D03*
X90180Y352060D02*
D03*
X100050Y351830D02*
D03*
X111610Y351910D02*
D03*
X82510Y378230D02*
D03*
X70950Y378150D02*
D03*
X61080Y378380D02*
D03*
X298440Y186900D02*
D03*
X279680Y198710D02*
D03*
X288270Y215260D02*
D03*
X289700Y230440D02*
D03*
X289660Y285800D02*
D03*
X181540Y380800D02*
D03*
X20790Y259480D02*
D03*
X293700Y154060D02*
D03*
Y159060D02*
D03*
X381050Y211760D02*
D03*
X384585Y208225D02*
D03*
X357600Y196770D02*
D03*
X355630Y215060D02*
D03*
X293880Y141350D02*
D03*
X382470Y191499D02*
D03*
Y196499D02*
D03*
X293880Y136350D02*
D03*
X204890Y286550D02*
D03*
X272100Y207500D02*
D03*
X91190Y176550D02*
D03*
X152200Y134600D02*
D03*
X87060Y259730D02*
D03*
X150780Y166030D02*
D03*
X222490Y283360D02*
D03*
X193470Y280780D02*
D03*
X149070Y365300D02*
D03*
X76350Y90070D02*
D03*
X342410Y88970D02*
D03*
X220180Y338470D02*
D03*
X320900Y225210D02*
D03*
X310740Y225230D02*
D03*
X310420Y235070D02*
D03*
X320670Y235380D02*
D03*
X23860Y244730D02*
D03*
X10450Y224190D02*
D03*
X31810Y289910D02*
D03*
X185240Y334800D02*
D03*
X257560Y365180D02*
D03*
X320770Y172110D02*
D03*
X47140Y223600D02*
D03*
X306060Y126080D02*
D03*
X29140Y196710D02*
D03*
X313080Y117230D02*
D03*
X270830Y315940D02*
D03*
X238320Y196560D02*
D03*
X206730Y181980D02*
D03*
X198590Y222210D02*
D03*
X243620Y261590D02*
D03*
X213660Y259590D02*
D03*
X190650Y237850D02*
D03*
X202120Y260960D02*
D03*
X133320Y218020D02*
D03*
X142700Y165930D02*
D03*
X182770D02*
D03*
X166700Y166050D02*
D03*
X158870Y165990D02*
D03*
X202820Y145790D02*
D03*
X198790Y173980D02*
D03*
Y190300D02*
D03*
X198890Y230130D02*
D03*
X182890Y229910D02*
D03*
X174960Y229840D02*
D03*
X166950Y229820D02*
D03*
X165780Y221720D02*
D03*
X150520Y229930D02*
D03*
X158870Y230020D02*
D03*
X45530Y206150D02*
D03*
X295540Y247140D02*
D03*
X286190Y114740D02*
D03*
X351640Y244680D02*
D03*
X280780Y103850D02*
D03*
X251800Y141690D02*
D03*
Y136690D02*
D03*
X224061Y150671D02*
D03*
X220526Y147136D02*
D03*
X252070Y159200D02*
D03*
Y154200D02*
D03*
X210160Y137530D02*
D03*
Y132530D02*
D03*
X174660Y149730D02*
D03*
Y158190D02*
D03*
X217060Y162020D02*
D03*
X293590Y170600D02*
D03*
Y175600D02*
D03*
X158470Y158460D02*
D03*
Y150070D02*
D03*
X190820Y149820D02*
D03*
X190770Y158090D02*
D03*
X291560Y202590D02*
D03*
Y197590D02*
D03*
X133320Y225959D02*
D03*
Y170070D02*
D03*
X189650Y186040D02*
D03*
X215330Y197480D02*
D03*
Y181610D02*
D03*
X189440Y201970D02*
D03*
X216080Y233930D02*
D03*
X178840Y247620D02*
D03*
X133150Y233920D02*
D03*
X133650Y182040D02*
D03*
X191200Y173650D02*
D03*
X174720Y174280D02*
D03*
X158430Y173620D02*
D03*
X190500Y214190D02*
D03*
X158970Y221550D02*
D03*
D30*
X185350Y365330D02*
Y376990D01*
X181540Y380800D02*
X185350Y376990D01*
X60880Y74840D02*
X60950Y74770D01*
X46660Y74840D02*
X60880D01*
X46590Y74910D02*
X46660Y74840D01*
X46535Y74965D02*
X46590Y74910D01*
X46535Y74965D02*
Y90555D01*
X46480Y90610D02*
X46535Y90555D01*
X46480Y90610D02*
X47740Y91870D01*
Y109950D01*
D31*
X31350Y74910D02*
D03*
X46590D02*
D03*
X125930Y258900D02*
D03*
X141170D02*
D03*
X125510Y273060D02*
D03*
X140750D02*
D03*
X46480Y90610D02*
D03*
X31240D02*
D03*
D32*
X28740Y109950D02*
D03*
X47740D02*
D03*
Y136950D02*
D03*
X38240D02*
D03*
D33*
X28740D02*
D03*
D34*
X57480Y176689D02*
D03*
Y154891D02*
D03*
D35*
X32140Y259500D02*
D03*
Y269000D02*
D03*
Y278500D02*
D03*
X55640D02*
D03*
Y259500D02*
D03*
X185350Y365330D02*
D03*
Y355830D02*
D03*
Y346330D02*
D03*
X161850D02*
D03*
Y365330D02*
D03*
D36*
X124020Y245010D02*
D03*
Y234850D02*
D03*
X123990Y212890D02*
D03*
Y223050D02*
D03*
X124020Y197820D02*
D03*
Y187660D02*
D03*
X123500Y157100D02*
D03*
Y167260D02*
D03*
X157850Y202640D02*
D03*
Y212800D02*
D03*
X150060Y192200D02*
D03*
Y182040D02*
D03*
X161060Y192250D02*
D03*
Y182090D02*
D03*
X333290Y78640D02*
D03*
Y88800D02*
D03*
X207090Y211040D02*
D03*
Y221200D02*
D03*
X223820Y225330D02*
D03*
Y235490D02*
D03*
X193520Y272090D02*
D03*
Y261930D02*
D03*
X247350Y365210D02*
D03*
Y355050D02*
D03*
X307280Y257810D02*
D03*
Y267970D02*
D03*
X370310Y283780D02*
D03*
Y273620D02*
D03*
X234760Y365320D02*
D03*
Y355160D02*
D03*
X270400Y309720D02*
D03*
Y299560D02*
D03*
X235370Y271910D02*
D03*
Y282070D02*
D03*
X12440Y120500D02*
D03*
Y110340D02*
D03*
X12310Y93290D02*
D03*
Y83130D02*
D03*
X12140Y269850D02*
D03*
Y259690D02*
D03*
X75130Y269660D02*
D03*
Y259500D02*
D03*
X223510Y204060D02*
D03*
Y214220D02*
D03*
D37*
X171290Y202980D02*
D03*
X181450D02*
D03*
X171400Y192000D02*
D03*
X181560D02*
D03*
X173520Y215800D02*
D03*
X183680D02*
D03*
X168340Y257580D02*
D03*
X178500D02*
D03*
X198200Y165620D02*
D03*
X208360D02*
D03*
X233490Y181840D02*
D03*
X223330D02*
D03*
X280110Y362940D02*
D03*
X290270D02*
D03*
X33810Y236900D02*
D03*
X23650D02*
D03*
X230200Y379400D02*
D03*
X220040D02*
D03*
X129170Y365420D02*
D03*
X139330D02*
D03*
D38*
X145510Y203780D02*
D03*
Y219020D02*
D03*
X236440Y220130D02*
D03*
Y235370D02*
D03*
X250110Y220180D02*
D03*
Y235420D02*
D03*
D39*
X319930Y97818D02*
D03*
X314930D02*
D03*
X309930D02*
D03*
X304930D02*
D03*
Y68842D02*
D03*
X309930D02*
D03*
X314930D02*
D03*
X319930D02*
D03*
D40*
X271529Y175851D02*
D03*
Y170349D02*
D03*
X284031D02*
D03*
Y175851D02*
D03*
X284421Y159311D02*
D03*
Y153809D02*
D03*
X271919D02*
D03*
Y159311D02*
D03*
X284621Y141601D02*
D03*
Y136099D02*
D03*
X272119D02*
D03*
Y141601D02*
D03*
D41*
X350149Y268112D02*
D03*
X331893Y268191D02*
D03*
X331972Y291369D02*
D03*
X350467Y291448D02*
D03*
D42*
X325100Y181999D02*
D03*
Y186000D02*
D03*
Y190000D02*
D03*
Y194000D02*
D03*
Y198001D02*
D03*
Y201999D02*
D03*
Y206000D02*
D03*
Y210000D02*
D03*
Y214000D02*
D03*
Y218001D02*
D03*
D43*
X337351Y184000D02*
D03*
Y188001D02*
D03*
Y191999D02*
D03*
Y196000D02*
D03*
Y200000D02*
D03*
Y204000D02*
D03*
Y208001D02*
D03*
Y211999D02*
D03*
Y216000D02*
D03*
D44*
X339250Y228499D02*
D03*
Y171501D02*
D03*
D45*
X372850Y228999D02*
D03*
Y171001D02*
D03*
D46*
X280380Y345620D02*
D03*
X270779Y324620D02*
D03*
X289981D02*
D03*
D47*
X274209Y277110D02*
D03*
Y272110D02*
D03*
Y267110D02*
D03*
X257191D02*
D03*
Y272110D02*
D03*
Y277110D02*
D03*
X222439Y277060D02*
D03*
Y272060D02*
D03*
Y267060D02*
D03*
X205421D02*
D03*
Y272060D02*
D03*
Y277060D02*
D03*
D48*
X39170Y206141D02*
D03*
X34170D02*
D03*
X29170D02*
D03*
Y223159D02*
D03*
X34170D02*
D03*
X39170D02*
D03*
D49*
X220160Y350060D02*
D03*
Y365300D02*
D03*
D50*
X64100Y194290D02*
D03*
Y213290D02*
D03*
D51*
X76190Y74770D02*
D03*
X60950D02*
D03*
M02*
