G04*
G04 #@! TF.GenerationSoftware,Altium Limited,Altium Designer,19.1.1 (5)*
G04*
G04 Layer_Color=32768*
%FSLAX44Y44*%
%MOMM*%
G71*
G01*
G75*
%ADD76C,0.1999*%
%ADD77C,0.1270*%
%ADD78C,0.1001*%
D76*
X22818Y259500D02*
G03*
X22818Y259500I-617J0D01*
G01*
X293782Y176100D02*
G03*
X293782Y176100I-1001J0D01*
G01*
X195906Y365330D02*
G03*
X195906Y365330I-617J0D01*
G01*
X317851Y183000D02*
G03*
X317851Y181001I0J-1000D01*
G01*
D02*
G03*
X317851Y183000I0J1000D01*
G01*
X294172Y159560D02*
G03*
X294172Y159560I-1001J0D01*
G01*
X294372Y141850D02*
G03*
X294372Y141850I-1001J0D01*
G01*
X295729Y319121D02*
Y330119D01*
X265879Y333619D02*
X294881D01*
X265879D02*
Y336621D01*
X294881D01*
Y333619D02*
Y336621D01*
D77*
X46479Y164289D02*
Y167291D01*
X68481Y164289D02*
Y167291D01*
X35391Y253501D02*
X52389D01*
X35391Y284499D02*
X52389D01*
X35391Y283501D02*
Y284499D01*
X52389Y283501D02*
Y284499D01*
Y253501D02*
Y254499D01*
X35391Y253501D02*
Y254499D01*
X271529Y165650D02*
X284031D01*
X271529Y180550D02*
X284031D01*
X165101Y371329D02*
X182099D01*
X165101Y340331D02*
X182099D01*
Y341329D01*
X165101Y340331D02*
Y341329D01*
Y370331D02*
Y371329D01*
X182099Y370331D02*
Y371329D01*
X271919Y164010D02*
X284421D01*
X271919Y149110D02*
X284421D01*
X272119Y146300D02*
X284621D01*
X272119Y131400D02*
X284621D01*
D78*
X387851Y232499D02*
X389850D01*
Y167501D02*
Y232499D01*
X387851Y167501D02*
X389850D01*
X322850Y232499D02*
X327851D01*
X322850Y225001D02*
Y232499D01*
Y167501D02*
Y174999D01*
Y167501D02*
X327851D01*
M02*
