G04*
G04 #@! TF.GenerationSoftware,Altium Limited,Altium Designer,19.1.1 (5)*
G04*
G04 Layer_Color=8388736*
%FSLAX44Y44*%
%MOMM*%
G71*
G01*
G75*
%ADD17P,0.2474X8X112.5*%
%ADD18C,0.7033*%
%ADD19C,2.2032*%
%ADD20C,1.5032*%
%ADD21C,2.5032*%
D17*
X210969Y152371D02*
D03*
X138671D02*
D03*
X210969Y243669D02*
D03*
X138671D02*
D03*
D18*
X202821Y154020D02*
D03*
X194820D02*
D03*
X186819D02*
D03*
X178820D02*
D03*
X170819D02*
D03*
X162821D02*
D03*
X154820D02*
D03*
X146819D02*
D03*
X210819Y162021D02*
D03*
X202821D02*
D03*
X194820D02*
D03*
X186819D02*
D03*
X178820D02*
D03*
X170819D02*
D03*
X162821D02*
D03*
X154820D02*
D03*
X146819D02*
D03*
X138821D02*
D03*
X210819Y170019D02*
D03*
X202821D02*
D03*
X194820D02*
D03*
X186819D02*
D03*
X178820D02*
D03*
X170819D02*
D03*
X162821D02*
D03*
X154820D02*
D03*
X146819D02*
D03*
X138821D02*
D03*
X210819Y178020D02*
D03*
X202821D02*
D03*
X194820D02*
D03*
X154820D02*
D03*
X146819D02*
D03*
X138821D02*
D03*
X210819Y186021D02*
D03*
X202821D02*
D03*
X194820D02*
D03*
X154820D02*
D03*
X146819D02*
D03*
X138821D02*
D03*
X210819Y194020D02*
D03*
X202821D02*
D03*
X194820D02*
D03*
X154820D02*
D03*
X146819D02*
D03*
X138821D02*
D03*
X210819Y202020D02*
D03*
X202821D02*
D03*
X194820D02*
D03*
X154820D02*
D03*
X146819D02*
D03*
X138821D02*
D03*
X210819Y210019D02*
D03*
X202821D02*
D03*
X194820D02*
D03*
X154820D02*
D03*
X146819D02*
D03*
X138821D02*
D03*
X210819Y218020D02*
D03*
X202821D02*
D03*
X194820D02*
D03*
X154820D02*
D03*
X146819D02*
D03*
X138821D02*
D03*
X210819Y226021D02*
D03*
X202821D02*
D03*
X194820D02*
D03*
X186819D02*
D03*
X178820D02*
D03*
X170819D02*
D03*
X162821D02*
D03*
X154820D02*
D03*
X146819D02*
D03*
X138821D02*
D03*
X210819Y234019D02*
D03*
X202821D02*
D03*
X194820D02*
D03*
X186819D02*
D03*
X178820D02*
D03*
X170819D02*
D03*
X162821D02*
D03*
X154820D02*
D03*
X146819D02*
D03*
X138821D02*
D03*
X202821Y242020D02*
D03*
X194820D02*
D03*
X186819D02*
D03*
X178820D02*
D03*
X170819D02*
D03*
X162821D02*
D03*
X154820D02*
D03*
X146819D02*
D03*
D19*
X30000Y30000D02*
D03*
Y370000D02*
D03*
X370000Y30000D02*
D03*
Y370000D02*
D03*
D20*
X246789Y112251D02*
D03*
X102791Y284249D02*
D03*
D21*
X113789Y92251D02*
D03*
X235791D02*
D03*
X113789Y304249D02*
D03*
X235791D02*
D03*
M02*
