G04*
G04 #@! TF.GenerationSoftware,Altium Limited,Altium Designer,19.1.1 (5)*
G04*
G04 Layer_Color=32896*
%FSLAX44Y44*%
%MOMM*%
G71*
G01*
G75*
%ADD10C,0.1524*%
%ADD14C,0.1000*%
%ADD23C,0.2000*%
%ADD25C,0.2540*%
%ADD73C,0.1200*%
D10*
X319192Y62721D02*
G03*
X320668Y62721I738J-189D01*
G01*
X280584Y276372D02*
G03*
X280584Y277848I189J738D01*
G01*
X38432Y199766D02*
G03*
X39908Y199766I738J-189D01*
G01*
X228814Y276322D02*
G03*
X228814Y277798I189J738D01*
G01*
X323950Y73509D02*
Y93151D01*
X300910Y73509D02*
Y93151D01*
X358217Y258948D02*
Y300698D01*
X324273Y258948D02*
X358217D01*
X324273D02*
Y300698D01*
X358217D01*
X258207Y262331D02*
X273193D01*
X258207Y281889D02*
X273193D01*
X24391Y207157D02*
Y222143D01*
X43949Y207157D02*
Y222143D01*
X206437Y262281D02*
X221423D01*
X206437Y281839D02*
X221423D01*
D14*
X44228Y65535D02*
X45061Y66368D01*
X46727D01*
X47560Y65535D01*
Y62203D01*
X46727Y61370D01*
X45061D01*
X44228Y62203D01*
X39229Y61370D02*
X42562D01*
X39229Y64702D01*
Y65535D01*
X40062Y66368D01*
X41729D01*
X42562Y65535D01*
X37563Y62203D02*
X36730Y61370D01*
X35064D01*
X34231Y62203D01*
Y65535D01*
X35064Y66368D01*
X36730D01*
X37563Y65535D01*
Y64702D01*
X36730Y63869D01*
X34231D01*
X17970Y140208D02*
Y136043D01*
X17137Y135210D01*
X15471D01*
X14638Y136043D01*
Y140208D01*
X9639D02*
X12972D01*
Y137709D01*
X11306Y138542D01*
X10472D01*
X9639Y137709D01*
Y136043D01*
X10472Y135210D01*
X12139D01*
X12972Y136043D01*
X42580Y167178D02*
Y162180D01*
X39248D01*
X37582D02*
X35916D01*
X36749D01*
Y167178D01*
X37582Y166345D01*
X51220Y293108D02*
Y288943D01*
X50387Y288110D01*
X48721D01*
X47888Y288943D01*
Y293108D01*
X43722Y288110D02*
Y293108D01*
X46222Y290609D01*
X42889D01*
X114838Y258275D02*
X115671Y259108D01*
X117337D01*
X118170Y258275D01*
Y254943D01*
X117337Y254110D01*
X115671D01*
X114838Y254943D01*
X113172Y258275D02*
X112339Y259108D01*
X110672D01*
X109839Y258275D01*
Y257442D01*
X110672Y256609D01*
X111505D01*
X110672D01*
X109839Y255776D01*
Y254943D01*
X110672Y254110D01*
X112339D01*
X113172Y254943D01*
X113608Y235045D02*
X114441Y235878D01*
X116107D01*
X116940Y235045D01*
Y231713D01*
X116107Y230880D01*
X114441D01*
X113608Y231713D01*
X111942D02*
X111109Y230880D01*
X109443D01*
X108609Y231713D01*
Y235045D01*
X109443Y235878D01*
X111109D01*
X111942Y235045D01*
Y234212D01*
X111109Y233379D01*
X108609D01*
X114018Y212225D02*
X114851Y213058D01*
X116517D01*
X117350Y212225D01*
Y208893D01*
X116517Y208060D01*
X114851D01*
X114018Y208893D01*
X109019Y208060D02*
X112352D01*
X109019Y211392D01*
Y212225D01*
X109853Y213058D01*
X111519D01*
X112352Y212225D01*
X104021Y208060D02*
X107353D01*
X104021Y211392D01*
Y212225D01*
X104854Y213058D01*
X106520D01*
X107353Y212225D01*
X125528Y180575D02*
X126361Y181408D01*
X128027D01*
X128860Y180575D01*
Y177243D01*
X128027Y176410D01*
X126361D01*
X125528Y177243D01*
X123862Y176410D02*
X122196D01*
X123029D01*
Y181408D01*
X123862Y180575D01*
X119696D02*
X118863Y181408D01*
X117197D01*
X116364Y180575D01*
Y179742D01*
X117197Y178909D01*
X116364Y178076D01*
Y177243D01*
X117197Y176410D01*
X118863D01*
X119696Y177243D01*
Y178076D01*
X118863Y178909D01*
X119696Y179742D01*
Y180575D01*
X118863Y178909D02*
X117197D01*
X126768Y149525D02*
X127601Y150358D01*
X129267D01*
X130100Y149525D01*
Y146193D01*
X129267Y145360D01*
X127601D01*
X126768Y146193D01*
X121769Y145360D02*
X125102D01*
X121769Y148692D01*
Y149525D01*
X122602Y150358D01*
X124269D01*
X125102Y149525D01*
X120103D02*
X119270Y150358D01*
X117604D01*
X116771Y149525D01*
Y146193D01*
X117604Y145360D01*
X119270D01*
X120103Y146193D01*
Y149525D01*
X196868Y202365D02*
X197701Y203198D01*
X199367D01*
X200200Y202365D01*
Y199033D01*
X199367Y198200D01*
X197701D01*
X196868Y199033D01*
X195202Y198200D02*
X193535D01*
X194369D01*
Y203198D01*
X195202Y202365D01*
X187704Y203198D02*
X191036D01*
Y200699D01*
X189370Y201532D01*
X188537D01*
X187704Y200699D01*
Y199033D01*
X188537Y198200D01*
X190203D01*
X191036Y199033D01*
X162118Y224355D02*
X162951Y225188D01*
X164617D01*
X165450Y224355D01*
Y221023D01*
X164617Y220190D01*
X162951D01*
X162118Y221023D01*
X157119Y220190D02*
X160452D01*
X157119Y223522D01*
Y224355D01*
X157952Y225188D01*
X159619D01*
X160452Y224355D01*
X152121Y225188D02*
X153787Y224355D01*
X155453Y222689D01*
Y221023D01*
X154620Y220190D01*
X152954D01*
X152121Y221023D01*
Y221856D01*
X152954Y222689D01*
X155453D01*
X146088Y230115D02*
X146921Y230948D01*
X148587D01*
X149420Y230115D01*
Y226783D01*
X148587Y225950D01*
X146921D01*
X146088Y226783D01*
X141089Y225950D02*
X144422D01*
X141089Y229282D01*
Y230115D01*
X141922Y230948D01*
X143589D01*
X144422Y230115D01*
X139423D02*
X138590Y230948D01*
X136924D01*
X136091Y230115D01*
Y229282D01*
X136924Y228449D01*
X137757D01*
X136924D01*
X136091Y227616D01*
Y226783D01*
X136924Y225950D01*
X138590D01*
X139423Y226783D01*
X151228Y174405D02*
X152061Y175238D01*
X153727D01*
X154560Y174405D01*
Y171073D01*
X153727Y170240D01*
X152061D01*
X151228Y171073D01*
X146229Y170240D02*
X149562D01*
X146229Y173572D01*
Y174405D01*
X147062Y175238D01*
X148729D01*
X149562Y174405D01*
X142064Y170240D02*
Y175238D01*
X144563Y172739D01*
X141231D01*
X170548Y174405D02*
X171381Y175238D01*
X173047D01*
X173880Y174405D01*
Y171073D01*
X173047Y170240D01*
X171381D01*
X170548Y171073D01*
X165549Y170240D02*
X168882D01*
X165549Y173572D01*
Y174405D01*
X166382Y175238D01*
X168049D01*
X168882Y174405D01*
X160551Y175238D02*
X163883D01*
Y172739D01*
X162217Y173572D01*
X161384D01*
X160551Y172739D01*
Y171073D01*
X161384Y170240D01*
X163050D01*
X163883Y171073D01*
X181238Y184885D02*
X182071Y185718D01*
X183737D01*
X184570Y184885D01*
Y181553D01*
X183737Y180720D01*
X182071D01*
X181238Y181553D01*
X179572Y180720D02*
X177906D01*
X178739D01*
Y185718D01*
X179572Y184885D01*
X172074Y185718D02*
X173740Y184885D01*
X175406Y183219D01*
Y181553D01*
X174573Y180720D01*
X172907D01*
X172074Y181553D01*
Y182386D01*
X172907Y183219D01*
X175406D01*
X184528Y226615D02*
X185361Y227448D01*
X187027D01*
X187860Y226615D01*
Y223283D01*
X187027Y222450D01*
X185361D01*
X184528Y223283D01*
X179529Y222450D02*
X182862D01*
X179529Y225782D01*
Y226615D01*
X180362Y227448D01*
X182029D01*
X182862Y226615D01*
X177863Y227448D02*
X174531D01*
Y226615D01*
X177863Y223283D01*
Y222450D01*
X178158Y268145D02*
X178991Y268978D01*
X180657D01*
X181490Y268145D01*
Y264813D01*
X180657Y263980D01*
X178991D01*
X178158Y264813D01*
X176492Y263980D02*
X174825D01*
X175659D01*
Y268978D01*
X176492Y268145D01*
X168994Y263980D02*
X172326D01*
X168994Y267312D01*
Y268145D01*
X169827Y268978D01*
X171493D01*
X172326Y268145D01*
X142798Y286035D02*
X143631Y286868D01*
X145297D01*
X146130Y286035D01*
Y282703D01*
X145297Y281870D01*
X143631D01*
X142798Y282703D01*
X137799Y281870D02*
X141132D01*
X137799Y285202D01*
Y286035D01*
X138632Y286868D01*
X140299D01*
X141132Y286035D01*
X334818Y99975D02*
X335651Y100808D01*
X337317D01*
X338150Y99975D01*
Y96643D01*
X337317Y95810D01*
X335651D01*
X334818Y96643D01*
X333152Y100808D02*
X329819D01*
Y99975D01*
X333152Y96643D01*
Y95810D01*
X335210Y65748D02*
Y61583D01*
X334377Y60750D01*
X332711D01*
X331878Y61583D01*
Y65748D01*
X326879Y60750D02*
X330212D01*
X326879Y64082D01*
Y64915D01*
X327713Y65748D01*
X329379D01*
X330212Y64915D01*
X282518Y187768D02*
X285850D01*
Y185269D01*
X284184D01*
X285850D01*
Y182770D01*
X280852Y187768D02*
Y182770D01*
X277519D01*
X272521D02*
X275853D01*
X272521Y186102D01*
Y186935D01*
X273354Y187768D01*
X275020D01*
X275853Y186935D01*
X208678Y157555D02*
X209511Y158388D01*
X211177D01*
X212010Y157555D01*
Y154223D01*
X211177Y153390D01*
X209511D01*
X208678Y154223D01*
X207012Y153390D02*
X205345D01*
X206179D01*
Y158388D01*
X207012Y157555D01*
X202846Y158388D02*
X199514D01*
Y157555D01*
X202846Y154223D01*
Y153390D01*
X206518Y231595D02*
X207351Y232428D01*
X209017D01*
X209850Y231595D01*
Y228263D01*
X209017Y227430D01*
X207351D01*
X206518Y228263D01*
X204852Y227430D02*
X203186D01*
X204019D01*
Y232428D01*
X204852Y231595D01*
X235318Y173415D02*
X236151Y174248D01*
X237817D01*
X238650Y173415D01*
Y170083D01*
X237817Y169250D01*
X236151D01*
X235318Y170083D01*
X230319Y169250D02*
X233652D01*
X230319Y172582D01*
Y173415D01*
X231152Y174248D01*
X232819D01*
X233652Y173415D01*
X228653Y169250D02*
X226987D01*
X227820D01*
Y174248D01*
X228653Y173415D01*
X225718Y246085D02*
X226551Y246918D01*
X228217D01*
X229050Y246085D01*
Y242753D01*
X228217Y241920D01*
X226551D01*
X225718Y242753D01*
X224052Y241920D02*
X222386D01*
X223219D01*
Y246918D01*
X224052Y246085D01*
X219886D02*
X219053Y246918D01*
X217387D01*
X216554Y246085D01*
Y245252D01*
X217387Y244419D01*
X218220D01*
X217387D01*
X216554Y243586D01*
Y242753D01*
X217387Y241920D01*
X219053D01*
X219886Y242753D01*
X238838Y211225D02*
X239671Y212058D01*
X241337D01*
X242170Y211225D01*
Y207893D01*
X241337Y207060D01*
X239671D01*
X238838Y207893D01*
X237172Y211225D02*
X236339Y212058D01*
X234673D01*
X233839Y211225D01*
Y210392D01*
X234673Y209559D01*
X233839Y208726D01*
Y207893D01*
X234673Y207060D01*
X236339D01*
X237172Y207893D01*
Y208726D01*
X236339Y209559D01*
X237172Y210392D01*
Y211225D01*
X236339Y209559D02*
X234673D01*
X256468Y211805D02*
X257301Y212638D01*
X258967D01*
X259800Y211805D01*
Y208473D01*
X258967Y207640D01*
X257301D01*
X256468Y208473D01*
X254802Y207640D02*
X253136D01*
X253969D01*
Y212638D01*
X254802Y211805D01*
X250636Y208473D02*
X249803Y207640D01*
X248137D01*
X247304Y208473D01*
Y211805D01*
X248137Y212638D01*
X249803D01*
X250636Y211805D01*
Y210972D01*
X249803Y210139D01*
X247304D01*
X197320Y250340D02*
Y255338D01*
X194821D01*
X193988Y254505D01*
Y252839D01*
X194821Y252006D01*
X197320D01*
X195654D02*
X193988Y250340D01*
X188989D02*
X192322D01*
X188989Y253672D01*
Y254505D01*
X189823Y255338D01*
X191489D01*
X192322Y254505D01*
X174550Y379258D02*
Y375093D01*
X173717Y374260D01*
X172051D01*
X171218Y375093D01*
Y379258D01*
X169552Y374260D02*
X167885D01*
X168719D01*
Y379258D01*
X169552Y378425D01*
X252690Y371850D02*
Y376848D01*
X250191D01*
X249358Y376015D01*
Y374349D01*
X250191Y373516D01*
X252690D01*
X251024D02*
X249358Y371850D01*
X247692Y376848D02*
X244359D01*
Y376015D01*
X247692Y372683D01*
Y371850D01*
X311530Y275300D02*
Y280298D01*
X309031D01*
X308198Y279465D01*
Y277799D01*
X309031Y276966D01*
X311530D01*
X309864D02*
X308198Y275300D01*
X306532Y279465D02*
X305699Y280298D01*
X304032D01*
X303199Y279465D01*
Y278632D01*
X304032Y277799D01*
X304865D01*
X304032D01*
X303199Y276966D01*
Y276133D01*
X304032Y275300D01*
X305699D01*
X306532Y276133D01*
X354520Y310168D02*
Y309335D01*
X352854Y307669D01*
X351188Y309335D01*
Y310168D01*
X352854Y307669D02*
Y305170D01*
X349522D02*
X347855D01*
X348689D01*
Y310168D01*
X349522Y309335D01*
X370798Y266345D02*
X371631Y267178D01*
X373297D01*
X374130Y266345D01*
Y263013D01*
X373297Y262180D01*
X371631D01*
X370798Y263013D01*
X366632Y262180D02*
Y267178D01*
X369132Y264679D01*
X365799D01*
X379078Y151928D02*
X380744D01*
X379911D01*
Y147763D01*
X380744Y146930D01*
X381577D01*
X382410Y147763D01*
X374079Y146930D02*
X377412D01*
X374079Y150262D01*
Y151095D01*
X374912Y151928D01*
X376579D01*
X377412Y151095D01*
X307000Y333858D02*
Y329693D01*
X306167Y328860D01*
X304501D01*
X303668Y329693D01*
Y333858D01*
X298669D02*
X300336Y333025D01*
X302002Y331359D01*
Y329693D01*
X301169Y328860D01*
X299502D01*
X298669Y329693D01*
Y330526D01*
X299502Y331359D01*
X302002D01*
X274290Y288140D02*
Y293138D01*
X271791D01*
X270958Y292305D01*
Y290639D01*
X271791Y289806D01*
X274290D01*
X272624D02*
X270958Y288140D01*
X269292Y288973D02*
X268459Y288140D01*
X266793D01*
X265959Y288973D01*
Y292305D01*
X266793Y293138D01*
X268459D01*
X269292Y292305D01*
Y291472D01*
X268459Y290639D01*
X265959D01*
X15610Y71850D02*
Y76848D01*
X13111D01*
X12278Y76015D01*
Y74349D01*
X13111Y73516D01*
X15610D01*
X13944D02*
X12278Y71850D01*
X10612Y76015D02*
X9779Y76848D01*
X8112D01*
X7279Y76015D01*
Y75182D01*
X8112Y74349D01*
X7279Y73516D01*
Y72683D01*
X8112Y71850D01*
X9779D01*
X10612Y72683D01*
Y73516D01*
X9779Y74349D01*
X10612Y75182D01*
Y76015D01*
X9779Y74349D02*
X8112D01*
X238820Y343490D02*
Y348488D01*
X236321D01*
X235488Y347655D01*
Y345989D01*
X236321Y345156D01*
X238820D01*
X237154D02*
X235488Y343490D01*
X230489Y348488D02*
X232155Y347655D01*
X233822Y345989D01*
Y344323D01*
X232989Y343490D01*
X231322D01*
X230489Y344323D01*
Y345156D01*
X231322Y345989D01*
X233822D01*
X16400Y126830D02*
Y131828D01*
X13901D01*
X13068Y130995D01*
Y129329D01*
X13901Y128496D01*
X16400D01*
X14734D02*
X13068Y126830D01*
X8069Y131828D02*
X11402D01*
Y129329D01*
X9736Y130162D01*
X8902D01*
X8069Y129329D01*
Y127663D01*
X8902Y126830D01*
X10569D01*
X11402Y127663D01*
X17300Y234360D02*
Y239358D01*
X14801D01*
X13968Y238525D01*
Y236859D01*
X14801Y236026D01*
X17300D01*
X15634D02*
X13968Y234360D01*
X9802D02*
Y239358D01*
X12302Y236859D01*
X8969D01*
X238840Y260330D02*
Y265328D01*
X236341D01*
X235508Y264495D01*
Y262829D01*
X236341Y261996D01*
X238840D01*
X237174D02*
X235508Y260330D01*
X233842D02*
X232176D01*
X233009D01*
Y265328D01*
X233842Y264495D01*
X45720Y195950D02*
X50718D01*
X49052Y197616D01*
X50718Y199282D01*
X45720D01*
X50718Y203447D02*
Y201781D01*
X49885Y200948D01*
X46553D01*
X45720Y201781D01*
Y203447D01*
X46553Y204281D01*
X49885D01*
X50718Y203447D01*
X49885Y209279D02*
X50718Y208446D01*
Y206780D01*
X49885Y205947D01*
X49052D01*
X48219Y206780D01*
Y208446D01*
X47386Y209279D01*
X46553D01*
X45720Y208446D01*
Y206780D01*
X46553Y205947D01*
X50718Y214277D02*
Y210945D01*
X48219D01*
Y212611D01*
Y210945D01*
X45720D01*
X50718Y219276D02*
Y215944D01*
X45720D01*
Y219276D01*
X48219Y215944D02*
Y217610D01*
X50718Y220942D02*
Y224274D01*
Y222608D01*
X45720D01*
X49885Y225940D02*
X50718Y226773D01*
Y228439D01*
X49885Y229272D01*
X49052D01*
X48219Y228439D01*
Y227606D01*
Y228439D01*
X47386Y229272D01*
X46553D01*
X45720Y228439D01*
Y226773D01*
X46553Y225940D01*
X293290Y255040D02*
Y260038D01*
X291624Y258372D01*
X289958Y260038D01*
Y255040D01*
X285792Y260038D02*
X287459D01*
X288292Y259205D01*
Y255873D01*
X287459Y255040D01*
X285792D01*
X284959Y255873D01*
Y259205D01*
X285792Y260038D01*
X279961Y259205D02*
X280794Y260038D01*
X282460D01*
X283293Y259205D01*
Y258372D01*
X282460Y257539D01*
X280794D01*
X279961Y256706D01*
Y255873D01*
X280794Y255040D01*
X282460D01*
X283293Y255873D01*
X274963Y260038D02*
X278295D01*
Y257539D01*
X276629D01*
X278295D01*
Y255040D01*
X269964Y260038D02*
X273297D01*
Y255040D01*
X269964D01*
X273297Y257539D02*
X271630D01*
X268298Y260038D02*
X264966D01*
X266632D01*
Y255040D01*
X259968D02*
X263300D01*
X259968Y258372D01*
Y259205D01*
X260801Y260038D01*
X262467D01*
X263300Y259205D01*
X219391Y285690D02*
Y290688D01*
X217725Y289022D01*
X216059Y290688D01*
Y285690D01*
X211893Y290688D02*
X213559D01*
X214393Y289855D01*
Y286523D01*
X213559Y285690D01*
X211893D01*
X211060Y286523D01*
Y289855D01*
X211893Y290688D01*
X206062Y289855D02*
X206895Y290688D01*
X208561D01*
X209394Y289855D01*
Y289022D01*
X208561Y288189D01*
X206895D01*
X206062Y287356D01*
Y286523D01*
X206895Y285690D01*
X208561D01*
X209394Y286523D01*
X201064Y290688D02*
X204396D01*
Y288189D01*
X202730D01*
X204396D01*
Y285690D01*
X196065Y290688D02*
X199398D01*
Y285690D01*
X196065D01*
X199398Y288189D02*
X197731D01*
X194399Y290688D02*
X191067D01*
X192733D01*
Y285690D01*
X189401D02*
X187735D01*
X188568D01*
Y290688D01*
X189401Y289855D01*
X282518Y131558D02*
X285850D01*
Y129059D01*
X284184D01*
X285850D01*
Y126560D01*
X280852Y131558D02*
Y126560D01*
X277519D01*
X275853Y130725D02*
X275020Y131558D01*
X273354D01*
X272521Y130725D01*
Y129892D01*
X273354Y129059D01*
X274187D01*
X273354D01*
X272521Y128226D01*
Y127393D01*
X273354Y126560D01*
X275020D01*
X275853Y127393D01*
X280948Y150948D02*
X284280D01*
Y148449D01*
X282614D01*
X284280D01*
Y145950D01*
X279282Y150948D02*
Y145950D01*
X275949D01*
X274283D02*
X272617D01*
X273450D01*
Y150948D01*
X274283Y150115D01*
X77478Y65588D02*
X80810D01*
Y63089D01*
X79144D01*
X80810D01*
Y60590D01*
X75812Y65588D02*
Y60590D01*
X73313D01*
X72479Y61423D01*
Y62256D01*
X73313Y63089D01*
X75812D01*
X73313D01*
X72479Y63922D01*
Y64755D01*
X73313Y65588D01*
X75812D01*
X67481Y60590D02*
X70813D01*
X67481Y63922D01*
Y64755D01*
X68314Y65588D01*
X69980D01*
X70813Y64755D01*
X214208Y343358D02*
X217540D01*
Y340859D01*
X215874D01*
X217540D01*
Y338360D01*
X212542Y343358D02*
Y338360D01*
X210042D01*
X209209Y339193D01*
Y340026D01*
X210042Y340859D01*
X212542D01*
X210042D01*
X209209Y341692D01*
Y342525D01*
X210042Y343358D01*
X212542D01*
X207543Y338360D02*
X205877D01*
X206710D01*
Y343358D01*
X207543Y342525D01*
X290998Y373755D02*
X291831Y374588D01*
X293497D01*
X294330Y373755D01*
Y370423D01*
X293497Y369590D01*
X291831D01*
X290998Y370423D01*
X289332Y373755D02*
X288499Y374588D01*
X286832D01*
X285999Y373755D01*
Y372922D01*
X286832Y372089D01*
X287666D01*
X286832D01*
X285999Y371256D01*
Y370423D01*
X286832Y369590D01*
X288499D01*
X289332Y370423D01*
X284333Y369590D02*
X282667D01*
X283500D01*
Y374588D01*
X284333Y373755D01*
X64118Y95645D02*
X64951Y96478D01*
X66617D01*
X67450Y95645D01*
Y92313D01*
X66617Y91480D01*
X64951D01*
X64118Y92313D01*
X62452Y95645D02*
X61619Y96478D01*
X59953D01*
X59119Y95645D01*
Y94812D01*
X59953Y93979D01*
X60785D01*
X59953D01*
X59119Y93146D01*
Y92313D01*
X59953Y91480D01*
X61619D01*
X62452Y92313D01*
X57453Y95645D02*
X56620Y96478D01*
X54954D01*
X54121Y95645D01*
Y92313D01*
X54954Y91480D01*
X56620D01*
X57453Y92313D01*
Y95645D01*
X68838Y226035D02*
X69671Y226868D01*
X71337D01*
X72170Y226035D01*
Y222703D01*
X71337Y221870D01*
X69671D01*
X68838Y222703D01*
X63839Y221870D02*
X67172D01*
X63839Y225202D01*
Y226035D01*
X64672Y226868D01*
X66339D01*
X67172Y226035D01*
X62173D02*
X61340Y226868D01*
X59674D01*
X58841Y226035D01*
Y225202D01*
X59674Y224369D01*
X58841Y223536D01*
Y222703D01*
X59674Y221870D01*
X61340D01*
X62173Y222703D01*
Y223536D01*
X61340Y224369D01*
X62173Y225202D01*
Y226035D01*
X61340Y224369D02*
X59674D01*
X229068Y195885D02*
X229901Y196718D01*
X231567D01*
X232400Y195885D01*
Y192553D01*
X231567Y191719D01*
X229901D01*
X229068Y192553D01*
X227402Y191719D02*
X225735D01*
X226569D01*
Y196718D01*
X227402Y195885D01*
X220737Y191719D02*
Y196718D01*
X223236Y194219D01*
X219904D01*
X77478Y252485D02*
X78311Y253318D01*
X79977D01*
X80810Y252485D01*
Y249153D01*
X79977Y248320D01*
X78311D01*
X77478Y249153D01*
X75812Y248320D02*
X74145D01*
X74979D01*
Y253318D01*
X75812Y252485D01*
X71646Y248320D02*
X69980D01*
X70813D01*
Y253318D01*
X71646Y252485D01*
X14638Y281285D02*
X15471Y282118D01*
X17137D01*
X17970Y281285D01*
Y277953D01*
X17137Y277120D01*
X15471D01*
X14638Y277953D01*
X12972Y277120D02*
X11306D01*
X12139D01*
Y282118D01*
X12972Y281285D01*
X8806D02*
X7973Y282118D01*
X6307D01*
X5474Y281285D01*
Y277953D01*
X6307Y277120D01*
X7973D01*
X8806Y277953D01*
Y281285D01*
X119478Y367265D02*
X120311Y368098D01*
X121977D01*
X122810Y367265D01*
Y363933D01*
X121977Y363100D01*
X120311D01*
X119478Y363933D01*
X114479Y368098D02*
X116145Y367265D01*
X117812Y365599D01*
Y363933D01*
X116979Y363100D01*
X115312D01*
X114479Y363933D01*
Y364766D01*
X115312Y365599D01*
X117812D01*
X208652Y377905D02*
X207819Y377072D01*
X206153D01*
X205320Y377905D01*
Y381237D01*
X206153Y382070D01*
X207819D01*
X208652Y381237D01*
X213651Y377072D02*
X210318D01*
Y379571D01*
X211985Y378738D01*
X212818D01*
X213651Y379571D01*
Y381237D01*
X212818Y382070D01*
X211151D01*
X210318Y381237D01*
D23*
X21740Y136950D02*
G03*
X21740Y136950I-1000J0D01*
G01*
X23740Y125700D02*
Y126146D01*
X25794Y128200D01*
X23740Y118700D02*
Y128200D01*
X23754Y124712D02*
X27256Y128214D01*
X23740Y128200D02*
X52740D01*
X23740Y118700D02*
X52740D01*
Y128200D01*
D25*
X360096Y306410D02*
G03*
X360096Y306410I-1453J0D01*
G01*
D73*
X52341Y68660D02*
Y81160D01*
X25608Y68660D02*
X52341D01*
X25608D02*
Y81160D01*
X52341D01*
X146921Y252650D02*
Y265150D01*
X120188Y252650D02*
X146921D01*
X120188D02*
Y265150D01*
X146921D01*
X119168Y230182D02*
Y249684D01*
Y230182D02*
X128888D01*
Y249684D01*
X119168D02*
X128888D01*
X128842Y208216D02*
Y227718D01*
X119122D02*
X128842D01*
X119122Y208216D02*
Y227718D01*
Y208216D02*
X128842D01*
X119168Y182992D02*
Y202494D01*
Y182992D02*
X128888D01*
Y202494D01*
X119168D02*
X128888D01*
X128352Y152426D02*
Y171928D01*
X118632D02*
X128352D01*
X118632Y152426D02*
Y171928D01*
Y152426D02*
X128352D01*
X166616Y198128D02*
X186118D01*
Y207848D01*
X166616D02*
X186118D01*
X166616Y198128D02*
Y207848D01*
X162702Y197966D02*
Y217468D01*
X152982D02*
X162702D01*
X152982Y197966D02*
Y217468D01*
Y197966D02*
X162702D01*
X139260Y224771D02*
X151760D01*
Y198038D02*
Y224771D01*
X139260Y198038D02*
X151760D01*
X139260D02*
Y224771D01*
X145208Y177372D02*
Y196874D01*
Y177372D02*
X154928D01*
Y196874D01*
X145208D02*
X154928D01*
X156208Y177422D02*
Y196924D01*
Y177422D02*
X165928D01*
Y196924D01*
X156208D02*
X165928D01*
X166726Y187148D02*
X186228D01*
Y196868D01*
X166726D02*
X186228D01*
X166726Y187148D02*
Y196868D01*
X168846Y210948D02*
X188348D01*
Y220668D01*
X168846D02*
X188348D01*
X168846Y210948D02*
Y220668D01*
X163666Y252728D02*
X183168D01*
Y262448D01*
X163666D02*
X183168D01*
X163666Y252728D02*
Y262448D01*
X146501Y266810D02*
Y279310D01*
X119768Y266810D02*
X146501D01*
X119768D02*
Y279310D01*
X146501D01*
X338142Y73966D02*
Y93468D01*
X328422D02*
X338142D01*
X328422Y73966D02*
Y93468D01*
Y73966D02*
X338142D01*
X193526Y160768D02*
X213028D01*
Y170488D01*
X193526D02*
X213028D01*
X193526Y160768D02*
Y170488D01*
X211942Y206366D02*
Y225868D01*
X202222D02*
X211942D01*
X202222Y206366D02*
Y225868D01*
Y206366D02*
X211942D01*
X218662Y186692D02*
X238164D01*
X218662Y176972D02*
Y186692D01*
Y176972D02*
X238164D01*
Y186692D01*
X228672Y220656D02*
Y240158D01*
X218952D02*
X228672D01*
X218952Y220656D02*
Y240158D01*
Y220656D02*
X228672D01*
X230190Y241121D02*
X242690D01*
Y214388D02*
Y241121D01*
X230190Y214388D02*
X242690D01*
X230190D02*
Y241121D01*
X243860Y241171D02*
X256360D01*
Y214438D02*
Y241171D01*
X243860Y214438D02*
X256360D01*
X243860D02*
Y241171D01*
X188652Y257256D02*
X198372D01*
X188652D02*
Y276758D01*
X198372D01*
Y257256D02*
Y276758D01*
X242482Y350376D02*
X252202D01*
X242482D02*
Y369878D01*
X252202D01*
Y350376D02*
Y369878D01*
X312132Y253136D02*
Y272638D01*
X302412D02*
X312132D01*
X302412Y253136D02*
Y272638D01*
Y253136D02*
X312132D01*
X365442Y268946D02*
X375162D01*
X365442D02*
Y288448D01*
X375162D01*
Y268946D02*
Y288448D01*
X294944Y358072D02*
Y367792D01*
X275442Y358072D02*
X294944D01*
X275442D02*
Y367792D01*
X294944D01*
X229892Y350486D02*
X239612D01*
X229892D02*
Y369988D01*
X239612D01*
Y350486D02*
Y369988D01*
X265548Y294892D02*
Y314394D01*
Y294892D02*
X275268D01*
Y314394D01*
X265548D02*
X275268D01*
X18976Y232048D02*
Y241768D01*
X38478D01*
Y232048D02*
Y241768D01*
X18976Y232048D02*
X38478D01*
X230518Y286744D02*
X240238D01*
Y267242D02*
Y286744D01*
X230518Y267242D02*
X240238D01*
X230518D02*
Y286744D01*
X215372Y384252D02*
X234874D01*
X215372Y374532D02*
Y384252D01*
Y374532D02*
X234874D01*
Y384252D01*
X124496Y360568D02*
X143998D01*
Y370288D01*
X124496D02*
X143998D01*
X124496Y360568D02*
Y370288D01*
X226410Y345305D02*
Y370060D01*
X213910D02*
X226410D01*
X213910Y345305D02*
Y370060D01*
Y345305D02*
X226410D01*
X56100Y188290D02*
Y219290D01*
X72100D01*
X56100Y188290D02*
X72100D01*
Y219290D01*
X25498Y96860D02*
X52231D01*
X25498Y84360D02*
Y96860D01*
Y84360D02*
X52231D01*
Y96860D01*
X56190Y81020D02*
X80945D01*
X56190Y68520D02*
Y81020D01*
Y68520D02*
X80945D01*
Y81020D01*
X7572Y105666D02*
X17292D01*
X7572D02*
Y125168D01*
X17292D01*
Y105666D02*
Y125168D01*
X7442Y78456D02*
X17162D01*
X7442D02*
Y97958D01*
X17162D01*
Y78456D02*
Y97958D01*
X7288Y255022D02*
Y274524D01*
Y255022D02*
X17008D01*
Y274524D01*
X7288D02*
X17008D01*
X70278Y254832D02*
Y274334D01*
Y254832D02*
X79998D01*
Y274334D01*
X70278D02*
X79998D01*
X218658Y218894D02*
X228378D01*
Y199392D02*
Y218894D01*
X218658Y199392D02*
X228378D01*
X218658D02*
Y218894D01*
M02*
