G04*
G04 #@! TF.GenerationSoftware,Altium Limited,Altium Designer,19.1.1 (5)*
G04*
G04 Layer_Color=32768*
%FSLAX44Y44*%
%MOMM*%
G71*
G01*
G75*
%ADD76C,0.1999*%
%ADD77C,0.1270*%
%ADD78C,0.1001*%
%ADD79C,0.0500*%
D76*
X293782Y176100D02*
G03*
X293782Y176100I-1001J0D01*
G01*
X294172Y159560D02*
G03*
X294172Y159560I-1001J0D01*
G01*
X294372Y141850D02*
G03*
X294372Y141850I-1001J0D01*
G01*
X322850Y167501D02*
Y232499D01*
Y167501D02*
X389850D01*
Y232499D01*
X322850D02*
X389850D01*
D77*
X46479Y152290D02*
X68481D01*
X46479Y179290D02*
X68481D01*
Y152290D02*
Y179290D01*
X46479Y152290D02*
Y179290D01*
X35391Y253501D02*
X52389D01*
Y284499D01*
X35391D02*
X52389D01*
X35391Y253501D02*
Y284499D01*
X271529Y178101D02*
X284031D01*
X271529Y168099D02*
Y178101D01*
Y168099D02*
X284031D01*
Y178101D01*
X165101Y371329D02*
X182099D01*
X165101Y340331D02*
Y371329D01*
Y340331D02*
X182099D01*
Y371329D01*
X284421Y151559D02*
Y161561D01*
X271919Y151559D02*
X284421D01*
X271919D02*
Y161561D01*
X284421D01*
X284621Y133849D02*
Y143851D01*
X272119Y133849D02*
X284621D01*
X272119D02*
Y143851D01*
X284621D01*
D78*
X306850Y152500D02*
Y247500D01*
Y152500D02*
X399850D01*
Y247500D01*
X306850D02*
X399850D01*
X285280Y328620D02*
X294881Y338219D01*
X265879Y328620D02*
X294881D01*
X265879D02*
Y341620D01*
X294881D01*
Y328620D02*
Y341620D01*
D79*
X262879Y316621D02*
X297881D01*
X262879D02*
Y353619D01*
X297881D01*
Y316621D02*
Y353619D01*
M02*
