G04*
G04 #@! TF.GenerationSoftware,Altium Limited,Altium Designer,19.1.1 (5)*
G04*
G04 Layer_Color=8388736*
%FSLAX44Y44*%
%MOMM*%
G71*
G01*
G75*
%ADD10C,0.1524*%
%ADD75C,0.0000*%
D10*
X165821Y162021D02*
Y190019D01*
X170819Y195020D01*
X167820D02*
X170819D01*
Y192020D02*
Y195020D01*
D75*
X167822Y190017D02*
X167822Y190017D01*
X167822Y190018D01*
X167822Y190018D01*
Y190018D01*
X167822Y190019D01*
X167822Y190019D01*
X167822Y190019D01*
X167821Y190019D01*
X167821D01*
X167820Y190019D01*
X167820Y190019D01*
X167820Y190019D01*
X167820Y190018D01*
Y190018D01*
X167820Y190018D01*
X167820Y190017D01*
X167820Y190017D01*
X167822Y190015D02*
Y190016D01*
X167820D01*
Y190015D01*
X167821Y190016D02*
Y190016D01*
X167822Y190014D02*
X167820D01*
X167822D02*
X167820Y190013D01*
X167822D02*
X167820D01*
X167822Y190011D02*
X167820D01*
X167822Y190012D02*
Y190010D01*
Y190009D02*
Y190010D01*
X167820D01*
Y190009D01*
X167821Y190010D02*
Y190009D01*
X167822Y190008D02*
X167820D01*
X167822D02*
Y190007D01*
X167822Y190007D01*
X167822Y190007D01*
X167822Y190006D01*
X167822D01*
X167821Y190007D01*
X167821Y190007D01*
X167821Y190007D01*
Y190008D01*
Y190007D02*
X167820Y190006D01*
X167822Y190003D02*
X167822Y190003D01*
X167822Y190004D01*
X167822Y190004D01*
X167821Y190004D01*
X167821D01*
X167820Y190004D01*
X167820Y190004D01*
X167820Y190003D01*
X167820Y190003D01*
Y190002D01*
X167820Y190002D01*
X167820Y190002D01*
X167820Y190002D01*
X167821Y190002D01*
X167821D01*
X167822Y190002D01*
X167822Y190002D01*
X167822Y190002D01*
X167822Y190002D01*
Y190003D01*
Y190001D02*
X167820D01*
X167822D02*
Y190000D01*
X167821Y190001D02*
Y190000D01*
X167822Y189996D02*
X167820D01*
X167822Y189997D02*
Y189996D01*
Y189995D02*
X167820D01*
X167822Y189994D02*
X167820D01*
X167821Y189995D02*
Y189994D01*
X167822Y189991D02*
Y189993D01*
X167820D01*
Y189991D01*
X167821Y189993D02*
Y189992D01*
X167820Y189987D02*
X167822Y189988D01*
X167820Y189989D01*
X167821Y189989D02*
Y189987D01*
X167822Y189985D02*
X167822Y189985D01*
X167822Y189985D01*
X167822Y189985D01*
Y189986D01*
X167822Y189986D01*
X167822Y189986D01*
X167822Y189986D01*
X167821Y189986D01*
X167821D01*
X167820Y189986D01*
X167820Y189986D01*
X167820Y189986D01*
X167820Y189986D01*
Y189985D01*
X167820Y189985D01*
X167820Y189985D01*
X167820Y189985D01*
X167822Y189983D02*
X167820D01*
X167822Y189984D02*
Y189982D01*
Y189982D02*
X167820D01*
X167822Y189981D02*
X167820Y189980D01*
X167822Y189979D02*
X167820Y189980D01*
X167822Y189977D02*
Y189979D01*
X167820D01*
Y189977D01*
X167821Y189979D02*
Y189978D01*
X167822Y189975D02*
X167820D01*
X167822Y189974D02*
X167820D01*
X167822D02*
X167820Y189974D01*
X167822Y189973D02*
X167820Y189974D01*
X167822Y189973D02*
X167820D01*
Y189970D02*
X167822Y189971D01*
X167820Y189972D01*
X167821Y189972D02*
Y189970D01*
X167822Y189967D02*
X167822Y189968D01*
X167822Y189968D01*
X167822Y189968D01*
Y189969D01*
X167822Y189969D01*
X167822Y189969D01*
X167822Y189969D01*
X167821Y189969D01*
X167821D01*
X167820Y189969D01*
X167820Y189969D01*
X167820Y189969D01*
X167820Y189969D01*
Y189968D01*
X167820Y189968D01*
X167820Y189968D01*
X167820Y189967D01*
X167821D01*
Y189968D02*
Y189967D01*
X167822Y189965D02*
Y189967D01*
X167820D01*
Y189965D01*
X167821Y189967D02*
Y189966D01*
X167820Y189961D02*
X167822Y189962D01*
X167820Y189963D01*
X167821Y189963D02*
Y189961D01*
X167822Y189960D02*
X167820D01*
X167822D02*
Y189959D01*
X167822Y189959D01*
X167822Y189959D01*
X167822Y189959D01*
X167822D01*
X167821Y189959D01*
X167821Y189959D01*
X167821Y189959D01*
Y189960D01*
Y189960D02*
X167820Y189959D01*
X167822Y189956D02*
Y189958D01*
X167820D01*
Y189956D01*
X167821Y189958D02*
Y189957D01*
X167820Y189954D02*
X167822Y189955D01*
X167820Y189956D01*
X167821Y189956D02*
Y189954D01*
M02*
