G04*
G04 #@! TF.GenerationSoftware,Altium Limited,Altium Designer,19.1.1 (5)*
G04*
G04 Layer_Color=255*
%FSLAX44Y44*%
%MOMM*%
G71*
G01*
G75*
%ADD26C,2.0000*%
%ADD27C,1.3000*%
%ADD28C,2.3000*%
%ADD31R,0.8000X0.9000*%
%ADD32O,0.5000X1.1000*%
%ADD33R,0.5000X1.1000*%
%ADD34R,2.2200X1.2400*%
G04:AMPARAMS|DCode=35|XSize=0.59mm|YSize=1.3701mm|CornerRadius=0.0443mm|HoleSize=0mm|Usage=FLASHONLY|Rotation=90.000|XOffset=0mm|YOffset=0mm|HoleType=Round|Shape=RoundedRectangle|*
%AMROUNDEDRECTD35*
21,1,0.5900,1.2816,0,0,90.0*
21,1,0.5015,1.3701,0,0,90.0*
1,1,0.0885,0.6408,0.2508*
1,1,0.0885,0.6408,-0.2508*
1,1,0.0885,-0.6408,-0.2508*
1,1,0.0885,-0.6408,0.2508*
%
%ADD35ROUNDEDRECTD35*%
%ADD36R,0.6000X0.5600*%
%ADD37R,0.5600X0.6000*%
%ADD38R,0.9000X0.8000*%
%ADD39R,0.2540X0.5588*%
%ADD40R,0.7000X0.3000*%
%ADD41R,1.0160X1.2700*%
%ADD42R,0.8499X0.2301*%
%ADD43R,1.0000X0.2301*%
%ADD44R,1.3800X1.8001*%
%ADD45R,2.0000X1.7000*%
%ADD46R,0.6500X1.1001*%
%ADD47R,0.6096X0.2540*%
%ADD48R,0.2540X0.6096*%
%ADD49R,0.9000X0.6000*%
%ADD50R,1.2700X0.8620*%
%ADD51R,0.6000X0.9000*%
D26*
X30000Y30000D02*
D03*
Y370000D02*
D03*
X370000Y30000D02*
D03*
Y370000D02*
D03*
D27*
X246789Y112251D02*
D03*
X102791Y284249D02*
D03*
D28*
X113789Y92251D02*
D03*
X235791D02*
D03*
X113789Y304249D02*
D03*
X235791D02*
D03*
D31*
X31350Y74910D02*
D03*
X46590D02*
D03*
X125930Y258900D02*
D03*
X141170D02*
D03*
X125510Y273060D02*
D03*
X140750D02*
D03*
X46480Y90610D02*
D03*
X31240D02*
D03*
D32*
X28740Y109950D02*
D03*
X47740D02*
D03*
Y136950D02*
D03*
X38240D02*
D03*
D33*
X28740D02*
D03*
D34*
X57480Y176689D02*
D03*
Y154891D02*
D03*
D35*
X32140Y259500D02*
D03*
Y269000D02*
D03*
Y278500D02*
D03*
X55640D02*
D03*
Y259500D02*
D03*
X185350Y365330D02*
D03*
Y355830D02*
D03*
Y346330D02*
D03*
X161850D02*
D03*
Y365330D02*
D03*
D36*
X124020Y245010D02*
D03*
Y234850D02*
D03*
X123990Y212890D02*
D03*
Y223050D02*
D03*
X124020Y197820D02*
D03*
Y187660D02*
D03*
X123500Y157100D02*
D03*
Y167260D02*
D03*
X157850Y202640D02*
D03*
Y212800D02*
D03*
X150060Y192200D02*
D03*
Y182040D02*
D03*
X161060Y192250D02*
D03*
Y182090D02*
D03*
X333290Y78640D02*
D03*
Y88800D02*
D03*
X207090Y211040D02*
D03*
Y221200D02*
D03*
X223820Y225330D02*
D03*
Y235490D02*
D03*
X193520Y272090D02*
D03*
Y261930D02*
D03*
X247350Y365210D02*
D03*
Y355050D02*
D03*
X307280Y257810D02*
D03*
Y267970D02*
D03*
X370310Y283780D02*
D03*
Y273620D02*
D03*
X234760Y365320D02*
D03*
Y355160D02*
D03*
X270400Y309720D02*
D03*
Y299560D02*
D03*
X235370Y271910D02*
D03*
Y282070D02*
D03*
X12440Y120500D02*
D03*
Y110340D02*
D03*
X12310Y93290D02*
D03*
Y83130D02*
D03*
X12140Y269850D02*
D03*
Y259690D02*
D03*
X75130Y269660D02*
D03*
Y259500D02*
D03*
X223510Y204060D02*
D03*
Y214220D02*
D03*
D37*
X171290Y202980D02*
D03*
X181450D02*
D03*
X171400Y192000D02*
D03*
X181560D02*
D03*
X173520Y215800D02*
D03*
X183680D02*
D03*
X168340Y257580D02*
D03*
X178500D02*
D03*
X198200Y165620D02*
D03*
X208360D02*
D03*
X233490Y181840D02*
D03*
X223330D02*
D03*
X280110Y362940D02*
D03*
X290270D02*
D03*
X33810Y236900D02*
D03*
X23650D02*
D03*
X230200Y379400D02*
D03*
X220040D02*
D03*
X129170Y365420D02*
D03*
X139330D02*
D03*
D38*
X145510Y203780D02*
D03*
Y219020D02*
D03*
X236440Y220130D02*
D03*
Y235370D02*
D03*
X250110Y220180D02*
D03*
Y235420D02*
D03*
D39*
X319930Y97818D02*
D03*
X314930D02*
D03*
X309930D02*
D03*
X304930D02*
D03*
Y68842D02*
D03*
X309930D02*
D03*
X314930D02*
D03*
X319930D02*
D03*
D40*
X271529Y175851D02*
D03*
Y170349D02*
D03*
X284031D02*
D03*
Y175851D02*
D03*
X284421Y159311D02*
D03*
Y153809D02*
D03*
X271919D02*
D03*
Y159311D02*
D03*
X284621Y141601D02*
D03*
Y136099D02*
D03*
X272119D02*
D03*
Y141601D02*
D03*
D41*
X350149Y268112D02*
D03*
X331893Y268191D02*
D03*
X331972Y291369D02*
D03*
X350467Y291448D02*
D03*
D42*
X325100Y181999D02*
D03*
Y186000D02*
D03*
Y190000D02*
D03*
Y194000D02*
D03*
Y198001D02*
D03*
Y201999D02*
D03*
Y206000D02*
D03*
Y210000D02*
D03*
Y214000D02*
D03*
Y218001D02*
D03*
D43*
X337351Y184000D02*
D03*
Y188001D02*
D03*
Y191999D02*
D03*
Y196000D02*
D03*
Y200000D02*
D03*
Y204000D02*
D03*
Y208001D02*
D03*
Y211999D02*
D03*
Y216000D02*
D03*
D44*
X339250Y228499D02*
D03*
Y171501D02*
D03*
D45*
X372850Y228999D02*
D03*
Y171001D02*
D03*
D46*
X280380Y345620D02*
D03*
X270779Y324620D02*
D03*
X289981D02*
D03*
D47*
X274209Y277110D02*
D03*
Y272110D02*
D03*
Y267110D02*
D03*
X257191D02*
D03*
Y272110D02*
D03*
Y277110D02*
D03*
X222439Y277060D02*
D03*
Y272060D02*
D03*
Y267060D02*
D03*
X205421D02*
D03*
Y272060D02*
D03*
Y277060D02*
D03*
D48*
X39170Y206141D02*
D03*
X34170D02*
D03*
X29170D02*
D03*
Y223159D02*
D03*
X34170D02*
D03*
X39170D02*
D03*
D49*
X220160Y350060D02*
D03*
Y365300D02*
D03*
D50*
X64100Y194290D02*
D03*
Y213290D02*
D03*
D51*
X76190Y74770D02*
D03*
X60950D02*
D03*
M02*
