G04*
G04 #@! TF.GenerationSoftware,Altium Limited,Altium Designer,20.1.12 (249)*
G04*
G04 Layer_Physical_Order=4*
G04 Layer_Color=6736896*
%FSLAX44Y44*%
%MOMM*%
G71*
G04*
G04 #@! TF.SameCoordinates,92C3D8CC-84FC-494B-B6CF-3A4A02D2A6DE*
G04*
G04*
G04 #@! TF.FilePolarity,Positive*
G04*
G01*
G75*
%ADD13C,0.2540*%
%ADD174C,1.7000*%
%ADD201C,0.4000*%
%ADD202C,0.3048*%
%ADD203C,0.1067*%
%ADD204C,0.5080*%
%ADD205C,0.1143*%
%ADD207C,0.1041*%
%ADD208C,0.1270*%
%ADD211C,0.6500*%
%ADD212O,1.0000X1.6000*%
%ADD215C,1.0400*%
%ADD218O,1.4000X2.8500*%
%ADD219O,1.2000X2.2500*%
%ADD220C,2.6000*%
%ADD221C,1.6500*%
%ADD223R,1.7000X1.7000*%
%ADD225O,2.0000X4.0000*%
%ADD226O,4.0000X2.0000*%
%ADD231C,0.5080*%
%ADD255C,0.1168*%
%ADD256C,0.1092*%
G36*
X431500Y470171D02*
X431500Y454500D01*
X428500Y451500D01*
X409898Y451500D01*
X409000Y452398D01*
X409001Y469501D01*
X413000Y473500D01*
X428171D01*
X431500Y470171D01*
D02*
G37*
G36*
X267000Y636500D02*
X296000D01*
X361500Y571000D01*
X404500D01*
X425000Y550500D01*
Y484500D01*
X418000Y477500D01*
X399500D01*
X394000Y472000D01*
Y451871D01*
X392880Y451272D01*
X392573Y451477D01*
X390789Y451832D01*
X389005Y451477D01*
X387493Y450467D01*
X386482Y448954D01*
X386128Y447170D01*
X386482Y445387D01*
X387493Y443874D01*
X389005Y442864D01*
X390789Y442509D01*
X392573Y442864D01*
X392880Y443069D01*
X394000Y442470D01*
Y436500D01*
X401500Y429000D01*
Y415900D01*
X400230Y415273D01*
X399847Y415567D01*
X398088Y416296D01*
X396200Y416544D01*
X394312Y416296D01*
X392553Y415567D01*
X391042Y414408D01*
X389883Y412897D01*
X389154Y411138D01*
X388906Y409250D01*
X389154Y407362D01*
X389883Y405603D01*
X391042Y404092D01*
X391638Y403635D01*
Y402365D01*
X391042Y401908D01*
X389883Y400397D01*
X389154Y398638D01*
X388906Y396750D01*
X389154Y394862D01*
X389883Y393103D01*
X391042Y391592D01*
X391638Y391135D01*
Y389865D01*
X391042Y389408D01*
X389883Y387897D01*
X389154Y386138D01*
X388906Y384250D01*
X389154Y382362D01*
X389883Y380603D01*
X391042Y379092D01*
X392553Y377933D01*
X394312Y377204D01*
X396200Y376956D01*
X398088Y377204D01*
X399847Y377933D01*
X400230Y378227D01*
X401500Y377600D01*
Y334000D01*
X414000Y321500D01*
X465500D01*
X485000Y302000D01*
Y254000D01*
X254000D01*
X254000Y647841D01*
X255173Y648327D01*
X267000Y636500D01*
D02*
G37*
G36*
X427000Y397000D02*
Y375000D01*
X415500Y363500D01*
X407500D01*
X405500Y365500D01*
Y397000D01*
X408000Y400500D01*
X409500Y402000D01*
X422000D01*
X427000Y397000D01*
D02*
G37*
G36*
X719500Y393000D02*
Y380500D01*
X721529Y378471D01*
X738471D01*
X743500Y383500D01*
X747500D01*
X749500Y381500D01*
Y369500D01*
X747500Y367500D01*
X671000D01*
X668500Y370000D01*
X668500Y381500D01*
X670000Y383000D01*
X704000D01*
X709000Y388000D01*
Y393000D01*
X710500Y394500D01*
X718000D01*
X719500Y393000D01*
D02*
G37*
G36*
X1117000Y412500D02*
Y254000D01*
X926500D01*
Y327000D01*
X839500D01*
Y254000D01*
X627500D01*
Y282612D01*
X628770Y283138D01*
X634204Y277704D01*
X635716Y276693D01*
X637500Y276338D01*
X720000D01*
X721784Y276693D01*
X723296Y277704D01*
X759431Y313838D01*
X788000D01*
X789784Y314193D01*
X791296Y315204D01*
X801296Y325204D01*
X802307Y326716D01*
X802662Y328500D01*
Y341000D01*
X802533Y341649D01*
X802500Y342825D01*
X803455Y343028D01*
X804284Y343193D01*
X805796Y344204D01*
X806807Y345716D01*
X807162Y347500D01*
X807135Y347635D01*
X819000Y359500D01*
Y360154D01*
X819626Y360781D01*
X852500D01*
X853541Y360988D01*
X854423Y361577D01*
X854716Y361870D01*
X856000Y361614D01*
X858061Y362024D01*
X859808Y363192D01*
X860975Y364939D01*
X861385Y367000D01*
X861147Y368198D01*
X861986Y369660D01*
X862561Y369775D01*
X864308Y370942D01*
X864365Y371027D01*
X865635D01*
X865692Y370942D01*
X867439Y369775D01*
X869500Y369365D01*
X871561Y369775D01*
X873308Y370942D01*
X873365Y371027D01*
X874635D01*
X874692Y370942D01*
X876439Y369775D01*
X878500Y369365D01*
X880561Y369775D01*
X882308Y370942D01*
X882365Y371027D01*
X883635D01*
X883692Y370942D01*
X885439Y369775D01*
X887500Y369365D01*
X889561Y369775D01*
X891308Y370942D01*
X891365Y371027D01*
X892635D01*
X892692Y370942D01*
X894439Y369775D01*
X896500Y369365D01*
X898561Y369775D01*
X900308Y370942D01*
X900365Y371027D01*
X901635D01*
X901692Y370942D01*
X903439Y369775D01*
X904014Y369660D01*
X904853Y368198D01*
X904614Y367000D01*
X905024Y364939D01*
X906192Y363192D01*
X907939Y362024D01*
X910000Y361614D01*
X912061Y362024D01*
X913808Y363192D01*
X914976Y364939D01*
X915385Y367000D01*
X914976Y369061D01*
X913808Y370808D01*
X912061Y371976D01*
X911486Y372090D01*
X910647Y373552D01*
X910885Y374750D01*
X910475Y376811D01*
X909308Y378558D01*
X907561Y379725D01*
X905500Y380135D01*
X903439Y379725D01*
X901692Y378558D01*
X901635Y378473D01*
X900365D01*
X900308Y378558D01*
X898561Y379725D01*
X896500Y380135D01*
X894439Y379725D01*
X892692Y378558D01*
X892635Y378473D01*
X891365D01*
X891308Y378558D01*
X889561Y379725D01*
X887500Y380135D01*
X885439Y379725D01*
X883692Y378558D01*
X883635Y378473D01*
X882365D01*
X882308Y378558D01*
X880561Y379725D01*
X878500Y380135D01*
X876439Y379725D01*
X874692Y378558D01*
X874635Y378473D01*
X873365D01*
X873308Y378558D01*
X872219Y379286D01*
Y385000D01*
X872012Y386041D01*
X871423Y386923D01*
X861423Y396923D01*
X860541Y397512D01*
X859500Y397719D01*
X842626D01*
X826923Y413423D01*
X826041Y414012D01*
X825000Y414219D01*
X819000D01*
Y422000D01*
X839500Y442500D01*
X1087000D01*
X1117000Y412500D01*
D02*
G37*
G36*
X793338Y332179D02*
Y330431D01*
X786069Y323162D01*
X757500D01*
X755716Y322807D01*
X754204Y321796D01*
X718069Y285662D01*
X639431D01*
X634556Y290537D01*
X634990Y291898D01*
X635126Y291921D01*
X636216Y291193D01*
X638000Y290838D01*
X639784Y291193D01*
X641296Y292204D01*
X642307Y293716D01*
X642662Y295500D01*
X642307Y297284D01*
X641296Y298796D01*
X640762Y299153D01*
Y300681D01*
X640796Y300704D01*
X641807Y302216D01*
X642162Y304000D01*
X641807Y305784D01*
X640796Y307296D01*
X639284Y308307D01*
X637500Y308662D01*
X635716Y308307D01*
X634204Y307296D01*
X633818Y306719D01*
X630129D01*
X629643Y307893D01*
X637202Y315452D01*
X645077Y307577D01*
X645077Y307577D01*
X645959Y306988D01*
X647000Y306781D01*
X647000Y306781D01*
X729000D01*
X730041Y306988D01*
X730923Y307577D01*
X754194Y330848D01*
X755299Y330812D01*
X756132Y329775D01*
X756050Y329369D01*
X756405Y327585D01*
X757416Y326072D01*
X758928Y325062D01*
X760712Y324707D01*
X762496Y325062D01*
X763048Y325431D01*
X764078Y326032D01*
X765107Y325431D01*
X765659Y325062D01*
X767443Y324707D01*
X769227Y325062D01*
X770739Y326072D01*
X771750Y327585D01*
X772105Y329369D01*
X771975Y330018D01*
X772781Y331000D01*
X790500D01*
X792165Y332665D01*
X793338Y332179D01*
D02*
G37*
G36*
X1316500Y399500D02*
Y254000D01*
X1125500D01*
X1125499Y403499D01*
X1131500Y409500D01*
X1306500Y409500D01*
X1316500Y399500D01*
D02*
G37*
%LPC*%
G36*
X272500Y624838D02*
X270795Y624614D01*
X269206Y623956D01*
X267841Y622909D01*
X266794Y621544D01*
X266136Y619955D01*
X265912Y618250D01*
X266136Y616545D01*
X266794Y614956D01*
X267841Y613591D01*
X269206Y612544D01*
X270795Y611886D01*
X272500Y611662D01*
X274205Y611886D01*
X275794Y612544D01*
X277159Y613591D01*
X278206Y614956D01*
X278864Y616545D01*
X279088Y618250D01*
X278864Y619955D01*
X278206Y621544D01*
X277159Y622909D01*
X275794Y623956D01*
X274205Y624614D01*
X272500Y624838D01*
D02*
G37*
G36*
X352000Y555162D02*
X350216Y554807D01*
X348704Y553796D01*
X347693Y552284D01*
X347338Y550500D01*
X347615Y549111D01*
X346575Y548278D01*
X345784Y548807D01*
X344000Y549162D01*
X342216Y548807D01*
X340704Y547796D01*
X339693Y546284D01*
X339338Y544500D01*
X339693Y542716D01*
X340704Y541204D01*
X342216Y540193D01*
X344000Y539838D01*
X345784Y540193D01*
X346357Y540576D01*
X347500Y539813D01*
X347338Y539000D01*
X347615Y537611D01*
X346575Y536778D01*
X345784Y537307D01*
X344000Y537662D01*
X342216Y537307D01*
X340704Y536296D01*
X339693Y534784D01*
X339338Y533000D01*
X339693Y531216D01*
X340704Y529704D01*
X342216Y528693D01*
X344000Y528338D01*
X345784Y528693D01*
X346242Y529000D01*
X347385Y528236D01*
X347338Y528000D01*
X347693Y526216D01*
X347884Y525931D01*
X346968Y525015D01*
X345784Y525807D01*
X344000Y526162D01*
X342216Y525807D01*
X340704Y524796D01*
X339693Y523284D01*
X339338Y521500D01*
X339693Y519716D01*
X340704Y518204D01*
X342216Y517193D01*
X342447Y517147D01*
Y515853D01*
X342216Y515807D01*
X340704Y514796D01*
X339693Y513284D01*
X339338Y511500D01*
X339693Y509716D01*
X340704Y508204D01*
X342216Y507193D01*
X344000Y506838D01*
X345784Y507193D01*
X347296Y508204D01*
X348307Y509716D01*
X348662Y511500D01*
X348615Y511736D01*
X349758Y512500D01*
X350216Y512193D01*
X352000Y511838D01*
X353784Y512193D01*
X355296Y513204D01*
X356307Y514716D01*
X356353Y514947D01*
X357647D01*
X357693Y514716D01*
X358704Y513204D01*
X360216Y512193D01*
X362000Y511838D01*
X363784Y512193D01*
X365296Y513204D01*
X366153Y514487D01*
X367086Y514664D01*
X367585Y514631D01*
X368204Y513704D01*
X369716Y512693D01*
X371500Y512338D01*
X373284Y512693D01*
X374796Y513704D01*
X375807Y515216D01*
X376162Y517000D01*
X375807Y518784D01*
X374796Y520296D01*
X373284Y521307D01*
X371500Y521662D01*
X369716Y521307D01*
X368204Y520296D01*
X367347Y519013D01*
X366414Y518836D01*
X365915Y518870D01*
X365296Y519796D01*
X363784Y520807D01*
X362000Y521162D01*
X360216Y520807D01*
X358704Y519796D01*
X357693Y518284D01*
X357647Y518054D01*
X356353D01*
X356307Y518284D01*
X355296Y519796D01*
X353784Y520807D01*
X352000Y521162D01*
X350216Y520807D01*
X349758Y520500D01*
X348615Y521264D01*
X348662Y521500D01*
X348307Y523284D01*
X348116Y523569D01*
X349032Y524485D01*
X350216Y523693D01*
X352000Y523339D01*
X353784Y523693D01*
X355296Y524704D01*
X356307Y526216D01*
X356662Y528000D01*
X356307Y529784D01*
X355296Y531296D01*
X353784Y532307D01*
X352000Y532662D01*
X350216Y532307D01*
X349758Y532000D01*
X348615Y532764D01*
X348662Y533000D01*
X348385Y534389D01*
X349425Y535222D01*
X350216Y534693D01*
X352000Y534338D01*
X353784Y534693D01*
X355296Y535704D01*
X356307Y537216D01*
X356662Y539000D01*
X356307Y540784D01*
X355296Y542296D01*
X353784Y543307D01*
X352000Y543661D01*
X350216Y543307D01*
X349643Y542924D01*
X348500Y543687D01*
X348662Y544500D01*
X348385Y545889D01*
X349425Y546722D01*
X350216Y546193D01*
X352000Y545838D01*
X353784Y546193D01*
X355296Y547204D01*
X356307Y548716D01*
X356662Y550500D01*
X356307Y552284D01*
X355296Y553796D01*
X353784Y554807D01*
X352000Y555162D01*
D02*
G37*
G36*
X418000Y527162D02*
X416216Y526807D01*
X414704Y525796D01*
X413693Y524284D01*
X413338Y522500D01*
X413693Y520716D01*
X414704Y519204D01*
X416216Y518193D01*
X418000Y517838D01*
X419784Y518193D01*
X421296Y519204D01*
X422307Y520716D01*
X422662Y522500D01*
X422307Y524284D01*
X421296Y525796D01*
X419784Y526807D01*
X418000Y527162D01*
D02*
G37*
G36*
X352000Y508662D02*
X350216Y508307D01*
X348704Y507296D01*
X347693Y505784D01*
X347338Y504000D01*
X347693Y502216D01*
X348704Y500704D01*
X350216Y499693D01*
X352000Y499338D01*
X353784Y499693D01*
X355296Y500704D01*
X356307Y502216D01*
X356662Y504000D01*
X356307Y505784D01*
X355296Y507296D01*
X353784Y508307D01*
X352000Y508662D01*
D02*
G37*
G36*
X289800Y506462D02*
X288016Y506107D01*
X286504Y505096D01*
X285493Y503584D01*
X285138Y501800D01*
X285493Y500016D01*
X286504Y498504D01*
X288016Y497493D01*
X289800Y497138D01*
X291584Y497493D01*
X293096Y498504D01*
X294107Y500016D01*
X294462Y501800D01*
X294107Y503584D01*
X293096Y505096D01*
X291584Y506107D01*
X289800Y506462D01*
D02*
G37*
G36*
X381500Y493662D02*
X379716Y493307D01*
X378204Y492296D01*
X377193Y490784D01*
X376897Y489297D01*
X375603D01*
X375478Y489922D01*
X375307Y490784D01*
X374296Y492296D01*
X372784Y493307D01*
X371000Y493662D01*
X369216Y493307D01*
X367704Y492296D01*
X366693Y490784D01*
X366647Y490554D01*
X365353D01*
X365307Y490784D01*
X364296Y492296D01*
X362784Y493307D01*
X361000Y493662D01*
X359216Y493307D01*
X357704Y492296D01*
X357264Y491638D01*
X355736D01*
X355296Y492296D01*
X353784Y493307D01*
X352000Y493662D01*
X350216Y493307D01*
X348704Y492296D01*
X347693Y490784D01*
X347338Y489000D01*
X347693Y487216D01*
X348704Y485704D01*
X350216Y484693D01*
X352000Y484338D01*
X353784Y484693D01*
X355296Y485704D01*
X355736Y486362D01*
X357264D01*
X357704Y485704D01*
X359216Y484693D01*
X359446Y484647D01*
X359512Y483366D01*
X359216Y483307D01*
X357704Y482296D01*
X356693Y480784D01*
X356338Y479000D01*
X356693Y477216D01*
X357704Y475704D01*
X364338Y469069D01*
Y446500D01*
X364693Y444716D01*
X365704Y443204D01*
X369138Y439769D01*
Y427800D01*
X369493Y426016D01*
X370504Y424504D01*
X372016Y423493D01*
X373800Y423138D01*
X375584Y423493D01*
X377096Y424504D01*
X378107Y426016D01*
X378461Y427800D01*
Y441700D01*
X378107Y443484D01*
X377096Y444996D01*
X373662Y448431D01*
Y464375D01*
X374932Y464760D01*
X375504Y463904D01*
X377016Y462893D01*
X378800Y462538D01*
X380584Y462893D01*
X382096Y463904D01*
X383107Y465416D01*
X383462Y467200D01*
X383107Y468984D01*
X382096Y470496D01*
X380584Y471507D01*
X378800Y471862D01*
X377016Y471507D01*
X375504Y470496D01*
X374932Y469640D01*
X373662Y470025D01*
Y471000D01*
X373307Y472784D01*
X372296Y474296D01*
X364296Y482296D01*
X362784Y483307D01*
X362488Y483366D01*
X362553Y484647D01*
X362784Y484693D01*
X364296Y485704D01*
X365307Y487216D01*
X365353Y487447D01*
X366647D01*
X366693Y487216D01*
X367704Y485704D01*
X369216Y484693D01*
X371000Y484338D01*
X372784Y484693D01*
X374296Y485704D01*
X375307Y487216D01*
X375603Y488703D01*
X376897D01*
X377022Y488078D01*
X377193Y487216D01*
X378204Y485704D01*
X379324Y484956D01*
X379359Y484852D01*
Y483648D01*
X379324Y483544D01*
X378204Y482796D01*
X377193Y481284D01*
X376838Y479500D01*
X377193Y477716D01*
X378204Y476204D01*
X379716Y475193D01*
X381500Y474838D01*
X383284Y475193D01*
X384796Y476204D01*
X385544Y477324D01*
X385648Y477359D01*
X386852D01*
X386956Y477324D01*
X387704Y476204D01*
X389216Y475193D01*
X391000Y474838D01*
X392784Y475193D01*
X394296Y476204D01*
X395307Y477716D01*
X395662Y479500D01*
X395307Y481284D01*
X394296Y482796D01*
X392784Y483807D01*
X391000Y484162D01*
X389216Y483807D01*
X387704Y482796D01*
X386956Y481676D01*
X386852Y481641D01*
X385648D01*
X385544Y481676D01*
X384796Y482796D01*
X383676Y483544D01*
X383641Y483648D01*
Y484852D01*
X383676Y484956D01*
X384796Y485704D01*
X385807Y487216D01*
X386162Y489000D01*
X385807Y490784D01*
X384796Y492296D01*
X383284Y493307D01*
X381500Y493662D01*
D02*
G37*
G36*
X270000Y497162D02*
X268216Y496807D01*
X266704Y495796D01*
X265693Y494284D01*
X265338Y492500D01*
X265693Y490716D01*
X266704Y489204D01*
X268216Y488193D01*
X270000Y487838D01*
X271784Y488193D01*
X273296Y489204D01*
X274307Y490716D01*
X274662Y492500D01*
X274307Y494284D01*
X273296Y495796D01*
X271784Y496807D01*
X270000Y497162D01*
D02*
G37*
G36*
X277000Y488662D02*
X275216Y488307D01*
X273704Y487296D01*
X272693Y485784D01*
X272338Y484000D01*
X272693Y482216D01*
X273704Y480704D01*
X275216Y479693D01*
X277000Y479338D01*
X278784Y479693D01*
X280296Y480704D01*
X281307Y482216D01*
X281662Y484000D01*
X281307Y485784D01*
X280296Y487296D01*
X278784Y488307D01*
X277000Y488662D01*
D02*
G37*
G36*
X293000Y425162D02*
X291216Y424807D01*
X289704Y423796D01*
X288693Y422284D01*
X288338Y420500D01*
X288693Y418716D01*
X287910Y417602D01*
X286787Y416852D01*
X286414Y416693D01*
X285586D01*
X285213Y416852D01*
X283784Y417807D01*
X282000Y418162D01*
X280216Y417807D01*
X278704Y416796D01*
X277693Y415284D01*
X277338Y413500D01*
X277693Y411716D01*
X278704Y410204D01*
X280216Y409193D01*
X282000Y408839D01*
X283784Y409193D01*
X285213Y410148D01*
X285586Y410307D01*
X286414D01*
X286787Y410148D01*
X288216Y409193D01*
X290000Y408839D01*
X290165Y408871D01*
X290703Y407683D01*
X289919Y407081D01*
X287990Y404568D01*
X287689Y403842D01*
X286369Y403972D01*
X286307Y404284D01*
X285296Y405796D01*
X283784Y406807D01*
X282000Y407162D01*
X280216Y406807D01*
X278704Y405796D01*
X277693Y404284D01*
X277338Y402500D01*
X277693Y400716D01*
X278704Y399204D01*
X280216Y398193D01*
X281703Y397897D01*
Y396603D01*
X281078Y396478D01*
X280216Y396307D01*
X278704Y395296D01*
X277693Y393784D01*
X277338Y392000D01*
X277693Y390216D01*
X278704Y388704D01*
X280216Y387693D01*
X280446Y387647D01*
Y386353D01*
X280216Y386307D01*
X278704Y385296D01*
X277693Y383784D01*
X277338Y382000D01*
X277693Y380216D01*
X278704Y378704D01*
X280216Y377693D01*
X282000Y377338D01*
X283784Y377693D01*
X285296Y378704D01*
X286044Y379823D01*
X286148Y379859D01*
X287352D01*
X287456Y379823D01*
X288204Y378704D01*
X289716Y377693D01*
X291500Y377338D01*
X293284Y377693D01*
X294796Y378704D01*
X295807Y380216D01*
X295853Y380447D01*
X297147D01*
X297193Y380216D01*
X298204Y378704D01*
X299716Y377693D01*
X301500Y377338D01*
X303284Y377693D01*
X304796Y378704D01*
X305807Y380216D01*
X306103Y381703D01*
X307397D01*
X307522Y381078D01*
X307693Y380216D01*
X308704Y378704D01*
X310216Y377693D01*
X312000Y377338D01*
X313784Y377693D01*
X315296Y378704D01*
X316307Y380216D01*
X316662Y382000D01*
X316307Y383784D01*
X315431Y385094D01*
X315660Y385861D01*
X315984Y386364D01*
X319016D01*
X319340Y385861D01*
X319569Y385094D01*
X318693Y383784D01*
X318338Y382000D01*
X318693Y380216D01*
X319704Y378704D01*
X321216Y377693D01*
X323000Y377338D01*
X324784Y377693D01*
X326296Y378704D01*
X327307Y380216D01*
X327662Y382000D01*
X327307Y383784D01*
X326296Y385296D01*
X326102Y385426D01*
X326410Y386747D01*
X326641Y386778D01*
X329568Y387990D01*
X332081Y389919D01*
X333100Y391246D01*
X334369Y391204D01*
X334704Y390704D01*
X336216Y389693D01*
X338000Y389338D01*
X339784Y389693D01*
X341296Y390704D01*
X342307Y392216D01*
X342662Y394000D01*
X342307Y395784D01*
X341296Y397296D01*
X340638Y397736D01*
Y399264D01*
X341296Y399704D01*
X342307Y401216D01*
X342662Y403000D01*
X342307Y404784D01*
X341296Y406296D01*
X339784Y407307D01*
X338000Y407662D01*
X336216Y407307D01*
X334704Y406296D01*
X334369Y405796D01*
X333100Y405754D01*
X332081Y407081D01*
X329568Y409010D01*
X327185Y409997D01*
X326593Y411396D01*
X326807Y411716D01*
X327162Y413500D01*
X326807Y415284D01*
X325796Y416796D01*
X324284Y417807D01*
X322500Y418162D01*
X320716Y417807D01*
X319204Y416796D01*
X318193Y415284D01*
X317897Y413797D01*
X316603D01*
X316478Y414422D01*
X316307Y415284D01*
X315296Y416796D01*
X313784Y417807D01*
X312000Y418162D01*
X310216Y417807D01*
X308704Y416796D01*
X307693Y415284D01*
X307397Y413797D01*
X306103D01*
X305978Y414422D01*
X305807Y415284D01*
X304796Y416796D01*
X303284Y417807D01*
X301500Y418162D01*
X299716Y417807D01*
X298204Y416796D01*
X297193Y415284D01*
X296838Y413500D01*
X297188Y411744D01*
X297221Y411502D01*
X296583Y410383D01*
X295359Y410222D01*
X294636Y409923D01*
X293794Y410949D01*
X294307Y411716D01*
X294662Y413500D01*
X294307Y415284D01*
X295090Y416398D01*
X296296Y417204D01*
X297307Y418716D01*
X297662Y420500D01*
X297307Y422284D01*
X296296Y423796D01*
X294784Y424807D01*
X293000Y425162D01*
D02*
G37*
G36*
X334000Y418162D02*
X332216Y417807D01*
X330704Y416796D01*
X329693Y415284D01*
X329338Y413500D01*
X329693Y411716D01*
X330704Y410204D01*
X332216Y409193D01*
X334000Y408839D01*
X335784Y409193D01*
X337296Y410204D01*
X338307Y411716D01*
X338662Y413500D01*
X338307Y415284D01*
X337296Y416796D01*
X335784Y417807D01*
X334000Y418162D01*
D02*
G37*
G36*
Y386662D02*
X332216Y386307D01*
X330704Y385296D01*
X329693Y383784D01*
X329338Y382000D01*
X329693Y380216D01*
X330704Y378704D01*
X332216Y377693D01*
X334000Y377338D01*
X335784Y377693D01*
X337296Y378704D01*
X338307Y380216D01*
X338662Y382000D01*
X338307Y383784D01*
X337296Y385296D01*
X335784Y386307D01*
X334000Y386662D01*
D02*
G37*
G36*
X394300Y340362D02*
X392516Y340007D01*
X391004Y338996D01*
X389993Y337484D01*
X389638Y335700D01*
X389993Y333916D01*
X391004Y332404D01*
X392516Y331393D01*
X394300Y331038D01*
X396084Y331393D01*
X397596Y332404D01*
X398607Y333916D01*
X398962Y335700D01*
X398607Y337484D01*
X397596Y338996D01*
X396084Y340007D01*
X394300Y340362D01*
D02*
G37*
G36*
X394500Y319162D02*
X392716Y318807D01*
X391204Y317796D01*
X390193Y316284D01*
X389838Y314500D01*
X390193Y312716D01*
X391204Y311204D01*
X392716Y310193D01*
X394500Y309839D01*
X396284Y310193D01*
X397796Y311204D01*
X398807Y312716D01*
X399162Y314500D01*
X398807Y316284D01*
X397796Y317796D01*
X396284Y318807D01*
X394500Y319162D01*
D02*
G37*
G36*
X406800Y306962D02*
X405016Y306607D01*
X403504Y305596D01*
X402493Y304084D01*
X402138Y302300D01*
X402493Y300516D01*
X403504Y299004D01*
X405016Y297993D01*
X406800Y297638D01*
X408584Y297993D01*
X410096Y299004D01*
X411107Y300516D01*
X411462Y302300D01*
X411107Y304084D01*
X410096Y305596D01*
X408584Y306607D01*
X406800Y306962D01*
D02*
G37*
G36*
X949865Y439024D02*
X948082Y438669D01*
X947529Y438300D01*
X946500Y437699D01*
X945471Y438300D01*
X944918Y438669D01*
X943135Y439024D01*
X941351Y438669D01*
X939838Y437658D01*
X938828Y436146D01*
X938473Y434362D01*
X938828Y432578D01*
X939838Y431066D01*
X941351Y430055D01*
X943135Y429700D01*
X944918Y430055D01*
X945471Y430424D01*
X946500Y431025D01*
X947529Y430424D01*
X948082Y430055D01*
X949865Y429700D01*
X951649Y430055D01*
X953162Y431066D01*
X954172Y432578D01*
X954527Y434362D01*
X954172Y436146D01*
X953162Y437658D01*
X951649Y438669D01*
X949865Y439024D01*
D02*
G37*
G36*
X928000Y423162D02*
X926216Y422807D01*
X924704Y421796D01*
X923693Y420284D01*
X923338Y418500D01*
X923693Y416716D01*
X924704Y415204D01*
X926216Y414193D01*
X928000Y413838D01*
X929784Y414193D01*
X931296Y415204D01*
X932307Y416716D01*
X932662Y418500D01*
X932307Y420284D01*
X931296Y421796D01*
X929784Y422807D01*
X928000Y423162D01*
D02*
G37*
G36*
X909365Y403023D02*
X907582Y402669D01*
X907029Y402300D01*
X906000Y401699D01*
X904970Y402300D01*
X904418Y402669D01*
X902635Y403023D01*
X900851Y402669D01*
X899338Y401658D01*
X898328Y400146D01*
X897973Y398362D01*
X898328Y396578D01*
X899338Y395066D01*
X900851Y394055D01*
X902635Y393700D01*
X904418Y394055D01*
X904970Y394424D01*
X906000Y395025D01*
X907029Y394424D01*
X907582Y394055D01*
X909365Y393700D01*
X911149Y394055D01*
X912662Y395066D01*
X913672Y396578D01*
X914027Y398362D01*
X913672Y400146D01*
X912662Y401658D01*
X911149Y402669D01*
X909365Y403023D01*
D02*
G37*
G36*
X1003500Y398162D02*
X1001716Y397807D01*
X1000204Y396796D01*
X999193Y395284D01*
X998838Y393500D01*
X999193Y391716D01*
X1000204Y390204D01*
X1001716Y389193D01*
X1003500Y388838D01*
X1005284Y389193D01*
X1006796Y390204D01*
X1007807Y391716D01*
X1008162Y393500D01*
X1007807Y395284D01*
X1006796Y396796D01*
X1005284Y397807D01*
X1003500Y398162D01*
D02*
G37*
G36*
X930500Y382093D02*
X928664Y381851D01*
X926954Y381142D01*
X925485Y380015D01*
X924358Y378546D01*
X923649Y376836D01*
X923407Y375000D01*
X923649Y373164D01*
X924358Y371454D01*
X925485Y369985D01*
X926954Y368858D01*
X928664Y368149D01*
X930500Y367907D01*
X932336Y368149D01*
X934046Y368858D01*
X935515Y369985D01*
X936642Y371454D01*
X937351Y373164D01*
X937593Y375000D01*
X937351Y376836D01*
X936642Y378546D01*
X935515Y380015D01*
X934046Y381142D01*
X932336Y381851D01*
X930500Y382093D01*
D02*
G37*
G36*
X943500Y372662D02*
X941716Y372307D01*
X940204Y371296D01*
X939193Y369784D01*
X938838Y368000D01*
X939193Y366216D01*
X940204Y364704D01*
X941716Y363693D01*
X943500Y363338D01*
X945284Y363693D01*
X946796Y364704D01*
X947807Y366216D01*
X948162Y368000D01*
X947807Y369784D01*
X946796Y371296D01*
X945284Y372307D01*
X943500Y372662D01*
D02*
G37*
G36*
X1033000Y364662D02*
X1031216Y364307D01*
X1029704Y363296D01*
X1028693Y361784D01*
X1028338Y360000D01*
X1028693Y358216D01*
X1029704Y356704D01*
X1031216Y355693D01*
X1033000Y355338D01*
X1034784Y355693D01*
X1036296Y356704D01*
X1037307Y358216D01*
X1037662Y360000D01*
X1037307Y361784D01*
X1036296Y363296D01*
X1034784Y364307D01*
X1033000Y364662D01*
D02*
G37*
G36*
X905500Y346636D02*
X903439Y346226D01*
X901692Y345058D01*
X901635Y344973D01*
X900365D01*
X900308Y345058D01*
X898561Y346226D01*
X896500Y346636D01*
X894439Y346226D01*
X892692Y345058D01*
X892635Y344973D01*
X891365D01*
X891308Y345058D01*
X889561Y346226D01*
X887500Y346636D01*
X885439Y346226D01*
X883692Y345058D01*
X883635Y344973D01*
X882365D01*
X882308Y345058D01*
X880561Y346226D01*
X878500Y346636D01*
X876439Y346226D01*
X874692Y345058D01*
X874635Y344973D01*
X873365D01*
X873308Y345058D01*
X871561Y346226D01*
X869500Y346636D01*
X867439Y346226D01*
X865692Y345058D01*
X865635Y344973D01*
X864365D01*
X864308Y345058D01*
X862561Y346226D01*
X860500Y346636D01*
X858439Y346226D01*
X856692Y345058D01*
X855525Y343311D01*
X855115Y341250D01*
X855525Y339189D01*
X856692Y337442D01*
X858439Y336274D01*
X860500Y335864D01*
X862561Y336274D01*
X864308Y337442D01*
X864365Y337527D01*
X865635D01*
X865692Y337442D01*
X867439Y336274D01*
X869500Y335864D01*
X871561Y336274D01*
X873308Y337442D01*
X873365Y337527D01*
X874635D01*
X874692Y337442D01*
X876439Y336274D01*
X878500Y335864D01*
X880561Y336274D01*
X882308Y337442D01*
X882365Y337527D01*
X883635D01*
X883692Y337442D01*
X885439Y336274D01*
X887500Y335864D01*
X889561Y336274D01*
X891308Y337442D01*
X891365Y337527D01*
X892635D01*
X892692Y337442D01*
X894439Y336274D01*
X896500Y335864D01*
X898561Y336274D01*
X900308Y337442D01*
X900365Y337527D01*
X901635D01*
X901692Y337442D01*
X903439Y336274D01*
X905500Y335864D01*
X907561Y336274D01*
X909308Y337442D01*
X910475Y339189D01*
X910885Y341250D01*
X910475Y343311D01*
X909308Y345058D01*
X907561Y346226D01*
X905500Y346636D01*
D02*
G37*
G36*
X1019000Y347662D02*
X1017216Y347307D01*
X1015809Y346367D01*
X1009000D01*
X1007712Y346110D01*
X1006619Y345381D01*
X997119Y335881D01*
X996390Y334788D01*
X996133Y333500D01*
Y323191D01*
X995193Y321784D01*
X994838Y320000D01*
X995193Y318216D01*
X996204Y316704D01*
X997716Y315693D01*
X999500Y315338D01*
X1001284Y315693D01*
X1002796Y316704D01*
X1003807Y318216D01*
X1004162Y320000D01*
X1003807Y321784D01*
X1002867Y323191D01*
Y332105D01*
X1010395Y339633D01*
X1015809D01*
X1017216Y338693D01*
X1019000Y338338D01*
X1020784Y338693D01*
X1022296Y339704D01*
X1023307Y341216D01*
X1023662Y343000D01*
X1023307Y344784D01*
X1022296Y346296D01*
X1020784Y347307D01*
X1019000Y347662D01*
D02*
G37*
G36*
X951500Y336662D02*
X949716Y336307D01*
X948204Y335296D01*
X947193Y333784D01*
X946838Y332000D01*
X947193Y330216D01*
X948204Y328704D01*
X949716Y327693D01*
X951500Y327338D01*
X953284Y327693D01*
X954796Y328704D01*
X955807Y330216D01*
X956162Y332000D01*
X955807Y333784D01*
X954796Y335296D01*
X953284Y336307D01*
X951500Y336662D01*
D02*
G37*
G36*
X947200Y320462D02*
X945416Y320107D01*
X943904Y319096D01*
X942893Y317584D01*
X942539Y315800D01*
X942893Y314016D01*
X943904Y312504D01*
X945416Y311493D01*
X947200Y311138D01*
X948984Y311493D01*
X950496Y312504D01*
X951507Y314016D01*
X951862Y315800D01*
X951507Y317584D01*
X950496Y319096D01*
X948984Y320107D01*
X947200Y320462D01*
D02*
G37*
G36*
X1275700Y377870D02*
X1272116Y377518D01*
X1268670Y376472D01*
X1265494Y374775D01*
X1262710Y372490D01*
X1260425Y369706D01*
X1258728Y366530D01*
X1257682Y363084D01*
X1257329Y359500D01*
X1257682Y355916D01*
X1258728Y352470D01*
X1260425Y349294D01*
X1262710Y346510D01*
X1265494Y344226D01*
X1268670Y342528D01*
X1272116Y341483D01*
X1275700Y341129D01*
X1279284Y341483D01*
X1282730Y342528D01*
X1285906Y344226D01*
X1288690Y346510D01*
X1290974Y349294D01*
X1292672Y352470D01*
X1293717Y355916D01*
X1294070Y359500D01*
X1293717Y363084D01*
X1292672Y366530D01*
X1290974Y369706D01*
X1288690Y372490D01*
X1285906Y374775D01*
X1282730Y376472D01*
X1279284Y377518D01*
X1275700Y377870D01*
D02*
G37*
G36*
X1161400D02*
X1157816Y377518D01*
X1154370Y376472D01*
X1151194Y374775D01*
X1148410Y372490D01*
X1146125Y369706D01*
X1144428Y366530D01*
X1143382Y363084D01*
X1143029Y359500D01*
X1143382Y355916D01*
X1144428Y352470D01*
X1146125Y349294D01*
X1148410Y346510D01*
X1151194Y344226D01*
X1154370Y342528D01*
X1157816Y341483D01*
X1161400Y341129D01*
X1164984Y341483D01*
X1168430Y342528D01*
X1171606Y344226D01*
X1174390Y346510D01*
X1176674Y349294D01*
X1178372Y352470D01*
X1179417Y355916D01*
X1179771Y359500D01*
X1179417Y363084D01*
X1178372Y366530D01*
X1176674Y369706D01*
X1174390Y372490D01*
X1171606Y374775D01*
X1168430Y376472D01*
X1164984Y377518D01*
X1161400Y377870D01*
D02*
G37*
%LPD*%
D13*
X1009000Y343000D02*
X1019000D01*
X999500Y320000D02*
Y333500D01*
X1009000Y343000D01*
D174*
X1237600Y448400D02*
D03*
X1186800D02*
D03*
X1199500Y423000D02*
D03*
X1250300D02*
D03*
X1263000Y448400D02*
D03*
X1174100Y423000D02*
D03*
X1161400Y448400D02*
D03*
D201*
X756000Y861500D02*
D03*
X727500Y852000D02*
D03*
D202*
X593000Y519000D02*
X614500Y540500D01*
X508500Y486000D02*
X541500Y519000D01*
X593000D01*
X411700Y336300D02*
Y364650D01*
X420750Y373700D01*
X597200Y567700D02*
X607800D01*
X614500Y540500D02*
Y561000D01*
X607800Y567700D02*
X614500Y561000D01*
X508500Y474500D02*
Y486000D01*
X492000Y467800D02*
X501800D01*
X508500Y474500D01*
D203*
X593174Y551405D02*
Y552132D01*
X598000Y549500D02*
X599905Y551405D01*
X590210Y532539D02*
X598000Y540330D01*
X593174Y551405D02*
X595079Y549500D01*
Y541539D02*
Y549500D01*
X599905Y551405D02*
Y552132D01*
X589000Y535461D02*
X595079Y541539D01*
X598000Y540330D02*
Y549500D01*
X476763Y532539D02*
X590210D01*
X474132Y530634D02*
X474858D01*
X476763Y532539D01*
X474858Y537365D02*
X476763Y535461D01*
X474132Y537365D02*
X474858D01*
X476763Y535461D02*
X589000D01*
D204*
X573420Y564420D02*
X573999Y564999D01*
X498980Y564420D02*
X573420D01*
X498200Y565200D02*
X498980Y564420D01*
X373800Y427800D02*
Y441700D01*
X369000Y446500D02*
X373800Y441700D01*
X369000Y446500D02*
Y471000D01*
X361000Y479000D02*
X369000Y471000D01*
X407500Y403500D02*
Y454500D01*
Y403500D02*
X418000Y393000D01*
X407500Y454500D02*
X415000Y462000D01*
X458500Y407500D02*
X493000D01*
X424000Y442000D02*
Y462000D01*
Y442000D02*
X458500Y407500D01*
X744499Y356350D02*
X744500Y356351D01*
X418000Y381000D02*
Y393000D01*
Y376450D02*
Y381000D01*
Y376450D02*
X420750Y373700D01*
X418000Y381000D02*
X449500D01*
X485500Y345000D01*
Y316000D02*
Y345000D01*
Y316000D02*
X512500Y289000D01*
X629500D01*
X637500Y281000D01*
X720000D01*
X757500Y318500D01*
X788000D02*
X798000Y328500D01*
X757500Y318500D02*
X788000D01*
X789000Y350000D02*
X798000Y341000D01*
Y328500D02*
Y341000D01*
X789000Y350000D02*
Y373000D01*
X521500Y443500D02*
X526500Y438500D01*
Y425000D02*
Y438500D01*
X483000Y443500D02*
X521500D01*
X493000Y407500D02*
X507000Y421500D01*
X523000D01*
X526500Y425000D01*
X477000Y449500D02*
X483000Y443500D01*
X477000Y449500D02*
Y463000D01*
X481800Y467800D01*
X492000D01*
D205*
X689065Y667500D02*
Y672935D01*
X683500Y678500D02*
X689065Y672935D01*
X691935Y667500D02*
Y674624D01*
X685163Y681396D02*
X691935Y674624D01*
X687134Y664862D02*
Y665570D01*
X689065Y667500D01*
X693866Y664862D02*
Y665570D01*
X691935Y667500D02*
X693866Y665570D01*
D207*
X587291Y617709D02*
X602919Y602081D01*
X719400D01*
X852449Y469032D01*
X717917Y598500D02*
X850966Y465451D01*
X601435Y598500D02*
X717917D01*
X583709Y616226D02*
X601435Y598500D01*
X613918Y612081D02*
X724919D01*
X602291Y623709D02*
X613918Y612081D01*
X724919D02*
X855468Y481532D01*
X598709Y622226D02*
X612435Y608500D01*
X723435D01*
X853984Y477951D01*
X624856Y627644D02*
X739429D01*
X847968Y519105D01*
X617291Y635209D02*
X624856Y627644D01*
X622017Y625419D02*
X623372Y624063D01*
X737946D01*
X622017Y625419D02*
X622017D01*
X737946Y624063D02*
X846484Y515524D01*
X613709Y633726D02*
X622017Y625419D01*
X847968Y519105D02*
X1129500D01*
X846484Y515524D02*
X1129500D01*
X852449Y469032D02*
X1080763D01*
X850966Y465451D02*
X1080763D01*
X858549Y528951D02*
X863032Y524468D01*
X755483Y637081D02*
X864516Y528049D01*
X1202516D02*
X1223500Y507065D01*
X864516Y528049D02*
X1202516D01*
X863032Y524468D02*
X1201032D01*
X1219919Y505581D01*
X1080763Y469032D02*
X1086370D01*
X1089692Y465710D01*
Y460342D02*
Y465710D01*
Y460342D02*
X1090916Y459118D01*
X1094589D01*
X1095813Y460342D01*
Y465721D01*
X1099136Y469043D01*
X1105775D01*
X1109098Y465721D01*
Y460342D02*
Y465721D01*
Y460342D02*
X1110322Y459118D01*
X1113995D01*
X1115219Y460342D01*
Y465721D01*
X1118541Y469043D01*
X1125181D01*
X1128503Y465721D01*
Y460342D02*
Y465721D01*
Y460342D02*
X1129727Y459118D01*
X1133400D01*
X1134625Y460342D01*
Y465710D01*
X1137947Y469032D01*
X1141000D01*
X1080763Y465451D02*
X1084886D01*
X1086111Y464227D01*
Y458859D02*
Y464227D01*
Y458859D02*
X1089433Y455537D01*
X1096073D01*
X1099395Y458859D01*
Y464237D01*
X1100619Y465462D01*
X1104292D01*
X1105516Y464237D01*
Y458859D02*
Y464237D01*
Y458859D02*
X1108838Y455537D01*
X1115478D01*
X1118800Y458859D01*
Y464237D01*
X1120025Y465462D01*
X1123698D01*
X1124922Y464237D01*
Y458859D02*
Y464237D01*
Y458859D02*
X1128244Y455537D01*
X1134884D01*
X1138206Y458859D01*
Y464227D01*
X1139430Y465451D01*
X1141000D01*
X1143965Y477951D02*
X1148500D01*
X1140643Y481273D02*
X1143965Y477951D01*
X1140643Y481273D02*
Y486233D01*
X1139419Y487457D02*
X1140643Y486233D01*
X1135746Y487457D02*
X1139419D01*
X1134521Y486233D02*
X1135746Y487457D01*
X1134521Y481200D02*
Y486233D01*
X1131199Y477878D02*
X1134521Y481200D01*
X1124559Y477878D02*
X1131199D01*
X1121237Y481200D02*
X1124559Y477878D01*
X1121237Y481200D02*
Y486564D01*
X1120013Y487789D02*
X1121237Y486564D01*
X1116340Y487789D02*
X1120013D01*
X1115116Y486564D02*
X1116340Y487789D01*
X1115116Y481273D02*
Y486564D01*
X1111794Y477951D02*
X1115116Y481273D01*
X1108740Y477951D02*
X1111794D01*
X1145449Y481532D02*
X1148500D01*
X1144224Y482757D02*
X1145449Y481532D01*
X1144224Y482757D02*
Y487717D01*
X1140902Y491039D02*
X1144224Y487717D01*
X1134262Y491039D02*
X1140902D01*
X1130940Y487717D02*
X1134262Y491039D01*
X1130940Y482683D02*
Y487717D01*
X1129716Y481459D02*
X1130940Y482683D01*
X1126043Y481459D02*
X1129716D01*
X1124819Y482683D02*
X1126043Y481459D01*
X1124819Y482683D02*
Y488048D01*
X1121497Y491370D02*
X1124819Y488048D01*
X1114857Y491370D02*
X1121497D01*
X1111535Y488048D02*
X1114857Y491370D01*
X1111535Y482757D02*
Y488048D01*
X1110310Y481532D02*
X1111535Y482757D01*
X1108740Y481532D02*
X1110310D01*
X1129500Y519105D02*
X1133569D01*
X1137197Y515477D01*
Y513248D02*
Y515477D01*
Y513248D02*
X1138727Y511718D01*
X1141788D01*
X1143318Y513248D01*
Y515477D01*
X1146947Y519105D01*
X1150000D01*
X1129500Y515524D02*
X1132085D01*
X1133616Y513994D01*
Y511764D02*
Y513994D01*
Y511764D02*
X1137244Y508136D01*
X1143272D01*
X1146900Y511764D01*
Y513994D01*
X1148430Y515524D01*
X1150000D01*
X1264000Y468500D02*
X1265333Y467167D01*
Y465901D02*
Y467167D01*
X1264268Y464836D02*
X1265333Y465901D01*
X1264268Y463570D02*
Y464836D01*
Y463570D02*
X1265534Y462303D01*
X1266801D01*
X1267866Y463368D01*
X1269132D01*
X1269500Y463000D01*
X628709Y637726D02*
X632935Y633500D01*
X632291Y639209D02*
X634419Y637081D01*
X755483D01*
X632935Y633500D02*
X754000D01*
X618866Y659032D02*
Y660086D01*
X617291Y657457D02*
X618866Y659032D01*
X612135D02*
Y660086D01*
Y659032D02*
X613709Y657457D01*
Y633726D02*
Y657457D01*
X617291Y635209D02*
Y657457D01*
X628709Y637726D02*
Y643957D01*
X627135Y645532D02*
X628709Y643957D01*
X627135Y645532D02*
Y646586D01*
X632291Y639209D02*
Y643957D01*
X633866Y645532D02*
Y646586D01*
X632291Y643957D02*
X633866Y645532D01*
X855468Y481532D02*
X1108740D01*
X853984Y477951D02*
X1108740D01*
X588866Y650532D02*
Y651586D01*
X587291Y648957D02*
X588866Y650532D01*
X597135Y639618D02*
X598709Y638043D01*
X597135Y639618D02*
Y640673D01*
X602291Y638043D02*
X603866Y639618D01*
Y640673D01*
X602291Y623709D02*
Y638043D01*
X598709Y622226D02*
Y638043D01*
X587291Y617709D02*
Y648957D01*
X582135Y650532D02*
Y651586D01*
X583709Y616226D02*
Y648957D01*
X582135Y650532D02*
X583709Y648957D01*
X1257484Y480081D02*
X1266532Y471032D01*
X754000Y633500D02*
X858549Y528951D01*
X1266532Y471032D02*
X1277079Y460486D01*
X1150000Y519105D02*
X1191378D01*
X1208081Y502402D01*
X1150000Y515524D02*
X1189895D01*
X1204500Y500919D01*
X1256000Y476500D02*
X1264000Y468500D01*
X1269500Y463000D02*
X1273498Y459002D01*
X1238241Y466000D02*
X1239500D01*
X1237345Y465105D02*
X1238241Y466000D01*
X1237345Y463590D02*
Y465105D01*
X1236450Y462695D02*
X1237345Y463590D01*
X1234659Y462695D02*
X1236450D01*
X1233764Y463590D02*
X1234659Y462695D01*
X1233764Y463590D02*
Y465105D01*
X1232868Y466000D02*
X1233764Y465105D01*
X1229935Y466000D02*
X1232868D01*
X1227500Y468435D02*
X1229935Y466000D01*
X1239500D02*
X1240500D01*
X1248098Y458402D01*
X1215500Y485500D02*
X1229500Y471500D01*
X1208081Y492919D02*
X1215500Y485500D01*
X1229500Y471500D02*
X1231419Y469581D01*
X1204500Y491435D02*
X1227500Y468435D01*
X1204500Y491435D02*
Y500919D01*
X1208081Y492919D02*
Y502402D01*
X1173474Y477951D02*
X1175489D01*
X1172579Y477056D02*
X1173474Y477951D01*
X1172579Y475734D02*
Y477056D01*
X1171684Y474839D02*
X1172579Y475734D01*
X1169893Y474839D02*
X1171684D01*
X1168998Y475734D02*
X1169893Y474839D01*
X1168998Y475734D02*
Y477056D01*
X1168102Y477951D02*
X1168998Y477056D01*
X1164000Y477951D02*
X1168102D01*
X1148500D02*
X1164000D01*
X1175489D02*
X1178049D01*
X1180750Y475250D01*
X1141000Y469032D02*
X1165032D01*
X1141000Y465451D02*
X1163549D01*
X1148500Y481532D02*
X1179532D01*
X1191936Y464064D02*
X1195000Y461000D01*
X1191936Y464064D02*
Y468763D01*
X1195905Y472732D01*
Y474463D01*
X1193308Y477060D02*
X1195905Y474463D01*
X1191577Y477060D02*
X1193308D01*
X1187607Y473091D02*
X1191577Y477060D01*
X1182909Y473091D02*
X1187607D01*
X1180750Y475250D02*
X1182909Y473091D01*
X1195517Y465548D02*
X1197532Y463532D01*
X1195517Y465548D02*
Y467279D01*
X1199486Y471249D01*
Y475947D01*
X1194791Y480642D02*
X1199486Y475947D01*
X1190093Y480642D02*
X1194791D01*
X1186124Y476672D02*
X1190093Y480642D01*
X1184392Y476672D02*
X1186124D01*
X1183282Y477782D02*
X1184392Y476672D01*
X1195000Y461000D02*
X1197298Y458702D01*
X1197532Y463532D02*
X1200879Y460186D01*
X1179532Y481532D02*
X1183282Y477782D01*
X1165032Y469032D02*
X1175479Y458586D01*
Y439637D02*
Y458586D01*
X1171321Y435479D02*
X1175479Y439637D01*
X1169017Y433165D02*
X1174100Y423000D01*
X1169485Y434562D02*
X1171321Y435479D01*
X1169017Y433165D02*
X1169485Y434562D01*
X1163549Y465451D02*
X1171898Y457102D01*
Y441123D02*
Y457102D01*
X1169200Y438425D02*
X1171898Y441123D01*
X1167882Y437768D02*
X1169200Y438425D01*
X1161400Y448400D02*
X1166485Y438230D01*
X1167882Y437768D01*
X1219919Y495517D02*
Y505581D01*
Y495517D02*
X1238935Y476500D01*
X1223500Y497000D02*
X1240419Y480081D01*
X1223500Y497000D02*
Y507065D01*
X1240419Y480081D02*
X1257484D01*
X1238935Y476500D02*
X1256000D01*
X1231419Y469581D02*
X1241983D01*
X1251679Y459886D01*
Y439637D02*
Y459886D01*
X1248098Y441123D02*
Y458402D01*
X1273498Y441123D02*
Y459002D01*
X1270800Y438425D02*
X1273498Y441123D01*
X1269482Y437768D02*
X1270800Y438425D01*
X1268085Y438230D02*
X1269482Y437768D01*
X1263000Y448400D02*
X1268085Y438230D01*
X1277079Y439637D02*
Y460486D01*
X1272921Y435479D02*
X1277079Y439637D01*
X1271085Y434562D02*
X1272921Y435479D01*
X1270617Y433165D02*
X1271085Y434562D01*
X1270617Y433165D02*
X1275700Y423000D01*
X1245400Y438425D02*
X1248098Y441123D01*
X1244082Y437768D02*
X1245400Y438425D01*
X1242685Y438230D02*
X1244082Y437768D01*
X1237600Y448400D02*
X1242685Y438230D01*
X1247521Y435479D02*
X1251679Y439637D01*
X1245685Y434562D02*
X1247521Y435479D01*
X1245217Y433165D02*
X1245685Y434562D01*
X1245217Y433165D02*
X1250300Y423000D01*
X1197298Y441123D02*
Y458702D01*
X1194600Y438425D02*
X1197298Y441123D01*
X1193282Y437768D02*
X1194600Y438425D01*
X1191885Y438230D02*
X1193282Y437768D01*
X1186800Y448400D02*
X1191885Y438230D01*
X1200879Y439637D02*
Y460186D01*
X1196721Y435479D02*
X1200879Y439637D01*
X1194885Y434562D02*
X1196721Y435479D01*
X1194417Y433165D02*
X1194885Y434562D01*
X1194417Y433165D02*
X1199500Y423000D01*
D208*
X527500Y344500D02*
Y383314D01*
X555500Y316500D02*
X562000D01*
X527500Y344500D02*
X555500Y316500D01*
X545500Y319500D02*
X549000Y316000D01*
Y309500D02*
Y316000D01*
X534500Y319500D02*
X545500D01*
X1122500Y549500D02*
X1210000D01*
X1116500Y543500D02*
X1122500Y549500D01*
X1021000Y543500D02*
X1116500D01*
X1015000Y537500D02*
X1021000Y543500D01*
X980500Y537500D02*
X1015000D01*
X977000Y541000D02*
X980500Y537500D01*
X865500Y541000D02*
X977000D01*
X917000Y545000D02*
X985500D01*
X988000Y542500D01*
X1005000D01*
X1013500Y551000D01*
X1102500D01*
X948000Y534500D02*
X970000D01*
X773500Y359500D02*
Y412500D01*
X766500Y352500D02*
X773500Y359500D01*
X766500Y347000D02*
Y352500D01*
X751000Y435000D02*
X773500Y412500D01*
X729000Y309500D02*
X766500Y347000D01*
X444000Y740500D02*
X461500Y723000D01*
X385500Y740500D02*
X444000D01*
X368500Y750000D02*
X376000D01*
X385500Y740500D01*
X390500Y681500D02*
X393500Y678500D01*
X312000Y681500D02*
X390500D01*
X294000Y699500D02*
X312000Y681500D01*
X294000Y699500D02*
Y750500D01*
X300500Y757000D01*
X366500D01*
X343750Y798250D02*
X362500Y817000D01*
X343500Y798000D02*
X343750Y798250D01*
X314750D02*
X343750D01*
X290000Y773500D02*
X314750Y798250D01*
X290000Y677000D02*
Y773500D01*
Y677000D02*
X299000Y668000D01*
X281500Y781500D02*
X362000Y862000D01*
X281500Y673000D02*
X368500Y586000D01*
X281500Y673000D02*
Y781500D01*
X285500Y674500D02*
X328500Y631500D01*
X285500Y779500D02*
X361500Y855500D01*
X285500Y674500D02*
Y779500D01*
X299000Y668000D02*
X361000D01*
X675000Y447000D02*
X734500Y506500D01*
X675000Y389500D02*
Y447000D01*
X1258500Y702000D02*
X1298500Y742000D01*
X1244250Y653250D02*
X1258500Y667500D01*
Y702000D01*
X543000Y597000D02*
X552000Y606000D01*
X562000D02*
X573800Y594200D01*
X552000Y606000D02*
X562000D01*
X464500Y597000D02*
X543000D01*
X521500Y606000D02*
X537500Y622000D01*
X434500Y586000D02*
X454500Y606000D01*
X521500D01*
X436000Y568500D02*
X464500Y597000D01*
X457000Y564000D02*
X475500Y582500D01*
X573500D01*
X580000Y589000D01*
X696000Y413500D02*
X711500D01*
X733500Y435500D02*
Y451500D01*
X711500Y413500D02*
X733500Y435500D01*
X687500Y422000D02*
X697000D01*
X728500Y453500D02*
Y457500D01*
X697000Y422000D02*
X728500Y453500D01*
X608500Y627500D02*
Y644000D01*
X604000Y648500D02*
Y664000D01*
Y648500D02*
X608500Y644000D01*
X699500Y590500D02*
X720500Y569500D01*
X558000Y622000D02*
X589500Y590500D01*
X699500D01*
X533750Y653250D02*
X593500Y593500D01*
X702500D01*
X725500Y570500D01*
X677000Y548000D02*
Y583000D01*
X731500Y618000D02*
X791500Y558000D01*
X608500Y627500D02*
X618000Y618000D01*
X731500D01*
X432000Y841500D02*
X486000Y787500D01*
X390000Y841500D02*
X432000D01*
X486000Y787500D02*
X513500D01*
X386000Y675500D02*
X388000Y673500D01*
X403500D02*
X406500Y676500D01*
X388000Y673500D02*
X403500D01*
X816500Y527500D02*
X819000D01*
X791500Y552500D02*
Y558000D01*
Y552500D02*
X816500Y527500D01*
X846000Y500500D02*
X1146000D01*
X819000Y527500D02*
X846000Y500500D01*
X673500Y587500D02*
X693500D01*
X669500Y583500D02*
X673500Y587500D01*
X693500D02*
X704500Y576500D01*
Y562500D02*
Y576500D01*
X604000Y664000D02*
X608000Y668000D01*
X592000Y660500D02*
X604500Y673000D01*
X613000D02*
X623000Y663000D01*
X604500Y673000D02*
X613000D01*
X767000Y485000D02*
X767000D01*
X733500Y451500D02*
X767000Y485000D01*
X751000Y435000D02*
Y461500D01*
X777377Y491377D02*
X777500Y491500D01*
X777377Y487877D02*
Y491377D01*
X751000Y461500D02*
X777377Y487877D01*
X922000Y576500D02*
X954500D01*
X902000Y596500D02*
Y604000D01*
Y596500D02*
X922000Y576500D01*
X820000Y686000D02*
X902000Y604000D01*
X814500Y684000D02*
X895000Y603500D01*
X856000Y627500D02*
X882000Y601500D01*
Y580000D02*
Y601500D01*
X895000Y590500D02*
Y603500D01*
Y590500D02*
X920500Y565000D01*
X882000Y580000D02*
X917000Y545000D01*
X848000Y596500D02*
Y640500D01*
X807500Y681000D02*
Y725000D01*
Y681000D02*
X848000Y640500D01*
X725500Y556500D02*
X783500Y498500D01*
X725500Y556500D02*
Y570500D01*
X508750Y653250D02*
X533750D01*
X548000Y500500D02*
X549000Y501500D01*
X620500D01*
X720500Y554000D02*
X734500Y540000D01*
Y506500D02*
Y540000D01*
X720500Y554000D02*
Y569500D01*
X783500Y498500D02*
X805000D01*
X666000Y649000D02*
X757500Y649000D01*
X865500Y541000D01*
X1221540Y523000D02*
Y537960D01*
X1210000Y549500D02*
X1221540Y537960D01*
X366500Y757000D02*
X387000Y777500D01*
X411000D01*
X435000Y753500D01*
X467500D01*
X475500Y745500D01*
X444000Y772500D02*
Y789000D01*
X455500Y761000D02*
X563500D01*
X444000Y772500D02*
X455500Y761000D01*
X792500Y748000D02*
X795500Y745000D01*
Y737000D02*
X807500Y725000D01*
X795500Y737000D02*
Y745000D01*
X734500Y755000D02*
X741500Y748000D01*
X792500D01*
X475500Y745500D02*
X563500D01*
X578500Y730500D01*
X368500Y675500D02*
X386000D01*
X578500Y730500D02*
X638000D01*
X361500Y855500D02*
X424500D01*
X362000Y862000D02*
X434500D01*
X642000Y734500D02*
Y741000D01*
X638000Y730500D02*
X642000Y734500D01*
X527000Y798000D02*
X538250Y786750D01*
X438500Y844500D02*
X485000Y798000D01*
X527000D01*
X517000Y784000D02*
X525500D01*
X513500Y787500D02*
X517000Y784000D01*
X525500D02*
X529000Y787500D01*
X438000Y626500D02*
X471000D01*
X424500Y640000D02*
X438000Y626500D01*
X808500Y397500D02*
X815000Y391000D01*
X635500Y482000D02*
X641500D01*
X654000Y469500D01*
Y361500D02*
Y469500D01*
X648000Y355500D02*
X654000Y361500D01*
X661500Y368000D02*
X671000Y358500D01*
X652500Y481477D02*
X661500Y472477D01*
Y368000D02*
Y472477D01*
X642500Y473500D02*
X649500Y466500D01*
X641697Y357697D02*
X649500Y365500D01*
Y466500D01*
X725000Y521000D02*
Y542000D01*
X704500Y562500D02*
X725000Y542000D01*
X652500Y481477D02*
Y523500D01*
X677000Y548000D01*
X692000Y358500D02*
X698500Y352000D01*
X671000Y358500D02*
X692000D01*
X635000Y473500D02*
X642500D01*
X641697Y326803D02*
Y357697D01*
X648000Y328500D02*
X654500Y322000D01*
X648000Y328500D02*
Y355500D01*
X654500Y322000D02*
X709500D01*
X641697Y326803D02*
X653000Y315500D01*
X669500Y550500D02*
Y583500D01*
X620500Y501500D02*
X669500Y550500D01*
X528500Y483000D02*
Y496000D01*
X541000Y508500D01*
X604000D01*
X630250Y534750D02*
Y578750D01*
X604000Y508500D02*
X630250Y534750D01*
X537500Y622000D02*
X558000D01*
X561500Y641000D02*
X578000Y624500D01*
Y616500D02*
Y624500D01*
X368500Y586000D02*
X434500D01*
Y862000D02*
X438500Y858000D01*
Y844500D02*
Y858000D01*
X549000Y309500D02*
X554500Y304000D01*
X542000Y304500D02*
Y314000D01*
X551000Y295500D02*
X638000D01*
X542000Y304500D02*
X551000Y295500D01*
X516000Y477000D02*
X533500Y459500D01*
X633000D01*
X457000Y522000D02*
X498500Y480500D01*
X457000Y522000D02*
Y564000D01*
X541500Y343500D02*
Y380000D01*
X509000Y412500D02*
X541500Y380000D01*
X492300Y458200D02*
X517300D01*
X536500Y439000D01*
Y420000D02*
Y439000D01*
X820000Y686000D02*
Y710000D01*
X814500Y684000D02*
Y719500D01*
X1121500Y570000D02*
X1226000D01*
X1102500Y551000D02*
X1121500Y570000D01*
X943000Y565000D02*
X955500Y552500D01*
X920500Y565000D02*
X943000D01*
X419500Y821500D02*
Y834000D01*
X429250Y825250D02*
Y833750D01*
X419500Y821500D02*
X455500Y785500D01*
X347000Y822500D02*
X371000D01*
X390000Y841500D01*
X328500Y631500D02*
X416000D01*
X434500Y613000D02*
X518000D01*
X416000Y631500D02*
X434500Y613000D01*
X623000Y669500D02*
X645500Y669500D01*
X666000Y649000D01*
X623000Y663000D02*
X643000D01*
X505000Y660500D02*
X592000D01*
X471000Y626500D02*
X505000Y660500D01*
X1221540Y523000D02*
X1247840Y496700D01*
X362500Y817000D02*
X416000D01*
X429250Y825250D02*
X466000Y788500D01*
X455500Y773000D02*
Y785500D01*
Y773000D02*
X462500Y766000D01*
X466000Y777000D02*
Y788500D01*
Y777000D02*
X472000Y771000D01*
X570000Y766000D02*
X588000Y748000D01*
X462500Y766000D02*
X570000D01*
X588000Y748000D02*
X602000D01*
X472000Y771000D02*
X591500D01*
X609000Y753500D01*
X588500Y736000D02*
X629500D01*
X563500Y761000D02*
X588500Y736000D01*
X629500D02*
X634000Y740500D01*
X416000Y817000D02*
X444000Y789000D01*
X361000Y668000D02*
X368500Y675500D01*
X406500Y676500D02*
X428000D01*
X709500Y332500D02*
X723649D01*
X698500Y343500D02*
Y352000D01*
Y343500D02*
X709500Y332500D01*
X723649D02*
X740499Y349350D01*
X653000Y315500D02*
X718500D01*
X647000Y309500D02*
X729000D01*
X706000Y755000D02*
X734500D01*
X697000Y764000D02*
X706000Y755000D01*
X640000Y764000D02*
X697000D01*
X617500Y741500D02*
X640000Y764000D01*
X485500Y429500D02*
X516500D01*
X479500Y423500D02*
X485500Y429500D01*
X452471Y423500D02*
X479500D01*
X436000Y439971D02*
Y568500D01*
Y439971D02*
X452471Y423500D01*
X789000Y663500D02*
X829000Y623500D01*
Y589500D02*
Y623500D01*
X798000Y671000D02*
X837500Y631500D01*
Y597500D02*
Y631500D01*
X508366Y402448D02*
X527500Y383314D01*
X561500Y641000D02*
Y649500D01*
X869500Y374750D02*
Y385000D01*
X841500Y395000D02*
X859500D01*
X869500Y385000D01*
X825000Y411500D02*
X841500Y395000D01*
X813000Y411500D02*
X825000D01*
X808500Y407000D02*
X813000Y411500D01*
X808500Y397500D02*
Y407000D01*
X860500Y374750D02*
Y381000D01*
X852500Y389000D02*
X860500Y381000D01*
X815000Y404000D02*
X830000Y389000D01*
X852500D01*
Y363500D02*
X856000Y367000D01*
X802500Y347500D02*
X818500Y363500D01*
X852500D01*
X728500Y457500D02*
X767000Y496000D01*
X536500Y420000D02*
X647000Y309500D01*
X554500Y304000D02*
X637500D01*
X531000Y316000D02*
X534500Y319500D01*
X1244250Y631250D02*
Y653250D01*
X1298500Y742000D02*
Y773000D01*
X1273000Y798500D02*
X1298500Y773000D01*
X1220500Y798500D02*
X1273000D01*
X1220500D02*
Y817000D01*
X1214000Y823500D02*
X1220500Y817000D01*
X1201000Y823500D02*
X1214000D01*
X1195500Y829000D02*
X1201000Y823500D01*
X1161500Y885500D02*
X1195500Y851500D01*
Y829000D02*
Y851500D01*
X1132000Y885500D02*
X1161500D01*
X1109000Y862500D02*
X1132000Y885500D01*
X1090000Y862500D02*
X1109000D01*
X942500Y886500D02*
X1066000D01*
X1090000Y862500D01*
X919750Y863750D02*
X942500Y886500D01*
X896000Y887500D02*
X919750Y863750D01*
X782000Y887500D02*
X896000D01*
X756000Y851000D02*
Y861500D01*
X751000Y846000D02*
X756000Y851000D01*
X751000Y832000D02*
Y846000D01*
Y832000D02*
X759000Y824000D01*
X756000Y861500D02*
X782000Y887500D01*
X744500Y788000D02*
X771000D01*
X727500Y805000D02*
Y852000D01*
Y805000D02*
X744500Y788000D01*
X727500Y852000D02*
X737000Y861500D01*
X756000D01*
X663500Y852000D02*
X727500D01*
X604750Y882750D02*
X609000Y887000D01*
X628500D02*
X663500Y852000D01*
X609000Y887000D02*
X628500D01*
X1304000Y691000D02*
Y780500D01*
X572500Y780000D02*
Y863000D01*
X602000Y892500D01*
X568500Y776000D02*
X572500Y780000D01*
X503000Y776000D02*
X568500D01*
X497500Y781500D02*
X503000Y776000D01*
X447300Y879700D02*
X462000Y865000D01*
Y841000D02*
X494500Y808500D01*
X462000Y841000D02*
Y865000D01*
X494500Y808500D02*
X548500D01*
X565500Y783000D02*
Y791500D01*
X548500Y808500D02*
X565500Y791500D01*
X447200Y870300D02*
X457500Y860000D01*
Y838500D02*
Y860000D01*
Y838500D02*
X492000Y804000D01*
X540500D02*
X555500Y789000D01*
X492000Y804000D02*
X540500D01*
X1039000Y892500D02*
X1166000D01*
X685500D02*
X1039000D01*
X602000D02*
X685500D01*
X1166000D02*
X1238000Y820500D01*
X1264000D02*
X1304000Y780500D01*
X1238000Y820500D02*
X1264000D01*
X1146000Y500500D02*
X1149800Y496700D01*
X1163940D01*
D211*
X744499Y356350D02*
D03*
X740499Y349350D02*
D03*
X910000Y333500D02*
D03*
X874000D02*
D03*
X892080D02*
D03*
X856000D02*
D03*
Y367000D02*
D03*
X892080D02*
D03*
X874000D02*
D03*
X869500Y374750D02*
D03*
X860500D02*
D03*
D212*
X775199Y297550D02*
D03*
X689799D02*
D03*
D215*
X396200Y421750D02*
D03*
D218*
X828000Y343500D02*
D03*
X938000D02*
D03*
D219*
X831000Y288500D02*
D03*
X935000D02*
D03*
D220*
X1139768Y390000D02*
D03*
X1297332D02*
D03*
D221*
X1163940Y496700D02*
D03*
X1247840D02*
D03*
D223*
X1275700Y423000D02*
D03*
D225*
X360000Y369000D02*
D03*
D226*
X311000Y338500D02*
D03*
D231*
X970000Y534500D02*
D03*
X948000D02*
D03*
X461500Y723000D02*
D03*
X675000Y389500D02*
D03*
X680000Y379500D02*
D03*
X673000D02*
D03*
X571000Y569500D02*
D03*
X397500Y554500D02*
D03*
Y548500D02*
D03*
Y535500D02*
D03*
Y528000D02*
D03*
X398000Y509000D02*
D03*
X680000Y371500D02*
D03*
X672500D02*
D03*
X745001Y379501D02*
D03*
X715000Y387500D02*
D03*
X573999Y564999D02*
D03*
X677000Y583000D02*
D03*
X608000Y668000D02*
D03*
X548000Y500500D02*
D03*
X393500Y678500D02*
D03*
X786366Y735362D02*
D03*
X386138Y699865D02*
D03*
X779634Y735362D02*
D03*
X386138Y693135D02*
D03*
X624640Y722418D02*
D03*
X300362Y744865D02*
D03*
X624640Y715687D02*
D03*
X300362Y738135D02*
D03*
X778866Y718638D02*
D03*
X505138Y712763D02*
D03*
X772134Y718638D02*
D03*
X505138Y706031D02*
D03*
X757134Y709638D02*
D03*
X537638Y705738D02*
D03*
X763866Y709638D02*
D03*
X537638Y712468D02*
D03*
X424000Y462000D02*
D03*
Y469000D02*
D03*
X386039Y515914D02*
D03*
X398000Y516000D02*
D03*
X424500Y640000D02*
D03*
X415000Y462000D02*
D03*
X287000Y448000D02*
D03*
X294500Y455500D02*
D03*
X287000Y463000D02*
D03*
X302000D02*
D03*
Y448000D02*
D03*
X815000Y391000D02*
D03*
X562000Y316500D02*
D03*
X725000Y521000D02*
D03*
X578000Y616500D02*
D03*
X1057500Y427794D02*
D03*
X1024000Y426000D02*
D03*
Y434500D02*
D03*
X1048000Y419000D02*
D03*
X1057500D02*
D03*
X1038500Y409500D02*
D03*
X1048000D02*
D03*
X1057500D02*
D03*
X1046000Y360000D02*
D03*
X1097135Y584852D02*
D03*
X1103866D02*
D03*
X638000Y295500D02*
D03*
X516000Y477000D02*
D03*
X498500Y480500D02*
D03*
X509000Y412500D02*
D03*
X820000Y710000D02*
D03*
X814500Y719500D02*
D03*
X955500Y552500D02*
D03*
X954500Y576500D02*
D03*
X856000Y627500D02*
D03*
X419500Y834000D02*
D03*
X429250Y833750D02*
D03*
X368500Y750000D02*
D03*
X424500Y855500D02*
D03*
X347000Y822500D02*
D03*
X518000Y613000D02*
D03*
X623000Y669500D02*
D03*
X643000Y663000D02*
D03*
X428000Y676500D02*
D03*
X508750Y653250D02*
D03*
X580000Y589000D02*
D03*
X630250Y578750D02*
D03*
X528500Y483000D02*
D03*
X718500Y315500D02*
D03*
X709500Y322000D02*
D03*
X635000Y473500D02*
D03*
X635500Y482000D02*
D03*
X498200Y565200D02*
D03*
X848000Y596500D02*
D03*
X609000Y753500D02*
D03*
X602000Y748000D02*
D03*
X617500Y741500D02*
D03*
X634000Y740500D02*
D03*
X642000Y741000D02*
D03*
X516500Y429500D02*
D03*
X573800Y594200D02*
D03*
X829000Y589500D02*
D03*
X837500Y597500D02*
D03*
X599905Y552132D02*
D03*
X633000Y459500D02*
D03*
X789000Y663500D02*
D03*
X798000Y671000D02*
D03*
X561500Y649500D02*
D03*
X597200Y567700D02*
D03*
X1064000Y335450D02*
D03*
X1072000Y386000D02*
D03*
X1019000Y343000D02*
D03*
X1024500Y316500D02*
D03*
X981000Y347000D02*
D03*
X999500Y320000D02*
D03*
X374500Y322500D02*
D03*
X974500Y327000D02*
D03*
X538250Y786750D02*
D03*
X802500Y347500D02*
D03*
X815274Y337500D02*
D03*
X814500Y323500D02*
D03*
X803000Y277500D02*
D03*
X815000Y404000D02*
D03*
X789000Y373000D02*
D03*
X974000Y394500D02*
D03*
X960800Y389800D02*
D03*
X931450Y439550D02*
D03*
X777500Y491500D02*
D03*
X767000Y496000D02*
D03*
Y485000D02*
D03*
X687500Y422000D02*
D03*
X696000Y413500D02*
D03*
X492300Y458200D02*
D03*
X1039000Y892500D02*
D03*
X637500Y304000D02*
D03*
X669500Y288500D02*
D03*
X492000Y467800D02*
D03*
X418000Y393000D02*
D03*
X508366Y402448D02*
D03*
X531000Y316000D02*
D03*
X542000Y314000D02*
D03*
X541500Y343500D02*
D03*
X1109000Y862500D02*
D03*
X919750Y863750D02*
D03*
X759000Y824000D02*
D03*
X604750Y882750D02*
D03*
X529000Y787500D02*
D03*
X1226000Y570000D02*
D03*
X1304000Y691000D02*
D03*
X771000Y788000D02*
D03*
X685500Y892500D02*
D03*
X606134Y817000D02*
D03*
X555500Y789000D02*
D03*
X565500Y783000D02*
D03*
X447200Y870300D02*
D03*
X447300Y879700D02*
D03*
X1244250Y631250D02*
D03*
X1220500Y798500D02*
D03*
X420750Y373700D02*
D03*
X411700Y336300D02*
D03*
X380000Y339500D02*
D03*
X497500Y781500D02*
D03*
X415000Y469000D02*
D03*
X416500Y495000D02*
D03*
X417000Y501500D02*
D03*
X414000Y482500D02*
D03*
X805000Y498500D02*
D03*
X373800Y427800D02*
D03*
X361000Y479000D02*
D03*
X296500Y485225D02*
D03*
X360000Y461500D02*
D03*
X344500Y466000D02*
D03*
X352500Y457000D02*
D03*
X351000Y425000D02*
D03*
X316500Y443000D02*
D03*
X330000D02*
D03*
X474132Y530634D02*
D03*
Y537365D02*
D03*
X593174Y552132D02*
D03*
X916500Y400500D02*
D03*
X955500Y429500D02*
D03*
X937000Y430000D02*
D03*
X932122Y648868D02*
D03*
X938853D02*
D03*
X998916Y644866D02*
D03*
X992185D02*
D03*
X906000Y408750D02*
D03*
X891000D02*
D03*
X876000D02*
D03*
X861000D02*
D03*
X993634Y554608D02*
D03*
X826701Y720869D02*
D03*
X993634Y561339D02*
D03*
X833432Y720869D02*
D03*
X687134Y664862D02*
D03*
X693866D02*
D03*
X381138Y669865D02*
D03*
Y663135D02*
D03*
X789135Y817000D02*
D03*
X795865D02*
D03*
X618866Y660086D02*
D03*
X612135D02*
D03*
X633866Y646586D02*
D03*
X627135D02*
D03*
X588866Y651586D02*
D03*
X603866Y640673D02*
D03*
X597135D02*
D03*
X582135Y651586D02*
D03*
X1228500Y587365D02*
D03*
Y580634D02*
D03*
X1082135Y606869D02*
D03*
X1088866D02*
D03*
X1067135Y626869D02*
D03*
X1073866D02*
D03*
X1043866Y669868D02*
D03*
X1037135D02*
D03*
X1228500Y770366D02*
D03*
Y763634D02*
D03*
X1052122Y649868D02*
D03*
X1058853D02*
D03*
X1028853Y649866D02*
D03*
X1022122D02*
D03*
X1091366Y780132D02*
D03*
X1084635D02*
D03*
X1024622Y731866D02*
D03*
X1031353D02*
D03*
X1061353Y731869D02*
D03*
X1054622D02*
D03*
X1069635Y751869D02*
D03*
X1076366D02*
D03*
X1046366D02*
D03*
X1039635D02*
D03*
X968853Y657500D02*
D03*
X962122D02*
D03*
X983866Y669868D02*
D03*
X977135D02*
D03*
X917134D02*
D03*
X923866D02*
D03*
X902122Y657500D02*
D03*
X908853D02*
D03*
X966366Y818000D02*
D03*
X959634D02*
D03*
X1273554Y593368D02*
D03*
Y586637D02*
D03*
X1283632Y581363D02*
D03*
Y574632D02*
D03*
X1273554Y776367D02*
D03*
Y769637D02*
D03*
X1283631Y764363D02*
D03*
Y757633D02*
D03*
X1136633Y863054D02*
D03*
X1143364D02*
D03*
X1148637Y873132D02*
D03*
X1155368D02*
D03*
X953633Y863054D02*
D03*
X960363D02*
D03*
X965637Y873131D02*
D03*
X972367D02*
D03*
X783132Y862054D02*
D03*
X789864D02*
D03*
X795136Y872132D02*
D03*
X801868D02*
D03*
X618867D02*
D03*
X612136D02*
D03*
X606864Y862054D02*
D03*
X600132D02*
D03*
X612865Y817000D02*
D03*
D255*
X503848Y738848D02*
X555747D01*
X475699Y706604D02*
X505047Y735953D01*
X474500Y709500D02*
X503848Y738848D01*
X425896Y706604D02*
X475699D01*
X427095Y709500D02*
X474500D01*
X407095Y729500D02*
X427095Y709500D01*
X405896Y726604D02*
X425896Y706604D01*
X378429Y726604D02*
X405896D01*
X379628Y729500D02*
X407095D01*
X366180Y742948D02*
X379628Y729500D01*
X364981Y740052D02*
X378429Y726604D01*
X713795Y711289D02*
X732006Y729500D01*
X680295Y711289D02*
X713795D01*
X732006Y729500D02*
X769500D01*
X730806Y732396D02*
X770699D01*
X679095Y714184D02*
X712595D01*
X730806Y732396D01*
X784448Y729052D02*
X791396Y722104D01*
Y702301D02*
Y722104D01*
X776595Y687500D02*
X791396Y702301D01*
X786366Y734639D02*
Y735362D01*
X784448Y732722D02*
X786366Y734639D01*
X784448Y729052D02*
Y732722D01*
X426000Y687500D02*
X776595D01*
X385415Y699865D02*
X386138D01*
X383498Y697948D02*
X385415Y699865D01*
X377052Y697948D02*
X383498D01*
X781552Y727853D02*
X788500Y720905D01*
Y703500D02*
Y720905D01*
X775396Y690396D02*
X788500Y703500D01*
X779634Y734639D02*
X781552Y732722D01*
X779634Y734639D02*
Y735362D01*
X781552Y727853D02*
Y732722D01*
X427199Y690396D02*
X775396D01*
X375853Y695052D02*
X383498D01*
X385415Y693135D02*
X386138D01*
X383498Y695052D02*
X385415Y693135D01*
X401000Y712500D02*
X426000Y687500D01*
X402199Y715396D02*
X427199Y690396D01*
X377000Y712500D02*
X401000D01*
X369604Y701301D02*
Y709199D01*
X375801Y715396D01*
X402199D01*
X372500Y708000D02*
X377000Y712500D01*
X369604Y701301D02*
X375853Y695052D01*
X372500Y702500D02*
Y708000D01*
Y702500D02*
X377052Y697948D01*
X674295Y705289D02*
X680295Y711289D01*
X570711Y705289D02*
X674295D01*
X673095Y708184D02*
X679095Y714184D01*
X571911Y708184D02*
X673095D01*
X550000Y726000D02*
X570711Y705289D01*
X551199Y728896D02*
X571911Y708184D01*
X623918Y722418D02*
X624640D01*
X622000Y720500D02*
X623918Y722418D01*
X555747Y738848D02*
X574095Y720500D01*
X622000D01*
X303002Y742948D02*
X366180D01*
X300362Y744865D02*
X301084D01*
X303002Y742948D01*
X623918Y715687D02*
X624640D01*
X554548Y735953D02*
X572896Y717604D01*
X505047Y735953D02*
X554548D01*
X622000Y717604D02*
X623918Y715687D01*
X572896Y717604D02*
X622000D01*
X303002Y740052D02*
X364981D01*
X300362Y738135D02*
X301084D01*
X303002Y740052D01*
X514000Y721000D02*
X521896Y728896D01*
X551199D01*
X523095Y726000D02*
X550000D01*
X516896Y719801D02*
X523095Y726000D01*
X689301Y704396D02*
X717801D01*
X690500Y701500D02*
X719000D01*
X684298Y699393D02*
X689301Y704396D01*
X685498Y696498D02*
X690500Y701500D01*
X565702Y699393D02*
X684298D01*
X564502Y696498D02*
X685498D01*
X554544Y710551D02*
X565702Y699393D01*
X553345Y707655D02*
X564502Y696498D01*
X717801Y704396D02*
X733301Y719896D01*
X719000Y701500D02*
X734500Y717000D01*
X776948Y721278D02*
Y726147D01*
Y721278D02*
X778866Y719361D01*
X770699Y732396D02*
X776948Y726147D01*
X778866Y718638D02*
Y719361D01*
X514000Y713500D02*
Y721000D01*
X511345Y710845D02*
X514000Y713500D01*
X505138Y712763D02*
X505861D01*
X507778Y710845D01*
X511345D01*
X774052Y721278D02*
Y724948D01*
X772134Y719361D02*
X774052Y721278D01*
X769500Y729500D02*
X774052Y724948D01*
X772134Y718638D02*
Y719361D01*
X516896Y712301D02*
Y719801D01*
X512544Y707949D02*
X516896Y712301D01*
X507778Y707949D02*
X512544D01*
X505861Y706031D02*
X507778Y707949D01*
X505138Y706031D02*
X505861D01*
X757000Y717000D02*
X759052Y714948D01*
Y712278D02*
Y714948D01*
X757134Y709638D02*
Y710361D01*
X759052Y712278D01*
X734500Y717000D02*
X757000D01*
X537638Y705738D02*
X538361D01*
X540278Y707655D01*
X758199Y719896D02*
X761948Y716147D01*
Y712278D02*
Y716147D01*
X733301Y719896D02*
X758199D01*
X763866Y709638D02*
Y710361D01*
X761948Y712278D02*
X763866Y710361D01*
X537638Y712468D02*
X538361D01*
X540278Y710551D01*
Y707655D02*
X553345D01*
X540278Y710551D02*
X554544D01*
X388000Y667948D02*
X391815D01*
X395074Y664689D01*
Y652931D02*
Y664689D01*
Y652931D02*
X396636Y651369D01*
X399760D01*
X401322Y652931D01*
Y665335D01*
X404580Y668594D01*
X410103D01*
X413362Y665335D01*
Y652389D02*
Y665335D01*
Y652389D02*
X414924Y650827D01*
X418048D01*
X419610Y652389D01*
Y664689D01*
X422868Y667948D01*
X425500D01*
X388000Y665052D02*
X390616D01*
X392178Y663490D01*
Y651732D02*
Y663490D01*
Y651732D02*
X395436Y648474D01*
X400959D01*
X404217Y651732D01*
Y664136D01*
X405780Y665698D01*
X408904D01*
X410466Y664136D01*
Y651190D02*
Y664136D01*
Y651190D02*
X413724Y647932D01*
X419247D01*
X422505Y651190D01*
Y663490D01*
X424068Y665052D01*
X425500D01*
X383778Y667948D02*
X388000D01*
X425500D02*
X427353D01*
X383778Y665052D02*
X388000D01*
X425500D02*
X428552D01*
X447557Y681396D02*
X458331D01*
X461589Y678137D01*
Y672798D02*
Y678137D01*
Y672798D02*
X463151Y671236D01*
X466275D01*
X467837Y672798D01*
Y678977D01*
X471096Y682235D01*
X476619D01*
X479877Y678977D01*
Y672798D02*
Y678977D01*
Y672798D02*
X481439Y671236D01*
X484563D01*
X486125Y672798D01*
Y678977D01*
X489384Y682235D01*
X494907D01*
X498165Y678977D01*
Y672798D02*
Y678977D01*
Y672798D02*
X499727Y671236D01*
X502851D01*
X504413Y672798D01*
Y678977D01*
X507672Y682235D01*
X513195D01*
X516453Y678977D01*
Y672798D02*
Y678977D01*
Y672798D02*
X518015Y671236D01*
X521139D01*
X522701Y672798D01*
Y678977D01*
X525960Y682235D01*
X531483D01*
X534741Y678977D01*
Y672798D02*
Y678977D01*
Y672798D02*
X536303Y671236D01*
X539427D01*
X540989Y672798D01*
Y678977D01*
X544248Y682235D01*
X549771D01*
X553029Y678977D01*
Y672798D02*
Y678977D01*
Y672798D02*
X554591Y671236D01*
X557715D01*
X559277Y672798D01*
Y678977D01*
X562536Y682235D01*
X568059D01*
X571317Y678977D01*
Y672798D02*
Y678977D01*
Y672798D02*
X572879Y671236D01*
X576003D01*
X577565Y672798D01*
Y678137D01*
X580824Y681396D01*
X583455D01*
X447557Y678500D02*
X457131D01*
X458693Y676938D01*
Y671598D02*
Y676938D01*
Y671598D02*
X461951Y668340D01*
X467475D01*
X470733Y671598D01*
Y677777D01*
X472295Y679340D01*
X475419D01*
X476981Y677777D01*
Y671598D02*
Y677777D01*
Y671598D02*
X480239Y668340D01*
X485763D01*
X489021Y671598D01*
Y677777D01*
X490583Y679340D01*
X493707D01*
X495269Y677777D01*
Y671598D02*
Y677777D01*
Y671598D02*
X498527Y668340D01*
X504051D01*
X507309Y671598D01*
Y677777D01*
X508871Y679340D01*
X511995D01*
X513557Y677777D01*
Y671598D02*
Y677777D01*
Y671598D02*
X516815Y668340D01*
X522339D01*
X525597Y671598D01*
Y677777D01*
X527159Y679340D01*
X530283D01*
X531845Y677777D01*
Y671598D02*
Y677777D01*
Y671598D02*
X535103Y668340D01*
X540627D01*
X543885Y671598D01*
Y677777D01*
X545447Y679340D01*
X548571D01*
X550133Y677777D01*
Y671598D02*
Y677777D01*
Y671598D02*
X553391Y668340D01*
X558915D01*
X562173Y671598D01*
Y677777D01*
X563735Y679340D01*
X566859D01*
X568421Y677777D01*
Y671598D02*
Y677777D01*
Y671598D02*
X571679Y668340D01*
X577203D01*
X580461Y671598D01*
Y676938D01*
X582023Y678500D01*
X583455D01*
X440801Y681396D02*
X447557D01*
X442000Y678500D02*
X447557D01*
X428552Y665052D02*
X442000Y678500D01*
X427353Y667948D02*
X440801Y681396D01*
X583455D02*
X685163D01*
X583455Y678500D02*
X683500D01*
X381861Y663135D02*
X383778Y665052D01*
X381138Y663135D02*
X381861D01*
Y669865D02*
X383778Y667948D01*
X381138Y669865D02*
X381861D01*
D256*
X996961Y647500D02*
Y727225D01*
X857500Y808500D02*
X915685D01*
X996961Y727225D01*
X994014Y647500D02*
Y726004D01*
X992185Y645608D02*
X994046Y647468D01*
X857500Y805554D02*
X914465D01*
X994014Y726004D01*
X788981Y800500D02*
X904685D01*
X981973Y672502D02*
Y723212D01*
X904685Y800500D02*
X981973Y723212D01*
X979027Y672502D02*
Y721992D01*
X787761Y797554D02*
X903465D01*
X979027Y721992D01*
X1143981Y778500D02*
X1156921D01*
X1142761Y781446D02*
X1156921D01*
X1041995Y672502D02*
Y676513D01*
X1039048Y677734D02*
X1142761Y781446D01*
X1039048Y672523D02*
Y677734D01*
X1037135Y669868D02*
Y670610D01*
X1043866Y669868D02*
Y670631D01*
X1041995Y672502D02*
X1043866Y670631D01*
X1041995Y676513D02*
X1143981Y778500D01*
X1037135Y670610D02*
X1039048Y672523D01*
X1192000Y744500D02*
X1193301Y745801D01*
X1183314Y744500D02*
X1192000D01*
X1180045Y747769D02*
X1183314Y744500D01*
X1180045Y747769D02*
Y753446D01*
X1178502Y754989D02*
X1180045Y753446D01*
X1175416Y754989D02*
X1178502D01*
X1173873Y753446D02*
X1175416Y754989D01*
X1173873Y739054D02*
Y753446D01*
X1170604Y735785D02*
X1173873Y739054D01*
X1165077Y735785D02*
X1170604D01*
X1161808Y739054D02*
X1165077Y735785D01*
X1161808Y739054D02*
Y753881D01*
X1160265Y755424D02*
X1161808Y753881D01*
X1157179Y755424D02*
X1160265D01*
X1155636Y753881D02*
X1157179Y755424D01*
X1155636Y739054D02*
Y753881D01*
X1152367Y735785D02*
X1155636Y739054D01*
X1146840Y735785D02*
X1152367D01*
X1143571Y739054D02*
X1146840Y735785D01*
X1143571Y739054D02*
Y753881D01*
X1142028Y755424D02*
X1143571Y753881D01*
X1138942Y755424D02*
X1142028D01*
X1137399Y753881D02*
X1138942Y755424D01*
X1137399Y747769D02*
Y753881D01*
X1134130Y744500D02*
X1137399Y747769D01*
X1131500Y744500D02*
X1134130D01*
X1131500D02*
Y744500D01*
X1190780Y747446D02*
X1193301Y749967D01*
X1184535Y747446D02*
X1190780D01*
X1182991Y748989D02*
X1184535Y747446D01*
X1182991Y748989D02*
Y754666D01*
X1179723Y757935D02*
X1182991Y754666D01*
X1174195Y757935D02*
X1179723D01*
X1170927Y754666D02*
X1174195Y757935D01*
X1170927Y740275D02*
Y754666D01*
X1169383Y738732D02*
X1170927Y740275D01*
X1166297Y738732D02*
X1169383D01*
X1164754Y740275D02*
X1166297Y738732D01*
X1164754Y740275D02*
Y755101D01*
X1161485Y758370D02*
X1164754Y755101D01*
X1155958Y758370D02*
X1161485D01*
X1152689Y755101D02*
X1155958Y758370D01*
X1152689Y740275D02*
Y755101D01*
X1151146Y738732D02*
X1152689Y740275D01*
X1148060Y738732D02*
X1151146D01*
X1146517Y740275D02*
X1148060Y738732D01*
X1146517Y740275D02*
Y755101D01*
X1143248Y758370D02*
X1146517Y755101D01*
X1137721Y758370D02*
X1143248D01*
X1134452Y755101D02*
X1137721Y758370D01*
X1134452Y748989D02*
Y755101D01*
X1132909Y747446D02*
X1134452Y748989D01*
X1131500Y747446D02*
X1132909D01*
X814685Y764000D02*
X906961Y671725D01*
Y660134D02*
Y671725D01*
X711000Y764000D02*
X814685D01*
X904014Y660134D02*
Y670505D01*
X709780Y761054D02*
X813465D01*
X904014Y670505D01*
X820392Y783108D02*
X895554Y707946D01*
X819171Y780162D02*
X894333Y705000D01*
X727077Y783108D02*
X820392D01*
X764225Y780162D02*
X819171D01*
X894333Y705000D02*
X927019D01*
X1099027Y587485D02*
Y590713D01*
X1101973Y587485D02*
Y589492D01*
Y587485D02*
X1103866Y585593D01*
Y584852D02*
Y585593D01*
X1097135Y585593D02*
X1099027Y587485D01*
X1097135Y584852D02*
Y585593D01*
X719946Y770054D02*
X817250D01*
X892411Y694892D02*
X908608D01*
X817250Y770054D02*
X892411Y694892D01*
X721167Y773000D02*
X818470D01*
X893632Y697838D02*
X909829D01*
X818470Y773000D02*
X893632Y697838D01*
X927019Y705000D02*
X934020Y697998D01*
X675621Y791054D02*
X714965D01*
X716185Y794000D02*
X727077Y783108D01*
X675621Y794000D02*
X716185D01*
X934014Y651502D02*
Y697992D01*
X764225Y780162D02*
X764225Y780162D01*
X725857Y780162D02*
X764225D01*
X714965Y791054D02*
X725857Y780162D01*
X608027Y800806D02*
X617780Y791054D01*
X606134Y816259D02*
X608027Y814366D01*
X610973Y802027D02*
Y814366D01*
X612865Y816259D01*
X610973Y802027D02*
X619000Y794000D01*
X606134Y816259D02*
Y817000D01*
X608027Y800806D02*
Y814366D01*
X612865Y816259D02*
Y817000D01*
X778263Y846097D02*
X782083Y849917D01*
X773641Y846097D02*
X778263D01*
X771619Y848118D02*
X773641Y846097D01*
X769437Y848118D02*
X771619D01*
X767254Y845936D02*
X769437Y848118D01*
X767254Y843754D02*
Y845936D01*
Y843754D02*
X769276Y841732D01*
Y837109D02*
Y841732D01*
X768000Y835833D02*
X769276Y837109D01*
X768000Y834667D02*
Y835833D01*
X768000Y834667D02*
X768000D01*
X777043Y849043D02*
X780000Y852000D01*
X774861Y849043D02*
X777043D01*
X772839Y851065D02*
X774861Y849043D01*
X768216Y851065D02*
X772839D01*
X764308Y847157D02*
X768216Y851065D01*
X764308Y842533D02*
Y847157D01*
Y842533D02*
X766330Y840512D01*
Y838330D02*
Y840512D01*
X765333Y837333D02*
X766330Y838330D01*
X782083Y849917D02*
X787971Y855804D01*
X768000Y833500D02*
Y834667D01*
X780000Y852000D02*
X785025Y857025D01*
X765054Y837054D02*
X765333Y837333D01*
X765054Y833500D02*
Y837054D01*
X768000Y813315D02*
Y833500D01*
X765054Y813315D02*
Y833500D01*
X768000Y804482D02*
Y813315D01*
X765054Y803261D02*
Y813315D01*
X857500Y805554D02*
Y805554D01*
X849077Y805554D02*
X857500D01*
X845808Y808823D02*
X849077Y805554D01*
X845808Y808823D02*
Y811583D01*
X844265Y813126D02*
X845808Y811583D01*
X841179Y813126D02*
X844265D01*
X839636Y811583D02*
X841179Y813126D01*
X839636Y808155D02*
Y811583D01*
X836367Y804886D02*
X839636Y808155D01*
X830840Y804886D02*
X836367D01*
X827571Y808155D02*
X830840Y804886D01*
X827571Y808155D02*
Y813329D01*
X826028Y814872D02*
X827571Y813329D01*
X822942Y814872D02*
X826028D01*
X821399Y813329D02*
X822942Y814872D01*
X821399Y808823D02*
Y813329D01*
X818130Y805554D02*
X821399Y808823D01*
X815500Y805554D02*
X818130D01*
X815500D02*
Y805554D01*
X850297Y808500D02*
X857500D01*
X848754Y810043D02*
X850297Y808500D01*
X848754Y810043D02*
Y812803D01*
X845485Y816072D02*
X848754Y812803D01*
X839958Y816072D02*
X845485D01*
X836689Y812803D02*
X839958Y816072D01*
X836689Y809376D02*
Y812803D01*
X835146Y807832D02*
X836689Y809376D01*
X832060Y807832D02*
X835146D01*
X830517Y809376D02*
X832060Y807832D01*
X830517Y809376D02*
Y814549D01*
X827248Y817818D02*
X830517Y814549D01*
X821721Y817818D02*
X827248D01*
X818452Y814549D02*
X821721Y817818D01*
X818452Y810043D02*
Y814549D01*
X816909Y808500D02*
X818452Y810043D01*
X815500Y808500D02*
X816909D01*
X794279Y805554D02*
X815500D01*
X795500Y808500D02*
X815500D01*
X587000Y794500D02*
Y837833D01*
X584054Y793280D02*
Y839054D01*
Y793280D02*
X607280Y770054D01*
X587000Y794500D02*
X608500Y773000D01*
X587000Y837833D02*
X604971Y855804D01*
X584054Y839054D02*
X602025Y857025D01*
X675621Y791054D02*
Y791054D01*
X662077Y791054D02*
X675621D01*
X658808Y794323D02*
X662077Y791054D01*
X658808Y794323D02*
Y797894D01*
X657265Y799437D02*
X658808Y797894D01*
X654179Y799437D02*
X657265D01*
X652636Y797894D02*
X654179Y799437D01*
X652636Y794083D02*
Y797894D01*
X649367Y790814D02*
X652636Y794083D01*
X643840Y790814D02*
X649367D01*
X640571Y794083D02*
X643840Y790814D01*
X640571Y794083D02*
Y798308D01*
X639028Y799851D02*
X640571Y798308D01*
X635942Y799851D02*
X639028D01*
X634399Y798308D02*
X635942Y799851D01*
X634399Y794323D02*
Y798308D01*
X631130Y791054D02*
X634399Y794323D01*
X628500Y791054D02*
X631130D01*
X628500D02*
Y791054D01*
X663297Y794000D02*
X675621D01*
X661754Y795543D02*
X663297Y794000D01*
X661754Y795543D02*
Y799114D01*
X658485Y802383D02*
X661754Y799114D01*
X652958Y802383D02*
X658485D01*
X649689Y799114D02*
X652958Y802383D01*
X649689Y795303D02*
Y799114D01*
X648146Y793760D02*
X649689Y795303D01*
X645060Y793760D02*
X648146D01*
X643517Y795303D02*
X645060Y793760D01*
X643517Y795303D02*
Y799529D01*
X640248Y802798D02*
X643517Y799529D01*
X634721Y802798D02*
X640248D01*
X631452Y799529D02*
X634721Y802798D01*
X631452Y795543D02*
Y799529D01*
X629909Y794000D02*
X631452Y795543D01*
X628500Y794000D02*
X629909D01*
X617780Y791054D02*
X628500D01*
X619000Y794000D02*
X628500D01*
X932122Y648868D02*
Y649610D01*
X936961Y651502D02*
X938853Y649610D01*
Y648868D02*
Y649610D01*
X932122D02*
X934014Y651502D01*
X936961Y651500D02*
Y699212D01*
X998916Y644866D02*
Y645608D01*
X997024Y647500D02*
X998916Y645608D01*
X992185Y644866D02*
Y645608D01*
X992892Y554608D02*
X993634D01*
X991000Y556500D02*
X992892Y554608D01*
X986261Y556500D02*
X991000D01*
X828594Y714167D02*
X986261Y556500D01*
X826701Y720127D02*
Y720869D01*
X828594Y714167D02*
Y718235D01*
X826701Y720127D02*
X828594Y718235D01*
X992892Y561339D02*
X993634D01*
X991000Y559446D02*
X992892Y561339D01*
X987481Y559446D02*
X991000D01*
X833432Y720127D02*
Y720869D01*
X831540Y715387D02*
X987481Y559446D01*
X831540Y715387D02*
Y718235D01*
X833432Y720127D01*
X1206500Y635500D02*
Y635500D01*
X1183544Y635500D02*
X1206500D01*
X1180275Y638769D02*
X1183544Y635500D01*
X1180275Y638769D02*
Y644376D01*
X1178732Y645919D02*
X1180275Y644376D01*
X1175645Y645919D02*
X1178732D01*
X1174102Y644376D02*
X1175645Y645919D01*
X1174102Y638769D02*
Y644376D01*
X1170833Y635500D02*
X1174102Y638769D01*
X1168204Y635500D02*
X1170833D01*
X1168204D02*
Y635500D01*
X1184764Y638446D02*
X1206500D01*
X1183221Y639989D02*
X1184764Y638446D01*
X1183221Y639989D02*
Y645596D01*
X1179952Y648865D02*
X1183221Y645596D01*
X1174425Y648865D02*
X1179952D01*
X1171156Y645596D02*
X1174425Y648865D01*
X1171156Y639989D02*
Y645596D01*
X1169613Y638446D02*
X1171156Y639989D01*
X1168204Y638446D02*
X1169613D01*
X928239Y707946D02*
X936967Y699219D01*
X778761Y789554D02*
X877779D01*
X779982Y792500D02*
X879000D01*
X776054Y809261D02*
X787761Y797554D01*
X779000Y810481D02*
X788981Y800500D01*
X797029Y852029D02*
Y869498D01*
X779000Y810481D02*
Y829833D01*
X776054Y831054D02*
X797029Y852029D01*
X779000Y829833D02*
X799975Y850808D01*
Y869498D01*
X776054Y809261D02*
Y831054D01*
X801868Y871390D02*
Y872132D01*
X795136Y871390D02*
Y872132D01*
Y871390D02*
X797029Y869498D01*
X799975D02*
X801868Y871390D01*
X709446Y780554D02*
X719946Y770054D01*
X710667Y783500D02*
X721167Y773000D01*
X700780Y770054D02*
X709780Y761054D01*
X702000Y773000D02*
X711000Y764000D01*
X607280Y770054D02*
X700780D01*
X608500Y773000D02*
X702000D01*
X612280Y780554D02*
X709446D01*
X613500Y783500D02*
X710667D01*
X595662Y797171D02*
X612280Y780554D01*
X598608Y798392D02*
X613500Y783500D01*
X895554Y707946D02*
X928239D01*
X598608Y798392D02*
Y832441D01*
X595662Y797171D02*
Y833662D01*
X909829Y697838D02*
X921973Y685694D01*
X908608Y694892D02*
X919014Y684486D01*
X791027Y808806D02*
X794279Y805554D01*
X789135Y816259D02*
Y817000D01*
X791027Y808806D02*
Y814366D01*
X789135Y816259D02*
X791027Y814366D01*
X793973Y810027D02*
X795500Y808500D01*
X795865Y816259D02*
Y817000D01*
X793973Y814366D02*
X795865Y816259D01*
X793973Y810027D02*
Y814366D01*
X879000Y792500D02*
X966961Y704539D01*
X877780Y789554D02*
X964014Y703319D01*
X765054Y803261D02*
X778761Y789554D01*
X768000Y804482D02*
X779982Y792500D01*
X966961Y660134D02*
Y704539D01*
X1187333Y582500D02*
X1197000D01*
X1175833Y594000D02*
X1187333Y582500D01*
X1177054Y596946D02*
X1188527Y585473D01*
X1225866D01*
X1170000Y596946D02*
X1177054D01*
X1197000Y582500D02*
X1199500Y580000D01*
X1203000D01*
X1205500Y582500D02*
X1211000D01*
X1203000Y580000D02*
X1205500Y582500D01*
X1213473Y580027D02*
X1216500D01*
X1211000Y582500D02*
X1213473Y580027D01*
X1216500D02*
X1219000Y582527D01*
X1225866D01*
X1097977Y635500D02*
X1102406D01*
X1096434Y633957D02*
X1097977Y635500D01*
X1096434Y632795D02*
Y633957D01*
X1094891Y631251D02*
X1096434Y632795D01*
X1091805Y631251D02*
X1094891D01*
X1090262Y632795D02*
X1091805Y631251D01*
X1090262Y632795D02*
Y633957D01*
X1088718Y635500D02*
X1090262Y633957D01*
X1082000Y635500D02*
X1088718D01*
X1102406D02*
X1168204D01*
X1074981D02*
X1082000D01*
X1115538Y613892D02*
X1120500D01*
X1113995Y612349D02*
X1115538Y613892D01*
X1113995Y610943D02*
Y612349D01*
X1112452Y609400D02*
X1113995Y610943D01*
X1109366Y609400D02*
X1112452D01*
X1107823Y610943D02*
X1109366Y609400D01*
X1107823Y610943D02*
Y612349D01*
X1106280Y613892D02*
X1107823Y612349D01*
X1099561Y613892D02*
X1106280D01*
X1120500D02*
X1224941D01*
X1089032D02*
X1099561D01*
X1106000Y596946D02*
X1118186D01*
X1121455Y593677D01*
Y586451D02*
Y593677D01*
Y586451D02*
X1122998Y584907D01*
X1126084D01*
X1127627Y586451D01*
Y594380D01*
X1130896Y597649D01*
X1136423D01*
X1139692Y594380D01*
Y586018D02*
Y594380D01*
Y586018D02*
X1141235Y584475D01*
X1144321D01*
X1145864Y586018D01*
Y594380D01*
X1149133Y597649D01*
X1154660D01*
X1157929Y594380D01*
Y586018D02*
Y594380D01*
Y586018D02*
X1159472Y584475D01*
X1162558D01*
X1164101Y586018D01*
Y593677D01*
X1167370Y596946D01*
X1170000D01*
X1106000Y593519D02*
X1106481Y594000D01*
X1116965D01*
X1118508Y592457D01*
Y585230D02*
Y592457D01*
Y585230D02*
X1121777Y581961D01*
X1127304D01*
X1130573Y585230D01*
Y593159D01*
X1132116Y594702D01*
X1135202D01*
X1136746Y593159D01*
Y584797D02*
Y593159D01*
Y584797D02*
X1140015Y581528D01*
X1145542D01*
X1148811Y584797D01*
Y593159D01*
X1150354Y594702D01*
X1153440D01*
X1154983Y593159D01*
Y584797D02*
Y593159D01*
Y584797D02*
X1158252Y581528D01*
X1163779D01*
X1167048Y584797D01*
Y592457D01*
X1168591Y594000D01*
X1170000D01*
X1105261Y596946D02*
X1106000D01*
X1101973Y589492D02*
X1106000Y593519D01*
X1170000Y594000D02*
X1175833D01*
X1221554Y638446D02*
X1268525Y591475D01*
X1206500Y635500D02*
X1220333D01*
X1206500Y638446D02*
X1221554D01*
X1073761D02*
X1168204D01*
X1071974Y632492D02*
X1074981Y635500D01*
X1207047Y759547D02*
X1209250Y761750D01*
X1207047Y757365D02*
Y759547D01*
Y757365D02*
X1207963Y756449D01*
Y754267D02*
Y756449D01*
X1205781Y752084D02*
X1207963Y754267D01*
X1203599Y752084D02*
X1205781D01*
X1202683Y753001D02*
X1203599Y752084D01*
X1200501Y753001D02*
X1202683D01*
X1195750Y748250D02*
X1200501Y753001D01*
X1209250Y761750D02*
X1213027Y765527D01*
X1193301Y745801D02*
X1195750Y748250D01*
X1224500Y778500D02*
X1243333D01*
X1221977D02*
X1224500D01*
X1220434Y776957D02*
X1221977Y778500D01*
X1220434Y775216D02*
Y776957D01*
X1218891Y773673D02*
X1220434Y775216D01*
X1215805Y773673D02*
X1218891D01*
X1214261Y775216D02*
X1215805Y773673D01*
X1214261Y775216D02*
Y776957D01*
X1212718Y778500D02*
X1214261Y776957D01*
X1206500Y778500D02*
X1212718D01*
X1206000D02*
X1206500D01*
X1205000D02*
X1206000D01*
X1214000Y788500D02*
X1250333D01*
X1200977D02*
X1214000D01*
X1199434Y786957D02*
X1200977Y788500D01*
X1199434Y785514D02*
Y786957D01*
X1197891Y783971D02*
X1199434Y785514D01*
X1194805Y783971D02*
X1197891D01*
X1193261Y785514D02*
X1194805Y783971D01*
X1193261Y785514D02*
Y786957D01*
X1191718Y788500D02*
X1193261Y786957D01*
X1185000Y788500D02*
X1191718D01*
X1140500D02*
X1185000D01*
X1123000Y744500D02*
X1131500D01*
X1121779Y747446D02*
X1131500D01*
X1193301Y749967D02*
X1211806Y768473D01*
X1205000Y781446D02*
X1244554D01*
X1156921D02*
Y781446D01*
X1171423D01*
X1174692Y778177D01*
Y771674D02*
Y778177D01*
Y771674D02*
X1176235Y770130D01*
X1179321D01*
X1180864Y771674D01*
Y779275D01*
X1184133Y782544D01*
X1189660D01*
X1192929Y779275D01*
Y771674D02*
Y779275D01*
Y771674D02*
X1194472Y770130D01*
X1197558D01*
X1199101Y771674D01*
Y778177D01*
X1202370Y781446D01*
X1205000D01*
Y781446D02*
Y781446D01*
X1156921Y778500D02*
X1170203D01*
X1171746Y776957D01*
Y770453D02*
Y776957D01*
Y770453D02*
X1175015Y767184D01*
X1180542D01*
X1183811Y770453D01*
Y778054D01*
X1185354Y779597D01*
X1188440D01*
X1189983Y778054D01*
Y770453D02*
Y778054D01*
Y770453D02*
X1193252Y767184D01*
X1198779D01*
X1202048Y770453D01*
Y776957D01*
X1203591Y778500D01*
X1205000D01*
X1056961Y678461D02*
X1123000Y744500D01*
X1056961Y652502D02*
Y678461D01*
X1054014Y679681D02*
X1121779Y747446D01*
X1054014Y652502D02*
Y679681D01*
X1211806Y768473D02*
X1225866D01*
X1213027Y765527D02*
X1225866D01*
X1105750Y808250D02*
X1111153Y813653D01*
X1115776D01*
X1117638Y811791D01*
X1119820D01*
X1122002Y813973D01*
Y816155D01*
X1120141Y818018D02*
X1122002Y816155D01*
X1120141Y818018D02*
Y822641D01*
X1122000Y824500D01*
X1107833Y806167D02*
X1112374Y810707D01*
X1114556D01*
X1116418Y808845D01*
X1121041D01*
X1124949Y812753D01*
Y817376D01*
X1123087Y819238D02*
X1124949Y817376D01*
X1123087Y819238D02*
Y821420D01*
X1124083Y822417D01*
X1086527Y789027D02*
X1105750Y808250D01*
X1122000Y824500D02*
X1150529Y853029D01*
X1089473Y787807D02*
X1107833Y806167D01*
X1124083Y822417D02*
X1153475Y851808D01*
X1023000Y795162D02*
Y795162D01*
X1016077Y795162D02*
X1023000D01*
X1012808Y798431D02*
X1016077Y795162D01*
X1012808Y798431D02*
Y805544D01*
X1011265Y807087D02*
X1012808Y805544D01*
X1008179Y807087D02*
X1011265D01*
X1006636Y805544D02*
X1008179Y807087D01*
X1006636Y798217D02*
Y805544D01*
X1003367Y794948D02*
X1006636Y798217D01*
X997840Y794948D02*
X1003367D01*
X994571Y798217D02*
X997840Y794948D01*
X994571Y798217D02*
Y805544D01*
X993028Y807087D02*
X994571Y805544D01*
X989942Y807087D02*
X993028D01*
X988399Y805544D02*
X989942Y807087D01*
X988399Y798431D02*
Y805544D01*
X985130Y795162D02*
X988399Y798431D01*
X982500Y795162D02*
X985130D01*
X982500D02*
Y795162D01*
X1017297Y798108D02*
X1023000D01*
X1015754Y799651D02*
X1017297Y798108D01*
X1015754Y799651D02*
Y806764D01*
X1012485Y810033D02*
X1015754Y806764D01*
X1006958Y810033D02*
X1012485D01*
X1003689Y806764D02*
X1006958Y810033D01*
X1003689Y799438D02*
Y806764D01*
X1002146Y797895D02*
X1003689Y799438D01*
X999060Y797895D02*
X1002146D01*
X997517Y799438D02*
X999060Y797895D01*
X997517Y799438D02*
Y806764D01*
X994248Y810033D02*
X997517Y806764D01*
X988721Y810033D02*
X994248D01*
X985452Y806764D02*
X988721Y810033D01*
X985452Y799651D02*
Y806764D01*
X983909Y798108D02*
X985452Y799651D01*
X982500Y798108D02*
X983909D01*
X974671Y795162D02*
X982500D01*
X975892Y798108D02*
X982500D01*
X1023000Y795162D02*
X1046357D01*
X1023000Y798108D02*
X1047577D01*
X996000Y787882D02*
X1030210D01*
X996000Y784936D02*
X1028989D01*
X972500Y787882D02*
X980660D01*
X983929Y784613D01*
Y781412D02*
Y784613D01*
Y781412D02*
X985472Y779869D01*
X988558D01*
X990101Y781412D01*
Y784613D01*
X993370Y787882D01*
X996000D01*
X972500Y784936D02*
X979440D01*
X980983Y783393D01*
Y780191D02*
Y783393D01*
Y780191D02*
X984252Y776922D01*
X989779D01*
X993048Y780191D01*
Y783393D01*
X994591Y784936D01*
X996000D01*
X970618Y787882D02*
X972500D01*
X969397Y784936D02*
X972500D01*
X951000Y807500D02*
X970618Y787882D01*
X1030210D02*
X1044473Y773618D01*
X1028989Y784936D02*
X1041527Y772398D01*
X948054Y806280D02*
X969397Y784936D01*
X970441Y767892D02*
X1019127D01*
X1026514Y760504D01*
X971662Y770838D02*
X1020347D01*
X941000Y801500D02*
X971662Y770838D01*
X1020347D02*
X1029461Y761725D01*
X963363Y774970D02*
X970441Y767892D01*
X963363Y774970D02*
X963363D01*
X938054Y800280D02*
X963363Y774970D01*
X1029461Y734500D02*
Y761725D01*
X1026514Y734500D02*
Y760504D01*
X1099027Y590713D02*
X1105261Y596946D01*
X1069027Y629502D02*
Y633713D01*
X1073761Y638446D01*
X1071974Y629502D02*
Y632492D01*
X1227025Y615975D02*
X1263529Y579471D01*
X1084027Y613054D02*
X1087812Y616838D01*
X1226162D01*
X1084027Y609502D02*
Y613054D01*
X1086973Y611833D02*
X1089032Y613892D01*
X1224941D02*
X1262309Y576525D01*
X1082135Y606869D02*
Y607610D01*
X1226162Y616838D02*
X1227025Y615975D01*
X1227025D01*
X1086973Y609502D02*
Y611833D01*
X1082135Y607610D02*
X1084027Y609502D01*
X1227759Y587365D02*
X1228500D01*
X1225866Y585473D02*
X1227759Y587365D01*
Y580634D02*
X1228500D01*
X1225866Y582527D02*
X1227759Y580634D01*
X1088866Y606869D02*
Y607610D01*
X1086973Y609502D02*
X1088866Y607610D01*
X1073866Y626869D02*
Y627610D01*
X1067135Y626869D02*
Y627610D01*
X1071974Y629502D02*
X1073866Y627610D01*
X1067135D02*
X1069027Y629502D01*
X1262308Y759525D02*
X1280998D01*
X1243333Y778500D02*
X1262308Y759525D01*
X1244554Y781446D02*
X1263529Y762471D01*
X1280998D01*
X1225866Y765527D02*
X1227759Y763634D01*
Y770366D02*
X1228500D01*
X1227759Y763634D02*
X1228500D01*
X1225866Y768473D02*
X1227759Y770366D01*
X1023963Y652498D02*
Y676130D01*
X1026910Y652498D02*
Y674910D01*
X1023963Y676130D02*
X1139279Y791446D01*
X1026910Y674910D02*
X1140500Y788500D01*
X1139279Y791446D02*
X1251554D01*
X1052122Y649868D02*
Y650610D01*
X1056961Y652502D02*
X1058853Y650610D01*
Y649868D02*
Y650610D01*
X1052122D02*
X1054014Y652502D01*
X1022122Y650608D02*
X1024014Y652500D01*
X1028853Y649866D02*
Y650608D01*
X1026961Y652500D02*
X1028853Y650608D01*
X1022122Y649866D02*
Y650608D01*
X1084635Y780132D02*
Y780873D01*
X1089473Y782765D02*
X1091366Y780873D01*
Y780132D02*
Y780873D01*
X1084635D02*
X1086527Y782765D01*
X1086527D02*
Y789027D01*
X1089473Y782765D02*
Y787807D01*
X1071527Y754502D02*
Y791027D01*
X1074474Y754502D02*
Y789807D01*
X1069635Y751869D02*
Y752610D01*
X1074474Y754502D02*
X1076366Y752610D01*
Y751869D02*
Y752610D01*
X1069635D02*
X1071527Y754502D01*
X1024622Y731866D02*
Y732608D01*
X1029461Y734500D02*
X1031353Y732608D01*
Y731866D02*
Y732608D01*
X1024622D02*
X1026514Y734500D01*
X1054622Y732610D02*
X1056514Y734502D01*
X1061353Y731869D02*
Y732610D01*
X1059461Y734502D02*
X1061353Y732610D01*
X1054622Y731869D02*
Y732610D01*
X1039635Y752610D02*
X1041527Y754502D01*
X1046366Y751869D02*
Y752610D01*
X1044473Y754502D02*
X1046366Y752610D01*
X1039635Y751869D02*
Y752610D01*
X1041527Y754502D02*
Y772398D01*
X1044473Y754502D02*
Y773618D01*
X964014Y660134D02*
Y703319D01*
X962122Y658241D02*
X964014Y660134D01*
X968853Y657500D02*
Y658241D01*
X966961Y660134D02*
X968853Y658241D01*
X962122Y657500D02*
Y658241D01*
X977135Y670610D02*
X979027Y672502D01*
X983866Y669868D02*
Y670610D01*
X981973Y672502D02*
X983866Y670610D01*
X977135Y669868D02*
Y670610D01*
X921973Y672502D02*
Y685694D01*
X919027Y672502D02*
Y684486D01*
X917134Y669868D02*
Y670610D01*
X921973Y672502D02*
X923866Y670610D01*
Y669868D02*
Y670610D01*
X917134D02*
X919027Y672502D01*
X902122Y657500D02*
Y658241D01*
X906961Y660134D02*
X908853Y658241D01*
Y657500D02*
Y658241D01*
X902122D02*
X904014Y660134D01*
X938054Y800280D02*
Y840554D01*
X941000Y801500D02*
Y839333D01*
X961527Y808306D02*
X974671Y795162D01*
X1046357D02*
X1056527Y784992D01*
X964473Y809527D02*
X975892Y798108D01*
X1047577D02*
X1059473Y786212D01*
Y734502D02*
Y786212D01*
X948054Y806280D02*
Y833554D01*
X951000Y807500D02*
Y832333D01*
X966366Y817259D02*
Y818000D01*
X964473Y815366D02*
X966366Y817259D01*
X959634D02*
Y818000D01*
Y817259D02*
X961527Y815366D01*
X1056527Y734502D02*
Y784992D01*
X961527Y808306D02*
Y815366D01*
X964473Y809527D02*
Y815366D01*
X1282890Y574632D02*
X1283632D01*
X1280998Y579471D02*
X1282890Y581363D01*
X1263529Y579471D02*
X1280998D01*
X1282890Y581363D02*
X1283632D01*
X1262309Y576525D02*
X1280998D01*
X1282890Y574632D01*
X1272812Y586637D02*
X1273554D01*
X1270920Y588529D02*
X1272812Y586637D01*
X1267304Y588529D02*
X1270920D01*
X1220333Y635500D02*
X1267304Y588529D01*
X1272812Y593368D02*
X1273554D01*
X1270920Y591475D02*
X1272812Y593368D01*
X1268525Y591475D02*
X1270920D01*
X1282890Y757633D02*
X1283631D01*
X1280998Y762471D02*
X1282890Y764363D01*
X1283631D01*
X1280998Y759525D02*
X1282890Y757633D01*
X1272812Y769637D02*
X1273554D01*
X1270920Y771529D02*
X1272812Y769637D01*
X1267304Y771529D02*
X1270920D01*
X1250333Y788500D02*
X1267304Y771529D01*
X1272812Y776367D02*
X1273554D01*
X1270920Y774475D02*
X1272812Y776367D01*
X1268525Y774475D02*
X1270920D01*
X1251554Y791446D02*
X1268525Y774475D01*
X1155368Y872390D02*
Y873132D01*
X1148637Y872390D02*
X1150529Y870498D01*
Y853029D02*
Y870498D01*
X1148637Y872390D02*
Y873132D01*
X1153475Y851808D02*
Y870498D01*
X1155368Y872390D01*
X1143364Y862312D02*
Y863054D01*
X1141471Y860420D02*
X1143364Y862312D01*
X1141471Y856804D02*
Y860420D01*
X1074474Y789807D02*
X1141471Y856804D01*
X1136633Y862312D02*
Y863054D01*
Y862312D02*
X1138525Y860420D01*
Y858025D02*
Y860420D01*
X1071527Y791027D02*
X1138525Y858025D01*
X972367Y872390D02*
Y873131D01*
X965637Y872390D02*
X967529Y870498D01*
Y853029D02*
Y870498D01*
X965637Y872390D02*
Y873131D01*
X970475Y851808D02*
Y870498D01*
X972367Y872390D01*
X960363Y862312D02*
Y863054D01*
X958471Y860420D02*
X960363Y862312D01*
X958471Y856804D02*
Y860420D01*
X941000Y839333D02*
X958471Y856804D01*
X953633Y862312D02*
Y863054D01*
Y862312D02*
X955525Y860420D01*
Y858025D02*
Y860420D01*
X938054Y840554D02*
X955525Y858025D01*
X951000Y832333D02*
X970475Y851808D01*
X948054Y833554D02*
X967529Y853029D01*
X789864Y861312D02*
Y862054D01*
X787971Y859420D02*
X789864Y861312D01*
X787971Y855804D02*
Y859420D01*
X783132Y861312D02*
Y862054D01*
Y861312D02*
X785025Y859420D01*
Y857025D02*
Y859420D01*
X595662Y833662D02*
X614029Y852029D01*
X598608Y832441D02*
X616975Y850808D01*
X602025Y857025D02*
Y859420D01*
X600132Y861312D02*
X602025Y859420D01*
X600132Y861312D02*
Y862054D01*
X604971Y855804D02*
Y859420D01*
X606864Y861312D01*
Y862054D01*
X616975Y869498D02*
X618867Y871390D01*
X616975Y850808D02*
Y869498D01*
X612136Y871390D02*
Y872132D01*
X614029Y852029D02*
Y869498D01*
X612136Y871390D02*
X614029Y869498D01*
X618867Y871390D02*
Y872132D01*
M02*
