G04*
G04 #@! TF.GenerationSoftware,Altium Limited,Altium Designer,20.1.12 (249)*
G04*
G04 Layer_Color=16711935*
%FSLAX44Y44*%
%MOMM*%
G71*
G04*
G04 #@! TF.SameCoordinates,92C3D8CC-84FC-494B-B6CF-3A4A02D2A6DE*
G04*
G04*
G04 #@! TF.FilePolarity,Negative*
G04*
G01*
G75*
%ADD99R,1.2000X1.5000*%
%ADD100R,0.6700X0.7200*%
%ADD102R,0.7200X0.6700*%
%ADD155R,1.0700X1.0600*%
%ADD159R,1.8000X1.1160*%
%ADD160R,1.8000X1.1160*%
%ADD172C,1.2192*%
%ADD174C,1.7000*%
%ADD175C,1.2000*%
%ADD176C,0.8532*%
%ADD177O,1.2032X1.8032*%
%ADD178O,1.3000X1.8000*%
%ADD179O,1.3000X2.0000*%
%ADD180C,1.1400*%
%ADD181R,1.6000X1.6000*%
%ADD182C,1.6000*%
%ADD183C,0.7500*%
%ADD184C,0.8500*%
%ADD185O,1.5000X2.9500*%
%ADD186O,1.3000X2.3500*%
%ADD187C,1.8000*%
%ADD188C,2.7000*%
%ADD189C,1.7500*%
%ADD190C,3.3500*%
%ADD191R,1.8000X1.8000*%
%ADD192O,4.6000X2.1000*%
%ADD193O,2.1000X4.1000*%
%ADD194O,4.1000X2.1000*%
%ADD195C,2.0000*%
%ADD196C,0.6000*%
%ADD197C,6.1000*%
%ADD198C,0.3332*%
%ADD199C,0.1000*%
%ADD200C,0.7112*%
%ADD228C,0.5000*%
%ADD264R,1.6500X0.4000*%
%ADD265R,2.8500X1.3000*%
%ADD266R,0.5000X0.8000*%
%ADD267R,0.5000X0.3500*%
%ADD268R,1.6500X0.3800*%
%ADD269R,2.4900X1.3000*%
%ADD270C,6.4032*%
%ADD271C,6.2032*%
D99*
X368750Y504500D02*
D03*
X386250D02*
D03*
X368750Y529500D02*
D03*
X386250D02*
D03*
X368750Y552000D02*
D03*
X386250D02*
D03*
D100*
X309200Y717000D02*
D03*
X318800D02*
D03*
X309200Y706000D02*
D03*
X318800D02*
D03*
X309200Y736000D02*
D03*
X318800D02*
D03*
X309200Y747000D02*
D03*
X318800D02*
D03*
Y687000D02*
D03*
X309200D02*
D03*
X318800Y676000D02*
D03*
X309200D02*
D03*
Y766000D02*
D03*
X318800D02*
D03*
X309200Y777000D02*
D03*
X318800D02*
D03*
X368700Y582500D02*
D03*
X378300D02*
D03*
X437200Y686000D02*
D03*
X446800D02*
D03*
X289800Y492500D02*
D03*
X280200D02*
D03*
X591300Y579000D02*
D03*
X581700D02*
D03*
D102*
X513500Y569700D02*
D03*
Y579300D02*
D03*
X633000Y452300D02*
D03*
Y442700D02*
D03*
X483500Y587300D02*
D03*
Y577700D02*
D03*
X493000Y587300D02*
D03*
Y577700D02*
D03*
X552022Y408800D02*
D03*
Y399200D02*
D03*
X525500Y569700D02*
D03*
Y579300D02*
D03*
X574000Y384200D02*
D03*
Y393800D02*
D03*
D155*
X413150Y583000D02*
D03*
X396850D02*
D03*
X573150Y328000D02*
D03*
X556850D02*
D03*
D159*
X307500Y425500D02*
D03*
X332500Y425500D02*
D03*
X282500D02*
D03*
D160*
X307500Y455500D02*
D03*
X332500Y455500D02*
D03*
X282500D02*
D03*
D172*
X365500Y931500D02*
D03*
X1184651Y931500D02*
D03*
X350000Y226500D02*
D03*
X1156451Y226500D02*
D03*
D174*
X391000Y606500D02*
D03*
D175*
Y806500D02*
D03*
D176*
X728499Y356350D02*
D03*
X736499D02*
D03*
X708499Y349350D02*
D03*
X716499D02*
D03*
X748499D02*
D03*
X756499D02*
D03*
X720499Y356350D02*
D03*
X744499D02*
D03*
X712499D02*
D03*
X752499D02*
D03*
X704499D02*
D03*
X760499D02*
D03*
X724499Y349350D02*
D03*
X740499D02*
D03*
D177*
X775199Y344850D02*
D03*
X689799D02*
D03*
X775199Y297550D02*
D03*
X689799D02*
D03*
D178*
X613750Y274000D02*
D03*
X505250D02*
D03*
D179*
X613750Y319000D02*
D03*
X505250D02*
D03*
D180*
X396200Y384250D02*
D03*
Y396750D02*
D03*
Y409250D02*
D03*
Y421750D02*
D03*
D181*
X896200Y857000D02*
D03*
X367600Y874000D02*
D03*
D182*
X870800Y857000D02*
D03*
X432750Y725000D02*
D03*
X393000Y874000D02*
D03*
X418400D02*
D03*
D183*
X910000Y333500D02*
D03*
X874000D02*
D03*
X892080D02*
D03*
X856000D02*
D03*
Y367000D02*
D03*
X892080D02*
D03*
X874000D02*
D03*
X910000D02*
D03*
X869500Y374750D02*
D03*
X860500D02*
D03*
X905500Y341250D02*
D03*
X896500D02*
D03*
X887500Y374750D02*
D03*
X878500D02*
D03*
X905500D02*
D03*
X896500D02*
D03*
X869500Y341250D02*
D03*
X860500D02*
D03*
X887500D02*
D03*
X878500D02*
D03*
D184*
X835500Y375000D02*
D03*
X930500D02*
D03*
D185*
X828000Y343500D02*
D03*
X938000D02*
D03*
D186*
X831000Y288500D02*
D03*
X935000D02*
D03*
D187*
X1237600Y448400D02*
D03*
X1212200D02*
D03*
X1186800D02*
D03*
X1199500Y423000D02*
D03*
X1224900D02*
D03*
X1250300D02*
D03*
X1263000Y448400D02*
D03*
X1174100Y423000D02*
D03*
X1161400Y448400D02*
D03*
D188*
X1139768Y390000D02*
D03*
X1297332D02*
D03*
D189*
X1163940Y496700D02*
D03*
X1273240D02*
D03*
X1189340D02*
D03*
X1247840D02*
D03*
D190*
X1161400Y359500D02*
D03*
X1275700D02*
D03*
D191*
Y423000D02*
D03*
D192*
X311000Y398500D02*
D03*
D193*
X360000Y369000D02*
D03*
D194*
X311000Y338500D02*
D03*
D195*
X1120750Y725000D02*
D03*
D196*
X272500Y618250D02*
D03*
Y660750D02*
D03*
Y692750D02*
D03*
Y735250D02*
D03*
D197*
X304800Y864360D02*
D03*
X1265700D02*
D03*
X1265700Y294640D02*
D03*
D198*
X505750Y349000D02*
D03*
Y549000D02*
D03*
D199*
X458750Y305000D02*
D03*
X1094750D02*
D03*
D200*
X1173850Y706500D02*
D03*
X1030000Y560500D02*
D03*
X1024000D02*
D03*
X1012000D02*
D03*
X707500Y424000D02*
D03*
X461500Y723000D02*
D03*
X519000Y702500D02*
D03*
D228*
X412000Y564000D02*
D03*
X1131500Y523000D02*
D03*
D264*
X338250Y669000D02*
D03*
Y664000D02*
D03*
Y684000D02*
D03*
Y679000D02*
D03*
Y759000D02*
D03*
Y754000D02*
D03*
Y774000D02*
D03*
Y769000D02*
D03*
Y789000D02*
D03*
Y784000D02*
D03*
X413750Y616500D02*
D03*
Y621500D02*
D03*
Y626500D02*
D03*
Y631500D02*
D03*
Y656500D02*
D03*
Y661500D02*
D03*
Y666500D02*
D03*
Y671500D02*
D03*
Y676500D02*
D03*
Y681500D02*
D03*
Y686500D02*
D03*
Y691500D02*
D03*
Y696500D02*
D03*
Y701500D02*
D03*
Y706500D02*
D03*
Y711500D02*
D03*
Y716500D02*
D03*
Y721500D02*
D03*
Y726500D02*
D03*
Y731500D02*
D03*
Y736500D02*
D03*
Y741500D02*
D03*
Y746500D02*
D03*
Y751500D02*
D03*
Y756500D02*
D03*
Y761500D02*
D03*
Y766500D02*
D03*
Y771500D02*
D03*
Y776500D02*
D03*
Y781500D02*
D03*
Y786500D02*
D03*
Y791500D02*
D03*
Y796500D02*
D03*
X338250Y614000D02*
D03*
Y619000D02*
D03*
Y624000D02*
D03*
Y629000D02*
D03*
Y634000D02*
D03*
Y659000D02*
D03*
Y674000D02*
D03*
Y689000D02*
D03*
Y704000D02*
D03*
Y719000D02*
D03*
Y734000D02*
D03*
Y749000D02*
D03*
Y764000D02*
D03*
Y779000D02*
D03*
Y794000D02*
D03*
Y799000D02*
D03*
Y744000D02*
D03*
Y739000D02*
D03*
Y729000D02*
D03*
Y724000D02*
D03*
Y714000D02*
D03*
Y709000D02*
D03*
Y699000D02*
D03*
Y694000D02*
D03*
D265*
X346000Y603000D02*
D03*
Y810000D02*
D03*
D266*
X600000Y396000D02*
D03*
Y411000D02*
D03*
D267*
X607000Y398250D02*
D03*
Y393750D02*
D03*
Y413250D02*
D03*
Y408750D02*
D03*
D268*
X454500Y446500D02*
D03*
Y356500D02*
D03*
Y361500D02*
D03*
Y366500D02*
D03*
Y371500D02*
D03*
Y376500D02*
D03*
Y381500D02*
D03*
Y386500D02*
D03*
Y391500D02*
D03*
Y396500D02*
D03*
Y401500D02*
D03*
Y406500D02*
D03*
Y411500D02*
D03*
Y416500D02*
D03*
Y421500D02*
D03*
Y426500D02*
D03*
Y431500D02*
D03*
Y436500D02*
D03*
Y441500D02*
D03*
Y451500D02*
D03*
Y456500D02*
D03*
Y461500D02*
D03*
Y486500D02*
D03*
Y491500D02*
D03*
Y496500D02*
D03*
Y501500D02*
D03*
Y506500D02*
D03*
Y511500D02*
D03*
Y516500D02*
D03*
Y521500D02*
D03*
Y526500D02*
D03*
Y531500D02*
D03*
Y536500D02*
D03*
Y541500D02*
D03*
X528500Y359000D02*
D03*
Y364000D02*
D03*
Y369000D02*
D03*
Y374000D02*
D03*
Y379000D02*
D03*
Y384000D02*
D03*
Y389000D02*
D03*
Y394000D02*
D03*
Y399000D02*
D03*
Y404000D02*
D03*
Y409000D02*
D03*
Y414000D02*
D03*
Y419000D02*
D03*
Y424000D02*
D03*
Y429000D02*
D03*
Y434000D02*
D03*
Y439000D02*
D03*
Y444000D02*
D03*
Y449000D02*
D03*
Y454000D02*
D03*
Y459000D02*
D03*
Y464000D02*
D03*
Y489000D02*
D03*
Y494000D02*
D03*
Y499000D02*
D03*
Y504000D02*
D03*
Y509000D02*
D03*
Y514000D02*
D03*
Y519000D02*
D03*
Y524000D02*
D03*
Y529000D02*
D03*
Y534000D02*
D03*
Y539000D02*
D03*
D269*
X455650Y345500D02*
D03*
Y552500D02*
D03*
D270*
X784990Y449000D02*
D03*
X1173850Y706500D02*
D03*
D271*
X304800Y294640D02*
D03*
M02*
