G04*
G04 #@! TF.GenerationSoftware,Altium Limited,Altium Designer,20.1.12 (249)*
G04*
G04 Layer_Physical_Order=6*
G04 Layer_Color=16711680*
%FSLAX44Y44*%
%MOMM*%
G71*
G04*
G04 #@! TF.SameCoordinates,92C3D8CC-84FC-494B-B6CF-3A4A02D2A6DE*
G04*
G04*
G04 #@! TF.FilePolarity,Positive*
G04*
G01*
G75*
%ADD13C,0.2540*%
%ADD21C,0.1016*%
%ADD26R,1.1000X1.4000*%
%ADD27R,0.5700X0.6200*%
%ADD29R,0.6200X0.5700*%
%ADD83R,0.9700X0.9600*%
%ADD86R,1.7000X1.0160*%
%ADD87R,1.7000X1.0160*%
%ADD174C,1.7000*%
%ADD182C,1.6000*%
%ADD183C,0.7500*%
%ADD201C,0.4000*%
%ADD202C,0.3048*%
%ADD203C,0.1067*%
%ADD204C,0.5080*%
%ADD205C,0.1143*%
%ADD206C,0.2032*%
%ADD207C,0.1041*%
%ADD208C,0.1270*%
%ADD209C,1.0160*%
%ADD210C,1.1000*%
%ADD211C,0.6500*%
%ADD212O,1.0000X1.6000*%
%ADD213O,1.2000X1.7000*%
%ADD214O,1.2000X1.9000*%
%ADD215C,1.0400*%
%ADD216R,1.5000X1.5000*%
%ADD217C,1.5000*%
%ADD218O,1.4000X2.8500*%
%ADD219O,1.2000X2.2500*%
%ADD220C,2.6000*%
%ADD221C,1.6500*%
%ADD222C,3.2500*%
%ADD223R,1.7000X1.7000*%
%ADD224O,4.5000X2.0000*%
%ADD225O,2.0000X4.0000*%
%ADD226O,4.0000X2.0000*%
%ADD227C,1.9000*%
%ADD228C,0.5000*%
%ADD229C,6.0000*%
%ADD230C,0.1300*%
%ADD231C,0.5080*%
%ADD257R,1.5500X0.3000*%
%ADD258R,2.7500X1.2000*%
%ADD259R,0.4000X0.7000*%
%ADD260R,0.4000X0.2500*%
%ADD261R,1.5500X0.2800*%
%ADD262R,2.3900X1.2000*%
%ADD263C,6.2000*%
G36*
X380848Y905006D02*
X381332Y903832D01*
X380500Y903000D01*
Y869000D01*
X364000Y852500D01*
X339000D01*
X299000Y812500D01*
X254000D01*
Y904600D01*
X254900Y905497D01*
X380848Y905006D01*
D02*
G37*
G36*
X364500Y814500D02*
Y795500D01*
X361500Y792500D01*
X348032D01*
Y792532D01*
X329468D01*
X327500Y794500D01*
Y814000D01*
X331000Y817000D01*
X362000D01*
X364500Y814500D01*
D02*
G37*
G36*
X430500Y795000D02*
X430500Y763501D01*
X422032Y755032D01*
X405967D01*
X399468Y761533D01*
X399445Y761649D01*
X398668Y762812D01*
X398668Y783668D01*
X402795Y787795D01*
X403968Y787309D01*
Y782968D01*
Y772968D01*
X423532D01*
Y777968D01*
Y790032D01*
X405000D01*
Y797000D01*
X407000Y799000D01*
X426500Y799000D01*
X430500Y795000D01*
D02*
G37*
G36*
X1316500Y528659D02*
X1315327Y528173D01*
X1296000Y547500D01*
X1284322D01*
X1283836Y548673D01*
X1305831Y570669D01*
X1306393Y571509D01*
X1306590Y572500D01*
Y687232D01*
X1307296Y687704D01*
X1308307Y689216D01*
X1308661Y691000D01*
X1308307Y692784D01*
X1307296Y694296D01*
X1305784Y695307D01*
X1304000Y695662D01*
X1302216Y695307D01*
X1300704Y694296D01*
X1299693Y692784D01*
X1299338Y691000D01*
X1299693Y689216D01*
X1300704Y687704D01*
X1301410Y687232D01*
Y573573D01*
X1275338Y547500D01*
X1251000D01*
X1242000Y556500D01*
Y608500D01*
X1226500Y624000D01*
Y697500D01*
X1238865Y709865D01*
X1239000Y709838D01*
X1240784Y710193D01*
X1242296Y711204D01*
X1243307Y712716D01*
X1243662Y714500D01*
X1243635Y714635D01*
X1270501Y741501D01*
Y764831D01*
X1271621Y765430D01*
X1271770Y765330D01*
X1273554Y764975D01*
X1275338Y765330D01*
X1276850Y766340D01*
X1277861Y767853D01*
X1278215Y769637D01*
X1277861Y771420D01*
X1277492Y771973D01*
X1276891Y773002D01*
X1277492Y774032D01*
X1277861Y774584D01*
X1278215Y776367D01*
X1277861Y778151D01*
X1276850Y779664D01*
X1275338Y780674D01*
X1273554Y781029D01*
X1271770Y780674D01*
X1271621Y780574D01*
X1270501Y781173D01*
Y811999D01*
X1227500Y855000D01*
X1101000D01*
X1083500Y872500D01*
X997000D01*
X974000Y849500D01*
X905732D01*
Y866532D01*
X886668D01*
Y849500D01*
X772000D01*
X761000Y860500D01*
X653500D01*
X643000Y850000D01*
X584500D01*
X530673Y903827D01*
X531159Y905000D01*
X1316500D01*
Y528659D01*
D02*
G37*
G36*
X477000Y659500D02*
X479000Y657501D01*
X479000Y640500D01*
X451000Y612500D01*
X441499Y612500D01*
X440072Y613928D01*
Y634572D01*
X442018Y636518D01*
X442296Y636704D01*
X442482Y636982D01*
X443250Y637750D01*
X452750D01*
X454500Y639500D01*
Y657500D01*
X456500Y659500D01*
X477000Y659500D01*
D02*
G37*
G36*
X403968Y627968D02*
X423532D01*
X426500Y625000D01*
Y608000D01*
X414500Y596000D01*
X408499Y595999D01*
X404000Y591500D01*
X404000Y579000D01*
X402000Y577000D01*
X376000D01*
X374500Y578500D01*
Y587500D01*
X385260Y598260D01*
X385941Y597737D01*
X388381Y596726D01*
X391000Y596381D01*
X393619Y596726D01*
X396059Y597737D01*
X398155Y599345D01*
X399763Y601441D01*
X400774Y603881D01*
X401119Y606500D01*
X400774Y609119D01*
X399763Y611559D01*
X398155Y613655D01*
X396059Y615263D01*
X393619Y616274D01*
X391000Y616619D01*
X388381Y616274D01*
X386770Y615606D01*
X385500Y616455D01*
Y625500D01*
X388000Y628000D01*
X403968D01*
Y627968D01*
D02*
G37*
G36*
X380500Y625500D02*
Y600250D01*
X372000Y591750D01*
Y578500D01*
X370500Y577000D01*
X361000D01*
X359500Y578500D01*
Y589500D01*
X354000Y595000D01*
X330000D01*
X328000Y597000D01*
Y624500D01*
X328968Y625468D01*
X348032D01*
Y625500D01*
X354500D01*
X356000Y627000D01*
X379000D01*
X380500Y625500D01*
D02*
G37*
G36*
X528500Y586500D02*
Y576500D01*
X510500D01*
Y586500D01*
X514000Y590500D01*
X524500D01*
X528500Y586500D01*
D02*
G37*
G36*
X474000Y557500D02*
Y543500D01*
X471819Y541319D01*
X470835Y540662D01*
X470178Y539678D01*
X470000Y539500D01*
X464282D01*
Y539932D01*
X445068D01*
X442000Y543000D01*
Y558693D01*
X443307Y560000D01*
X471500D01*
X474000Y557500D01*
D02*
G37*
G36*
X529410Y573090D02*
Y559500D01*
X529500Y559049D01*
Y556001D01*
X538500Y547000D01*
X538500Y547000D01*
Y533500D01*
X537432Y532432D01*
X537324Y532539D01*
X507461D01*
X506000Y534000D01*
Y537995D01*
X506398Y538393D01*
X508517Y538672D01*
X511096Y539740D01*
X513311Y541439D01*
X515010Y543654D01*
X516078Y546233D01*
X516442Y549000D01*
X516078Y551767D01*
X515010Y554346D01*
X514987Y554376D01*
Y556013D01*
X508500Y562500D01*
Y572500D01*
X510000Y574000D01*
X528500D01*
X529410Y573090D01*
D02*
G37*
G36*
X402500Y556000D02*
Y504200D01*
X394300Y496000D01*
X393364D01*
X393001Y496072D01*
X393000Y496072D01*
X393000D01*
X381428Y496072D01*
X379500Y498000D01*
X379500Y558000D01*
X382000Y560500D01*
X398000Y560500D01*
X402500Y556000D01*
D02*
G37*
G36*
X377000Y557000D02*
Y497000D01*
X380000Y494000D01*
X393000Y494001D01*
X396000Y491000D01*
X396000Y476000D01*
X393000Y473000D01*
X358500D01*
X338500Y493000D01*
Y517000D01*
X338501Y553001D01*
X346000Y560500D01*
X373500D01*
X377000Y557000D01*
D02*
G37*
G36*
X464000Y468500D02*
Y460500D01*
X463432Y459932D01*
X446568D01*
X445500Y461000D01*
Y465500D01*
X447000Y467000D01*
X450177D01*
X452000Y468823D01*
Y470500D01*
X453500Y471500D01*
X461000D01*
X464000Y468500D01*
D02*
G37*
G36*
X1312500Y403000D02*
Y274500D01*
X1299500Y261500D01*
X1150500D01*
X1140000Y272000D01*
Y348500D01*
X1122000Y366500D01*
Y402500D01*
X1129500Y409500D01*
X1147500D01*
X1163500Y393500D01*
X1273500D01*
X1290000Y410000D01*
X1305500D01*
X1312500Y403000D01*
D02*
G37*
G36*
X344000Y431000D02*
Y390000D01*
X338500Y384500D01*
X272000D01*
X266500Y390000D01*
Y431000D01*
X271000Y436500D01*
X338500D01*
X344000Y431000D01*
D02*
G37*
G36*
X1112000Y624000D02*
Y546162D01*
X1059188Y493350D01*
X1058018Y493976D01*
X1058162Y494700D01*
X1057807Y496484D01*
X1056796Y497996D01*
X1055284Y499007D01*
X1053500Y499362D01*
X1051716Y499007D01*
X1050204Y497996D01*
X1049193Y496484D01*
X1048838Y494700D01*
X1049193Y492916D01*
X1050204Y491404D01*
X1051716Y490393D01*
X1053500Y490038D01*
X1054224Y490182D01*
X1054849Y489012D01*
X1049669Y483831D01*
X1049107Y482991D01*
X1048910Y482000D01*
Y442573D01*
X1004333Y397996D01*
X1003500Y398162D01*
X1001716Y397807D01*
X1000204Y396796D01*
X999193Y395284D01*
X998838Y393500D01*
X999193Y391716D01*
X1000204Y390204D01*
X1001716Y389193D01*
X1002983Y388941D01*
X1003475Y387637D01*
X952333Y336496D01*
X951500Y336662D01*
X949716Y336307D01*
X948204Y335296D01*
X947193Y333784D01*
X946838Y332000D01*
X947193Y330216D01*
X948204Y328704D01*
X949716Y327693D01*
X951500Y327338D01*
X953284Y327693D01*
X954796Y328704D01*
X955807Y330216D01*
X956162Y332000D01*
X955996Y332833D01*
X1063331Y440169D01*
X1063893Y441009D01*
X1064090Y442000D01*
Y479927D01*
X1104573Y520410D01*
X1112000D01*
Y438662D01*
X1110704Y437796D01*
X1109693Y436284D01*
X1109338Y434500D01*
X1109693Y432716D01*
X1109903Y432403D01*
X1096000Y418500D01*
Y352000D01*
X1124000Y324000D01*
Y254000D01*
X926500D01*
Y352000D01*
X933874Y359374D01*
X938442D01*
X938442Y359374D01*
X939830Y359650D01*
X941006Y360436D01*
X944009Y363440D01*
X945284Y363693D01*
X946796Y364704D01*
X947807Y366216D01*
X948162Y368000D01*
X947807Y369784D01*
X946796Y371296D01*
X946707Y372207D01*
X987000Y412500D01*
Y582500D01*
X1041000Y636500D01*
X1099500D01*
X1112000Y624000D01*
D02*
G37*
G36*
X396093Y457407D02*
Y456137D01*
X391622Y451666D01*
X390789Y451832D01*
X389005Y451477D01*
X387493Y450467D01*
X386482Y448954D01*
X386128Y447170D01*
X386482Y445387D01*
X387493Y443874D01*
X389005Y442864D01*
X390789Y442509D01*
X392573Y442864D01*
X394085Y443874D01*
X395096Y445387D01*
X395451Y447170D01*
X395285Y448004D01*
X400391Y453110D01*
X405000Y448500D01*
X405000Y369500D01*
X419500Y355000D01*
X433500D01*
X438500Y360000D01*
X444500D01*
X444718Y359782D01*
Y358068D01*
X464282D01*
Y359000D01*
X468000D01*
X484737Y342263D01*
X484251Y341090D01*
X484000D01*
X483009Y340893D01*
X482169Y340331D01*
X473927Y332090D01*
X434500D01*
X433509Y331893D01*
X432669Y331331D01*
X418427Y317090D01*
X398268D01*
X397796Y317796D01*
X396284Y318807D01*
X394500Y319162D01*
X393667Y318996D01*
X391090Y321573D01*
Y330999D01*
X392210Y331598D01*
X392516Y331393D01*
X394300Y331038D01*
X396084Y331393D01*
X397596Y332404D01*
X398607Y333916D01*
X398962Y335700D01*
X398607Y337484D01*
X397596Y338996D01*
X396084Y340007D01*
X394300Y340362D01*
X392516Y340007D01*
X392210Y339802D01*
X391090Y340401D01*
Y355000D01*
X390893Y355991D01*
X390331Y356831D01*
X385640Y361523D01*
Y437750D01*
X385443Y438741D01*
X384881Y439581D01*
X381390Y443073D01*
Y463432D01*
X382096Y463904D01*
X382829Y465000D01*
X388500D01*
X396093Y457407D01*
D02*
G37*
G36*
X567000Y355500D02*
Y343500D01*
X563455Y339955D01*
Y323955D01*
X562000Y322500D01*
X551500D01*
X550000Y324000D01*
Y335500D01*
X547000Y338500D01*
Y347500D01*
X545000Y349500D01*
X522500D01*
X519500Y352500D01*
X519500Y364522D01*
X520537Y365560D01*
X556940D01*
X567000Y355500D01*
D02*
G37*
G36*
X839500Y354000D02*
Y264000D01*
X834500Y259000D01*
X634500D01*
X627500Y266000D01*
Y327500D01*
X630500Y331000D01*
X641000D01*
X660500Y311500D01*
X716257D01*
X716716Y311193D01*
X718500Y310838D01*
X720284Y311193D01*
X720743Y311500D01*
X795000D01*
X811000Y327500D01*
Y331049D01*
X811090Y331500D01*
Y350427D01*
X819163Y358500D01*
X835000D01*
X839500Y354000D01*
D02*
G37*
G36*
X509838Y331000D02*
X518500Y322337D01*
X518500Y311500D01*
X522000Y308000D01*
X602000D01*
X605000Y311000D01*
Y326000D01*
X609500Y330500D01*
X620000D01*
X624500Y326000D01*
Y266500D01*
X618500Y260500D01*
X495500D01*
X491500Y264500D01*
Y327500D01*
X495000Y331000D01*
X509838Y331000D01*
D02*
G37*
G36*
X352200Y465000D02*
X355521D01*
X355809Y464807D01*
X356800Y464610D01*
X375032D01*
X375504Y463904D01*
X376210Y463432D01*
Y442000D01*
X376407Y441009D01*
X376969Y440169D01*
X380460Y436677D01*
Y360450D01*
X380657Y359459D01*
X381219Y358619D01*
X385910Y353927D01*
Y320500D01*
X386107Y319509D01*
X386669Y318669D01*
X390004Y315333D01*
X389838Y314500D01*
X390193Y312716D01*
X391204Y311204D01*
X392716Y310193D01*
X394500Y309839D01*
X396284Y310193D01*
X397796Y311204D01*
X398268Y311910D01*
X419500D01*
X420491Y312107D01*
X421331Y312669D01*
X435573Y326910D01*
X475000D01*
X475991Y327107D01*
X476831Y327669D01*
X485073Y335910D01*
X488500D01*
Y266000D01*
X482500Y260000D01*
X271500D01*
X260500Y271000D01*
Y370000D01*
X264500Y374000D01*
X340000D01*
X350000Y384000D01*
Y437000D01*
X344000Y443000D01*
X271500D01*
X260500Y454000D01*
Y468000D01*
X267000Y474500D01*
X342700D01*
X352200Y465000D01*
D02*
G37*
%LPC*%
G36*
X1039000Y897162D02*
X1037216Y896807D01*
X1035704Y895796D01*
X1034693Y894284D01*
X1034338Y892500D01*
X1034693Y890716D01*
X1035704Y889204D01*
X1037216Y888193D01*
X1039000Y887838D01*
X1040784Y888193D01*
X1042296Y889204D01*
X1043307Y890716D01*
X1043662Y892500D01*
X1043307Y894284D01*
X1042296Y895796D01*
X1040784Y896807D01*
X1039000Y897162D01*
D02*
G37*
G36*
X685500D02*
X683716Y896807D01*
X682204Y895796D01*
X681193Y894284D01*
X680838Y892500D01*
X681193Y890716D01*
X682204Y889204D01*
X683716Y888193D01*
X685500Y887838D01*
X687284Y888193D01*
X688796Y889204D01*
X689807Y890716D01*
X690162Y892500D01*
X689807Y894284D01*
X688796Y895796D01*
X687284Y896807D01*
X685500Y897162D01*
D02*
G37*
G36*
X604750Y887412D02*
X602966Y887057D01*
X601454Y886046D01*
X600443Y884534D01*
X600088Y882750D01*
X600443Y880966D01*
X601454Y879454D01*
X602966Y878443D01*
X604750Y878088D01*
X606534Y878443D01*
X608046Y879454D01*
X609057Y880966D01*
X609412Y882750D01*
X609057Y884534D01*
X608046Y886046D01*
X606534Y887057D01*
X604750Y887412D01*
D02*
G37*
G36*
X1155368Y877793D02*
X1153584Y877438D01*
X1153032Y877069D01*
X1152002Y876468D01*
X1150973Y877069D01*
X1150421Y877438D01*
X1148637Y877793D01*
X1146853Y877438D01*
X1145340Y876428D01*
X1144330Y874915D01*
X1143975Y873132D01*
X1144330Y871348D01*
X1145340Y869835D01*
X1146853Y868825D01*
X1148637Y868470D01*
X1150421Y868825D01*
X1150973Y869194D01*
X1152002Y869795D01*
X1153032Y869194D01*
X1153584Y868825D01*
X1155368Y868470D01*
X1157151Y868825D01*
X1158664Y869835D01*
X1159674Y871348D01*
X1160029Y873132D01*
X1159674Y874915D01*
X1158664Y876428D01*
X1157151Y877438D01*
X1155368Y877793D01*
D02*
G37*
G36*
X972367Y877793D02*
X970584Y877438D01*
X970032Y877069D01*
X969002Y876468D01*
X967973Y877069D01*
X967420Y877438D01*
X965637Y877793D01*
X963853Y877438D01*
X962340Y876428D01*
X961330Y874915D01*
X960975Y873131D01*
X961330Y871348D01*
X962340Y869835D01*
X963853Y868825D01*
X965637Y868470D01*
X967420Y868825D01*
X967973Y869194D01*
X969002Y869795D01*
X970032Y869194D01*
X970584Y868825D01*
X972367Y868470D01*
X974151Y868825D01*
X975664Y869835D01*
X976674Y871348D01*
X977029Y873131D01*
X976674Y874915D01*
X975664Y876428D01*
X974151Y877438D01*
X972367Y877793D01*
D02*
G37*
G36*
X801868Y876793D02*
X800084Y876438D01*
X799531Y876069D01*
X798502Y875468D01*
X797473Y876069D01*
X796920Y876438D01*
X795136Y876793D01*
X793353Y876438D01*
X791840Y875428D01*
X790830Y873915D01*
X790475Y872132D01*
X790830Y870348D01*
X791840Y868835D01*
X793353Y867825D01*
X795136Y867470D01*
X796920Y867825D01*
X797473Y868194D01*
X798502Y868795D01*
X799531Y868194D01*
X800084Y867825D01*
X801868Y867470D01*
X803651Y867825D01*
X805164Y868835D01*
X806174Y870348D01*
X806529Y872132D01*
X806174Y873915D01*
X805164Y875428D01*
X803651Y876438D01*
X801868Y876793D01*
D02*
G37*
G36*
X618867D02*
X617084Y876438D01*
X616531Y876069D01*
X615502Y875468D01*
X614473Y876069D01*
X613920Y876438D01*
X612136Y876793D01*
X610353Y876438D01*
X608840Y875428D01*
X607830Y873915D01*
X607475Y872132D01*
X607830Y870348D01*
X608840Y868835D01*
X610353Y867825D01*
X612136Y867470D01*
X613920Y867825D01*
X614473Y868194D01*
X615502Y868795D01*
X616531Y868194D01*
X617084Y867825D01*
X618867Y867470D01*
X620651Y867825D01*
X622164Y868835D01*
X623174Y870348D01*
X623529Y872132D01*
X623174Y873915D01*
X622164Y875428D01*
X620651Y876438D01*
X618867Y876793D01*
D02*
G37*
G36*
X1091500Y883162D02*
X1089716Y882807D01*
X1088204Y881796D01*
X1087193Y880284D01*
X1086838Y878500D01*
X1087193Y876716D01*
X1088204Y875204D01*
X1089716Y874193D01*
X1091500Y873838D01*
X1093284Y874193D01*
X1094796Y875204D01*
X1095807Y876716D01*
X1096162Y878500D01*
X1095807Y880284D01*
X1094796Y881796D01*
X1093284Y882807D01*
X1091500Y883162D01*
D02*
G37*
G36*
X738000Y882162D02*
X736216Y881807D01*
X734704Y880796D01*
X733693Y879284D01*
X733338Y877500D01*
X733693Y875716D01*
X734704Y874204D01*
X736216Y873193D01*
X738000Y872838D01*
X739784Y873193D01*
X741296Y874204D01*
X742307Y875716D01*
X742662Y877500D01*
X742307Y879284D01*
X741296Y880796D01*
X739784Y881807D01*
X738000Y882162D01*
D02*
G37*
G36*
X1143364Y867716D02*
X1141580Y867361D01*
X1141028Y866992D01*
X1139998Y866391D01*
X1138969Y866992D01*
X1138416Y867361D01*
X1136633Y867716D01*
X1134849Y867361D01*
X1133336Y866350D01*
X1132326Y864838D01*
X1131971Y863054D01*
X1132326Y861270D01*
X1133336Y859758D01*
X1134849Y858747D01*
X1136633Y858392D01*
X1138416Y858747D01*
X1138969Y859116D01*
X1139998Y859717D01*
X1141028Y859116D01*
X1141580Y858747D01*
X1143364Y858392D01*
X1145147Y858747D01*
X1146660Y859758D01*
X1147670Y861270D01*
X1148025Y863054D01*
X1147670Y864838D01*
X1146660Y866350D01*
X1145147Y867361D01*
X1143364Y867716D01*
D02*
G37*
G36*
X960363Y867715D02*
X958580Y867361D01*
X958027Y866992D01*
X956998Y866391D01*
X955968Y866992D01*
X955416Y867361D01*
X953633Y867715D01*
X951849Y867361D01*
X950336Y866350D01*
X949326Y864838D01*
X948971Y863054D01*
X949326Y861270D01*
X950336Y859758D01*
X951849Y858747D01*
X953633Y858392D01*
X955416Y858747D01*
X955968Y859116D01*
X956998Y859717D01*
X958027Y859116D01*
X958580Y858747D01*
X960363Y858392D01*
X962147Y858747D01*
X963660Y859758D01*
X964670Y861270D01*
X965025Y863054D01*
X964670Y864838D01*
X963660Y866350D01*
X962147Y867361D01*
X960363Y867715D01*
D02*
G37*
G36*
X1099800Y875462D02*
X1098016Y875107D01*
X1096504Y874096D01*
X1095493Y872584D01*
X1095138Y870800D01*
X1095493Y869016D01*
X1096504Y867504D01*
X1098016Y866493D01*
X1099800Y866139D01*
X1101584Y866493D01*
X1103096Y867504D01*
X1104107Y869016D01*
X1104462Y870800D01*
X1104107Y872584D01*
X1103096Y874096D01*
X1101584Y875107D01*
X1099800Y875462D01*
D02*
G37*
G36*
X789864Y866715D02*
X788080Y866361D01*
X787527Y865992D01*
X786498Y865391D01*
X785469Y865992D01*
X784916Y866361D01*
X783132Y866715D01*
X781349Y866361D01*
X779836Y865350D01*
X778826Y863838D01*
X778471Y862054D01*
X778826Y860270D01*
X779836Y858758D01*
X781349Y857747D01*
X783132Y857392D01*
X784916Y857747D01*
X785469Y858116D01*
X786498Y858717D01*
X787527Y858116D01*
X788080Y857747D01*
X789864Y857392D01*
X791647Y857747D01*
X793160Y858758D01*
X794170Y860270D01*
X794525Y862054D01*
X794170Y863838D01*
X793160Y865350D01*
X791647Y866361D01*
X789864Y866715D01*
D02*
G37*
G36*
X606864D02*
X605080Y866361D01*
X604527Y865992D01*
X603498Y865391D01*
X602468Y865992D01*
X601916Y866361D01*
X600132Y866715D01*
X598349Y866361D01*
X596836Y865350D01*
X595826Y863838D01*
X595471Y862054D01*
X595826Y860270D01*
X596836Y858758D01*
X598349Y857747D01*
X600132Y857392D01*
X601916Y857747D01*
X602468Y858116D01*
X603498Y858717D01*
X604527Y858116D01*
X605080Y857747D01*
X606864Y857392D01*
X608647Y857747D01*
X610160Y858758D01*
X611170Y860270D01*
X611525Y862054D01*
X611170Y863838D01*
X610160Y865350D01*
X608647Y866361D01*
X606864Y866715D01*
D02*
G37*
G36*
X746300Y874462D02*
X744516Y874107D01*
X743004Y873096D01*
X741993Y871584D01*
X741638Y869800D01*
X741993Y868016D01*
X743004Y866504D01*
X744516Y865493D01*
X746300Y865138D01*
X748084Y865493D01*
X749596Y866504D01*
X750607Y868016D01*
X750962Y869800D01*
X750607Y871584D01*
X749596Y873096D01*
X748084Y874107D01*
X746300Y874462D01*
D02*
G37*
G36*
X919750Y868412D02*
X917966Y868057D01*
X916454Y867046D01*
X915443Y865534D01*
X915088Y863750D01*
X915443Y861966D01*
X916454Y860454D01*
X917966Y859443D01*
X919750Y859089D01*
X921534Y859443D01*
X923046Y860454D01*
X924057Y861966D01*
X924412Y863750D01*
X924057Y865534D01*
X923046Y867046D01*
X921534Y868057D01*
X919750Y868412D01*
D02*
G37*
G36*
X1109000Y867162D02*
X1107216Y866807D01*
X1105704Y865796D01*
X1104693Y864284D01*
X1104338Y862500D01*
X1104693Y860716D01*
X1105704Y859204D01*
X1107216Y858193D01*
X1109000Y857838D01*
X1110784Y858193D01*
X1112296Y859204D01*
X1113307Y860716D01*
X1113662Y862500D01*
X1113307Y864284D01*
X1112296Y865796D01*
X1110784Y866807D01*
X1109000Y867162D01*
D02*
G37*
G36*
X1283631Y769025D02*
X1281848Y768670D01*
X1280335Y767660D01*
X1279325Y766147D01*
X1278970Y764363D01*
X1279325Y762580D01*
X1279694Y762028D01*
X1280295Y760998D01*
X1279694Y759968D01*
X1279325Y759416D01*
X1278970Y757633D01*
X1279325Y755849D01*
X1280335Y754336D01*
X1281848Y753326D01*
X1283631Y752971D01*
X1285415Y753326D01*
X1286928Y754336D01*
X1287938Y755849D01*
X1288293Y757633D01*
X1287938Y759416D01*
X1287569Y759968D01*
X1286968Y760998D01*
X1287569Y762028D01*
X1287938Y762580D01*
X1288293Y764363D01*
X1287938Y766147D01*
X1286928Y767660D01*
X1285415Y768670D01*
X1283631Y769025D01*
D02*
G37*
G36*
X1233000Y697162D02*
X1231216Y696807D01*
X1229704Y695796D01*
X1228693Y694284D01*
X1228338Y692500D01*
X1228693Y690716D01*
X1229648Y689287D01*
X1229807Y688914D01*
Y688086D01*
X1229648Y687713D01*
X1228693Y686284D01*
X1228338Y684500D01*
X1228693Y682716D01*
X1229704Y681204D01*
X1231216Y680193D01*
X1233000Y679838D01*
X1234784Y680193D01*
X1236213Y681148D01*
X1236586Y681307D01*
X1237414D01*
X1237787Y681148D01*
X1239216Y680193D01*
X1241000Y679838D01*
X1242784Y680193D01*
X1244296Y681204D01*
X1245307Y682716D01*
X1245661Y684500D01*
X1245307Y686284D01*
X1244296Y687796D01*
X1242784Y688807D01*
X1241000Y689162D01*
X1239216Y688807D01*
X1237787Y687852D01*
X1237414Y687693D01*
X1237392D01*
X1236193Y688892D01*
Y688914D01*
X1236352Y689287D01*
X1237307Y690716D01*
X1237662Y692500D01*
X1237307Y694284D01*
X1236296Y695796D01*
X1234784Y696807D01*
X1233000Y697162D01*
D02*
G37*
G36*
X1289000Y643162D02*
X1287216Y642807D01*
X1285704Y641796D01*
X1284693Y640284D01*
X1284338Y638500D01*
X1284693Y636716D01*
X1285704Y635204D01*
X1287216Y634193D01*
X1289000Y633839D01*
X1290784Y634193D01*
X1292296Y635204D01*
X1293307Y636716D01*
X1293661Y638500D01*
X1293307Y640284D01*
X1292296Y641796D01*
X1290784Y642807D01*
X1289000Y643162D01*
D02*
G37*
G36*
X1244250Y635911D02*
X1242466Y635557D01*
X1240954Y634546D01*
X1239943Y633034D01*
X1239589Y631250D01*
X1239943Y629466D01*
X1240954Y627954D01*
X1242466Y626943D01*
X1244250Y626588D01*
X1246034Y626943D01*
X1247546Y627954D01*
X1248557Y629466D01*
X1248912Y631250D01*
X1248557Y633034D01*
X1247546Y634546D01*
X1246034Y635557D01*
X1244250Y635911D01*
D02*
G37*
G36*
X1281300Y634862D02*
X1279516Y634507D01*
X1278004Y633496D01*
X1276993Y631984D01*
X1276638Y630200D01*
X1276993Y628416D01*
X1278004Y626904D01*
X1279516Y625893D01*
X1281300Y625538D01*
X1283084Y625893D01*
X1284596Y626904D01*
X1285607Y628416D01*
X1285962Y630200D01*
X1285607Y631984D01*
X1284596Y633496D01*
X1283084Y634507D01*
X1281300Y634862D01*
D02*
G37*
G36*
X1273554Y598029D02*
X1271770Y597674D01*
X1270258Y596664D01*
X1269247Y595151D01*
X1268892Y593368D01*
X1269247Y591584D01*
X1269616Y591031D01*
X1270217Y590002D01*
X1269616Y588973D01*
X1269247Y588420D01*
X1268892Y586637D01*
X1269247Y584853D01*
X1270258Y583340D01*
X1271770Y582330D01*
X1273554Y581975D01*
X1275338Y582330D01*
X1276850Y583340D01*
X1277861Y584853D01*
X1278215Y586637D01*
X1277861Y588420D01*
X1277492Y588973D01*
X1276891Y590002D01*
X1277492Y591031D01*
X1277861Y591584D01*
X1278215Y593368D01*
X1277861Y595151D01*
X1276850Y596664D01*
X1275338Y597674D01*
X1273554Y598029D01*
D02*
G37*
G36*
X1283632Y586025D02*
X1281848Y585670D01*
X1280335Y584660D01*
X1279325Y583147D01*
X1278970Y581363D01*
X1279325Y579580D01*
X1279694Y579027D01*
X1280295Y577998D01*
X1279694Y576968D01*
X1279325Y576416D01*
X1278970Y574632D01*
X1279325Y572849D01*
X1280335Y571336D01*
X1281848Y570326D01*
X1283632Y569971D01*
X1285415Y570326D01*
X1286928Y571336D01*
X1287938Y572849D01*
X1288293Y574632D01*
X1287938Y576416D01*
X1287569Y576968D01*
X1286968Y577998D01*
X1287569Y579027D01*
X1287938Y579580D01*
X1288293Y581363D01*
X1287938Y583147D01*
X1286928Y584660D01*
X1285415Y585670D01*
X1283632Y586025D01*
D02*
G37*
G36*
X1275700Y377870D02*
X1272116Y377518D01*
X1268670Y376472D01*
X1265494Y374775D01*
X1262710Y372490D01*
X1260425Y369706D01*
X1258728Y366530D01*
X1257682Y363084D01*
X1257329Y359500D01*
X1257682Y355916D01*
X1258728Y352470D01*
X1260425Y349294D01*
X1262710Y346510D01*
X1265494Y344226D01*
X1268670Y342528D01*
X1272116Y341483D01*
X1275700Y341129D01*
X1279284Y341483D01*
X1282730Y342528D01*
X1285906Y344226D01*
X1288690Y346510D01*
X1290974Y349294D01*
X1292672Y352470D01*
X1293717Y355916D01*
X1294070Y359500D01*
X1293717Y363084D01*
X1292672Y366530D01*
X1290974Y369706D01*
X1288690Y372490D01*
X1285906Y374775D01*
X1282730Y376472D01*
X1279284Y377518D01*
X1275700Y377870D01*
D02*
G37*
G36*
X1161400D02*
X1157816Y377518D01*
X1154370Y376472D01*
X1151194Y374775D01*
X1148410Y372490D01*
X1146125Y369706D01*
X1144428Y366530D01*
X1143382Y363084D01*
X1143029Y359500D01*
X1143382Y355916D01*
X1144428Y352470D01*
X1146125Y349294D01*
X1148410Y346510D01*
X1151194Y344226D01*
X1154370Y342528D01*
X1157816Y341483D01*
X1161400Y341129D01*
X1164984Y341483D01*
X1168430Y342528D01*
X1171606Y344226D01*
X1174390Y346510D01*
X1176674Y349294D01*
X1178372Y352470D01*
X1179417Y355916D01*
X1179771Y359500D01*
X1179417Y363084D01*
X1178372Y366530D01*
X1176674Y369706D01*
X1174390Y372490D01*
X1171606Y374775D01*
X1168430Y376472D01*
X1164984Y377518D01*
X1161400Y377870D01*
D02*
G37*
G36*
X1073866Y631530D02*
X1072082Y631175D01*
X1071530Y630806D01*
X1070500Y630205D01*
X1069471Y630806D01*
X1068919Y631175D01*
X1067135Y631530D01*
X1065351Y631175D01*
X1063839Y630165D01*
X1062828Y628652D01*
X1062473Y626869D01*
X1062828Y625085D01*
X1063839Y623572D01*
X1065351Y622562D01*
X1067135Y622207D01*
X1068919Y622562D01*
X1069471Y622931D01*
X1070500Y623532D01*
X1071530Y622931D01*
X1072082Y622562D01*
X1073866Y622207D01*
X1075650Y622562D01*
X1077162Y623572D01*
X1078173Y625085D01*
X1078528Y626869D01*
X1078173Y628652D01*
X1077162Y630165D01*
X1075650Y631175D01*
X1073866Y631530D01*
D02*
G37*
G36*
X1088866Y611530D02*
X1087082Y611175D01*
X1086530Y610806D01*
X1085500Y610205D01*
X1084471Y610806D01*
X1083919Y611175D01*
X1082135Y611530D01*
X1080351Y611175D01*
X1078839Y610165D01*
X1077828Y608652D01*
X1077473Y606869D01*
X1077828Y605085D01*
X1078839Y603572D01*
X1080351Y602562D01*
X1082135Y602207D01*
X1083919Y602562D01*
X1084471Y602931D01*
X1085500Y603532D01*
X1086530Y602931D01*
X1087082Y602562D01*
X1088866Y602207D01*
X1090650Y602562D01*
X1092162Y603572D01*
X1093173Y605085D01*
X1093527Y606869D01*
X1093173Y608652D01*
X1092162Y610165D01*
X1090650Y611175D01*
X1088866Y611530D01*
D02*
G37*
G36*
X1103866Y589513D02*
X1102082Y589159D01*
X1101530Y588789D01*
X1100500Y588188D01*
X1099471Y588789D01*
X1098919Y589159D01*
X1097135Y589513D01*
X1095351Y589159D01*
X1093839Y588148D01*
X1092828Y586636D01*
X1092473Y584852D01*
X1092828Y583068D01*
X1093839Y581555D01*
X1095351Y580545D01*
X1097135Y580190D01*
X1098919Y580545D01*
X1099471Y580914D01*
X1100500Y581515D01*
X1101530Y580914D01*
X1102082Y580545D01*
X1103866Y580190D01*
X1105650Y580545D01*
X1107162Y581555D01*
X1108173Y583068D01*
X1108527Y584852D01*
X1108173Y586636D01*
X1107162Y588148D01*
X1105650Y589159D01*
X1103866Y589513D01*
D02*
G37*
G36*
X1008500Y583162D02*
X1006716Y582807D01*
X1005204Y581796D01*
X1005039Y581549D01*
X1003482Y581506D01*
X1002284Y582307D01*
X1000500Y582662D01*
X998716Y582307D01*
X997204Y581296D01*
X996193Y579784D01*
X995838Y578000D01*
X996193Y576216D01*
X997148Y574787D01*
X997307Y574414D01*
Y573586D01*
X997148Y573213D01*
X996193Y571784D01*
X995838Y570000D01*
X996193Y568216D01*
X997204Y566704D01*
X998716Y565693D01*
X1000500Y565338D01*
X1002284Y565693D01*
X1003713Y566648D01*
X1004086Y566807D01*
X1004914D01*
X1005287Y566648D01*
X1006716Y565693D01*
X1008500Y565338D01*
X1010284Y565693D01*
X1011796Y566704D01*
X1012807Y568216D01*
X1013161Y570000D01*
X1012807Y571784D01*
X1011796Y573296D01*
X1011319Y573615D01*
Y574885D01*
X1011796Y575204D01*
X1012807Y576716D01*
X1013161Y578500D01*
X1012807Y580284D01*
X1011796Y581796D01*
X1010284Y582807D01*
X1008500Y583162D01*
D02*
G37*
G36*
X1045462Y568862D02*
X1043678Y568507D01*
X1042166Y567496D01*
X1041155Y565984D01*
X1040801Y564200D01*
X1041155Y562416D01*
X1042166Y560904D01*
X1043678Y559893D01*
X1045462Y559538D01*
X1047246Y559893D01*
X1048758Y560904D01*
X1049769Y562416D01*
X1050124Y564200D01*
X1049769Y565984D01*
X1048758Y567496D01*
X1047246Y568507D01*
X1045462Y568862D01*
D02*
G37*
G36*
X993634Y566000D02*
X991850Y565645D01*
X990338Y564635D01*
X989327Y563123D01*
X988972Y561339D01*
X989327Y559555D01*
X989696Y559003D01*
X990297Y557973D01*
X989696Y556944D01*
X989327Y556392D01*
X988972Y554608D01*
X989327Y552824D01*
X990338Y551311D01*
X991850Y550301D01*
X993634Y549946D01*
X995418Y550301D01*
X996930Y551311D01*
X997940Y552824D01*
X998295Y554608D01*
X997940Y556392D01*
X997571Y556944D01*
X996970Y557973D01*
X997571Y559003D01*
X997940Y559555D01*
X998295Y561339D01*
X997940Y563123D01*
X996930Y564635D01*
X995418Y565645D01*
X993634Y566000D01*
D02*
G37*
G36*
X1050000Y514662D02*
X1048216Y514307D01*
X1046704Y513296D01*
X1045693Y511784D01*
X1045338Y510000D01*
X1045693Y508216D01*
X1046704Y506704D01*
X1048216Y505693D01*
X1050000Y505338D01*
X1051784Y505693D01*
X1053296Y506704D01*
X1054307Y508216D01*
X1054662Y510000D01*
X1054307Y511784D01*
X1053296Y513296D01*
X1051784Y514307D01*
X1050000Y514662D01*
D02*
G37*
G36*
X1038000Y499162D02*
X1036216Y498807D01*
X1034704Y497796D01*
X1033693Y496284D01*
X1033338Y494500D01*
X1033693Y492716D01*
X1034704Y491204D01*
X1036216Y490193D01*
X1038000Y489838D01*
X1039784Y490193D01*
X1041296Y491204D01*
X1042307Y492716D01*
X1042662Y494500D01*
X1042307Y496284D01*
X1041296Y497796D01*
X1039784Y498807D01*
X1038000Y499162D01*
D02*
G37*
G36*
X1024000Y459162D02*
X1022216Y458807D01*
X1020704Y457796D01*
X1019693Y456284D01*
X1019338Y454500D01*
X1019693Y452716D01*
X1020704Y451204D01*
X1022216Y450193D01*
X1024000Y449838D01*
X1025784Y450193D01*
X1027296Y451204D01*
X1028307Y452716D01*
X1028662Y454500D01*
X1028307Y456284D01*
X1027296Y457796D01*
X1025784Y458807D01*
X1024000Y459162D01*
D02*
G37*
G36*
X1093700Y451662D02*
X1091916Y451307D01*
X1090404Y450296D01*
X1089393Y448784D01*
X1089038Y447000D01*
X1089393Y445216D01*
X1090404Y443704D01*
X1091916Y442693D01*
X1093700Y442338D01*
X1095484Y442693D01*
X1096996Y443704D01*
X1098007Y445216D01*
X1098362Y447000D01*
X1098007Y448784D01*
X1096996Y450296D01*
X1095484Y451307D01*
X1093700Y451662D01*
D02*
G37*
G36*
X1033000Y364662D02*
X1031216Y364307D01*
X1029704Y363296D01*
X1028693Y361784D01*
X1028338Y360000D01*
X1028693Y358216D01*
X1029704Y356704D01*
X1031216Y355693D01*
X1033000Y355338D01*
X1034784Y355693D01*
X1036296Y356704D01*
X1037307Y358216D01*
X1037662Y360000D01*
X1037307Y361784D01*
X1036296Y363296D01*
X1034784Y364307D01*
X1033000Y364662D01*
D02*
G37*
G36*
X1019000Y347662D02*
X1017216Y347307D01*
X1015704Y346296D01*
X1014693Y344784D01*
X1014338Y343000D01*
X1014693Y341216D01*
X1015704Y339704D01*
X1017216Y338693D01*
X1019000Y338338D01*
X1020784Y338693D01*
X1022296Y339704D01*
X1023307Y341216D01*
X1023662Y343000D01*
X1023307Y344784D01*
X1022296Y346296D01*
X1020784Y347307D01*
X1019000Y347662D01*
D02*
G37*
G36*
X999500Y324662D02*
X997716Y324307D01*
X996204Y323296D01*
X995193Y321784D01*
X994838Y320000D01*
X995193Y318216D01*
X996204Y316704D01*
X997716Y315693D01*
X999500Y315338D01*
X1001284Y315693D01*
X1002796Y316704D01*
X1003807Y318216D01*
X1004162Y320000D01*
X1003807Y321784D01*
X1002796Y323296D01*
X1001284Y324307D01*
X999500Y324662D01*
D02*
G37*
G36*
X947200Y320462D02*
X945416Y320107D01*
X943904Y319096D01*
X942893Y317584D01*
X942539Y315800D01*
X942893Y314016D01*
X943904Y312504D01*
X945416Y311493D01*
X947200Y311138D01*
X948984Y311493D01*
X950496Y312504D01*
X951507Y314016D01*
X951862Y315800D01*
X951507Y317584D01*
X950496Y319096D01*
X948984Y320107D01*
X947200Y320462D01*
D02*
G37*
G36*
X396200Y416544D02*
X394312Y416296D01*
X392553Y415567D01*
X391042Y414408D01*
X389883Y412897D01*
X389154Y411138D01*
X388906Y409250D01*
X389154Y407362D01*
X389883Y405603D01*
X391042Y404092D01*
X391638Y403635D01*
Y402365D01*
X391042Y401908D01*
X389883Y400397D01*
X389154Y398638D01*
X388906Y396750D01*
X389154Y394862D01*
X389883Y393103D01*
X391042Y391592D01*
X391638Y391135D01*
Y389865D01*
X391042Y389408D01*
X389883Y387897D01*
X389154Y386138D01*
X388906Y384250D01*
X389154Y382362D01*
X389883Y380603D01*
X391042Y379092D01*
X392553Y377933D01*
X394312Y377204D01*
X396200Y376956D01*
X398088Y377204D01*
X399847Y377933D01*
X401358Y379092D01*
X402517Y380603D01*
X403246Y382362D01*
X403494Y384250D01*
X403246Y386138D01*
X402517Y387897D01*
X401358Y389408D01*
X400762Y389865D01*
Y391135D01*
X401358Y391592D01*
X402517Y393103D01*
X403246Y394862D01*
X403494Y396750D01*
X403246Y398638D01*
X402517Y400397D01*
X401358Y401908D01*
X400762Y402365D01*
Y403635D01*
X401358Y404092D01*
X402517Y405603D01*
X403246Y407362D01*
X403494Y409250D01*
X403246Y411138D01*
X402517Y412897D01*
X401358Y414408D01*
X399847Y415567D01*
X398088Y416296D01*
X396200Y416544D01*
D02*
G37*
G36*
X411700Y340961D02*
X409916Y340607D01*
X408404Y339596D01*
X407393Y338084D01*
X407038Y336300D01*
X407393Y334516D01*
X408404Y333004D01*
X409916Y331993D01*
X411700Y331638D01*
X413484Y331993D01*
X414996Y333004D01*
X416007Y334516D01*
X416362Y336300D01*
X416007Y338084D01*
X414996Y339596D01*
X413484Y340607D01*
X411700Y340961D01*
D02*
G37*
G36*
X637500Y308662D02*
X635716Y308307D01*
X634204Y307296D01*
X633193Y305784D01*
X632838Y304000D01*
X633193Y302216D01*
X634204Y300704D01*
X634738Y300347D01*
Y298819D01*
X634704Y298796D01*
X633693Y297284D01*
X633338Y295500D01*
X633693Y293716D01*
X634704Y292204D01*
X636216Y291193D01*
X638000Y290838D01*
X639784Y291193D01*
X641296Y292204D01*
X642307Y293716D01*
X642662Y295500D01*
X642307Y297284D01*
X641296Y298796D01*
X640762Y299153D01*
Y300681D01*
X640796Y300704D01*
X641807Y302216D01*
X642162Y304000D01*
X641807Y305784D01*
X640796Y307296D01*
X639284Y308307D01*
X637500Y308662D01*
D02*
G37*
G36*
X373800Y432462D02*
X372016Y432107D01*
X370504Y431096D01*
X369493Y429584D01*
X369138Y427800D01*
X369493Y426016D01*
X370504Y424504D01*
X372016Y423493D01*
X373800Y423138D01*
X375584Y423493D01*
X377096Y424504D01*
X378107Y426016D01*
X378461Y427800D01*
X378107Y429584D01*
X377096Y431096D01*
X375584Y432107D01*
X373800Y432462D01*
D02*
G37*
G36*
X406800Y306962D02*
X405016Y306607D01*
X403504Y305596D01*
X402493Y304084D01*
X402138Y302300D01*
X402493Y300516D01*
X403504Y299004D01*
X405016Y297993D01*
X406800Y297638D01*
X408584Y297993D01*
X410096Y299004D01*
X411107Y300516D01*
X411462Y302300D01*
X411107Y304084D01*
X410096Y305596D01*
X408584Y306607D01*
X406800Y306962D01*
D02*
G37*
%LPD*%
D13*
X376930Y931500D02*
X376643Y934043D01*
X375798Y936459D01*
X374436Y938626D01*
X372626Y940436D01*
X370459Y941798D01*
X368043Y942643D01*
X365500Y942930D01*
X362957Y942643D01*
X360541Y941798D01*
X358373Y940436D01*
X356564Y938626D01*
X355202Y936459D01*
X354357Y934043D01*
X354070Y931500D01*
X354357Y928957D01*
X355202Y926541D01*
X356564Y924373D01*
X358373Y922564D01*
X360541Y921202D01*
X362957Y920357D01*
X365500Y920070D01*
X368043Y920357D01*
X370459Y921202D01*
X372626Y922564D01*
X374436Y924373D01*
X375798Y926541D01*
X376643Y928957D01*
X376930Y931500D01*
X1196081Y931500D02*
X1195795Y934043D01*
X1194949Y936459D01*
X1193587Y938626D01*
X1191778Y940436D01*
X1189611Y941798D01*
X1187195Y942643D01*
X1184651Y942930D01*
X1182108Y942643D01*
X1179692Y941798D01*
X1177525Y940436D01*
X1175715Y938626D01*
X1174353Y936459D01*
X1173508Y934043D01*
X1173221Y931500D01*
X1173508Y928957D01*
X1174353Y926541D01*
X1175715Y924373D01*
X1177525Y922564D01*
X1179692Y921202D01*
X1182108Y920357D01*
X1184651Y920070D01*
X1187195Y920357D01*
X1189611Y921202D01*
X1191778Y922564D01*
X1193587Y924373D01*
X1194949Y926541D01*
X1195795Y928957D01*
X1196081Y931500D01*
X361430Y226500D02*
X361143Y229043D01*
X360298Y231459D01*
X358936Y233626D01*
X357127Y235436D01*
X354959Y236798D01*
X352543Y237643D01*
X350000Y237930D01*
X347457Y237643D01*
X345041Y236798D01*
X342873Y235436D01*
X341064Y233626D01*
X339702Y231459D01*
X338857Y229043D01*
X338570Y226500D01*
X338857Y223957D01*
X339702Y221541D01*
X341064Y219373D01*
X342873Y217564D01*
X345041Y216202D01*
X347457Y215357D01*
X350000Y215070D01*
X352543Y215357D01*
X354959Y216202D01*
X357127Y217564D01*
X358936Y219373D01*
X360298Y221541D01*
X361143Y223957D01*
X361430Y226500D01*
X1167881Y226500D02*
X1167594Y229044D01*
X1166749Y231459D01*
X1165387Y233627D01*
X1163577Y235436D01*
X1161410Y236798D01*
X1158994Y237644D01*
X1156451Y237930D01*
X1153907Y237644D01*
X1151491Y236798D01*
X1149324Y235436D01*
X1147514Y233627D01*
X1146153Y231459D01*
X1145307Y229044D01*
X1145021Y226500D01*
X1145307Y223957D01*
X1146153Y221541D01*
X1147514Y219374D01*
X1149324Y217564D01*
X1151491Y216202D01*
X1153907Y215357D01*
X1156451Y215070D01*
X1158994Y215357D01*
X1161410Y216202D01*
X1163577Y217564D01*
X1165387Y219374D01*
X1166749Y221541D01*
X1167594Y223957D01*
X1167881Y226500D01*
X323500Y697000D02*
Y699500D01*
X328000Y704000D02*
X338250D01*
X323500Y699500D02*
X328000Y704000D01*
X611750Y408750D02*
X615370Y405130D01*
X616000D01*
X338250Y689000D02*
X354000D01*
X354000Y689000D01*
X338250Y719000D02*
X352250D01*
X338250Y674000D02*
X353750D01*
X338000D02*
X338250D01*
X325000Y659000D02*
X338250D01*
X324000D02*
X325000D01*
X607000Y393750D02*
X616250D01*
X625500Y384500D01*
X607000Y408750D02*
X611750D01*
X528500Y499000D02*
X539500D01*
X443500Y401500D02*
X454500D01*
Y416500D02*
X465500D01*
X454500Y431500D02*
X465500D01*
X454500Y446500D02*
X465500D01*
X454500Y526500D02*
X466000D01*
X466000Y526500D01*
X338250Y734000D02*
X352500D01*
X338250Y749000D02*
X350000D01*
X338250Y764000D02*
X359313D01*
X360313Y765000D01*
X361000D01*
X338250Y779000D02*
X338250Y779000D01*
X361500D01*
D21*
X633000Y459500D02*
X646500D01*
X652000Y454000D01*
X673500D01*
X684500Y465000D01*
X412000Y563992D02*
X416992D01*
X500500Y647500D02*
Y658500D01*
X416992Y563992D02*
X500500Y647500D01*
X416000Y568000D02*
X491500Y643500D01*
Y656500D01*
X416000Y572500D02*
X485000Y641500D01*
Y658500D01*
X348000Y572500D02*
X416000D01*
X316500Y604000D02*
X348000Y572500D01*
X311318Y599682D02*
X343000Y568000D01*
X416000D01*
X412000Y563992D02*
Y564000D01*
Y532500D02*
Y563992D01*
X337008D02*
X412000D01*
X405500Y526000D02*
X412000Y532500D01*
X302500Y598500D02*
X337008Y563992D01*
X508500Y336000D02*
X522000Y322500D01*
X500000Y336000D02*
X508500D01*
X522000Y322500D02*
X543500D01*
X554500Y311500D02*
X578000D01*
X543500Y322500D02*
X554500Y311500D01*
X461500Y723000D02*
X511000D01*
X519000Y702500D02*
Y715000D01*
X511000Y723000D02*
X519000Y715000D01*
X311318Y599682D02*
Y640682D01*
X288500Y670500D02*
X316500Y642500D01*
Y604000D02*
Y642500D01*
X288500Y670500D02*
Y787000D01*
X342000Y840500D01*
X384900D01*
X344000Y849500D02*
X368500D01*
X284000Y668000D02*
Y789500D01*
X344000Y849500D01*
X324000Y641500D02*
X357500D01*
X293000Y672500D02*
Y784000D01*
Y672500D02*
X324000Y641500D01*
X284000Y668000D02*
X311318Y640682D01*
X620750Y398250D02*
X622500Y396500D01*
X709500D02*
X714337Y401337D01*
X622500Y396500D02*
X709500D01*
X607000Y398250D02*
X620750D01*
X709234Y400000D02*
X713234Y404000D01*
X627500Y400000D02*
X709234D01*
X708000Y389500D02*
X717000Y398500D01*
X675000Y389500D02*
X708000D01*
X717000Y398500D02*
X736500D01*
X716000Y406500D02*
X744000D01*
X753500Y397000D02*
X775343D01*
X744000Y406500D02*
X753500Y397000D01*
X713234Y404000D02*
X742000D01*
X752000Y394000D02*
X778000D01*
X742000Y404000D02*
X752000Y394000D01*
X739163Y401337D02*
X749500Y391000D01*
X780000D02*
X794965Y405965D01*
X749500Y391000D02*
X780000D01*
X736500Y398500D02*
X747636Y387364D01*
X796864D01*
X808500Y399000D01*
X714337Y401337D02*
X739163D01*
X775343Y397000D02*
X791843Y413500D01*
X801500D01*
X778000Y394000D02*
X793500Y409500D01*
X614250Y413250D02*
X627500Y400000D01*
X690000Y432500D02*
X716000Y406500D01*
X553000Y521500D02*
Y579000D01*
X545500Y586500D02*
Y611900D01*
Y586500D02*
X553000Y579000D01*
X548500Y588000D02*
Y610500D01*
X557000Y517000D02*
Y579500D01*
X548500Y588000D02*
X557000Y579500D01*
X548500Y610500D02*
X552500Y614500D01*
X544000Y613400D02*
Y614500D01*
Y613400D02*
X545500Y611900D01*
X529000Y509000D02*
X549000D01*
X554500Y505500D02*
X586000Y537000D01*
X581700Y579000D02*
X586000Y574700D01*
Y537000D02*
Y574700D01*
X554500Y500500D02*
Y505500D01*
X630250Y578750D02*
X678500Y627000D01*
X744000D01*
X805500Y688500D01*
X552500Y479000D02*
X682000Y608500D01*
X760000D01*
X856642Y705142D01*
X765000Y510000D02*
Y543848D01*
X764924Y543924D02*
X765000Y543848D01*
X527500Y478500D02*
X532500D01*
X554500Y500500D01*
X830000Y603500D02*
X841000D01*
X818500Y585500D02*
Y592000D01*
X830000Y603500D01*
X841000D02*
X848000Y596500D01*
X790500Y557500D02*
X818500Y585500D01*
X810000Y510000D02*
Y557500D01*
X829000Y576500D02*
Y589500D01*
X810000Y557500D02*
X829000Y576500D01*
X818500Y490000D02*
Y533000D01*
X844500Y425000D02*
Y464000D01*
X818500Y490000D02*
X844500Y464000D01*
X860000Y419000D02*
X889500D01*
X918000Y447500D02*
X959000D01*
X889500Y419000D02*
X918000Y447500D01*
X857500Y424000D02*
X886929D01*
X915429Y452500D01*
X810500Y396000D02*
X823000D01*
X898500Y471500D02*
X941503D01*
X823000Y396000D02*
X898500Y471500D01*
X808500Y399000D02*
X818500D01*
X844500Y425000D01*
X817500Y375500D02*
Y384000D01*
X857500Y424000D01*
X822500Y365500D02*
Y381500D01*
X860000Y419000D01*
X796000Y381500D02*
X810500Y396000D01*
X796000Y359500D02*
Y381500D01*
X502250Y398250D02*
X511500Y389000D01*
X502250Y453250D02*
X527500Y478500D01*
X502250Y398250D02*
Y453250D01*
X489500Y410000D02*
Y447500D01*
X498500Y456500D02*
Y480500D01*
X489500Y447500D02*
X498500Y456500D01*
X856642Y708142D02*
X857000Y708500D01*
X856642Y705142D02*
Y708142D01*
X805500Y688500D02*
X812000D01*
X860500Y737000D02*
Y749500D01*
X812000Y688500D02*
X860500Y737000D01*
X694000Y644000D02*
X722500D01*
X508750Y659750D02*
X560000Y711000D01*
X508750Y653250D02*
Y659750D01*
X560000Y711000D02*
Y761500D01*
X500500Y658500D02*
X556000Y714000D01*
X749500Y793500D02*
X752500Y796500D01*
X544000Y815500D02*
X566000Y793500D01*
X749500D01*
X545657Y819500D02*
X568157Y797000D01*
X747343D02*
X750843Y800500D01*
X568157Y797000D02*
X747343D01*
X570500Y800500D02*
X745186D01*
X546000Y825000D02*
X570500Y800500D01*
X745186D02*
X749186Y804500D01*
X545000Y832500D02*
X573500Y804000D01*
X743029D01*
X747529Y808500D01*
X576757Y807500D02*
X740873D01*
X543257Y841000D02*
X576757Y807500D01*
X740873D02*
X745873Y812500D01*
X739216Y811500D02*
X744216Y816500D01*
X545500Y846000D02*
X580000Y811500D01*
X739216D01*
X393500Y671000D02*
Y678500D01*
Y671000D02*
X398000Y666500D01*
X413750D01*
X1044284Y788500D02*
X1049784Y794000D01*
X771500Y796500D02*
X779500Y788500D01*
X1044284D01*
X781657Y792000D02*
X1042127D01*
X773157Y800500D02*
X781657Y792000D01*
X1042127D02*
X1048128Y798000D01*
X1039971Y795500D02*
X1046471Y802000D01*
X774814Y804500D02*
X783814Y795500D01*
X1039971D01*
X785471Y799500D02*
X1038314D01*
X776471Y808500D02*
X785471Y799500D01*
X1038314D02*
X1044814Y806000D01*
X1036657Y803500D02*
X1043157Y810000D01*
X778127Y812500D02*
X787127Y803500D01*
X1036657D01*
X779784Y816500D02*
X788784Y807500D01*
X1035000D02*
X1041500Y814000D01*
X788784Y807500D02*
X1035000D01*
X302500Y598500D02*
Y639500D01*
X576000Y833000D02*
X612224D01*
X623000Y822224D01*
Y816500D02*
Y822224D01*
X736000Y510000D02*
X747000Y521000D01*
X556000Y714000D02*
Y760000D01*
X527000Y777500D02*
X544000D01*
X521500Y783000D02*
Y791500D01*
Y783000D02*
X527000Y777500D01*
X544000D02*
X560000Y761500D01*
X424500Y640000D02*
Y652500D01*
X426500Y654500D01*
X368500Y849500D02*
X393000Y874000D01*
X941500Y499915D02*
X948000Y493415D01*
X941500Y545500D02*
X947000Y551000D01*
X941500Y499915D02*
Y545500D01*
X948000Y477997D02*
Y493415D01*
X941503Y471500D02*
X948000Y477997D01*
X795000Y329000D02*
Y353000D01*
X817500Y375500D01*
X808500Y351500D02*
X822500Y365500D01*
X786500Y350000D02*
X796000Y359500D01*
X786500Y341500D02*
Y350000D01*
X780500Y335500D02*
X786500Y341500D01*
X780500Y329532D02*
Y335500D01*
X775000Y324032D02*
X780500Y329532D01*
X742968Y324032D02*
X775000D01*
X707000Y334500D02*
X732500D01*
X742968Y324032D01*
X651500Y325000D02*
X697500D01*
X707000Y334500D01*
X637000Y339500D02*
X651500Y325000D01*
X578000Y311500D02*
X606000Y339500D01*
X637000D01*
X497500Y338500D02*
X497997Y338003D01*
X497997D01*
X500000Y336000D01*
X484000Y338500D02*
X497500D01*
X434500Y329500D02*
X475000D01*
X484000Y338500D01*
X419500Y314500D02*
X434500Y329500D01*
X394500Y314500D02*
X419500D01*
X915429Y452500D02*
X956929D01*
X1202500Y809000D02*
X1211500D01*
X1192000Y798500D02*
X1202500Y809000D01*
X1132500Y798500D02*
X1192000D01*
X1041500Y814000D02*
X1117000D01*
X1132500Y798500D01*
X1128500Y815500D02*
X1148500D01*
X1119000Y825000D02*
X1128500Y815500D01*
X1148500D02*
X1154000Y810000D01*
X1063000Y825000D02*
X1119000D01*
X1206000Y794500D02*
X1212000Y800500D01*
X1131127Y794500D02*
X1206000D01*
X1050500Y837500D02*
X1063000Y825000D01*
X1018000Y815500D02*
X1040000Y837500D01*
X1050500D01*
X977000Y815500D02*
X1018000D01*
X976000Y464500D02*
Y564000D01*
X963500Y576500D02*
X976000Y564000D01*
X954500Y576500D02*
X963500D01*
X955500Y537500D02*
Y552500D01*
Y537500D02*
X971000Y522000D01*
X405500Y826500D02*
X412500Y819500D01*
X405500Y836500D02*
X424500Y855500D01*
X405500Y826500D02*
Y836500D01*
X412500Y819500D02*
X434000D01*
X446500Y832000D02*
X481000D01*
X434000Y819500D02*
X446500Y832000D01*
X481000D02*
X502500Y853500D01*
X515500Y846000D02*
X545500D01*
X509000Y834000D02*
Y839500D01*
X515500Y846000D01*
X502500Y853500D02*
X555500D01*
X576000Y833000D01*
X426500Y654500D02*
Y670000D01*
X413750Y671500D02*
X425000D01*
X426500Y670000D01*
X413750Y666500D02*
X413750Y666500D01*
X485000Y405500D02*
X489500Y410000D01*
X474500Y405500D02*
X485000D01*
X454500Y411500D02*
X468500D01*
X474500Y405500D01*
X580000Y589000D02*
X584500Y593500D01*
X574050Y579000D02*
X581700D01*
X606500Y593500D02*
X655500Y642500D01*
X584500Y593500D02*
X606500D01*
X560000Y611500D02*
X565500Y606000D01*
Y587550D02*
X574050Y579000D01*
X565500Y587550D02*
Y606000D01*
X409000Y513500D02*
X418000Y522500D01*
X409000Y433000D02*
Y513500D01*
X435500Y406500D02*
X454500D01*
X409000Y433000D02*
X435500Y406500D01*
X383050Y360450D02*
X388500Y355000D01*
X378800Y442000D02*
X383050Y437750D01*
Y360450D02*
Y437750D01*
X378800Y442000D02*
Y467200D01*
X528500Y483000D02*
Y489000D01*
X552500Y472000D02*
Y479000D01*
X718500Y315500D02*
X792500D01*
X808500Y331500D01*
X709500Y322000D02*
X788000D01*
X795000Y329000D01*
X808500Y331500D02*
Y351500D01*
X956929Y452500D02*
X971000Y466571D01*
X959000Y447500D02*
X976000Y464500D01*
X632500Y473500D02*
X635000D01*
X613000Y454000D02*
X632500Y473500D01*
X971000Y466571D02*
Y522000D01*
X631000Y482000D02*
X635500D01*
X608000Y459000D02*
X631000Y482000D01*
X528500Y454000D02*
X613000D01*
X528500Y459000D02*
X608000D01*
X790500Y496000D02*
Y557500D01*
Y496000D02*
X826500Y460000D01*
Y438500D02*
Y460000D01*
X801500Y413500D02*
X826500Y438500D01*
X593500Y416500D02*
X609500Y432500D01*
X690000D01*
X615700Y417800D02*
Y423700D01*
X629000Y423400D02*
X629300Y423700D01*
X629000Y418500D02*
Y423400D01*
X757500Y481000D02*
Y502500D01*
X741500Y465000D02*
X757500Y481000D01*
X684500Y465000D02*
X741500D01*
X544500Y416500D02*
X593500D01*
X542000Y414000D02*
X544500Y416500D01*
X528500Y414000D02*
X542000D01*
X516500Y421000D02*
Y429500D01*
Y421000D02*
X518500Y419000D01*
X528500D01*
X607000Y413250D02*
X614250Y413250D01*
X585024Y396000D02*
X600000D01*
X566000Y394000D02*
X574000D01*
X582824Y393800D02*
X585024Y396000D01*
X574000Y393800D02*
X582824D01*
X583772Y411000D02*
X600000D01*
X581772Y409000D02*
X583772Y411000D01*
X794965Y405965D02*
X804965D01*
X793500Y409500D02*
X803500D01*
X804965Y405965D02*
X837535Y438535D01*
X803500Y409500D02*
X834000Y440000D01*
X837535Y438535D02*
Y461465D01*
X834000Y440000D02*
Y460000D01*
X811500Y482500D02*
X834000Y460000D01*
X815035Y483965D02*
X837535Y461465D01*
X815035Y483965D02*
Y504964D01*
X811500Y482500D02*
Y503500D01*
X806464Y508535D02*
X811500Y503500D01*
X810000Y510000D02*
X815035Y504964D01*
X806464Y508535D02*
Y557965D01*
X823500Y575000D02*
Y593000D01*
X806464Y557965D02*
X823500Y575000D01*
X828000Y597500D02*
X837500D01*
X823500Y593000D02*
X828000Y597500D01*
X528500Y509000D02*
X529000Y509500D01*
X549000Y509000D02*
X557000Y517000D01*
X552022Y409000D02*
X581772D01*
X556000Y404000D02*
X566000Y394000D01*
X528500Y404000D02*
X556000D01*
X528500Y409000D02*
X552022D01*
X528500Y464000D02*
X544500D01*
X552500Y472000D01*
X633000Y452300D02*
Y459500D01*
X757500Y502500D02*
X765000Y510000D01*
X511500Y389000D02*
X528500D01*
Y514000D02*
X545500D01*
X553000Y521500D01*
X540500Y558500D02*
Y606000D01*
X528500Y519000D02*
X543000D01*
X548000Y524000D01*
X540000D02*
X542500Y526500D01*
X528500Y524000D02*
X540000D01*
X542500Y526500D02*
Y549000D01*
X532000Y559500D02*
X542500Y549000D01*
X548000Y524000D02*
Y551000D01*
X540500Y558500D02*
X548000Y551000D01*
X532000Y559500D02*
Y606000D01*
X1131500Y523000D02*
X1254500D01*
X1103500D02*
X1131500D01*
Y542500D01*
X1003500Y393500D02*
X1051500Y441500D01*
Y482000D01*
X1123500Y554000D01*
Y644500D01*
X1091500Y676500D02*
X1123500Y644500D01*
X1061500Y481000D02*
X1103500Y523000D01*
X1061500Y442000D02*
Y481000D01*
X951500Y332000D02*
X1061500Y442000D01*
X1209000Y560000D02*
Y587500D01*
X1100500Y690343D02*
X1203500Y587343D01*
X1100500Y690343D02*
Y733500D01*
X1104500Y692000D02*
Y731843D01*
X1100500Y733500D02*
X1125000Y758000D01*
X1104500Y692000D02*
X1209000Y587500D01*
X1091500Y676500D02*
Y752000D01*
X1083000Y760500D02*
X1091500Y752000D01*
X941000Y760500D02*
X1083000D01*
X922921Y742421D02*
X941000Y760500D01*
X896079Y742421D02*
X922921D01*
X893519Y744981D02*
X896079Y742421D01*
X893519Y744981D02*
Y750455D01*
X644000Y510000D02*
X736000D01*
X388500Y320500D02*
X394500Y314500D01*
X388500Y320500D02*
Y355000D01*
X951500Y332000D02*
X951500D01*
X1254500Y523000D02*
X1304000Y572500D01*
Y691000D01*
X537500Y748500D02*
X540500Y751500D01*
X500000Y748500D02*
X537500D01*
X496000Y744500D02*
X500000Y748500D01*
X496000Y739000D02*
Y744500D01*
X545000Y771000D02*
X556000Y760000D01*
X489500Y732500D02*
X496000Y739000D01*
X453500Y732500D02*
X489500D01*
X446500Y725500D02*
X453500Y732500D01*
X446500Y714000D02*
Y725500D01*
X437200Y704700D02*
X446500Y714000D01*
X437200Y686000D02*
Y704700D01*
X431000Y686000D02*
X437200D01*
X413750Y676500D02*
X428000D01*
X413750Y691500D02*
X413750Y691500D01*
X425500D01*
X431000Y686000D01*
X367500Y631500D02*
X413750D01*
X357500Y641500D02*
X367500Y631500D01*
X341500Y832500D02*
X353000D01*
X293000Y784000D02*
X341500Y832500D01*
X384900Y840500D02*
X418400Y874000D01*
X682500Y417000D02*
X687500Y422000D01*
X629000Y418500D02*
X630500Y417000D01*
X682500D01*
X620000Y413500D02*
X696000D01*
X615700Y417800D02*
X620000Y413500D01*
X1209000Y560000D02*
X1212500Y556500D01*
X1203500Y542500D02*
X1209000Y537000D01*
X1203500Y542500D02*
Y587343D01*
X1206500Y730000D02*
X1212000Y724500D01*
X1210500Y746500D02*
X1213000Y744000D01*
X1210500Y746500D02*
Y770657D01*
X1206500Y730000D02*
Y769000D01*
X1104500Y731843D02*
X1129000Y756343D01*
Y779657D01*
X1125000Y758000D02*
Y778000D01*
X1193157Y788000D02*
X1210500Y770657D01*
X1191500Y784000D02*
X1206500Y769000D01*
X1130314Y784000D02*
X1191500D01*
X1131971Y788000D02*
X1193157D01*
X1112314Y802000D02*
X1130314Y784000D01*
X1044814Y806000D02*
X1113970D01*
X1115627Y810000D02*
X1131127Y794500D01*
X1046471Y802000D02*
X1112314D01*
X1113970Y806000D02*
X1131971Y788000D01*
X1043157Y810000D02*
X1115627D01*
X1110657Y798000D02*
X1129000Y779657D01*
X1109000Y794000D02*
X1125000Y778000D01*
X1048128Y798000D02*
X1110657D01*
X1049784Y794000D02*
X1109000D01*
X752500Y796500D02*
X771500D01*
X744216Y816500D02*
X779784D01*
X745873Y812500D02*
X778127D01*
X747529Y808500D02*
X776471D01*
X749186Y804500D02*
X774814D01*
X750843Y800500D02*
X773157D01*
X524500Y841000D02*
X543257D01*
X537500Y832500D02*
X545000D01*
X532500Y825000D02*
X546000D01*
X528500Y828000D02*
X531579Y824921D01*
X532421D01*
X532500Y825000D01*
X528500Y828000D02*
Y832500D01*
X490000Y827000D02*
X501500Y815500D01*
X544000D01*
X490000Y827000D02*
Y831500D01*
X498500D02*
X510500Y819500D01*
X545657D01*
X517500Y834000D02*
X524500Y841000D01*
X756000Y788000D02*
X771000D01*
X746500Y778500D02*
X756000Y788000D01*
X722500Y644000D02*
X746500Y668000D01*
Y778500D01*
X485000Y658500D02*
X491500Y665000D01*
X427000Y363500D02*
X437000Y373500D01*
Y393500D01*
X390789Y447170D02*
X405500Y461881D01*
Y526000D01*
X497500Y774000D02*
X500500Y771000D01*
X545000D01*
X497500Y774000D02*
Y781500D01*
X710000Y571000D02*
X732500D01*
X356800Y467200D02*
X378800D01*
X346500Y477500D02*
X356800Y467200D01*
X277000Y484000D02*
X283500Y477500D01*
X346500D01*
D26*
X368750Y504500D02*
D03*
X386250D02*
D03*
X368750Y529500D02*
D03*
X386250D02*
D03*
X368750Y552000D02*
D03*
X386250D02*
D03*
D27*
X309200Y717000D02*
D03*
X318800D02*
D03*
X309200Y706000D02*
D03*
X318800D02*
D03*
X309200Y736000D02*
D03*
X318800D02*
D03*
X309200Y747000D02*
D03*
X318800D02*
D03*
Y687000D02*
D03*
X309200D02*
D03*
X318800Y676000D02*
D03*
X309200D02*
D03*
Y766000D02*
D03*
X318800D02*
D03*
X309200Y777000D02*
D03*
X318800D02*
D03*
X368700Y582500D02*
D03*
X378300D02*
D03*
X437200Y686000D02*
D03*
X446800D02*
D03*
X289800Y492500D02*
D03*
X280200D02*
D03*
X591300Y579000D02*
D03*
X581700D02*
D03*
D29*
X513500Y569700D02*
D03*
Y579300D02*
D03*
X633000Y452300D02*
D03*
Y442700D02*
D03*
X483500Y587300D02*
D03*
Y577700D02*
D03*
X493000Y587300D02*
D03*
Y577700D02*
D03*
X552022Y408800D02*
D03*
Y399200D02*
D03*
X525500Y569700D02*
D03*
Y579300D02*
D03*
X574000Y384200D02*
D03*
Y393800D02*
D03*
D83*
X413150Y583000D02*
D03*
X396850D02*
D03*
X573150Y328000D02*
D03*
X556850D02*
D03*
D86*
X307500Y425500D02*
D03*
X332500Y425500D02*
D03*
X282500D02*
D03*
D87*
X307500Y455500D02*
D03*
X332500Y455500D02*
D03*
X282500D02*
D03*
D174*
X1237600Y448400D02*
D03*
X1212200D02*
D03*
X1186800D02*
D03*
X1199500Y423000D02*
D03*
X1224900D02*
D03*
X1250300D02*
D03*
X1263000Y448400D02*
D03*
X1174100Y423000D02*
D03*
X1161400Y448400D02*
D03*
D182*
X391000Y606500D02*
D03*
D183*
X835500Y375000D02*
D03*
X930500D02*
D03*
D201*
X412000Y564000D02*
D03*
X1131500Y523000D02*
D03*
D202*
X815663Y337889D02*
Y341715D01*
X817448Y343500D02*
X828000D01*
X815663Y341715D02*
X817448Y343500D01*
X815274Y337500D02*
X815663Y337889D01*
X910000Y367000D02*
X914000Y363000D01*
X943442Y368000D02*
X943500D01*
X938442Y363000D02*
X943442Y368000D01*
X914000Y363000D02*
X938442D01*
X591300Y573858D02*
Y579000D01*
X513500Y563000D02*
Y569700D01*
Y563000D02*
X518250Y558250D01*
X545500Y361500D02*
Y393000D01*
X547000Y394500D01*
X547072D01*
X551772Y399200D02*
X552022D01*
X547072Y394500D02*
X551772Y399200D01*
X574000Y364000D02*
Y384000D01*
X565650Y355650D02*
X574000Y364000D01*
X553000Y355650D02*
X565650D01*
X633000Y442700D02*
X633225Y442475D01*
X644275D01*
X644500Y442250D01*
X443000Y388000D02*
X444500Y386500D01*
X454500D01*
X441500Y371500D02*
X454500D01*
X591300Y573858D02*
X597200Y567958D01*
Y567700D02*
Y567958D01*
X441500Y356500D02*
X454500D01*
X270000Y492500D02*
X280200D01*
D203*
X767443Y329369D02*
Y330057D01*
X765500Y332000D02*
X767443Y330057D01*
X760678Y340500D02*
X765500Y335678D01*
X756499Y348586D02*
Y349350D01*
X765500Y332000D02*
Y335678D01*
X755500Y340500D02*
X760678D01*
X753922Y342078D02*
Y346008D01*
Y342078D02*
X755500Y340500D01*
X753922Y346008D02*
X756499Y348586D01*
X740180Y442788D02*
X740869D01*
X718615Y452680D02*
Y453368D01*
X716672Y450737D02*
X718615Y452680D01*
X716672Y447500D02*
Y450737D01*
Y447500D02*
X723328Y440845D01*
X738237D02*
X740180Y442788D01*
X723328Y440845D02*
X738237D01*
X759500Y337655D02*
X762655Y334500D01*
Y332000D02*
Y334500D01*
X751077Y340900D02*
X754322Y337655D01*
X759500D01*
X751077Y340900D02*
Y346008D01*
X760712Y329369D02*
Y330057D01*
X762655Y332000D01*
X748499Y348586D02*
Y349350D01*
Y348586D02*
X751077Y346008D01*
X713828Y446322D02*
X713828D01*
X713828D02*
Y450737D01*
X711885Y452680D02*
Y453368D01*
Y452680D02*
X713828Y450737D01*
X738237Y438000D02*
X740180Y436057D01*
X713828Y446322D02*
X722149Y438000D01*
X740180Y436057D02*
X740869D01*
X722149Y438000D02*
X738237D01*
X690884Y452680D02*
X692828Y450737D01*
X690884Y452680D02*
Y453368D01*
X740737Y418500D02*
X742680Y416557D01*
X743369D01*
X692828Y447595D02*
Y450737D01*
X721922Y418500D02*
X740737D01*
X692828Y447595D02*
X721922Y418500D01*
X695672Y450737D02*
X697616Y452680D01*
Y453368D01*
X742680Y423288D02*
X743369D01*
X695672Y448773D02*
X723101Y421345D01*
X695672Y448773D02*
Y450737D01*
X740737Y421345D02*
X742680Y423288D01*
X723101Y421345D02*
X740737D01*
X739288Y703443D02*
Y704131D01*
X737345Y695345D02*
Y701500D01*
X739288Y703443D01*
X732557D02*
X734500Y701500D01*
X733435Y695565D02*
X734500Y696631D01*
X732557Y703443D02*
Y704131D01*
X734500Y696631D02*
Y701500D01*
X735865Y384632D02*
Y385320D01*
X733922Y387263D02*
Y389678D01*
Y387263D02*
X735865Y385320D01*
X724322Y392845D02*
X730755D01*
X720655Y389178D02*
X724322Y392845D01*
X727500Y371000D02*
X731077Y367423D01*
X728499Y357114D02*
X731077Y359692D01*
X720655Y377845D02*
X727500Y371000D01*
X720655Y377845D02*
Y389178D01*
X731077Y359692D02*
Y367423D01*
X728499Y356350D02*
Y357114D01*
X731077Y387263D02*
Y388500D01*
X729134Y385320D02*
X731077Y387263D01*
X729134Y384632D02*
Y385320D01*
X736499Y356350D02*
Y357114D01*
X733922Y359692D02*
X736499Y357114D01*
X733922Y359692D02*
Y368601D01*
X723500Y388000D02*
X725500Y390000D01*
X727500Y375023D02*
X733922Y368601D01*
X723500Y379023D02*
X727500Y375023D01*
X723500Y379023D02*
Y388000D01*
X727500Y375023D02*
X727500D01*
X729577Y390000D02*
X731077Y388500D01*
X725500Y390000D02*
X729577D01*
X730755Y392845D02*
X733922Y389678D01*
X740190Y635166D02*
X809422Y704399D01*
X677085Y635166D02*
X740190D01*
X597962Y556044D02*
X677085Y635166D01*
X739011Y638011D02*
X806578Y705578D01*
X675906Y638011D02*
X739011D01*
X595117Y557222D02*
X675906Y638011D01*
X806578Y705578D02*
Y743737D01*
X809422Y704399D02*
Y743737D01*
X599905Y552132D02*
Y552820D01*
X593174D02*
X595117Y554763D01*
Y557222D01*
X597962Y554763D02*
X599905Y552820D01*
X593174Y552132D02*
Y552820D01*
X597962Y554763D02*
Y556044D01*
X674672Y662750D02*
X686267Y651155D01*
X721678D01*
X674672Y662750D02*
Y699195D01*
X677517Y663929D02*
Y698017D01*
X687446Y654000D02*
X720500D01*
X677517Y663929D02*
X687446Y654000D01*
X728475Y657952D02*
Y662506D01*
X725630Y659130D02*
Y662506D01*
X721678Y651155D02*
X728475Y657952D01*
X720500Y654000D02*
X725630Y659130D01*
X728475Y662506D02*
X730418Y664450D01*
Y665138D01*
X723687Y664450D02*
Y665138D01*
Y664450D02*
X725630Y662506D01*
X804634Y745680D02*
X806578Y743737D01*
X811366Y745680D02*
Y746368D01*
X809422Y743737D02*
X811366Y745680D01*
X804634D02*
Y746368D01*
X462341Y532578D02*
X471500D01*
X462131Y532367D02*
X462341Y532578D01*
X455367Y532367D02*
X462131D01*
X454500Y531500D02*
X455367Y532367D01*
X473443Y530634D02*
X474132D01*
X471500Y532578D02*
X473443Y530634D01*
Y537365D02*
X474132D01*
X454500Y536500D02*
X455367Y535633D01*
X462131D01*
X471500Y535422D02*
X473443Y537365D01*
X462341Y535422D02*
X471500D01*
X462131Y535633D02*
X462341Y535422D01*
X686578Y711101D02*
Y723000D01*
Y745237D01*
X666186Y496180D02*
Y496868D01*
X670974Y494237D02*
X672917Y496180D01*
X654655Y468322D02*
Y482834D01*
X668129Y491500D02*
Y494237D01*
X672917Y496180D02*
Y496868D01*
X666186Y496180D02*
X668129Y494237D01*
X670974Y490322D02*
Y494237D01*
X689422Y739764D02*
Y741000D01*
Y739764D02*
X690324Y738862D01*
X691720D01*
X692622Y737961D01*
Y736157D02*
Y737961D01*
X691720Y735256D02*
X692622Y736157D01*
X689887Y735256D02*
X691720D01*
X688986Y734354D02*
X689887Y735256D01*
X688986Y732551D02*
Y734354D01*
Y732551D02*
X689887Y731649D01*
X692042D01*
X692944Y730747D01*
Y728944D02*
Y730747D01*
X692042Y728042D02*
X692944Y728944D01*
X690324Y728042D02*
X692042D01*
X689422Y727140D02*
X690324Y728042D01*
X689422Y723000D02*
Y727140D01*
Y741000D02*
Y745237D01*
Y709922D02*
Y723000D01*
X674672Y699195D02*
X686578Y711101D01*
X677517Y698017D02*
X689422Y709922D01*
X684634Y747180D02*
X686578Y745237D01*
X684634Y747180D02*
Y747868D01*
X689422Y745237D02*
X691366Y747180D01*
Y747868D01*
X667444Y465500D02*
X668500D01*
X666542Y466402D02*
X667444Y465500D01*
X666542Y466402D02*
Y467627D01*
X665640Y468529D02*
X666542Y467627D01*
X663837Y468529D02*
X665640D01*
X662935Y467627D02*
X663837Y468529D01*
X662935Y466402D02*
Y467627D01*
X662033Y465500D02*
X662935Y466402D01*
X661500Y465500D02*
X662033D01*
X668500D02*
X671828Y468828D01*
X657500Y479050D02*
Y480000D01*
Y479050D02*
X658402Y478149D01*
X660408D01*
X661310Y477247D01*
Y475444D02*
Y477247D01*
X660408Y474542D02*
X661310Y475444D01*
X658402Y474542D02*
X660408D01*
X657500Y473640D02*
X658402Y474542D01*
X657500Y469500D02*
Y473640D01*
Y480000D02*
Y481655D01*
X669678Y462655D02*
X674672Y467649D01*
X660322Y462655D02*
X669678D01*
X654655Y468322D02*
X660322Y462655D01*
X657500Y469500D02*
X661500Y465500D01*
X654655Y482834D02*
X661822Y490000D01*
X657500Y481655D02*
X663000Y487155D01*
X671828Y468828D02*
Y477000D01*
X669884Y478943D02*
X671828Y477000D01*
X669884Y478943D02*
Y479632D01*
X674672Y467649D02*
Y477000D01*
X676616Y478943D01*
Y479632D01*
X667808Y487155D02*
X670974Y490322D01*
X663000Y487155D02*
X667808D01*
X666629Y490000D02*
X668129Y491500D01*
X661822Y490000D02*
X666629D01*
D204*
X413200Y583000D02*
X468000Y637800D01*
X413150Y583000D02*
X413200D01*
X468000Y637800D02*
Y639000D01*
X573150Y317850D02*
Y328000D01*
Y317850D02*
X574000Y317000D01*
X289800Y492500D02*
Y501800D01*
D205*
X676366Y732862D02*
X675894Y734003D01*
X426500Y529000D02*
Y559947D01*
X423706Y527843D02*
Y561104D01*
X675894Y734003D02*
X676366Y733531D01*
X674397Y735500D02*
X675894Y734003D01*
X676366Y732862D02*
Y733531D01*
X433706Y533294D02*
Y558104D01*
X436500Y534451D02*
Y556947D01*
X426500Y559947D02*
X610277Y743723D01*
X423706Y561104D02*
X622396Y759794D01*
X712563Y667776D02*
Y670564D01*
X737345Y695345D01*
X714469Y665138D02*
Y665871D01*
X712563Y667776D02*
X714469Y665871D01*
X709642Y671773D02*
X733435Y695565D01*
X709642Y667776D02*
Y671773D01*
X707738Y665871D02*
X709642Y667776D01*
X896632Y374750D02*
X899603Y377721D01*
X905368Y374750D02*
X905500D01*
X899603Y377721D02*
Y379825D01*
X903595Y383817D02*
X915866D01*
X899603Y379825D02*
X903595Y383817D01*
X896500Y374750D02*
X896632D01*
X915866Y383817D02*
X945103Y413054D01*
X917023Y381023D02*
X947897Y411897D01*
X902397Y377721D02*
X905368Y374750D01*
X902397Y377721D02*
Y378668D01*
X904753Y381023D01*
X917023D01*
X826365Y497684D02*
X827183Y496865D01*
X826365Y565316D02*
X827183Y566135D01*
Y566135D01*
Y496865D02*
X839843Y484206D01*
X826365Y497684D02*
Y565316D01*
X827183Y566135D02*
X966603Y705554D01*
X827183Y496865D02*
Y496865D01*
X829159Y498841D02*
X841000Y487000D01*
X829159Y564159D02*
X969397Y704397D01*
X829159Y498841D02*
Y564159D01*
X836730Y504319D02*
X837548Y503500D01*
X836730Y535059D02*
X949206Y647535D01*
X837548Y503500D02*
X844549Y496500D01*
X837548Y503500D02*
Y503500D01*
X836730Y504319D02*
Y535059D01*
X839524Y533901D02*
X952000Y646377D01*
X839524Y505476D02*
Y533901D01*
Y505476D02*
X845706Y499294D01*
X949206Y647535D02*
Y674604D01*
X952000Y646377D02*
Y673447D01*
X949206Y674604D02*
X978682Y704081D01*
Y713634D01*
X981549Y716500D01*
X981477Y702923D02*
Y712477D01*
X982706Y713706D01*
X952000Y673447D02*
X981477Y702923D01*
X981549Y716500D02*
X985224D01*
X982706Y713706D02*
X985224D01*
X671157Y741294D02*
X674397Y738054D01*
Y735500D02*
Y738054D01*
X659343Y741294D02*
X671157D01*
X650843Y732794D02*
X659343Y741294D01*
X608396Y732794D02*
X650843D01*
X433706Y558104D02*
X608396Y732794D01*
X453671Y437328D02*
X454500Y436500D01*
X446926Y437328D02*
X453671D01*
X442446Y437603D02*
X446652D01*
X437024Y443024D02*
X442446Y437603D01*
X446652D02*
X446926Y437328D01*
X670000Y738500D02*
X671603Y736897D01*
X660500Y738500D02*
X670000D01*
X671603Y735500D02*
Y736897D01*
X669635Y733531D02*
X671603Y735500D01*
X652000Y730000D02*
X660500Y738500D01*
X669635Y732862D02*
Y733531D01*
X609553Y730000D02*
X652000D01*
X436500Y556947D02*
X609553Y730000D01*
X440500Y443500D02*
X440500D01*
X439818Y444182D02*
X440500Y443500D01*
X439818Y444182D02*
Y531133D01*
X453671Y440672D02*
X454500Y441500D01*
X446926Y440672D02*
X453671D01*
X446652Y440397D02*
X446926Y440672D01*
X440500Y443500D02*
X443603Y440397D01*
X446652D01*
X433706Y533294D02*
X437024Y529976D01*
X436500Y534451D02*
X439818Y531133D01*
X437024Y443024D02*
Y529976D01*
X659397Y749829D02*
Y754648D01*
Y749829D02*
X661366Y747860D01*
Y747191D02*
Y747860D01*
X622396Y759794D02*
X654251D01*
X659397Y754648D01*
X428111Y438370D02*
X443878Y422603D01*
X453671Y422328D02*
X454500Y421500D01*
X446926Y422328D02*
X453671D01*
X443878Y422603D02*
X446652D01*
X446926Y422328D01*
X653093Y757000D02*
X656603Y753490D01*
X641500Y757000D02*
X653093D01*
X640629D02*
X641500D01*
X639073Y755444D02*
X640629Y757000D01*
X631295D02*
X632850Y755444D01*
X639073Y752674D02*
Y755444D01*
X632850Y752674D02*
Y755444D01*
X656603Y749829D02*
Y753490D01*
X654634Y747860D02*
X656603Y749829D01*
X634406Y751118D02*
X637518D01*
X639073Y752674D01*
X632850D02*
X634406Y751118D01*
X654634Y747191D02*
Y747860D01*
X623553Y757000D02*
X624500D01*
X631295D01*
X623027Y756473D02*
X623553Y757000D01*
X621682Y752928D02*
X623057Y751553D01*
Y749353D02*
Y751553D01*
X620857Y747152D02*
X623057Y749353D01*
X621682Y755128D02*
X623027Y756473D01*
X621682Y752928D02*
Y755128D01*
X615081Y748528D02*
X617281D01*
X618657Y747152D02*
X620857D01*
X617281Y748528D02*
X618657Y747152D01*
X610277Y743723D02*
X615081Y748528D01*
X453671Y425672D02*
X454500Y426500D01*
X446926Y425672D02*
X453671D01*
X430905Y439527D02*
X445036Y425397D01*
X446652D02*
X446926Y425672D01*
X445036Y425397D02*
X446652D01*
X423706Y527843D02*
X428111Y523437D01*
X426500Y529000D02*
X430905Y524594D01*
Y439527D02*
Y524594D01*
X428111Y438370D02*
Y523437D01*
X385468Y699865D02*
X386138D01*
X339179Y698072D02*
X345924D01*
X338250Y699000D02*
X339179Y698072D01*
X383500Y697897D02*
X385468Y699865D01*
X345924Y698072D02*
X346098Y697897D01*
X383500D01*
Y695103D02*
X385468Y693135D01*
X346098Y695103D02*
X383500D01*
X345924Y694929D02*
X346098Y695103D01*
X339179Y694929D02*
X345924D01*
X338250Y694000D02*
X339179Y694929D01*
X385468Y693135D02*
X386138D01*
X306922Y744722D02*
X309200Y747000D01*
X300362Y744865D02*
X301031D01*
X306922Y743567D02*
Y744722D01*
X306252Y742897D02*
X306922Y743567D01*
X303000Y742897D02*
X306252D01*
X301031Y744865D02*
X303000Y742897D01*
X306252Y740103D02*
X306922Y739433D01*
X303000Y740103D02*
X306252D01*
X306922Y738279D02*
Y739433D01*
X301031Y738135D02*
X303000Y740103D01*
X300362Y738135D02*
X301031D01*
X306922Y738279D02*
X309200Y736000D01*
X306922Y684722D02*
X309200Y687000D01*
X300362Y684865D02*
X301031D01*
X306922Y683567D02*
Y684722D01*
X306252Y682897D02*
X306922Y683567D01*
X303000Y682897D02*
X306252D01*
X301031Y684865D02*
X303000Y682897D01*
Y680103D02*
X306252D01*
X306922Y679433D01*
Y678279D02*
Y679433D01*
Y678279D02*
X309200Y676000D01*
X301031Y678135D02*
X303000Y680103D01*
X300362Y678135D02*
X301031D01*
X306252Y710103D02*
X306922Y709433D01*
Y708279D02*
Y709433D01*
X303000Y710103D02*
X306252D01*
X301031Y708135D02*
X303000Y710103D01*
X300362Y708135D02*
X301031D01*
X306922Y708279D02*
X309200Y706000D01*
X306922Y714722D02*
X309200Y717000D01*
X300362Y714865D02*
X301031D01*
X306922Y713567D02*
Y714722D01*
X301031Y714865D02*
X303000Y712897D01*
X306252D02*
X306922Y713567D01*
X303000Y712897D02*
X306252D01*
X306922Y774722D02*
X309200Y777000D01*
X306922Y773567D02*
Y774722D01*
X301031Y774865D02*
X303000Y772897D01*
X306252D01*
X300362Y774865D02*
X301031D01*
X306252Y772897D02*
X306922Y773567D01*
Y768279D02*
Y769433D01*
Y768279D02*
X309200Y766000D01*
X303000Y770103D02*
X306252D01*
X306922Y769433D01*
X301031Y768135D02*
X303000Y770103D01*
X300362Y768135D02*
X301031D01*
X337322Y679929D02*
X338250Y679000D01*
X330402Y680103D02*
X330577Y679929D01*
X337322D01*
X318800Y676000D02*
X321078Y678279D01*
Y679433D02*
X321748Y680103D01*
X330402D01*
X321078Y678279D02*
Y679433D01*
X330577Y683072D02*
X337322D01*
X318800Y687000D02*
X321078Y684722D01*
Y683567D02*
X321748Y682897D01*
X330402D02*
X330577Y683072D01*
X337322D02*
X338250Y684000D01*
X321078Y683567D02*
Y684722D01*
X321748Y682897D02*
X330402D01*
X337322Y739929D02*
X338250Y739000D01*
X330402Y740103D02*
X330577Y739929D01*
X337322D01*
X318800Y736000D02*
X321078Y738279D01*
Y739433D02*
X321748Y740103D01*
X330402D01*
X321078Y738279D02*
Y739433D01*
X330577Y743072D02*
X337322D01*
X318800Y747000D02*
X321078Y744722D01*
Y743567D02*
X321748Y742897D01*
X330402D02*
X330577Y743072D01*
X337322D02*
X338250Y744000D01*
X321078Y743567D02*
Y744722D01*
X321748Y742897D02*
X330402D01*
X337322Y769929D02*
X338250Y769000D01*
X330402Y770103D02*
X330577Y769929D01*
X337322D01*
X318800Y766000D02*
X321078Y768279D01*
Y769433D02*
X321748Y770103D01*
X330402D01*
X321078Y768279D02*
Y769433D01*
X330577Y773072D02*
X337322D01*
X318800Y777000D02*
X321078Y774722D01*
Y773567D02*
X321748Y772897D01*
X330402D02*
X330577Y773072D01*
X337322D02*
X338250Y774000D01*
X321078Y773567D02*
Y774722D01*
X321748Y772897D02*
X330402D01*
X321748Y712897D02*
X330402D01*
X321078Y713567D02*
Y714722D01*
X337322Y713072D02*
X338250Y714000D01*
X330402Y712897D02*
X330577Y713072D01*
X321078Y713567D02*
X321748Y712897D01*
X318800Y717000D02*
X321078Y714722D01*
X330577Y713072D02*
X337322D01*
X321078Y708279D02*
Y709433D01*
X321748Y710103D02*
X330402D01*
X321078Y709433D02*
X321748Y710103D01*
X318800Y706000D02*
X321078Y708279D01*
X330577Y709929D02*
X337322D01*
X330402Y710103D02*
X330577Y709929D01*
X337322D02*
X338250Y709000D01*
X363129Y665103D02*
X366500D01*
X361573Y663547D02*
X363129Y665103D01*
X361573Y659923D02*
Y663547D01*
X360018Y658367D02*
X361573Y659923D01*
X356906Y658367D02*
X360018D01*
X355350Y659923D02*
X356906Y658367D01*
X355350Y659923D02*
Y663547D01*
X353795Y665103D02*
X355350Y663547D01*
X347000Y665103D02*
X353795D01*
X366500D02*
X378500D01*
X346098D02*
X347000D01*
X345924Y664929D02*
X346098Y665103D01*
X339179Y664929D02*
X345924D01*
X945103Y413054D02*
Y431724D01*
X947897Y411897D02*
Y431724D01*
X1015000Y669398D02*
Y711224D01*
X1017794Y668241D02*
Y711224D01*
X1002260Y721308D02*
X1014397Y733446D01*
X1002260Y676260D02*
Y721308D01*
X860000Y534000D02*
X1002260Y676260D01*
X999465Y677417D02*
Y722466D01*
X1011603Y734603D01*
X857206Y535157D02*
X999465Y677417D01*
X1019762Y713192D02*
Y713862D01*
X1017794Y711224D02*
X1019762Y713192D01*
X1013031D02*
Y713862D01*
Y713192D02*
X1015000Y711224D01*
X985224Y716500D02*
X987192Y718468D01*
X985224Y713706D02*
X987192Y711738D01*
X987862D01*
X987192Y718468D02*
X987862D01*
X573433Y623000D02*
X585203D01*
X570240Y626192D02*
X573433Y623000D01*
X570240Y626192D02*
Y635573D01*
X568684Y637129D02*
X570240Y635573D01*
X565573Y637129D02*
X568684D01*
X564017Y635573D02*
X565573Y637129D01*
X564017Y625177D02*
Y635573D01*
X560825Y621984D02*
X564017Y625177D01*
X555398Y621984D02*
X560825D01*
X552206Y625177D02*
X555398Y621984D01*
X552206Y625177D02*
Y635573D01*
X550650Y637129D02*
X552206Y635573D01*
X547539Y637129D02*
X550650D01*
X545983Y635573D02*
X547539Y637129D01*
X545983Y625177D02*
Y635573D01*
X542791Y621984D02*
X545983Y625177D01*
X537365Y621984D02*
X542791D01*
X534172Y625177D02*
X537365Y621984D01*
X534172Y625177D02*
Y635573D01*
X532616Y637129D02*
X534172Y635573D01*
X529505Y637129D02*
X532616D01*
X527949Y635573D02*
X529505Y637129D01*
X527949Y626192D02*
Y635573D01*
X524757Y623000D02*
X527949Y626192D01*
X522209Y623000D02*
X524757D01*
X574590Y625794D02*
X585203D01*
X573034Y627350D02*
X574590Y625794D01*
X573034Y627350D02*
Y636730D01*
X569842Y639923D02*
X573034Y636730D01*
X564416Y639923D02*
X569842D01*
X561223Y636730D02*
X564416Y639923D01*
X561223Y626334D02*
Y636730D01*
X559667Y624778D02*
X561223Y626334D01*
X556556Y624778D02*
X559667D01*
X555000Y626334D02*
X556556Y624778D01*
X555000Y626334D02*
Y636730D01*
X551808Y639923D02*
X555000Y636730D01*
X546381Y639923D02*
X551808D01*
X543189Y636730D02*
X546381Y639923D01*
X543189Y626334D02*
Y636730D01*
X541633Y624778D02*
X543189Y626334D01*
X538522Y624778D02*
X541633D01*
X536966Y626334D02*
X538522Y624778D01*
X536966Y626334D02*
Y636730D01*
X533774Y639923D02*
X536966Y636730D01*
X528348Y639923D02*
X533774D01*
X525155Y636730D02*
X528348Y639923D01*
X525155Y627350D02*
Y636730D01*
X523599Y625794D02*
X525155Y627350D01*
X522209Y625794D02*
X523599D01*
X585203Y623000D02*
X624898D01*
X585203Y625794D02*
X623741D01*
X517147Y623000D02*
X522209D01*
X515990Y625794D02*
X522209D01*
X407343Y808794D02*
X527759D01*
X387603Y785103D02*
X408500Y806000D01*
X386446Y787897D02*
X407343Y808794D01*
X526602Y806000D02*
X563896Y768706D01*
X527759Y808794D02*
X565053Y771500D01*
X408500Y806000D02*
X526602D01*
X563896Y768706D02*
X570615D01*
X565053Y771500D02*
X570615D01*
X394468Y759865D02*
X395138D01*
X392500Y757897D02*
X394468Y759865D01*
X338250Y759000D02*
X339179Y758072D01*
X345924D01*
X346098Y757897D01*
X392500D01*
X394468Y753135D02*
X395138D01*
X352492Y755103D02*
X354048Y753547D01*
X360271D02*
X361827Y755103D01*
X346098D02*
X352492D01*
X366198D02*
X392500D01*
X361827D02*
X366198D01*
X345924Y754929D02*
X346098Y755103D01*
X345698Y754929D02*
X345924D01*
X339179D02*
X345698D01*
X338250Y754000D02*
X339179Y754929D01*
X392500Y755103D02*
X394468Y753135D01*
X360271Y752446D02*
Y753547D01*
X358716Y750890D02*
X360271Y752446D01*
X354048D02*
Y753547D01*
X355604Y750890D02*
X358716D01*
X354048Y752446D02*
X355604Y750890D01*
X357968Y729865D02*
X358638D01*
X338250Y729000D02*
X339179Y728072D01*
X345924D01*
X356000Y727897D02*
X357968Y729865D01*
X345924Y728072D02*
X346098Y727897D01*
X356000D01*
X346098Y725103D02*
X356000D01*
X339179Y724929D02*
X345924D01*
X357968Y723135D02*
X358638D01*
X356000Y725103D02*
X357968Y723135D01*
X345924Y724929D02*
X346098Y725103D01*
X338250Y724000D02*
X339179Y724929D01*
X381629Y785103D02*
X386452D01*
X380073Y783547D02*
X381629Y785103D01*
X380073Y782227D02*
Y783547D01*
X378518Y780671D02*
X380073Y782227D01*
X375406Y780671D02*
X378518D01*
X373850Y782227D02*
X375406Y780671D01*
X373850Y782227D02*
Y783547D01*
X372295Y785103D02*
X373850Y783547D01*
X365500Y785103D02*
X372295D01*
X386452D02*
X387603D01*
X346098D02*
X365500D01*
X943135Y433692D02*
X945103Y431724D01*
X943135Y433692D02*
Y434362D01*
X947897Y431724D02*
X949865Y433692D01*
Y434362D01*
X966603Y705554D02*
Y717724D01*
X964634Y719692D02*
X966603Y717724D01*
X964634Y719692D02*
Y720362D01*
X969397Y704397D02*
Y717724D01*
X971365Y719692D01*
Y720362D01*
X839843Y484206D02*
X911157D01*
X841000Y487000D02*
X910000D01*
X911157Y484206D02*
X916500Y489549D01*
X910000Y487000D02*
X913706Y490706D01*
Y493657D01*
X916500Y489549D02*
Y492500D01*
X913706Y493657D02*
X920843Y500794D01*
X916500Y492500D02*
X922000Y498000D01*
X920843Y500794D02*
X930657D01*
X922000Y498000D02*
X929500D01*
X930657Y500794D02*
X934000Y497451D01*
X929500Y498000D02*
X931206Y496294D01*
X929238Y491138D02*
Y491808D01*
X935968Y491138D02*
Y491808D01*
X929238D02*
X931206Y493776D01*
X934000D02*
X935968Y491808D01*
X931206Y493776D02*
Y496294D01*
X934000Y493776D02*
Y497451D01*
X898238Y494138D02*
Y494808D01*
X900206Y496776D01*
Y499794D01*
X899000Y501000D02*
X900206Y499794D01*
X904968Y494138D02*
Y494808D01*
X903000Y496776D02*
X904968Y494808D01*
X903000Y496776D02*
Y500951D01*
X900157Y503794D02*
X903000Y500951D01*
X845706Y499294D02*
X887843D01*
X844549Y496500D02*
X889000D01*
X887843Y499294D02*
X892343Y503794D01*
X889000Y496500D02*
X893500Y501000D01*
X892343Y503794D02*
X900157D01*
X893500Y501000D02*
X899000D01*
X880206Y510276D02*
Y515157D01*
X883000Y510276D02*
Y514000D01*
X880206Y515157D02*
X1008706Y643657D01*
X883000Y514000D02*
X1011500Y642500D01*
X860000Y510276D02*
X861969Y508308D01*
Y507638D02*
Y508308D01*
X855238Y507638D02*
Y508308D01*
X857206Y510276D01*
X884968Y507638D02*
Y508308D01*
X878238Y507638D02*
Y508308D01*
X880206Y510276D01*
X883000D02*
X884968Y508308D01*
X1008706Y643657D02*
Y663104D01*
X1015000Y669398D01*
X1011500Y642500D02*
Y661947D01*
X1017794Y668241D01*
X860000Y510276D02*
Y534000D01*
X857206Y510276D02*
Y535157D01*
X1009635Y751192D02*
Y751862D01*
Y751192D02*
X1011603Y749224D01*
Y734603D02*
Y749224D01*
X1014397Y733446D02*
Y749224D01*
X1016366Y751192D02*
Y751862D01*
X1014397Y749224D02*
X1016366Y751192D01*
X902635Y397692D02*
X904603Y395724D01*
X903343Y393294D02*
X904603Y394554D01*
X902635Y397692D02*
Y398362D01*
X904603Y394554D02*
Y395724D01*
X886343Y393294D02*
X903343D01*
X881603Y388554D02*
X886343Y393294D01*
X881603Y377853D02*
Y388554D01*
X878500Y374750D02*
X881603Y377853D01*
X909365Y397692D02*
Y398362D01*
X907397Y395724D02*
X909365Y397692D01*
X907397Y393397D02*
Y395724D01*
X904500Y390500D02*
X907397Y393397D01*
X887500Y390500D02*
X904500D01*
X884397Y377853D02*
Y387397D01*
X887500Y390500D01*
X884397Y377853D02*
X887500Y374750D01*
X675940Y768706D02*
X686338D01*
X672747Y771898D02*
X675940Y768706D01*
X672747Y771898D02*
Y778921D01*
X671192Y780477D02*
X672747Y778921D01*
X668080Y780477D02*
X671192D01*
X666524Y778921D02*
X668080Y780477D01*
X666524Y771756D02*
Y778921D01*
X663332Y768564D02*
X666524Y771756D01*
X657906Y768564D02*
X663332D01*
X654713Y771756D02*
X657906Y768564D01*
X654713Y771756D02*
Y778921D01*
X653158Y780477D02*
X654713Y778921D01*
X650046Y780477D02*
X653158D01*
X648490Y778921D02*
X650046Y780477D01*
X648490Y771756D02*
Y778921D01*
X645298Y768564D02*
X648490Y771756D01*
X639872Y768564D02*
X645298D01*
X636679Y771756D02*
X639872Y768564D01*
X636679Y771756D02*
Y778921D01*
X635124Y780477D02*
X636679Y778921D01*
X632012Y780477D02*
X635124D01*
X630456Y778921D02*
X632012Y780477D01*
X630456Y771756D02*
Y778921D01*
X627264Y768564D02*
X630456Y771756D01*
X621838Y768564D02*
X627264D01*
X618645Y771756D02*
X621838Y768564D01*
X618645Y771756D02*
Y778921D01*
X617090Y780477D02*
X618645Y778921D01*
X613978Y780477D02*
X617090D01*
X612422Y778921D02*
X613978Y780477D01*
X612422Y771756D02*
Y778921D01*
X609230Y768564D02*
X612422Y771756D01*
X603804Y768564D02*
X609230D01*
X600611Y771756D02*
X603804Y768564D01*
X600611Y771756D02*
Y778921D01*
X599056Y780477D02*
X600611Y778921D01*
X595944Y780477D02*
X599056D01*
X594388Y778921D02*
X595944Y780477D01*
X594388Y771756D02*
Y778921D01*
X591196Y768564D02*
X594388Y771756D01*
X585770Y768564D02*
X591196D01*
X582577Y771756D02*
X585770Y768564D01*
X582577Y771756D02*
Y778921D01*
X581022Y780477D02*
X582577Y778921D01*
X577910Y780477D02*
X581022D01*
X576354Y778921D02*
X577910Y780477D01*
X576354Y771898D02*
Y778921D01*
X573162Y768706D02*
X576354Y771898D01*
X570615Y768706D02*
X573162D01*
X677097Y771500D02*
X686338D01*
X675541Y773056D02*
X677097Y771500D01*
X675541Y773056D02*
Y780078D01*
X672349Y783271D02*
X675541Y780078D01*
X666923Y783271D02*
X672349D01*
X663730Y780078D02*
X666923Y783271D01*
X663730Y772913D02*
Y780078D01*
X662175Y771358D02*
X663730Y772913D01*
X659063Y771358D02*
X662175D01*
X657507Y772913D02*
X659063Y771358D01*
X657507Y772913D02*
Y780078D01*
X654315Y783271D02*
X657507Y780078D01*
X648889Y783271D02*
X654315D01*
X645696Y780078D02*
X648889Y783271D01*
X645696Y772913D02*
Y780078D01*
X644141Y771358D02*
X645696Y772913D01*
X641029Y771358D02*
X644141D01*
X639473Y772913D02*
X641029Y771358D01*
X639473Y772913D02*
Y780078D01*
X636281Y783271D02*
X639473Y780078D01*
X630855Y783271D02*
X636281D01*
X627662Y780078D02*
X630855Y783271D01*
X627662Y772913D02*
Y780078D01*
X626107Y771358D02*
X627662Y772913D01*
X622995Y771358D02*
X626107D01*
X621439Y772913D02*
X622995Y771358D01*
X621439Y772913D02*
Y780078D01*
X618247Y783271D02*
X621439Y780078D01*
X612821Y783271D02*
X618247D01*
X609628Y780078D02*
X612821Y783271D01*
X609628Y772913D02*
Y780078D01*
X608073Y771358D02*
X609628Y772913D01*
X604961Y771358D02*
X608073D01*
X603405Y772913D02*
X604961Y771358D01*
X603405Y772913D02*
Y780078D01*
X600213Y783271D02*
X603405Y780078D01*
X594787Y783271D02*
X600213D01*
X591594Y780078D02*
X594787Y783271D01*
X591594Y772913D02*
Y780078D01*
X590039Y771358D02*
X591594Y772913D01*
X586927Y771358D02*
X590039D01*
X585371Y772913D02*
X586927Y771358D01*
X585371Y772913D02*
Y780078D01*
X582179Y783271D02*
X585371Y780078D01*
X576753Y783271D02*
X582179D01*
X573560Y780078D02*
X576753Y783271D01*
X573560Y773056D02*
Y780078D01*
X572005Y771500D02*
X573560Y773056D01*
X570615Y771500D02*
X572005D01*
X686338Y768706D02*
X692294D01*
X686338Y771500D02*
X693451D01*
X624898Y623000D02*
X661897Y659999D01*
Y662832D01*
X659103Y661156D02*
Y662832D01*
X623741Y625794D02*
X659103Y661156D01*
X380468Y669865D02*
X381138D01*
X378500Y667897D02*
X380468Y669865D01*
X345924Y668072D02*
X346098Y667897D01*
X378500D01*
X338250Y669000D02*
X339179Y668072D01*
X345924D01*
X380468Y663135D02*
X381138D01*
X378500Y665103D02*
X380468Y663135D01*
X338250Y664000D02*
X339179Y664929D01*
X338250Y789000D02*
X339179Y788072D01*
X345924D01*
X346098Y787897D01*
X386446D01*
X339179Y784929D02*
X345924D01*
X346098Y785103D01*
X338250Y784000D02*
X339179Y784929D01*
X699635Y733862D02*
Y734531D01*
X701603Y736500D01*
Y759397D01*
X706366Y733862D02*
Y734531D01*
X704397Y736500D02*
X706366Y734531D01*
X704397Y736500D02*
Y760554D01*
X693451Y771500D02*
X704397Y760554D01*
X692294Y768706D02*
X701603Y759397D01*
X486853Y566406D02*
Y570000D01*
X485297Y564850D02*
X486853Y566406D01*
X484064Y564850D02*
X485297D01*
X482508Y563295D02*
X484064Y564850D01*
X482508Y560183D02*
Y563295D01*
Y560183D02*
X484064Y558627D01*
X485297D01*
X486853Y557072D01*
Y556500D02*
Y557072D01*
Y570000D02*
Y574752D01*
Y475353D02*
Y556500D01*
X489647Y474196D02*
Y574752D01*
Y591865D02*
Y595500D01*
X517147Y623000D01*
X489647Y591865D02*
X489647Y591865D01*
X490722Y589579D02*
X493000Y587300D01*
X490317Y589579D02*
X490722D01*
X489647Y590248D02*
Y591865D01*
Y590248D02*
X490317Y589579D01*
X486853Y593022D02*
Y596657D01*
X515990Y625794D01*
X486853Y593022D02*
X486853Y593022D01*
X486853Y590248D02*
Y593022D01*
X486183Y589579D02*
X486853Y590248D01*
X483500Y587300D02*
X485779Y589579D01*
X486183D01*
X661897Y662832D02*
X663866Y664800D01*
X657135D02*
Y665470D01*
Y664800D02*
X659103Y662832D01*
X663866Y664800D02*
Y665470D01*
X462074Y452328D02*
X462348Y452603D01*
X468054D01*
X455328Y452328D02*
X462074D01*
X454500Y451500D02*
X455328Y452328D01*
X454500Y456500D02*
X455328Y455672D01*
X462074D01*
X462348Y455397D02*
X466897D01*
X462074Y455672D02*
X462348Y455397D01*
X466897D02*
X486853Y475353D01*
X468054Y452603D02*
X489647Y474196D01*
X486183Y575421D02*
X486853Y574752D01*
X485779Y575421D02*
X486183D01*
X483500Y577700D02*
X485779Y575421D01*
X489647Y574752D02*
X490317Y575421D01*
X490722D01*
X493000Y577700D01*
D206*
X525250Y579300D02*
X525500D01*
X520000Y587300D02*
X520583Y586717D01*
X429500Y647500D02*
X432000Y650000D01*
Y668500D02*
X438000Y674500D01*
X432000Y650000D02*
Y668500D01*
X446800Y677800D02*
Y686000D01*
X443500Y674500D02*
X446800Y677800D01*
X438000Y674500D02*
X443500D01*
D207*
X544045Y477545D02*
X682911Y616411D01*
X757104D02*
X854847Y714153D01*
X682911Y616411D02*
X757104D01*
X755411Y620500D02*
X851955Y717045D01*
X681217Y620500D02*
X755411D01*
X539955Y479239D02*
X681217Y620500D01*
X764000Y600500D02*
X867750Y704250D01*
X683440Y596411D02*
X765694D01*
X870642Y701358D01*
X564045Y477016D02*
X683440Y596411D01*
X867750Y704250D02*
X891795Y728295D01*
X681746Y600500D02*
X764000D01*
X559955Y478710D02*
X681746Y600500D01*
X851955Y717045D02*
X878955Y744045D01*
X785585Y595802D02*
X791996D01*
X707000Y577000D02*
X766783D01*
X785585Y595802D01*
X705306Y581089D02*
X765089D01*
X783892Y599892D01*
X790302D01*
X884455Y694045D01*
X904750Y714339D01*
X668306Y544089D02*
X705306Y581089D01*
X670000Y540000D02*
X707000Y577000D01*
X645135Y544089D02*
X668306D01*
X646829Y540000D02*
X670000D01*
X786414Y585698D02*
X797324D01*
X788108Y581608D02*
X798866D01*
X761306Y560589D02*
X786414Y585698D01*
X763000Y556500D02*
X788108Y581608D01*
X715806Y560589D02*
X761306D01*
X717500Y556500D02*
X763000D01*
X686806Y531589D02*
X715806Y560589D01*
X688500Y527500D02*
X717500Y556500D01*
X652835Y531589D02*
X686806D01*
X654529Y527500D02*
X688500D01*
X604045Y477016D02*
X654529Y527500D01*
X799470Y582061D02*
X935000Y717591D01*
X799318Y582061D02*
X799470D01*
X798866Y581608D02*
X799318Y582061D01*
X791996Y595802D02*
X887347Y691153D01*
X904750Y714339D02*
Y715033D01*
X908839Y712645D02*
Y715033D01*
X910160Y716354D02*
Y717447D01*
X908839Y715033D02*
X910160Y716354D01*
X903429D02*
Y717447D01*
Y716354D02*
X904750Y715033D01*
X897205Y732980D02*
Y734073D01*
X895884Y731659D02*
X897205Y732980D01*
X890474D02*
Y734073D01*
Y732980D02*
X891795Y731659D01*
X877679Y749321D02*
X879000Y748000D01*
X877679Y749321D02*
Y750414D01*
X883089Y748000D02*
X884410Y749321D01*
Y750414D01*
X797324Y585698D02*
X930911Y719285D01*
X544045Y475327D02*
Y477545D01*
X539955Y475327D02*
Y479239D01*
X544045Y475327D02*
X545365Y474007D01*
X538634D02*
X539955Y475327D01*
X538634Y472914D02*
Y474007D01*
X545365Y472914D02*
Y474007D01*
X584045Y477216D02*
X646829Y540000D01*
X579955Y478910D02*
X645135Y544089D01*
X599955Y478710D02*
X652835Y531589D01*
X598634Y474007D02*
X599955Y475327D01*
X565365Y472914D02*
Y474007D01*
X604045Y475327D02*
Y477016D01*
X578634Y473114D02*
Y474207D01*
X585365Y473114D02*
Y474207D01*
X559955Y475327D02*
Y478710D01*
X558634Y472914D02*
Y474007D01*
X564045Y475327D02*
Y477016D01*
X579955Y475527D02*
Y478910D01*
X578634Y474207D02*
X579955Y475527D01*
X584045D02*
Y477216D01*
X564045Y475327D02*
X565365Y474007D01*
X604045Y475327D02*
X605365Y474007D01*
Y472914D02*
Y474007D01*
X599955Y475327D02*
Y478710D01*
X598634Y472914D02*
Y474007D01*
X558634D02*
X559955Y475327D01*
X584045Y475527D02*
X585365Y474207D01*
X935000Y730552D02*
Y734500D01*
Y730552D02*
X936213Y729339D01*
X942275D01*
X943488Y728126D01*
Y725701D02*
Y728126D01*
X942275Y724488D02*
X943488Y725701D01*
X936213Y724488D02*
X942275D01*
X935000Y723275D02*
X936213Y724488D01*
X935000Y717903D02*
Y723275D01*
Y734500D02*
Y735694D01*
Y717591D02*
Y717903D01*
Y735694D02*
X942414Y743108D01*
X903152Y706958D02*
X904140Y707946D01*
X903152Y705243D02*
Y706958D01*
Y705243D02*
X904901Y703495D01*
Y701780D02*
Y703495D01*
X903185Y700064D02*
X904901Y701780D01*
X901470Y700064D02*
X903185D01*
X899652Y701882D02*
X901470Y700064D01*
X897937Y701882D02*
X899652D01*
X896222Y700167D02*
X897937Y701882D01*
X896222Y698452D02*
Y700167D01*
Y698452D02*
X898040Y696634D01*
Y694919D02*
Y696634D01*
X896324Y693203D02*
X898040Y694919D01*
X894609Y693203D02*
X896324D01*
X892861Y694952D02*
X894609Y693203D01*
X891146Y694952D02*
X892861D01*
X887347Y691153D02*
X891146Y694952D01*
X904140Y707946D02*
X908839Y712645D01*
X886447Y717164D02*
X887892Y718608D01*
X886447Y715449D02*
Y717164D01*
Y715449D02*
X887920Y713976D01*
Y712260D02*
Y713976D01*
X886205Y710545D02*
X887920Y712260D01*
X884489Y710545D02*
X886205D01*
X882795Y712239D02*
X884489Y710545D01*
X881080Y712239D02*
X882795D01*
X879365Y710524D02*
X881080Y712239D01*
X879365Y708809D02*
Y710524D01*
Y708809D02*
X881059Y707115D01*
Y705399D02*
Y707115D01*
X879344Y703684D02*
X881059Y705399D01*
X877628Y703684D02*
X879344D01*
X876156Y705157D02*
X877628Y703684D01*
X874440Y705157D02*
X876156D01*
X870642Y701358D02*
X874440Y705157D01*
X870652Y729958D02*
X873347Y732653D01*
X870652Y728243D02*
Y729958D01*
Y728243D02*
X872217Y726678D01*
Y724963D02*
Y726678D01*
X870502Y723248D02*
X872217Y724963D01*
X868787Y723248D02*
X870502D01*
X867119Y724916D02*
X868787Y723248D01*
X865403Y724916D02*
X867119D01*
X863688Y723201D02*
X865403Y724916D01*
X863688Y721486D02*
Y723201D01*
Y721486D02*
X865356Y719817D01*
Y718102D02*
Y719817D01*
X863641Y716387D02*
X865356Y718102D01*
X861926Y716387D02*
X863641D01*
X860361Y717952D02*
X861926Y716387D01*
X858646Y717952D02*
X860361D01*
X854847Y714153D02*
X858646Y717952D01*
X887892Y718608D02*
X895884Y726601D01*
X873347Y732653D02*
X883089Y742395D01*
X942414Y743108D02*
X949302D01*
X940721Y747198D02*
X950996D01*
X930911Y737388D02*
X940721Y747198D01*
X930911Y719285D02*
Y737388D01*
X879000Y744000D02*
Y748000D01*
X950996Y747198D02*
X955045Y743149D01*
X949302Y743108D02*
X950955Y741455D01*
X955045Y738500D02*
Y743149D01*
X950955Y738500D02*
Y741455D01*
X949634Y736086D02*
Y737179D01*
X950955Y738500D01*
X956366Y736086D02*
Y737179D01*
X955045Y738500D02*
X956366Y737179D01*
X891795Y728295D02*
Y731659D01*
X895884Y726601D02*
Y731659D01*
X883089Y742395D02*
Y748000D01*
D208*
X655500Y841500D02*
X662500Y848500D01*
X721950D02*
X733950Y836500D01*
X662500Y848500D02*
X721950D01*
X656950Y838000D02*
X663450Y844500D01*
X721000D02*
X732500Y833000D01*
X663450Y844500D02*
X721000D01*
X515526Y491526D02*
X518000Y494000D01*
X515526Y477474D02*
X516000Y477000D01*
X515526Y477474D02*
Y491526D01*
X518000Y494000D02*
X528500D01*
X1219450Y848500D02*
X1249000Y818950D01*
X1218000Y845000D02*
X1245500Y817500D01*
X1199050Y848500D02*
X1219450D01*
X1200500Y845000D02*
X1218000D01*
X1191550Y841000D02*
X1199050Y848500D01*
X1193000Y837500D02*
X1200500Y845000D01*
X419500Y834000D02*
X435000Y849500D01*
X447550D01*
X539750Y879500D02*
X581250Y838000D01*
X656950D01*
X541200Y883000D02*
X582700Y841500D01*
X655500D01*
X1200500Y668000D02*
X1210000Y677500D01*
Y707000D01*
X1245500Y742500D01*
X1215000Y671000D02*
Y707050D01*
X1191000Y647000D02*
X1215000Y671000D01*
Y707050D02*
X1249000Y741050D01*
Y818950D01*
X1245500Y742500D02*
Y817500D01*
X1089000Y837500D02*
X1193000D01*
X1090450Y841000D02*
X1191550D01*
X1077450Y854000D02*
X1090450Y841000D01*
X1076000Y850500D02*
X1089000Y837500D01*
X1039050Y854000D02*
X1077450D01*
X1040500Y850500D02*
X1076000D01*
X1027050Y842000D02*
X1039050Y854000D01*
X838950Y842000D02*
X1027050D01*
X840400Y838500D02*
X1028500D01*
X1040500Y850500D01*
X834900Y833000D02*
X840400Y838500D01*
X833450Y836500D02*
X838950Y842000D01*
X732500Y833000D02*
X834900D01*
X733950Y836500D02*
X833450D01*
X470550Y883000D02*
X541200D01*
X472000Y879500D02*
X539750D01*
X456000Y868450D02*
X470550Y883000D01*
X459500Y867000D02*
X472000Y879500D01*
X456000Y857950D02*
Y868450D01*
X459500Y856500D02*
Y867000D01*
X447550Y849500D02*
X456000Y857950D01*
X449000Y846000D02*
X459500Y856500D01*
X441500Y846000D02*
X449000D01*
X429250Y833750D02*
X441500Y846000D01*
D209*
X365500Y931500D02*
D03*
X1184651Y931500D02*
D03*
X350000Y226500D02*
D03*
X1156451Y226500D02*
D03*
D210*
X391000Y806500D02*
D03*
D211*
X728499Y356350D02*
D03*
X736499D02*
D03*
X708499Y349350D02*
D03*
X716499D02*
D03*
X748499D02*
D03*
X756499D02*
D03*
X720499Y356350D02*
D03*
X744499D02*
D03*
X712499D02*
D03*
X752499D02*
D03*
X704499D02*
D03*
X760499D02*
D03*
X724499Y349350D02*
D03*
X740499D02*
D03*
X910000Y333500D02*
D03*
X874000D02*
D03*
X892080D02*
D03*
X856000D02*
D03*
Y367000D02*
D03*
X892080D02*
D03*
X874000D02*
D03*
X910000D02*
D03*
X869500Y374750D02*
D03*
X860500D02*
D03*
X905500Y341250D02*
D03*
X896500D02*
D03*
X887500Y374750D02*
D03*
X878500D02*
D03*
X905500D02*
D03*
X896500D02*
D03*
X869500Y341250D02*
D03*
X860500D02*
D03*
X887500D02*
D03*
X878500D02*
D03*
D212*
X775199Y344850D02*
D03*
X689799D02*
D03*
X775199Y297550D02*
D03*
X689799D02*
D03*
D213*
X613750Y274000D02*
D03*
X505250D02*
D03*
D214*
X613750Y319000D02*
D03*
X505250D02*
D03*
D215*
X396200Y384250D02*
D03*
Y396750D02*
D03*
Y409250D02*
D03*
Y421750D02*
D03*
D216*
X896200Y857000D02*
D03*
X367600Y874000D02*
D03*
D217*
X870800Y857000D02*
D03*
X432750Y725000D02*
D03*
X393000Y874000D02*
D03*
X418400D02*
D03*
D218*
X828000Y343500D02*
D03*
X938000D02*
D03*
D219*
X831000Y288500D02*
D03*
X935000D02*
D03*
D220*
X1139768Y390000D02*
D03*
X1297332D02*
D03*
D221*
X1163940Y496700D02*
D03*
X1273240D02*
D03*
X1189340D02*
D03*
X1247840D02*
D03*
D222*
X1161400Y359500D02*
D03*
X1275700D02*
D03*
D223*
Y423000D02*
D03*
D224*
X311000Y398500D02*
D03*
D225*
X360000Y369000D02*
D03*
D226*
X311000Y338500D02*
D03*
D227*
X1120750Y725000D02*
D03*
D228*
X272500Y618250D02*
D03*
Y660750D02*
D03*
Y692750D02*
D03*
Y735250D02*
D03*
D229*
X304800Y864360D02*
D03*
X304800Y294640D02*
D03*
X1265700Y864360D02*
D03*
X1265700Y294640D02*
D03*
D230*
X505750Y349000D02*
D03*
Y549000D02*
D03*
D231*
X1173850Y706500D02*
D03*
X376500Y600000D02*
D03*
Y624000D02*
D03*
Y616000D02*
D03*
X970000Y534500D02*
D03*
X948000D02*
D03*
X1030000Y560500D02*
D03*
X1038636Y536300D02*
D03*
X1024000Y560500D02*
D03*
X1012000D02*
D03*
X767443Y329369D02*
D03*
X718615Y453368D02*
D03*
X740869Y442788D02*
D03*
X760712Y329369D02*
D03*
X711885Y453368D02*
D03*
X740869Y436057D02*
D03*
X743369Y416557D02*
D03*
X690884Y453368D02*
D03*
X697616D02*
D03*
X743369Y423288D02*
D03*
X707500Y424000D02*
D03*
X762500Y405500D02*
D03*
Y383000D02*
D03*
X739288Y704131D02*
D03*
X732557D02*
D03*
X714469Y665138D02*
D03*
X707738D02*
D03*
X461500Y723000D02*
D03*
X519000Y702500D02*
D03*
X323500Y697000D02*
D03*
X697000Y405000D02*
D03*
X675000Y389500D02*
D03*
X616000Y405130D02*
D03*
X633500Y408000D02*
D03*
X680000Y379500D02*
D03*
X673000D02*
D03*
X571000Y569500D02*
D03*
X580000Y571000D02*
D03*
X475000Y651000D02*
D03*
Y643000D02*
D03*
X397500Y554500D02*
D03*
Y548500D02*
D03*
Y535500D02*
D03*
Y528000D02*
D03*
X398000Y509000D02*
D03*
X1045462Y564200D02*
D03*
X675000Y856500D02*
D03*
X1027500Y857500D02*
D03*
X1268000Y701000D02*
D03*
X1008000Y629000D02*
D03*
X1036500Y599000D02*
D03*
X1050500Y595000D02*
D03*
X605500Y490500D02*
D03*
X608500Y495000D02*
D03*
X601500Y486500D02*
D03*
X560000Y592000D02*
D03*
X557500Y601000D02*
D03*
X561000Y587000D02*
D03*
X547000Y576500D02*
D03*
X503500Y586675D02*
D03*
X680000Y371500D02*
D03*
X672500D02*
D03*
X745001Y379501D02*
D03*
X735865Y384632D02*
D03*
X729134D02*
D03*
X715000Y387500D02*
D03*
X738500Y411000D02*
D03*
X573999Y564999D02*
D03*
X579500Y565500D02*
D03*
X729000Y672500D02*
D03*
X677000Y583000D02*
D03*
X801000Y578000D02*
D03*
X608000Y668000D02*
D03*
X1005500Y778000D02*
D03*
X960500Y730000D02*
D03*
X949500Y781500D02*
D03*
X911000Y780500D02*
D03*
X931500Y781500D02*
D03*
X764924Y543924D02*
D03*
X849500Y669000D02*
D03*
X779424Y529424D02*
D03*
X714250Y590250D02*
D03*
X548000Y500500D02*
D03*
X694000Y644000D02*
D03*
X676366Y732862D02*
D03*
X669635D02*
D03*
X661366Y747191D02*
D03*
X654634D02*
D03*
X744702Y548202D02*
D03*
X393500Y678500D02*
D03*
X391000Y704500D02*
D03*
X786366Y735362D02*
D03*
X386138Y699865D02*
D03*
X779634Y735362D02*
D03*
X386138Y693135D02*
D03*
X631500Y713000D02*
D03*
X618000Y725000D02*
D03*
X624640Y722418D02*
D03*
X300362Y744865D02*
D03*
X624640Y715687D02*
D03*
X300362Y738135D02*
D03*
X778866Y718638D02*
D03*
X505138Y712763D02*
D03*
X300362Y684865D02*
D03*
X772134Y718638D02*
D03*
X505138Y706031D02*
D03*
X300362Y678135D02*
D03*
X757134Y709638D02*
D03*
X537638Y705738D02*
D03*
X300362Y708135D02*
D03*
X763866Y709638D02*
D03*
X537638Y712468D02*
D03*
X300362Y714865D02*
D03*
X681500Y728000D02*
D03*
X664000Y728500D02*
D03*
X531000Y703000D02*
D03*
X534500Y719000D02*
D03*
X499000Y702500D02*
D03*
X498500Y715500D02*
D03*
X354000Y689000D02*
D03*
X361500Y779000D02*
D03*
X1020500Y778000D02*
D03*
X990500Y753000D02*
D03*
X975500Y778000D02*
D03*
X393000Y694500D02*
D03*
X489000Y754500D02*
D03*
X845500Y781500D02*
D03*
X830500D02*
D03*
X352250Y719000D02*
D03*
X300362Y774865D02*
D03*
Y768135D02*
D03*
X302500Y639500D02*
D03*
X815412Y751517D02*
D03*
X857000Y708500D02*
D03*
X535000Y359000D02*
D03*
X623000Y816500D02*
D03*
X745000Y488000D02*
D03*
X747000Y510000D02*
D03*
Y521000D02*
D03*
X416500Y436000D02*
D03*
X427000Y425500D02*
D03*
X424000Y462000D02*
D03*
Y469000D02*
D03*
X386039Y515914D02*
D03*
X398000Y516000D02*
D03*
X960500Y609000D02*
D03*
X424500Y640000D02*
D03*
X415000Y462000D02*
D03*
X282000Y413500D02*
D03*
X518500Y860500D02*
D03*
X507000Y873000D02*
D03*
X518500D02*
D03*
X786000Y487000D02*
D03*
X839250Y589500D02*
D03*
X287000Y448000D02*
D03*
X294500Y455500D02*
D03*
X287000Y463000D02*
D03*
X302000D02*
D03*
Y448000D02*
D03*
X696500Y520000D02*
D03*
X685500D02*
D03*
X815000Y391000D02*
D03*
X562000Y316500D02*
D03*
X725000Y521000D02*
D03*
X713000Y695500D02*
D03*
X693500Y579500D02*
D03*
X578000Y616500D02*
D03*
X797200Y397500D02*
D03*
X651000Y556500D02*
D03*
X716500Y533000D02*
D03*
Y540500D02*
D03*
X715000Y521000D02*
D03*
X903000Y450000D02*
D03*
X865000Y450500D02*
D03*
X1057500Y427794D02*
D03*
X1024000Y426000D02*
D03*
Y434500D02*
D03*
X1048000Y419000D02*
D03*
X1057500D02*
D03*
X1038500Y409500D02*
D03*
X1048000D02*
D03*
X1057500D02*
D03*
X1046000Y360000D02*
D03*
X1033000D02*
D03*
X698000Y695000D02*
D03*
X753000Y662500D02*
D03*
X761500Y668000D02*
D03*
X783000Y656500D02*
D03*
X958000Y672000D02*
D03*
X1018000Y659000D02*
D03*
X1063000Y669500D02*
D03*
X1078000Y670000D02*
D03*
X1093000Y668000D02*
D03*
X1110500Y668500D02*
D03*
X1097135Y584852D02*
D03*
X1103866D02*
D03*
X1092500Y578983D02*
D03*
X1107500Y578483D02*
D03*
X1086500Y750000D02*
D03*
X1095500Y754000D02*
D03*
X1114250Y777000D02*
D03*
X800500Y753500D02*
D03*
X790500Y753500D02*
D03*
X638000Y295500D02*
D03*
X516000Y477000D02*
D03*
X505250Y493500D02*
D03*
X498500Y480500D02*
D03*
X509000Y412500D02*
D03*
X1212000Y800500D02*
D03*
X1154000Y810000D02*
D03*
X1007794Y719000D02*
D03*
X1026000Y717500D02*
D03*
X1013031Y713862D02*
D03*
X1019762D02*
D03*
X987862Y718468D02*
D03*
Y711738D02*
D03*
X820000Y710000D02*
D03*
X814500Y719500D02*
D03*
X955500Y552500D02*
D03*
X954500Y576500D02*
D03*
X856000Y627500D02*
D03*
X715000Y862500D02*
D03*
X485500Y888500D02*
D03*
X419500Y834000D02*
D03*
X429250Y833750D02*
D03*
X368500Y750000D02*
D03*
X424500Y855500D02*
D03*
X347000Y822500D02*
D03*
X518000Y613000D02*
D03*
X623000Y669500D02*
D03*
X643000Y663000D02*
D03*
X1200500Y668000D02*
D03*
X1191000Y647000D02*
D03*
X429500Y647500D02*
D03*
X428000Y676500D02*
D03*
X508750Y653250D02*
D03*
X590500Y755000D02*
D03*
X580000Y589000D02*
D03*
X655500Y642500D02*
D03*
X439000Y640000D02*
D03*
X418000Y522500D02*
D03*
X630250Y578750D02*
D03*
X528500Y483000D02*
D03*
X718500Y315500D02*
D03*
X709500Y322000D02*
D03*
X635000Y473500D02*
D03*
X635500Y482000D02*
D03*
X518250Y558250D02*
D03*
X498200Y565200D02*
D03*
X848000Y596500D02*
D03*
X609000Y753500D02*
D03*
X602000Y748000D02*
D03*
X617500Y741500D02*
D03*
X634000Y740500D02*
D03*
X642000Y741000D02*
D03*
X629300Y423700D02*
D03*
X615700D02*
D03*
X516500Y429500D02*
D03*
X573800Y594200D02*
D03*
X829000Y589500D02*
D03*
X837500Y597500D02*
D03*
X532000Y470000D02*
D03*
X538634Y472914D02*
D03*
X599905Y552132D02*
D03*
X730418Y665138D02*
D03*
X723687D02*
D03*
X718500Y659500D02*
D03*
X655500Y562500D02*
D03*
X605500Y557000D02*
D03*
X860500Y749500D02*
D03*
X633000Y459500D02*
D03*
X539500Y499000D02*
D03*
X789000Y663500D02*
D03*
X798000Y671000D02*
D03*
X443500Y401500D02*
D03*
X443000Y388000D02*
D03*
X441500Y371500D02*
D03*
X574000Y317000D02*
D03*
X535500Y353000D02*
D03*
X497500Y500000D02*
D03*
X560000Y611500D02*
D03*
X561500Y649500D02*
D03*
X465500Y416500D02*
D03*
Y431500D02*
D03*
Y446500D02*
D03*
X466000Y526500D02*
D03*
X471500Y555500D02*
D03*
Y549000D02*
D03*
X467500Y542500D02*
D03*
X540500Y606000D02*
D03*
X552500Y614500D02*
D03*
X544000D02*
D03*
X532000Y606000D02*
D03*
X516500Y540500D02*
D03*
X613000Y581000D02*
D03*
X606500D02*
D03*
X597200Y567700D02*
D03*
X520000Y587300D02*
D03*
X548000Y571000D02*
D03*
X1171500Y605000D02*
D03*
X1008000Y622500D02*
D03*
X971500Y623000D02*
D03*
Y631000D02*
D03*
X964500Y618000D02*
D03*
X962500Y627500D02*
D03*
X955000Y618000D02*
D03*
X1131500Y542500D02*
D03*
X1029750Y598250D02*
D03*
X1048500Y588500D02*
D03*
X1008500Y578500D02*
D03*
X1000500Y578000D02*
D03*
Y570000D02*
D03*
X1008500D02*
D03*
X1114000Y434500D02*
D03*
X1003500Y393500D02*
D03*
X893519Y750455D02*
D03*
X1064000Y335450D02*
D03*
X1072000Y386000D02*
D03*
X1019000Y343000D02*
D03*
X1024500Y316500D02*
D03*
X981000Y347000D02*
D03*
X999500Y320000D02*
D03*
X628000Y515000D02*
D03*
X644000Y510000D02*
D03*
X688000Y572500D02*
D03*
X394500Y314500D02*
D03*
X374500Y322500D02*
D03*
X406800Y302300D02*
D03*
X951500Y332000D02*
D03*
X974500Y327000D02*
D03*
X947200Y315800D02*
D03*
X538250Y786750D02*
D03*
X550703Y755044D02*
D03*
X403000Y764500D02*
D03*
Y770000D02*
D03*
X404500Y616500D02*
D03*
X406500Y623000D02*
D03*
X399000Y623500D02*
D03*
X390500D02*
D03*
X352500Y734000D02*
D03*
X350000Y749000D02*
D03*
X361000Y805500D02*
D03*
Y797000D02*
D03*
X376500Y608000D02*
D03*
X353000Y832500D02*
D03*
X411000Y850500D02*
D03*
X348000Y857000D02*
D03*
X802500Y347500D02*
D03*
X815274Y337500D02*
D03*
X789726D02*
D03*
X814500Y323500D02*
D03*
X803000Y277500D02*
D03*
X815000Y404000D02*
D03*
X806800Y380300D02*
D03*
X789000Y373000D02*
D03*
X943500Y368000D02*
D03*
X974000Y394500D02*
D03*
X960800Y389800D02*
D03*
X928000Y418500D02*
D03*
X931450Y439550D02*
D03*
X777500Y491500D02*
D03*
X767000Y496000D02*
D03*
Y485000D02*
D03*
X687500Y422000D02*
D03*
X696000Y413500D02*
D03*
X637700Y542800D02*
D03*
X797500Y553500D02*
D03*
X492300Y458200D02*
D03*
X642700Y423950D02*
D03*
X644500Y442250D02*
D03*
X1039000Y892500D02*
D03*
X625500Y384500D02*
D03*
Y359000D02*
D03*
X656000Y342500D02*
D03*
X679700Y334300D02*
D03*
X637500Y304000D02*
D03*
X588500Y386000D02*
D03*
X554000Y386500D02*
D03*
X484150Y365000D02*
D03*
X669500Y288500D02*
D03*
X492000Y467800D02*
D03*
X496000Y422522D02*
D03*
X418000Y393000D02*
D03*
X508366Y402448D02*
D03*
X531000Y316000D02*
D03*
X542000Y314000D02*
D03*
X541500Y343500D02*
D03*
X441500Y356500D02*
D03*
X477450Y415950D02*
D03*
X501500Y388350D02*
D03*
X1157700Y538800D02*
D03*
X1103700Y505800D02*
D03*
X1050000Y510000D02*
D03*
X1024000Y454500D02*
D03*
X995500Y451000D02*
D03*
X1093700Y447000D02*
D03*
X1114500D02*
D03*
X1010500Y494500D02*
D03*
X1038000D02*
D03*
X1053500Y494700D02*
D03*
X1109000Y862500D02*
D03*
X919750Y863750D02*
D03*
X759000Y824000D02*
D03*
X604750Y882750D02*
D03*
X1239000Y530500D02*
D03*
X1212500Y556500D02*
D03*
X1209000Y537000D02*
D03*
X1239000Y714500D02*
D03*
X1212000Y724500D02*
D03*
X1213000Y744000D02*
D03*
X1206300Y833700D02*
D03*
X1211500Y809000D02*
D03*
X498500Y831500D02*
D03*
X528500Y832500D02*
D03*
X537500D02*
D03*
X509000Y834000D02*
D03*
X529000Y787500D02*
D03*
X517500Y834000D02*
D03*
X567500Y880500D02*
D03*
X544500Y864500D02*
D03*
X490000Y831500D02*
D03*
X1226000Y570000D02*
D03*
X1292000Y542000D02*
D03*
X1258400Y542501D02*
D03*
X1292000Y625999D02*
D03*
X977000Y815500D02*
D03*
X1187499Y847900D02*
D03*
X1188000Y881500D02*
D03*
X1104000D02*
D03*
X1292000Y809000D02*
D03*
X1263000Y633000D02*
D03*
X1275500Y701000D02*
D03*
X1272500Y661500D02*
D03*
X1289000Y638500D02*
D03*
X1304000Y691000D02*
D03*
X1281300Y630200D02*
D03*
X1258400Y725501D02*
D03*
X1292000Y725000D02*
D03*
X1233000Y684500D02*
D03*
X1241000D02*
D03*
X1233000Y692500D02*
D03*
X771000Y788000D02*
D03*
X1012700Y830700D02*
D03*
X1037500Y822500D02*
D03*
X1045500Y830500D02*
D03*
Y822500D02*
D03*
X921000Y881500D02*
D03*
X1005000D02*
D03*
X1004499Y847900D02*
D03*
X1099800Y870800D02*
D03*
X1091500Y878500D02*
D03*
X1068500Y862000D02*
D03*
X1027500Y865000D02*
D03*
X1097000Y852500D02*
D03*
X743500Y851500D02*
D03*
X675000Y862500D02*
D03*
X738000Y877500D02*
D03*
X685500Y892500D02*
D03*
X746300Y869800D02*
D03*
X845500Y830000D02*
D03*
X750500Y880500D02*
D03*
X834500D02*
D03*
X833999Y846900D02*
D03*
X650999D02*
D03*
X651500Y880500D02*
D03*
X1272500Y572001D02*
D03*
X1272500Y755001D02*
D03*
X1157999Y862000D02*
D03*
X974999Y862000D02*
D03*
X804499Y861000D02*
D03*
X621499D02*
D03*
X725500Y747000D02*
D03*
X710500D02*
D03*
X606134Y817000D02*
D03*
X663800Y833200D02*
D03*
X615499Y824000D02*
D03*
X555500Y789000D02*
D03*
X565500Y783000D02*
D03*
X485500Y844000D02*
D03*
X477500Y850000D02*
D03*
X464200Y889300D02*
D03*
X447700Y860700D02*
D03*
X469500Y866500D02*
D03*
X447200Y870300D02*
D03*
X447300Y879700D02*
D03*
X485500Y862000D02*
D03*
X507000Y860500D02*
D03*
X512500Y867000D02*
D03*
X395138Y759865D02*
D03*
Y753135D02*
D03*
X1003000Y667500D02*
D03*
X1244250Y631250D02*
D03*
X1220500Y798500D02*
D03*
X577000Y646586D02*
D03*
X338000Y394000D02*
D03*
Y403000D02*
D03*
X334000Y382000D02*
D03*
X323000D02*
D03*
X312000D02*
D03*
X301500D02*
D03*
X291500D02*
D03*
X282000D02*
D03*
X334000Y413500D02*
D03*
X322500D02*
D03*
X282000Y392000D02*
D03*
Y402500D02*
D03*
X491500Y656500D02*
D03*
Y665000D02*
D03*
X437000Y393500D02*
D03*
X427000Y363500D02*
D03*
X488000Y697500D02*
D03*
X468000Y639000D02*
D03*
Y647000D02*
D03*
Y654500D02*
D03*
X480000Y697500D02*
D03*
X472000D02*
D03*
X420750Y373700D02*
D03*
X434800Y346200D02*
D03*
X411700Y336300D02*
D03*
X394300Y335700D02*
D03*
X380000Y339500D02*
D03*
X1141500Y873000D02*
D03*
X521500Y791500D02*
D03*
X540500Y751500D02*
D03*
X390789Y447170D02*
D03*
X497500Y781500D02*
D03*
X415000Y469000D02*
D03*
X455000Y468000D02*
D03*
X416500Y495000D02*
D03*
X417000Y501500D02*
D03*
X414000Y482500D02*
D03*
X439000Y652000D02*
D03*
X358638Y729865D02*
D03*
Y723135D02*
D03*
X453000Y666500D02*
D03*
X443000D02*
D03*
X460000Y779000D02*
D03*
X450500D02*
D03*
X438000Y764000D02*
D03*
Y773000D02*
D03*
X462500Y696500D02*
D03*
X453000D02*
D03*
X443000D02*
D03*
X710000Y571000D02*
D03*
X472000Y779000D02*
D03*
X480500D02*
D03*
X489000D02*
D03*
X515500Y755000D02*
D03*
X805000Y498500D02*
D03*
X849500Y524500D02*
D03*
X937300Y586700D02*
D03*
X954650Y564000D02*
D03*
X947000Y551000D02*
D03*
X927700Y586700D02*
D03*
X818500Y533000D02*
D03*
X809500Y568000D02*
D03*
X373800Y427800D02*
D03*
X361000Y489000D02*
D03*
X378800Y467200D02*
D03*
X361000Y479000D02*
D03*
X391000Y479500D02*
D03*
X381500D02*
D03*
X352000Y489000D02*
D03*
X381500D02*
D03*
X371000D02*
D03*
X344000Y511500D02*
D03*
X352000Y504000D02*
D03*
X344000Y521500D02*
D03*
X296500Y485225D02*
D03*
X277000Y484000D02*
D03*
X289800Y501800D02*
D03*
X352000Y539000D02*
D03*
X344000Y544500D02*
D03*
X362000Y516500D02*
D03*
X352000D02*
D03*
Y550500D02*
D03*
X344000Y533000D02*
D03*
X371500Y517000D02*
D03*
X352000Y528000D02*
D03*
X368000Y657500D02*
D03*
X325000Y659000D02*
D03*
X383500Y638500D02*
D03*
Y648000D02*
D03*
X360000Y461500D02*
D03*
X344500Y466000D02*
D03*
X352500Y457000D02*
D03*
X351000Y425000D02*
D03*
X316500Y443000D02*
D03*
X330000D02*
D03*
X474132Y530634D02*
D03*
Y537365D02*
D03*
X590500Y559500D02*
D03*
X593174Y552132D02*
D03*
X916500Y400500D02*
D03*
X955500Y429500D02*
D03*
X937000Y430000D02*
D03*
X891500Y492000D02*
D03*
X940500Y486000D02*
D03*
X922000Y490000D02*
D03*
X943135Y434362D02*
D03*
X949865D02*
D03*
X929238Y491138D02*
D03*
X935968D02*
D03*
X898238Y494138D02*
D03*
X904968D02*
D03*
X928000Y654868D02*
D03*
X932122Y648868D02*
D03*
X938853D02*
D03*
X943000Y654868D02*
D03*
X893445Y510099D02*
D03*
X869500Y506000D02*
D03*
X848000D02*
D03*
X861969Y507638D02*
D03*
X855238D02*
D03*
X884968D02*
D03*
X878238D02*
D03*
X971365Y720362D02*
D03*
X964634D02*
D03*
X1009635Y751862D02*
D03*
X1016366D02*
D03*
X988064Y650866D02*
D03*
X1003564Y650366D02*
D03*
X998916Y644866D02*
D03*
X992185D02*
D03*
X1006525Y745000D02*
D03*
X902635Y398362D02*
D03*
X909365D02*
D03*
X906000Y408750D02*
D03*
X891000D02*
D03*
X876000D02*
D03*
X861000D02*
D03*
X993634Y554608D02*
D03*
X826701Y720869D02*
D03*
X993634Y561339D02*
D03*
X833432Y720869D02*
D03*
X838000Y726500D02*
D03*
X820500Y725000D02*
D03*
X995000Y547500D02*
D03*
X989000Y567000D02*
D03*
X802000Y739500D02*
D03*
X804634Y746368D02*
D03*
X811366D02*
D03*
X775500Y741000D02*
D03*
X388500Y749500D02*
D03*
Y763000D02*
D03*
X361000Y765000D02*
D03*
X378000Y656500D02*
D03*
X789500Y742000D02*
D03*
X353750Y674000D02*
D03*
X728000Y697500D02*
D03*
X700500Y667500D02*
D03*
X900500Y753270D02*
D03*
X782000Y712000D02*
D03*
X769500D02*
D03*
X753500Y703500D02*
D03*
X687134Y664862D02*
D03*
X693866D02*
D03*
X381138Y669865D02*
D03*
Y663135D02*
D03*
X775500Y753500D02*
D03*
X760500Y753500D02*
D03*
X709000Y727000D02*
D03*
X696500Y741000D02*
D03*
X699635Y733862D02*
D03*
X706366D02*
D03*
X666186Y496868D02*
D03*
X660000Y501000D02*
D03*
X677500Y491000D02*
D03*
X732500Y571000D02*
D03*
X691366Y747868D02*
D03*
X684634D02*
D03*
X695500Y753270D02*
D03*
X680500D02*
D03*
X683000Y671000D02*
D03*
X683500Y480500D02*
D03*
X672917Y496868D02*
D03*
X669884Y479632D02*
D03*
X676616D02*
D03*
X704500Y448500D02*
D03*
X685500Y447000D02*
D03*
X740000Y429000D02*
D03*
X949634Y736086D02*
D03*
X956366D02*
D03*
X950500Y729000D02*
D03*
X910160Y717447D02*
D03*
X903429D02*
D03*
X896250Y717533D02*
D03*
X917250D02*
D03*
X897205Y734619D02*
D03*
X890474D02*
D03*
X883295Y734705D02*
D03*
X904295D02*
D03*
X612000Y472000D02*
D03*
X558634Y472914D02*
D03*
X565365D02*
D03*
X545365Y472914D02*
D03*
X884410Y750414D02*
D03*
X877679D02*
D03*
X870500Y750500D02*
D03*
X789135Y817000D02*
D03*
X795865D02*
D03*
X592000Y470000D02*
D03*
X572000Y469500D02*
D03*
X605365Y472914D02*
D03*
X598634D02*
D03*
X585365Y473114D02*
D03*
X578634D02*
D03*
X593500Y425500D02*
D03*
X578500D02*
D03*
X563500D02*
D03*
X548500D02*
D03*
X663866Y665470D02*
D03*
X657135D02*
D03*
X668001Y671271D02*
D03*
X653001D02*
D03*
X593000Y634500D02*
D03*
X623000Y653000D02*
D03*
X618866Y660086D02*
D03*
X612135D02*
D03*
X639500Y651000D02*
D03*
X633866Y646586D02*
D03*
X627135D02*
D03*
X588866Y651586D02*
D03*
X603866Y640673D02*
D03*
X597135D02*
D03*
X582135Y651586D02*
D03*
X647500Y746000D02*
D03*
X1152000Y825000D02*
D03*
X1228500Y587365D02*
D03*
Y580634D02*
D03*
X1092500Y600500D02*
D03*
X1077500Y601000D02*
D03*
X1082135Y606869D02*
D03*
X1088866D02*
D03*
X1077500Y620500D02*
D03*
X1060000Y629000D02*
D03*
X1067135Y626869D02*
D03*
X1073866D02*
D03*
X1043866Y669868D02*
D03*
X1037135D02*
D03*
X1235500Y772999D02*
D03*
Y761001D02*
D03*
X1228500Y770366D02*
D03*
Y763634D02*
D03*
X1048000Y663500D02*
D03*
X1017000Y644500D02*
D03*
X1034000Y663000D02*
D03*
X1052122Y649868D02*
D03*
X1058853D02*
D03*
X1028853Y649866D02*
D03*
X1022122D02*
D03*
X1032500Y643500D02*
D03*
X1048500D02*
D03*
X1063000Y644000D02*
D03*
X1096001Y786000D02*
D03*
X1081001Y786500D02*
D03*
X1091366Y780132D02*
D03*
X1084635D02*
D03*
X1065500Y726000D02*
D03*
X1051000Y725500D02*
D03*
X1035000D02*
D03*
X1024622Y731866D02*
D03*
X1031353D02*
D03*
X1061353Y731869D02*
D03*
X1054622D02*
D03*
X1080000Y745500D02*
D03*
X1069635Y751869D02*
D03*
X1076366D02*
D03*
X1065000Y746000D02*
D03*
X1050500Y778729D02*
D03*
X1065500D02*
D03*
X1036500Y745000D02*
D03*
X1019500Y726500D02*
D03*
X1046366Y751869D02*
D03*
X1039635D02*
D03*
X1050500Y745500D02*
D03*
X968853Y657500D02*
D03*
X962122D02*
D03*
X974000Y663000D02*
D03*
X958000Y663500D02*
D03*
X983866Y669868D02*
D03*
X977135D02*
D03*
X917134D02*
D03*
X923866D02*
D03*
X898000Y663500D02*
D03*
X914000Y663000D02*
D03*
X902122Y657500D02*
D03*
X908853D02*
D03*
X966366Y818000D02*
D03*
X959634D02*
D03*
X1235500Y589999D02*
D03*
Y578000D02*
D03*
X1273554Y593368D02*
D03*
Y586637D02*
D03*
X1283632Y581363D02*
D03*
Y574632D02*
D03*
X1266501Y584000D02*
D03*
X1283500Y588500D02*
D03*
X1291000Y573500D02*
D03*
X1272000Y600500D02*
D03*
X1273554Y776367D02*
D03*
Y769637D02*
D03*
X1283631Y764363D02*
D03*
Y757633D02*
D03*
X1266501Y767000D02*
D03*
X1283500Y771500D02*
D03*
X1291000Y757500D02*
D03*
X1272000Y783500D02*
D03*
X1140001Y825000D02*
D03*
X1136633Y863054D02*
D03*
X1143364D02*
D03*
X1148637Y873132D02*
D03*
X1155368D02*
D03*
X1146000Y856001D02*
D03*
X1158500Y879500D02*
D03*
X1129500Y861500D02*
D03*
X957001Y825000D02*
D03*
X968999D02*
D03*
X953633Y863054D02*
D03*
X960363D02*
D03*
X965637Y873131D02*
D03*
X972367D02*
D03*
X963000Y856001D02*
D03*
X958500Y873000D02*
D03*
X972000Y880500D02*
D03*
X946500Y861500D02*
D03*
X786500Y824000D02*
D03*
X798500D02*
D03*
X783132Y862054D02*
D03*
X789864D02*
D03*
X795136Y872132D02*
D03*
X801868D02*
D03*
X792500Y855001D02*
D03*
X788000Y872000D02*
D03*
X803000Y879500D02*
D03*
X776000Y860500D02*
D03*
X593000D02*
D03*
X617000Y879000D02*
D03*
X605000Y872000D02*
D03*
X609500Y855001D02*
D03*
X618867Y872132D02*
D03*
X612136D02*
D03*
X606864Y862054D02*
D03*
X600132D02*
D03*
X612865Y817000D02*
D03*
X603501Y824000D02*
D03*
X942999Y696729D02*
D03*
X692000Y821500D02*
D03*
Y829500D02*
D03*
X685000D02*
D03*
X270000Y492500D02*
D03*
X293000Y420500D02*
D03*
X301500Y413500D02*
D03*
X312000D02*
D03*
X290000D02*
D03*
X665500Y753270D02*
D03*
X593001Y671271D02*
D03*
D257*
X338250Y669000D02*
D03*
Y664000D02*
D03*
Y684000D02*
D03*
Y679000D02*
D03*
Y759000D02*
D03*
Y754000D02*
D03*
Y774000D02*
D03*
Y769000D02*
D03*
Y789000D02*
D03*
Y784000D02*
D03*
X413750Y616500D02*
D03*
Y621500D02*
D03*
Y626500D02*
D03*
Y631500D02*
D03*
Y656500D02*
D03*
Y661500D02*
D03*
Y666500D02*
D03*
Y671500D02*
D03*
Y676500D02*
D03*
Y681500D02*
D03*
Y686500D02*
D03*
Y691500D02*
D03*
Y696500D02*
D03*
Y701500D02*
D03*
Y706500D02*
D03*
Y711500D02*
D03*
Y716500D02*
D03*
Y721500D02*
D03*
Y726500D02*
D03*
Y731500D02*
D03*
Y736500D02*
D03*
Y741500D02*
D03*
Y746500D02*
D03*
Y751500D02*
D03*
Y756500D02*
D03*
Y761500D02*
D03*
Y766500D02*
D03*
Y771500D02*
D03*
Y776500D02*
D03*
Y781500D02*
D03*
Y786500D02*
D03*
Y791500D02*
D03*
Y796500D02*
D03*
X338250Y614000D02*
D03*
Y619000D02*
D03*
Y624000D02*
D03*
Y629000D02*
D03*
Y634000D02*
D03*
Y659000D02*
D03*
Y674000D02*
D03*
Y689000D02*
D03*
Y704000D02*
D03*
Y719000D02*
D03*
Y734000D02*
D03*
Y749000D02*
D03*
Y764000D02*
D03*
Y779000D02*
D03*
Y794000D02*
D03*
Y799000D02*
D03*
Y744000D02*
D03*
Y739000D02*
D03*
Y729000D02*
D03*
Y724000D02*
D03*
Y714000D02*
D03*
Y709000D02*
D03*
Y699000D02*
D03*
Y694000D02*
D03*
D258*
X346000Y603000D02*
D03*
Y810000D02*
D03*
D259*
X600000Y396000D02*
D03*
Y411000D02*
D03*
D260*
X607000Y398250D02*
D03*
Y393750D02*
D03*
Y413250D02*
D03*
Y408750D02*
D03*
D261*
X454500Y446500D02*
D03*
Y356500D02*
D03*
Y361500D02*
D03*
Y366500D02*
D03*
Y371500D02*
D03*
Y376500D02*
D03*
Y381500D02*
D03*
Y386500D02*
D03*
Y391500D02*
D03*
Y396500D02*
D03*
Y401500D02*
D03*
Y406500D02*
D03*
Y411500D02*
D03*
Y416500D02*
D03*
Y421500D02*
D03*
Y426500D02*
D03*
Y431500D02*
D03*
Y436500D02*
D03*
Y441500D02*
D03*
Y451500D02*
D03*
Y456500D02*
D03*
Y461500D02*
D03*
Y486500D02*
D03*
Y491500D02*
D03*
Y496500D02*
D03*
Y501500D02*
D03*
Y506500D02*
D03*
Y511500D02*
D03*
Y516500D02*
D03*
Y521500D02*
D03*
Y526500D02*
D03*
Y531500D02*
D03*
Y536500D02*
D03*
Y541500D02*
D03*
X528500Y359000D02*
D03*
Y364000D02*
D03*
Y369000D02*
D03*
Y374000D02*
D03*
Y379000D02*
D03*
Y384000D02*
D03*
Y389000D02*
D03*
Y394000D02*
D03*
Y399000D02*
D03*
Y404000D02*
D03*
Y409000D02*
D03*
Y414000D02*
D03*
Y419000D02*
D03*
Y424000D02*
D03*
Y429000D02*
D03*
Y434000D02*
D03*
Y439000D02*
D03*
Y444000D02*
D03*
Y449000D02*
D03*
Y454000D02*
D03*
Y459000D02*
D03*
Y464000D02*
D03*
Y489000D02*
D03*
Y494000D02*
D03*
Y499000D02*
D03*
Y504000D02*
D03*
Y509000D02*
D03*
Y514000D02*
D03*
Y519000D02*
D03*
Y524000D02*
D03*
Y529000D02*
D03*
Y534000D02*
D03*
Y539000D02*
D03*
D262*
X455650Y345500D02*
D03*
Y552500D02*
D03*
D263*
X784990Y449000D02*
D03*
X1173850Y706500D02*
D03*
M02*
