G04*
G04 #@! TF.GenerationSoftware,Altium Limited,Altium Designer,20.1.12 (249)*
G04*
G04 Layer_Color=128*
%FSLAX44Y44*%
%MOMM*%
G71*
G04*
G04 #@! TF.SameCoordinates,92C3D8CC-84FC-494B-B6CF-3A4A02D2A6DE*
G04*
G04*
G04 #@! TF.FilePolarity,Positive*
G04*
G01*
G75*
%ADD282C,0.0508*%
D282*
X765990Y449000D02*
X803990D01*
X784990Y430000D02*
Y468000D01*
X1154850Y706500D02*
X1192850D01*
X1173850Y687500D02*
Y725500D01*
X383000Y606500D02*
X399000D01*
X391000Y598500D02*
Y614500D01*
X385500Y806500D02*
X396500D01*
X391000Y801000D02*
Y812000D01*
X726499Y356350D02*
X730499D01*
X728499Y354350D02*
Y358350D01*
X734499Y356350D02*
X738499D01*
X736499Y354350D02*
Y358350D01*
X706499Y349350D02*
X710499D01*
X708499Y347350D02*
Y351350D01*
X714499Y349350D02*
X718499D01*
X716499Y347350D02*
Y351350D01*
X746499Y349350D02*
X750499D01*
X748499Y347350D02*
Y351350D01*
X754499Y349350D02*
X758499D01*
X756499Y347350D02*
Y351350D01*
X718499Y356350D02*
X722499D01*
X720499Y354350D02*
Y358350D01*
X742499Y356350D02*
X746499D01*
X744499Y354350D02*
Y358350D01*
X710499Y356350D02*
X714499D01*
X712499Y354350D02*
Y358350D01*
X750499Y356350D02*
X754499D01*
X752499Y354350D02*
Y358350D01*
X702499Y356350D02*
X706499D01*
X704499Y354350D02*
Y358350D01*
X758499Y356350D02*
X762499D01*
X760499Y354350D02*
Y358350D01*
X722499Y349350D02*
X726499D01*
X724499Y347350D02*
Y351350D01*
X738499Y349350D02*
X742499D01*
X740499Y347350D02*
Y351350D01*
X772199Y344850D02*
X778199D01*
X775199Y341850D02*
Y347850D01*
X686799Y344850D02*
X692799D01*
X689799Y341850D02*
Y347850D01*
X772199Y297550D02*
X778199D01*
X775199Y294550D02*
Y300550D01*
X686799Y297550D02*
X692799D01*
X689799Y294550D02*
Y300550D01*
X610750Y274000D02*
X616750D01*
X613750Y271000D02*
Y277000D01*
X502250Y274000D02*
X508250D01*
X505250Y271000D02*
Y277000D01*
X610750Y319000D02*
X616750D01*
X613750Y316000D02*
Y322000D01*
X502250Y319000D02*
X508250D01*
X505250Y316000D02*
Y322000D01*
X393000Y384250D02*
X399400D01*
X396200Y381050D02*
Y387450D01*
X393000Y396750D02*
X399400D01*
X396200Y393550D02*
Y399950D01*
X393000Y409250D02*
X399400D01*
X396200Y406050D02*
Y412450D01*
X393000Y421750D02*
X399400D01*
X396200Y418550D02*
Y424950D01*
X891100Y857000D02*
X901300D01*
X896200Y851900D02*
Y862100D01*
X865700Y857000D02*
X875900D01*
X870800Y851900D02*
Y862100D01*
X908000Y333500D02*
X912000D01*
X910000Y331500D02*
Y335500D01*
X872000Y333500D02*
X876000D01*
X874000Y331500D02*
Y335500D01*
X890080Y333500D02*
X894080D01*
X892080Y331500D02*
Y335500D01*
X854000Y333500D02*
X858000D01*
X856000Y331500D02*
Y335500D01*
X854000Y367000D02*
X858000D01*
X856000Y365000D02*
Y369000D01*
X890080Y367000D02*
X894080D01*
X892080Y365000D02*
Y369000D01*
X872000Y367000D02*
X876000D01*
X874000Y365000D02*
Y369000D01*
X908000Y367000D02*
X912000D01*
X910000Y365000D02*
Y369000D01*
X867500Y374750D02*
X871500D01*
X869500Y372750D02*
Y376750D01*
X858500Y374750D02*
X862500D01*
X860500Y372750D02*
Y376750D01*
X830500Y375000D02*
X840500D01*
X835500Y370000D02*
Y380000D01*
X925500Y375000D02*
X935500D01*
X930500Y370000D02*
Y380000D01*
X823500Y343500D02*
X832500D01*
X828000Y339000D02*
Y348000D01*
X933500Y343500D02*
X942500D01*
X938000Y339000D02*
Y348000D01*
X827500Y288500D02*
X834500D01*
X831000Y285000D02*
Y292000D01*
X931500Y288500D02*
X938500D01*
X935000Y285000D02*
Y292000D01*
X903500Y341250D02*
X907500D01*
X905500Y339250D02*
Y343250D01*
X894500Y341250D02*
X898500D01*
X896500Y339250D02*
Y343250D01*
X885500Y374750D02*
X889500D01*
X887500Y372750D02*
Y376750D01*
X876500Y374750D02*
X880500D01*
X878500Y372750D02*
Y376750D01*
X903500Y374750D02*
X907500D01*
X905500Y372750D02*
Y376750D01*
X894500Y374750D02*
X898500D01*
X896500Y372750D02*
Y376750D01*
X867500Y341250D02*
X871500D01*
X869500Y339250D02*
Y343250D01*
X858500Y341250D02*
X862500D01*
X860500Y339250D02*
Y343250D01*
X885500Y341250D02*
X889500D01*
X887500Y339250D02*
Y343250D01*
X876500Y341250D02*
X880500D01*
X878500Y339250D02*
Y343250D01*
X1233150Y448400D02*
X1242050D01*
X1237600Y443950D02*
Y452850D01*
X1207750Y448400D02*
X1216650D01*
X1212200Y443950D02*
Y452850D01*
X1182350Y448400D02*
X1191250D01*
X1186800Y443950D02*
Y452850D01*
X1195050Y423000D02*
X1203950D01*
X1199500Y418550D02*
Y427450D01*
X1220450Y423000D02*
X1229350D01*
X1224900Y418550D02*
Y427450D01*
X1245850Y423000D02*
X1254750D01*
X1250300Y418550D02*
Y427450D01*
X1131268Y390000D02*
X1148268D01*
X1139768Y381500D02*
Y398500D01*
X1288832Y390000D02*
X1305832D01*
X1297332Y381500D02*
Y398500D01*
X1158840Y496700D02*
X1169040D01*
X1163940Y491600D02*
Y501800D01*
X1268140Y496700D02*
X1278340D01*
X1273240Y491600D02*
Y501800D01*
X1184240Y496700D02*
X1194440D01*
X1189340Y491600D02*
Y501800D01*
X1242740Y496700D02*
X1252940D01*
X1247840Y491600D02*
Y501800D01*
X1145150Y359500D02*
X1177650D01*
X1161400Y343250D02*
Y375750D01*
X1259450Y359500D02*
X1291950D01*
X1275700Y343250D02*
Y375750D01*
X1258550Y448400D02*
X1267450D01*
X1263000Y443950D02*
Y452850D01*
X1271250Y423000D02*
X1280150D01*
X1275700Y418550D02*
Y427450D01*
X1169650Y423000D02*
X1178550D01*
X1174100Y418550D02*
Y427450D01*
X1156950Y448400D02*
X1165850D01*
X1161400Y443950D02*
Y452850D01*
X306000Y398500D02*
X316000D01*
X311000Y393500D02*
Y403500D01*
X355000Y369000D02*
X365000D01*
X360000Y364000D02*
Y374000D01*
X306000Y338500D02*
X316000D01*
X311000Y333500D02*
Y343500D01*
X427250Y725000D02*
X438250D01*
X432750Y719500D02*
Y730500D01*
X1112750Y725000D02*
X1128750D01*
X1120750Y717000D02*
Y733000D01*
X268000Y618250D02*
X277000D01*
X272500Y613750D02*
Y622750D01*
X268000Y660750D02*
X277000D01*
X272500Y656250D02*
Y665250D01*
X440250Y305000D02*
X477250D01*
X458750Y286500D02*
Y323500D01*
X497750Y349000D02*
X513750D01*
X505750Y341000D02*
Y357000D01*
X500250Y549000D02*
X511250D01*
X505750Y543500D02*
Y554500D01*
X388500Y874000D02*
X397500D01*
X393000Y869500D02*
Y878500D01*
X363100Y874000D02*
X372100D01*
X367600Y869500D02*
Y878500D01*
X413900Y874000D02*
X422900D01*
X418400Y869500D02*
Y878500D01*
X268000Y692750D02*
X277000D01*
X272500Y688250D02*
Y697250D01*
X268000Y735250D02*
X277000D01*
X272500Y730750D02*
Y739750D01*
X286300Y864360D02*
X323300D01*
X304800Y845860D02*
Y882860D01*
X286300Y294640D02*
X323300D01*
X304800Y276140D02*
Y313140D01*
X1247200Y864360D02*
X1284200D01*
X1265700Y845860D02*
Y882860D01*
X1247200Y294640D02*
X1284200D01*
X1265700Y276140D02*
Y313140D01*
X1076250Y305000D02*
X1113250D01*
X1094750Y286500D02*
Y323500D01*
X1172580Y706500D02*
X1175120D01*
X1173850Y705230D02*
Y707770D01*
X375230Y600000D02*
X377770D01*
X376500Y598730D02*
Y601270D01*
X375230Y624000D02*
X377770D01*
X376500Y622730D02*
Y625270D01*
X375230Y616000D02*
X377770D01*
X376500Y614730D02*
Y617270D01*
X968730Y534500D02*
X971270D01*
X970000Y533230D02*
Y535770D01*
X946730Y534500D02*
X949270D01*
X948000Y533230D02*
Y535770D01*
X1028730Y560500D02*
X1031270D01*
X1030000Y559230D02*
Y561770D01*
X1037366Y536300D02*
X1039906D01*
X1038636Y535030D02*
Y537570D01*
X1022730Y560500D02*
X1025270D01*
X1024000Y559230D02*
Y561770D01*
X1010730Y560500D02*
X1013270D01*
X1012000Y559230D02*
Y561770D01*
X766173Y329369D02*
X768713D01*
X767443Y328098D02*
Y330639D01*
X717346Y453368D02*
X719885D01*
X718615Y452099D02*
Y454638D01*
X739598Y442788D02*
X742139D01*
X740869Y441518D02*
Y444058D01*
X759442Y329369D02*
X761982D01*
X760712Y328098D02*
Y330639D01*
X710614Y453368D02*
X713155D01*
X711885Y452099D02*
Y454638D01*
X739598Y436057D02*
X742139D01*
X740869Y434787D02*
Y437327D01*
X742098Y416557D02*
X744639D01*
X743369Y415287D02*
Y417827D01*
X689614Y453368D02*
X692154D01*
X690884Y452099D02*
Y454638D01*
X696346Y453368D02*
X698885D01*
X697616Y452099D02*
Y454638D01*
X742098Y423288D02*
X744639D01*
X743369Y422018D02*
Y424558D01*
X706230Y424000D02*
X708770D01*
X707500Y422730D02*
Y425270D01*
X761230Y405500D02*
X763770D01*
X762500Y404230D02*
Y406770D01*
X761230Y383000D02*
X763770D01*
X762500Y381730D02*
Y384270D01*
X738018Y704131D02*
X740558D01*
X739288Y702861D02*
Y705402D01*
X731287Y704131D02*
X733827D01*
X732557Y702861D02*
Y705402D01*
X713198Y665138D02*
X715739D01*
X714469Y663868D02*
Y666408D01*
X706468Y665138D02*
X709007D01*
X707738Y663868D02*
Y666408D01*
X460230Y723000D02*
X462770D01*
X461500Y721730D02*
Y724270D01*
X517730Y702500D02*
X520270D01*
X519000Y701230D02*
Y703770D01*
X322230Y697000D02*
X324770D01*
X323500Y695730D02*
Y698270D01*
X695730Y405000D02*
X698270D01*
X697000Y403730D02*
Y406270D01*
X673730Y389500D02*
X676270D01*
X675000Y388230D02*
Y390770D01*
X614730Y405130D02*
X617270D01*
X616000Y403859D02*
Y406399D01*
X632230Y408000D02*
X634770D01*
X633500Y406730D02*
Y409270D01*
X678730Y379500D02*
X681270D01*
X680000Y378230D02*
Y380770D01*
X671730Y379500D02*
X674270D01*
X673000Y378230D02*
Y380770D01*
X569730Y569500D02*
X572270D01*
X571000Y568230D02*
Y570770D01*
X578730Y571000D02*
X581270D01*
X580000Y569730D02*
Y572270D01*
X473730Y651000D02*
X476270D01*
X475000Y649730D02*
Y652270D01*
X473730Y643000D02*
X476270D01*
X475000Y641730D02*
Y644270D01*
X396230Y554500D02*
X398770D01*
X397500Y553230D02*
Y555770D01*
X396230Y548500D02*
X398770D01*
X397500Y547230D02*
Y549770D01*
X396230Y535500D02*
X398770D01*
X397500Y534230D02*
Y536770D01*
X396230Y528000D02*
X398770D01*
X397500Y526730D02*
Y529270D01*
X396730Y509000D02*
X399270D01*
X398000Y507730D02*
Y510270D01*
X1044192Y564200D02*
X1046732D01*
X1045462Y562930D02*
Y565470D01*
X673730Y856500D02*
X676270D01*
X675000Y855230D02*
Y857770D01*
X1026230Y857500D02*
X1028770D01*
X1027500Y856230D02*
Y858770D01*
X1266730Y701000D02*
X1269270D01*
X1268000Y699730D02*
Y702270D01*
X1006730Y629000D02*
X1009270D01*
X1008000Y627730D02*
Y630270D01*
X1035230Y599000D02*
X1037770D01*
X1036500Y597730D02*
Y600270D01*
X1049230Y595000D02*
X1051770D01*
X1050500Y593730D02*
Y596270D01*
X604230Y490500D02*
X606770D01*
X605500Y489230D02*
Y491770D01*
X607230Y495000D02*
X609770D01*
X608500Y493730D02*
Y496270D01*
X600230Y486500D02*
X602770D01*
X601500Y485230D02*
Y487770D01*
X558730Y592000D02*
X561270D01*
X560000Y590730D02*
Y593270D01*
X556230Y601000D02*
X558770D01*
X557500Y599730D02*
Y602270D01*
X559730Y587000D02*
X562270D01*
X561000Y585730D02*
Y588270D01*
X545730Y576500D02*
X548270D01*
X547000Y575230D02*
Y577770D01*
X502230Y586675D02*
X504770D01*
X503500Y585405D02*
Y587945D01*
X678730Y371500D02*
X681270D01*
X680000Y370230D02*
Y372770D01*
X671230Y371500D02*
X673770D01*
X672500Y370230D02*
Y372770D01*
X743731Y379501D02*
X746271D01*
X745001Y378231D02*
Y380771D01*
X734595Y384632D02*
X737135D01*
X735865Y383362D02*
Y385902D01*
X727864Y384632D02*
X730404D01*
X729134Y383362D02*
Y385902D01*
X713730Y387500D02*
X716270D01*
X715000Y386230D02*
Y388770D01*
X737230Y411000D02*
X739770D01*
X738500Y409730D02*
Y412270D01*
X572729Y564999D02*
X575269D01*
X573999Y563729D02*
Y566269D01*
X578230Y565500D02*
X580770D01*
X579500Y564230D02*
Y566770D01*
X727730Y672500D02*
X730270D01*
X729000Y671230D02*
Y673770D01*
X675730Y583000D02*
X678270D01*
X677000Y581730D02*
Y584270D01*
X799730Y578000D02*
X802270D01*
X801000Y576730D02*
Y579270D01*
X606730Y668000D02*
X609270D01*
X608000Y666730D02*
Y669270D01*
X1004230Y778000D02*
X1006770D01*
X1005500Y776730D02*
Y779270D01*
X959230Y730000D02*
X961770D01*
X960500Y728730D02*
Y731270D01*
X948230Y781500D02*
X950770D01*
X949500Y780230D02*
Y782770D01*
X909730Y780500D02*
X912270D01*
X911000Y779230D02*
Y781770D01*
X930230Y781500D02*
X932770D01*
X931500Y780230D02*
Y782770D01*
X763654Y543924D02*
X766194D01*
X764924Y542654D02*
Y545194D01*
X848230Y669000D02*
X850770D01*
X849500Y667730D02*
Y670270D01*
X778154Y529424D02*
X780694D01*
X779424Y528154D02*
Y530694D01*
X712980Y590250D02*
X715520D01*
X714250Y588980D02*
Y591520D01*
X546730Y500500D02*
X549270D01*
X548000Y499230D02*
Y501770D01*
X692730Y644000D02*
X695270D01*
X694000Y642730D02*
Y645270D01*
X675096Y732862D02*
X677636D01*
X676366Y731592D02*
Y734132D01*
X668365Y732862D02*
X670905D01*
X669635Y731592D02*
Y734132D01*
X660096Y747191D02*
X662635D01*
X661366Y745921D02*
Y748461D01*
X653364Y747191D02*
X655904D01*
X654634Y745921D02*
Y748461D01*
X743432Y548202D02*
X745972D01*
X744702Y546932D02*
Y549472D01*
X392230Y678500D02*
X394770D01*
X393500Y677230D02*
Y679770D01*
X389730Y704500D02*
X392270D01*
X391000Y703230D02*
Y705770D01*
X785096Y735362D02*
X787635D01*
X786366Y734092D02*
Y736632D01*
X384868Y699865D02*
X387408D01*
X386138Y698596D02*
Y701135D01*
X778364Y735362D02*
X780904D01*
X779634Y734092D02*
Y736632D01*
X384868Y693135D02*
X387408D01*
X386138Y691864D02*
Y694405D01*
X630230Y713000D02*
X632770D01*
X631500Y711730D02*
Y714270D01*
X616730Y725000D02*
X619270D01*
X618000Y723730D02*
Y726270D01*
X623370Y722418D02*
X625910D01*
X624640Y721148D02*
Y723688D01*
X299092Y744865D02*
X301632D01*
X300362Y743596D02*
Y746135D01*
X623370Y715687D02*
X625910D01*
X624640Y714417D02*
Y716957D01*
X299092Y738135D02*
X301632D01*
X300362Y736864D02*
Y739405D01*
X777596Y718638D02*
X780135D01*
X778866Y717368D02*
Y719908D01*
X503868Y712763D02*
X506408D01*
X505138Y711492D02*
Y714033D01*
X299092Y684865D02*
X301632D01*
X300362Y683596D02*
Y686135D01*
X770864Y718638D02*
X773404D01*
X772134Y717368D02*
Y719908D01*
X503868Y706031D02*
X506408D01*
X505138Y704762D02*
Y707301D01*
X299092Y678135D02*
X301632D01*
X300362Y676864D02*
Y679405D01*
X755864Y709638D02*
X758404D01*
X757134Y708368D02*
Y710908D01*
X536368Y705738D02*
X538908D01*
X537638Y704467D02*
Y707008D01*
X299092Y708135D02*
X301632D01*
X300362Y706864D02*
Y709405D01*
X762596Y709638D02*
X765135D01*
X763866Y708368D02*
Y710908D01*
X536368Y712468D02*
X538908D01*
X537638Y711199D02*
Y713738D01*
X299092Y714865D02*
X301632D01*
X300362Y713596D02*
Y716135D01*
X680230Y728000D02*
X682770D01*
X681500Y726730D02*
Y729270D01*
X662730Y728500D02*
X665270D01*
X664000Y727230D02*
Y729770D01*
X529730Y703000D02*
X532270D01*
X531000Y701730D02*
Y704270D01*
X533230Y719000D02*
X535770D01*
X534500Y717730D02*
Y720270D01*
X497730Y702500D02*
X500270D01*
X499000Y701230D02*
Y703770D01*
X497230Y715500D02*
X499770D01*
X498500Y714230D02*
Y716770D01*
X352730Y689000D02*
X355270D01*
X354000Y687730D02*
Y690270D01*
X360230Y779000D02*
X362770D01*
X361500Y777730D02*
Y780270D01*
X1019230Y778000D02*
X1021770D01*
X1020500Y776730D02*
Y779270D01*
X989230Y753000D02*
X991770D01*
X990500Y751730D02*
Y754270D01*
X974230Y778000D02*
X976770D01*
X975500Y776730D02*
Y779270D01*
X391730Y694500D02*
X394270D01*
X393000Y693230D02*
Y695770D01*
X487730Y754500D02*
X490270D01*
X489000Y753230D02*
Y755770D01*
X844230Y781500D02*
X846770D01*
X845500Y780230D02*
Y782770D01*
X829230Y781500D02*
X831770D01*
X830500Y780230D02*
Y782770D01*
X350980Y719000D02*
X353520D01*
X352250Y717730D02*
Y720270D01*
X299092Y774865D02*
X301632D01*
X300362Y773596D02*
Y776135D01*
X299092Y768135D02*
X301632D01*
X300362Y766864D02*
Y769405D01*
X301230Y639500D02*
X303770D01*
X302500Y638230D02*
Y640770D01*
X814142Y751517D02*
X816682D01*
X815412Y750247D02*
Y752787D01*
X855730Y708500D02*
X858270D01*
X857000Y707230D02*
Y709770D01*
X533730Y359000D02*
X536270D01*
X535000Y357730D02*
Y360270D01*
X621730Y816500D02*
X624270D01*
X623000Y815230D02*
Y817770D01*
X743730Y488000D02*
X746270D01*
X745000Y486730D02*
Y489270D01*
X745730Y510000D02*
X748270D01*
X747000Y508730D02*
Y511270D01*
X745730Y521000D02*
X748270D01*
X747000Y519730D02*
Y522270D01*
X415230Y436000D02*
X417770D01*
X416500Y434730D02*
Y437270D01*
X425730Y425500D02*
X428270D01*
X427000Y424230D02*
Y426770D01*
X422730Y462000D02*
X425270D01*
X424000Y460730D02*
Y463270D01*
X422730Y469000D02*
X425270D01*
X424000Y467730D02*
Y470270D01*
X384769Y515914D02*
X387309D01*
X386039Y514644D02*
Y517184D01*
X396730Y516000D02*
X399270D01*
X398000Y514730D02*
Y517270D01*
X959230Y609000D02*
X961770D01*
X960500Y607730D02*
Y610270D01*
X423230Y640000D02*
X425770D01*
X424500Y638730D02*
Y641270D01*
X413730Y462000D02*
X416270D01*
X415000Y460730D02*
Y463270D01*
X280730Y413500D02*
X283270D01*
X282000Y412230D02*
Y414770D01*
X517230Y860500D02*
X519770D01*
X518500Y859230D02*
Y861770D01*
X505730Y873000D02*
X508270D01*
X507000Y871730D02*
Y874270D01*
X517230Y873000D02*
X519770D01*
X518500Y871730D02*
Y874270D01*
X784730Y487000D02*
X787270D01*
X786000Y485730D02*
Y488270D01*
X837980Y589500D02*
X840520D01*
X839250Y588230D02*
Y590770D01*
X285730Y448000D02*
X288270D01*
X287000Y446730D02*
Y449270D01*
X293230Y455500D02*
X295770D01*
X294500Y454230D02*
Y456770D01*
X285730Y463000D02*
X288270D01*
X287000Y461730D02*
Y464270D01*
X300730Y463000D02*
X303270D01*
X302000Y461730D02*
Y464270D01*
X300730Y448000D02*
X303270D01*
X302000Y446730D02*
Y449270D01*
X695230Y520000D02*
X697770D01*
X696500Y518730D02*
Y521270D01*
X684230Y520000D02*
X686770D01*
X685500Y518730D02*
Y521270D01*
X813730Y391000D02*
X816270D01*
X815000Y389730D02*
Y392270D01*
X560730Y316500D02*
X563270D01*
X562000Y315230D02*
Y317770D01*
X723730Y521000D02*
X726270D01*
X725000Y519730D02*
Y522270D01*
X711730Y695500D02*
X714270D01*
X713000Y694230D02*
Y696770D01*
X692230Y579500D02*
X694770D01*
X693500Y578230D02*
Y580770D01*
X576730Y616500D02*
X579270D01*
X578000Y615230D02*
Y617770D01*
X795930Y397500D02*
X798470D01*
X797200Y396230D02*
Y398770D01*
X649730Y556500D02*
X652270D01*
X651000Y555230D02*
Y557770D01*
X715230Y533000D02*
X717770D01*
X716500Y531730D02*
Y534270D01*
X715230Y540500D02*
X717770D01*
X716500Y539230D02*
Y541770D01*
X713730Y521000D02*
X716270D01*
X715000Y519730D02*
Y522270D01*
X901730Y450000D02*
X904270D01*
X903000Y448730D02*
Y451270D01*
X863730Y450500D02*
X866270D01*
X865000Y449230D02*
Y451770D01*
X1056230Y427794D02*
X1058770D01*
X1057500Y426524D02*
Y429064D01*
X1022730Y426000D02*
X1025270D01*
X1024000Y424730D02*
Y427270D01*
X1022730Y434500D02*
X1025270D01*
X1024000Y433230D02*
Y435770D01*
X1046730Y419000D02*
X1049270D01*
X1048000Y417730D02*
Y420270D01*
X1056230Y419000D02*
X1058770D01*
X1057500Y417730D02*
Y420270D01*
X1037230Y409500D02*
X1039770D01*
X1038500Y408230D02*
Y410770D01*
X1046730Y409500D02*
X1049270D01*
X1048000Y408230D02*
Y410770D01*
X1056230Y409500D02*
X1058770D01*
X1057500Y408230D02*
Y410770D01*
X1044730Y360000D02*
X1047270D01*
X1046000Y358730D02*
Y361270D01*
X1031730Y360000D02*
X1034270D01*
X1033000Y358730D02*
Y361270D01*
X696730Y695000D02*
X699270D01*
X698000Y693730D02*
Y696270D01*
X751730Y662500D02*
X754270D01*
X753000Y661230D02*
Y663770D01*
X760230Y668000D02*
X762770D01*
X761500Y666730D02*
Y669270D01*
X781730Y656500D02*
X784270D01*
X783000Y655230D02*
Y657770D01*
X956730Y672000D02*
X959270D01*
X958000Y670730D02*
Y673270D01*
X1016730Y659000D02*
X1019270D01*
X1018000Y657730D02*
Y660270D01*
X1061730Y669500D02*
X1064270D01*
X1063000Y668230D02*
Y670770D01*
X1076730Y670000D02*
X1079270D01*
X1078000Y668730D02*
Y671270D01*
X1091730Y668000D02*
X1094270D01*
X1093000Y666730D02*
Y669270D01*
X1109230Y668500D02*
X1111770D01*
X1110500Y667230D02*
Y669770D01*
X1095865Y584852D02*
X1098405D01*
X1097135Y583582D02*
Y586122D01*
X1102596Y584852D02*
X1105136D01*
X1103866Y583582D02*
Y586122D01*
X1091230Y578983D02*
X1093770D01*
X1092500Y577713D02*
Y580253D01*
X1106230Y578483D02*
X1108770D01*
X1107500Y577213D02*
Y579753D01*
X1085230Y750000D02*
X1087770D01*
X1086500Y748730D02*
Y751270D01*
X1094230Y754000D02*
X1096770D01*
X1095500Y752730D02*
Y755270D01*
X1112980Y777000D02*
X1115520D01*
X1114250Y775730D02*
Y778270D01*
X799230Y753500D02*
X801770D01*
X800500Y752230D02*
Y754770D01*
X789230Y753500D02*
X791770D01*
X790500Y752230D02*
Y754770D01*
X636730Y295500D02*
X639270D01*
X638000Y294230D02*
Y296770D01*
X514730Y477000D02*
X517270D01*
X516000Y475730D02*
Y478270D01*
X503980Y493500D02*
X506520D01*
X505250Y492230D02*
Y494770D01*
X497230Y480500D02*
X499770D01*
X498500Y479230D02*
Y481770D01*
X507730Y412500D02*
X510270D01*
X509000Y411230D02*
Y413770D01*
X1210730Y800500D02*
X1213270D01*
X1212000Y799230D02*
Y801770D01*
X1152730Y810000D02*
X1155270D01*
X1154000Y808730D02*
Y811270D01*
X1006524Y719000D02*
X1009064D01*
X1007794Y717730D02*
Y720270D01*
X1024730Y717500D02*
X1027270D01*
X1026000Y716230D02*
Y718770D01*
X1011761Y713862D02*
X1014302D01*
X1013031Y712592D02*
Y715132D01*
X1018493Y713862D02*
X1021032D01*
X1019762Y712592D02*
Y715132D01*
X986592Y718468D02*
X989132D01*
X987862Y717198D02*
Y719738D01*
X986592Y711738D02*
X989132D01*
X987862Y710468D02*
Y713008D01*
X818730Y710000D02*
X821270D01*
X820000Y708730D02*
Y711270D01*
X813230Y719500D02*
X815770D01*
X814500Y718230D02*
Y720770D01*
X954230Y552500D02*
X956770D01*
X955500Y551230D02*
Y553770D01*
X953230Y576500D02*
X955770D01*
X954500Y575230D02*
Y577770D01*
X854730Y627500D02*
X857270D01*
X856000Y626230D02*
Y628770D01*
X713730Y862500D02*
X716270D01*
X715000Y861230D02*
Y863770D01*
X484230Y888500D02*
X486770D01*
X485500Y887230D02*
Y889770D01*
X418230Y834000D02*
X420770D01*
X419500Y832730D02*
Y835270D01*
X427980Y833750D02*
X430520D01*
X429250Y832480D02*
Y835020D01*
X367230Y750000D02*
X369770D01*
X368500Y748730D02*
Y751270D01*
X423230Y855500D02*
X425770D01*
X424500Y854230D02*
Y856770D01*
X345730Y822500D02*
X348270D01*
X347000Y821230D02*
Y823770D01*
X516730Y613000D02*
X519270D01*
X518000Y611730D02*
Y614270D01*
X621730Y669500D02*
X624270D01*
X623000Y668230D02*
Y670770D01*
X641730Y663000D02*
X644270D01*
X643000Y661730D02*
Y664270D01*
X1199230Y668000D02*
X1201770D01*
X1200500Y666730D02*
Y669270D01*
X1189730Y647000D02*
X1192270D01*
X1191000Y645730D02*
Y648270D01*
X428230Y647500D02*
X430770D01*
X429500Y646230D02*
Y648770D01*
X426730Y676500D02*
X429270D01*
X428000Y675230D02*
Y677770D01*
X507480Y653250D02*
X510020D01*
X508750Y651980D02*
Y654520D01*
X589230Y755000D02*
X591770D01*
X590500Y753730D02*
Y756270D01*
X578730Y589000D02*
X581270D01*
X580000Y587730D02*
Y590270D01*
X654230Y642500D02*
X656770D01*
X655500Y641230D02*
Y643770D01*
X437730Y640000D02*
X440270D01*
X439000Y638730D02*
Y641270D01*
X416730Y522500D02*
X419270D01*
X418000Y521230D02*
Y523770D01*
X628980Y578750D02*
X631520D01*
X630250Y577480D02*
Y580020D01*
X527230Y483000D02*
X529770D01*
X528500Y481730D02*
Y484270D01*
X717230Y315500D02*
X719770D01*
X718500Y314230D02*
Y316770D01*
X708230Y322000D02*
X710770D01*
X709500Y320730D02*
Y323270D01*
X633730Y473500D02*
X636270D01*
X635000Y472230D02*
Y474770D01*
X634230Y482000D02*
X636770D01*
X635500Y480730D02*
Y483270D01*
X516980Y558250D02*
X519520D01*
X518250Y556980D02*
Y559520D01*
X496930Y565200D02*
X499470D01*
X498200Y563930D02*
Y566470D01*
X846730Y596500D02*
X849270D01*
X848000Y595230D02*
Y597770D01*
X607730Y753500D02*
X610270D01*
X609000Y752230D02*
Y754770D01*
X600730Y748000D02*
X603270D01*
X602000Y746730D02*
Y749270D01*
X616230Y741500D02*
X618770D01*
X617500Y740230D02*
Y742770D01*
X632730Y740500D02*
X635270D01*
X634000Y739230D02*
Y741770D01*
X640730Y741000D02*
X643270D01*
X642000Y739730D02*
Y742270D01*
X628030Y423700D02*
X630570D01*
X629300Y422430D02*
Y424970D01*
X614430Y423700D02*
X616970D01*
X615700Y422430D02*
Y424970D01*
X515230Y429500D02*
X517770D01*
X516500Y428230D02*
Y430770D01*
X572530Y594200D02*
X575070D01*
X573800Y592930D02*
Y595470D01*
X827730Y589500D02*
X830270D01*
X829000Y588230D02*
Y590770D01*
X836230Y597500D02*
X838770D01*
X837500Y596230D02*
Y598770D01*
X530730Y470000D02*
X533270D01*
X532000Y468730D02*
Y471270D01*
X537365Y472914D02*
X539905D01*
X538634Y471644D02*
Y474184D01*
X598635Y552132D02*
X601175D01*
X599905Y550862D02*
Y553401D01*
X729148Y665138D02*
X731688D01*
X730418Y663868D02*
Y666408D01*
X722417Y665138D02*
X724957D01*
X723687Y663868D02*
Y666408D01*
X717230Y659500D02*
X719770D01*
X718500Y658230D02*
Y660770D01*
X654230Y562500D02*
X656770D01*
X655500Y561230D02*
Y563770D01*
X604230Y557000D02*
X606770D01*
X605500Y555730D02*
Y558270D01*
X859230Y749500D02*
X861770D01*
X860500Y748230D02*
Y750770D01*
X631730Y459500D02*
X634270D01*
X633000Y458230D02*
Y460770D01*
X538230Y499000D02*
X540770D01*
X539500Y497730D02*
Y500270D01*
X787730Y663500D02*
X790270D01*
X789000Y662230D02*
Y664770D01*
X796730Y671000D02*
X799270D01*
X798000Y669730D02*
Y672270D01*
X442230Y401500D02*
X444770D01*
X443500Y400230D02*
Y402770D01*
X441730Y388000D02*
X444270D01*
X443000Y386730D02*
Y389270D01*
X440230Y371500D02*
X442770D01*
X441500Y370230D02*
Y372770D01*
X572730Y317000D02*
X575270D01*
X574000Y315730D02*
Y318270D01*
X534230Y353000D02*
X536770D01*
X535500Y351730D02*
Y354270D01*
X496230Y500000D02*
X498770D01*
X497500Y498730D02*
Y501270D01*
X558730Y611500D02*
X561270D01*
X560000Y610230D02*
Y612770D01*
X560230Y649500D02*
X562770D01*
X561500Y648230D02*
Y650770D01*
X464230Y416500D02*
X466770D01*
X465500Y415230D02*
Y417770D01*
X464230Y431500D02*
X466770D01*
X465500Y430230D02*
Y432770D01*
X464230Y446500D02*
X466770D01*
X465500Y445230D02*
Y447770D01*
X464730Y526500D02*
X467270D01*
X466000Y525230D02*
Y527770D01*
X470230Y555500D02*
X472770D01*
X471500Y554230D02*
Y556770D01*
X470230Y549000D02*
X472770D01*
X471500Y547730D02*
Y550270D01*
X466230Y542500D02*
X468770D01*
X467500Y541230D02*
Y543770D01*
X539230Y606000D02*
X541770D01*
X540500Y604730D02*
Y607270D01*
X551230Y614500D02*
X553770D01*
X552500Y613230D02*
Y615770D01*
X542730Y614500D02*
X545270D01*
X544000Y613230D02*
Y615770D01*
X530730Y606000D02*
X533270D01*
X532000Y604730D02*
Y607270D01*
X515230Y540500D02*
X517770D01*
X516500Y539230D02*
Y541770D01*
X611730Y581000D02*
X614270D01*
X613000Y579730D02*
Y582270D01*
X605230Y581000D02*
X607770D01*
X606500Y579730D02*
Y582270D01*
X595930Y567700D02*
X598470D01*
X597200Y566430D02*
Y568970D01*
X518730Y587300D02*
X521270D01*
X520000Y586030D02*
Y588570D01*
X546730Y571000D02*
X549270D01*
X548000Y569730D02*
Y572270D01*
X1170230Y605000D02*
X1172770D01*
X1171500Y603730D02*
Y606270D01*
X1006730Y622500D02*
X1009270D01*
X1008000Y621230D02*
Y623770D01*
X970230Y623000D02*
X972770D01*
X971500Y621730D02*
Y624270D01*
X970230Y631000D02*
X972770D01*
X971500Y629730D02*
Y632270D01*
X963230Y618000D02*
X965770D01*
X964500Y616730D02*
Y619270D01*
X961230Y627500D02*
X963770D01*
X962500Y626230D02*
Y628770D01*
X953730Y618000D02*
X956270D01*
X955000Y616730D02*
Y619270D01*
X1130230Y542500D02*
X1132770D01*
X1131500Y541230D02*
Y543770D01*
X1028480Y598250D02*
X1031020D01*
X1029750Y596980D02*
Y599520D01*
X1047230Y588500D02*
X1049770D01*
X1048500Y587230D02*
Y589770D01*
X1007230Y578500D02*
X1009770D01*
X1008500Y577230D02*
Y579770D01*
X999230Y578000D02*
X1001770D01*
X1000500Y576730D02*
Y579270D01*
X999230Y570000D02*
X1001770D01*
X1000500Y568730D02*
Y571270D01*
X1007230Y570000D02*
X1009770D01*
X1008500Y568730D02*
Y571270D01*
X1112730Y434500D02*
X1115270D01*
X1114000Y433230D02*
Y435770D01*
X1002230Y393500D02*
X1004770D01*
X1003500Y392230D02*
Y394770D01*
X892249Y750455D02*
X894789D01*
X893519Y749185D02*
Y751725D01*
X1062730Y335450D02*
X1065270D01*
X1064000Y334180D02*
Y336720D01*
X1070730Y386000D02*
X1073270D01*
X1072000Y384730D02*
Y387270D01*
X1017730Y343000D02*
X1020270D01*
X1019000Y341730D02*
Y344270D01*
X1023230Y316500D02*
X1025770D01*
X1024500Y315230D02*
Y317770D01*
X979730Y347000D02*
X982270D01*
X981000Y345730D02*
Y348270D01*
X998230Y320000D02*
X1000770D01*
X999500Y318730D02*
Y321270D01*
X626730Y515000D02*
X629270D01*
X628000Y513730D02*
Y516270D01*
X642730Y510000D02*
X645270D01*
X644000Y508730D02*
Y511270D01*
X686730Y572500D02*
X689270D01*
X688000Y571230D02*
Y573770D01*
X393230Y314500D02*
X395770D01*
X394500Y313230D02*
Y315770D01*
X373230Y322500D02*
X375770D01*
X374500Y321230D02*
Y323770D01*
X405530Y302300D02*
X408070D01*
X406800Y301030D02*
Y303570D01*
X950230Y332000D02*
X952770D01*
X951500Y330730D02*
Y333270D01*
X973230Y327000D02*
X975770D01*
X974500Y325730D02*
Y328270D01*
X945930Y315800D02*
X948470D01*
X947200Y314530D02*
Y317070D01*
X536980Y786750D02*
X539520D01*
X538250Y785480D02*
Y788020D01*
X549433Y755044D02*
X551973D01*
X550703Y753774D02*
Y756314D01*
X401730Y764500D02*
X404270D01*
X403000Y763230D02*
Y765770D01*
X401730Y770000D02*
X404270D01*
X403000Y768730D02*
Y771270D01*
X403230Y616500D02*
X405770D01*
X404500Y615230D02*
Y617770D01*
X405230Y623000D02*
X407770D01*
X406500Y621730D02*
Y624270D01*
X397730Y623500D02*
X400270D01*
X399000Y622230D02*
Y624770D01*
X389230Y623500D02*
X391770D01*
X390500Y622230D02*
Y624770D01*
X351230Y734000D02*
X353770D01*
X352500Y732730D02*
Y735270D01*
X348730Y749000D02*
X351270D01*
X350000Y747730D02*
Y750270D01*
X359730Y805500D02*
X362270D01*
X361000Y804230D02*
Y806770D01*
X359730Y797000D02*
X362270D01*
X361000Y795730D02*
Y798270D01*
X375230Y608000D02*
X377770D01*
X376500Y606730D02*
Y609270D01*
X351730Y832500D02*
X354270D01*
X353000Y831230D02*
Y833770D01*
X409730Y850500D02*
X412270D01*
X411000Y849230D02*
Y851770D01*
X346730Y857000D02*
X349270D01*
X348000Y855730D02*
Y858270D01*
X801230Y347500D02*
X803770D01*
X802500Y346230D02*
Y348770D01*
X814004Y337500D02*
X816544D01*
X815274Y336230D02*
Y338770D01*
X788456Y337500D02*
X790996D01*
X789726Y336230D02*
Y338770D01*
X813230Y323500D02*
X815770D01*
X814500Y322230D02*
Y324770D01*
X801730Y277500D02*
X804270D01*
X803000Y276230D02*
Y278770D01*
X813730Y404000D02*
X816270D01*
X815000Y402730D02*
Y405270D01*
X805530Y380300D02*
X808070D01*
X806800Y379030D02*
Y381570D01*
X787730Y373000D02*
X790270D01*
X789000Y371730D02*
Y374270D01*
X942230Y368000D02*
X944770D01*
X943500Y366730D02*
Y369270D01*
X972730Y394500D02*
X975270D01*
X974000Y393230D02*
Y395770D01*
X959530Y389800D02*
X962070D01*
X960800Y388530D02*
Y391070D01*
X926730Y418500D02*
X929270D01*
X928000Y417230D02*
Y419770D01*
X930180Y439550D02*
X932720D01*
X931450Y438280D02*
Y440820D01*
X776230Y491500D02*
X778770D01*
X777500Y490230D02*
Y492770D01*
X765730Y496000D02*
X768270D01*
X767000Y494730D02*
Y497270D01*
X765730Y485000D02*
X768270D01*
X767000Y483730D02*
Y486270D01*
X686230Y422000D02*
X688770D01*
X687500Y420730D02*
Y423270D01*
X694730Y413500D02*
X697270D01*
X696000Y412230D02*
Y414770D01*
X636430Y542800D02*
X638970D01*
X637700Y541530D02*
Y544070D01*
X796230Y553500D02*
X798770D01*
X797500Y552230D02*
Y554770D01*
X491030Y458200D02*
X493570D01*
X492300Y456930D02*
Y459470D01*
X641430Y423950D02*
X643970D01*
X642700Y422680D02*
Y425220D01*
X643230Y442250D02*
X645770D01*
X644500Y440980D02*
Y443520D01*
X1037730Y892500D02*
X1040270D01*
X1039000Y891230D02*
Y893770D01*
X624230Y384500D02*
X626770D01*
X625500Y383230D02*
Y385770D01*
X624230Y359000D02*
X626770D01*
X625500Y357730D02*
Y360270D01*
X654730Y342500D02*
X657270D01*
X656000Y341230D02*
Y343770D01*
X678430Y334300D02*
X680970D01*
X679700Y333030D02*
Y335570D01*
X636230Y304000D02*
X638770D01*
X637500Y302730D02*
Y305270D01*
X587230Y386000D02*
X589770D01*
X588500Y384730D02*
Y387270D01*
X552730Y386500D02*
X555270D01*
X554000Y385230D02*
Y387770D01*
X482880Y365000D02*
X485420D01*
X484150Y363730D02*
Y366270D01*
X668230Y288500D02*
X670770D01*
X669500Y287230D02*
Y289770D01*
X490730Y467800D02*
X493270D01*
X492000Y466530D02*
Y469070D01*
X494730Y422522D02*
X497270D01*
X496000Y421252D02*
Y423792D01*
X416730Y393000D02*
X419270D01*
X418000Y391730D02*
Y394270D01*
X507096Y402448D02*
X509636D01*
X508366Y401178D02*
Y403718D01*
X529730Y316000D02*
X532270D01*
X531000Y314730D02*
Y317270D01*
X540730Y314000D02*
X543270D01*
X542000Y312730D02*
Y315270D01*
X540230Y343500D02*
X542770D01*
X541500Y342230D02*
Y344770D01*
X440230Y356500D02*
X442770D01*
X441500Y355230D02*
Y357770D01*
X476180Y415950D02*
X478720D01*
X477450Y414680D02*
Y417220D01*
X500230Y388350D02*
X502770D01*
X501500Y387080D02*
Y389620D01*
X1156430Y538800D02*
X1158970D01*
X1157700Y537530D02*
Y540070D01*
X1102430Y505800D02*
X1104970D01*
X1103700Y504530D02*
Y507070D01*
X1048730Y510000D02*
X1051270D01*
X1050000Y508730D02*
Y511270D01*
X1022730Y454500D02*
X1025270D01*
X1024000Y453230D02*
Y455770D01*
X994230Y451000D02*
X996770D01*
X995500Y449730D02*
Y452270D01*
X1092430Y447000D02*
X1094970D01*
X1093700Y445730D02*
Y448270D01*
X1113230Y447000D02*
X1115770D01*
X1114500Y445730D02*
Y448270D01*
X1009230Y494500D02*
X1011770D01*
X1010500Y493230D02*
Y495770D01*
X1036730Y494500D02*
X1039270D01*
X1038000Y493230D02*
Y495770D01*
X1052230Y494700D02*
X1054770D01*
X1053500Y493430D02*
Y495970D01*
X1107730Y862500D02*
X1110270D01*
X1109000Y861230D02*
Y863770D01*
X918480Y863750D02*
X921020D01*
X919750Y862480D02*
Y865020D01*
X757730Y824000D02*
X760270D01*
X759000Y822730D02*
Y825270D01*
X603480Y882750D02*
X606020D01*
X604750Y881480D02*
Y884020D01*
X1237730Y530500D02*
X1240270D01*
X1239000Y529230D02*
Y531770D01*
X1211230Y556500D02*
X1213770D01*
X1212500Y555230D02*
Y557770D01*
X1207730Y537000D02*
X1210270D01*
X1209000Y535730D02*
Y538270D01*
X1237730Y714500D02*
X1240270D01*
X1239000Y713230D02*
Y715770D01*
X1210730Y724500D02*
X1213270D01*
X1212000Y723230D02*
Y725770D01*
X1211730Y744000D02*
X1214270D01*
X1213000Y742730D02*
Y745270D01*
X1205030Y833700D02*
X1207570D01*
X1206300Y832430D02*
Y834970D01*
X1210230Y809000D02*
X1212770D01*
X1211500Y807730D02*
Y810270D01*
X497230Y831500D02*
X499770D01*
X498500Y830230D02*
Y832770D01*
X527230Y832500D02*
X529770D01*
X528500Y831230D02*
Y833770D01*
X536230Y832500D02*
X538770D01*
X537500Y831230D02*
Y833770D01*
X507730Y834000D02*
X510270D01*
X509000Y832730D02*
Y835270D01*
X527730Y787500D02*
X530270D01*
X529000Y786230D02*
Y788770D01*
X516230Y834000D02*
X518770D01*
X517500Y832730D02*
Y835270D01*
X566230Y880500D02*
X568770D01*
X567500Y879230D02*
Y881770D01*
X543230Y864500D02*
X545770D01*
X544500Y863230D02*
Y865770D01*
X488730Y831500D02*
X491270D01*
X490000Y830230D02*
Y832770D01*
X1224730Y570000D02*
X1227270D01*
X1226000Y568730D02*
Y571270D01*
X1290730Y542000D02*
X1293270D01*
X1292000Y540730D02*
Y543270D01*
X1257131Y542501D02*
X1259670D01*
X1258400Y541231D02*
Y543771D01*
X1290730Y625999D02*
X1293270D01*
X1292000Y624729D02*
Y627270D01*
X975730Y815500D02*
X978270D01*
X977000Y814230D02*
Y816770D01*
X1186229Y847900D02*
X1188769D01*
X1187499Y846630D02*
Y849171D01*
X1186730Y881500D02*
X1189270D01*
X1188000Y880230D02*
Y882770D01*
X1102730Y881500D02*
X1105270D01*
X1104000Y880230D02*
Y882770D01*
X1290730Y809000D02*
X1293270D01*
X1292000Y807730D02*
Y810270D01*
X1261730Y633000D02*
X1264270D01*
X1263000Y631730D02*
Y634270D01*
X1274230Y701000D02*
X1276770D01*
X1275500Y699730D02*
Y702270D01*
X1271230Y661500D02*
X1273770D01*
X1272500Y660230D02*
Y662770D01*
X1287730Y638500D02*
X1290270D01*
X1289000Y637230D02*
Y639770D01*
X1302730Y691000D02*
X1305270D01*
X1304000Y689730D02*
Y692270D01*
X1280030Y630200D02*
X1282570D01*
X1281300Y628930D02*
Y631470D01*
X1257131Y725501D02*
X1259670D01*
X1258400Y724231D02*
Y726771D01*
X1290730Y725000D02*
X1293270D01*
X1292000Y723730D02*
Y726270D01*
X1231730Y684500D02*
X1234270D01*
X1233000Y683230D02*
Y685770D01*
X1239730Y684500D02*
X1242270D01*
X1241000Y683230D02*
Y685770D01*
X1231730Y692500D02*
X1234270D01*
X1233000Y691230D02*
Y693770D01*
X769730Y788000D02*
X772270D01*
X771000Y786730D02*
Y789270D01*
X1011430Y830700D02*
X1013970D01*
X1012700Y829430D02*
Y831970D01*
X1036230Y822500D02*
X1038770D01*
X1037500Y821230D02*
Y823770D01*
X1044230Y830500D02*
X1046770D01*
X1045500Y829230D02*
Y831770D01*
X1044230Y822500D02*
X1046770D01*
X1045500Y821230D02*
Y823770D01*
X919730Y881500D02*
X922270D01*
X921000Y880230D02*
Y882770D01*
X1003730Y881500D02*
X1006270D01*
X1005000Y880230D02*
Y882770D01*
X1003229Y847900D02*
X1005769D01*
X1004499Y846630D02*
Y849171D01*
X1098530Y870800D02*
X1101070D01*
X1099800Y869530D02*
Y872070D01*
X1090230Y878500D02*
X1092770D01*
X1091500Y877230D02*
Y879770D01*
X1067230Y862000D02*
X1069770D01*
X1068500Y860730D02*
Y863270D01*
X1026230Y865000D02*
X1028770D01*
X1027500Y863730D02*
Y866270D01*
X1095730Y852500D02*
X1098270D01*
X1097000Y851230D02*
Y853770D01*
X742230Y851500D02*
X744770D01*
X743500Y850230D02*
Y852770D01*
X673730Y862500D02*
X676270D01*
X675000Y861230D02*
Y863770D01*
X736730Y877500D02*
X739270D01*
X738000Y876230D02*
Y878770D01*
X684230Y892500D02*
X686770D01*
X685500Y891230D02*
Y893770D01*
X745030Y869800D02*
X747570D01*
X746300Y868530D02*
Y871070D01*
X844230Y830000D02*
X846770D01*
X845500Y828730D02*
Y831270D01*
X749230Y880500D02*
X751770D01*
X750500Y879230D02*
Y881770D01*
X833230Y880500D02*
X835770D01*
X834500Y879230D02*
Y881770D01*
X832729Y846900D02*
X835269D01*
X833999Y845630D02*
Y848170D01*
X649729Y846900D02*
X652269D01*
X650999Y845630D02*
Y848170D01*
X650230Y880500D02*
X652770D01*
X651500Y879230D02*
Y881770D01*
X1271230Y572001D02*
X1273770D01*
X1272500Y570731D02*
Y573271D01*
X1271230Y755001D02*
X1273770D01*
X1272500Y753731D02*
Y756271D01*
X1156729Y862000D02*
X1159269D01*
X1157999Y860730D02*
Y863270D01*
X973729Y862000D02*
X976269D01*
X974999Y860730D02*
Y863270D01*
X803229Y861000D02*
X805769D01*
X804499Y859730D02*
Y862270D01*
X620229Y861000D02*
X622769D01*
X621499Y859730D02*
Y862270D01*
X724230Y747000D02*
X726770D01*
X725500Y745730D02*
Y748270D01*
X709230Y747000D02*
X711770D01*
X710500Y745730D02*
Y748270D01*
X604865Y817000D02*
X607405D01*
X606134Y815730D02*
Y818270D01*
X662530Y833200D02*
X665070D01*
X663800Y831930D02*
Y834470D01*
X614230Y824000D02*
X616769D01*
X615499Y822730D02*
Y825270D01*
X554230Y789000D02*
X556770D01*
X555500Y787730D02*
Y790270D01*
X564230Y783000D02*
X566770D01*
X565500Y781730D02*
Y784270D01*
X484230Y844000D02*
X486770D01*
X485500Y842730D02*
Y845270D01*
X476230Y850000D02*
X478770D01*
X477500Y848730D02*
Y851270D01*
X462930Y889300D02*
X465470D01*
X464200Y888030D02*
Y890570D01*
X446430Y860700D02*
X448970D01*
X447700Y859430D02*
Y861970D01*
X468230Y866500D02*
X470770D01*
X469500Y865230D02*
Y867770D01*
X445930Y870300D02*
X448470D01*
X447200Y869030D02*
Y871570D01*
X446030Y879700D02*
X448570D01*
X447300Y878430D02*
Y880970D01*
X484230Y862000D02*
X486770D01*
X485500Y860730D02*
Y863270D01*
X505730Y860500D02*
X508270D01*
X507000Y859230D02*
Y861770D01*
X511230Y867000D02*
X513770D01*
X512500Y865730D02*
Y868270D01*
X393868Y759865D02*
X396408D01*
X395138Y758596D02*
Y761135D01*
X393868Y753135D02*
X396408D01*
X395138Y751864D02*
Y754405D01*
X1001730Y667500D02*
X1004270D01*
X1003000Y666230D02*
Y668770D01*
X1242980Y631250D02*
X1245520D01*
X1244250Y629980D02*
Y632520D01*
X1219230Y798500D02*
X1221770D01*
X1220500Y797230D02*
Y799770D01*
X575730Y646586D02*
X578270D01*
X577000Y645316D02*
Y647856D01*
X336730Y394000D02*
X339270D01*
X338000Y392730D02*
Y395270D01*
X336730Y403000D02*
X339270D01*
X338000Y401730D02*
Y404270D01*
X332730Y382000D02*
X335270D01*
X334000Y380730D02*
Y383270D01*
X321730Y382000D02*
X324270D01*
X323000Y380730D02*
Y383270D01*
X310730Y382000D02*
X313270D01*
X312000Y380730D02*
Y383270D01*
X300230Y382000D02*
X302770D01*
X301500Y380730D02*
Y383270D01*
X290230Y382000D02*
X292770D01*
X291500Y380730D02*
Y383270D01*
X280730Y382000D02*
X283270D01*
X282000Y380730D02*
Y383270D01*
X332730Y413500D02*
X335270D01*
X334000Y412230D02*
Y414770D01*
X321230Y413500D02*
X323770D01*
X322500Y412230D02*
Y414770D01*
X280730Y392000D02*
X283270D01*
X282000Y390730D02*
Y393270D01*
X280730Y402500D02*
X283270D01*
X282000Y401230D02*
Y403770D01*
X490230Y656500D02*
X492770D01*
X491500Y655230D02*
Y657770D01*
X490230Y665000D02*
X492770D01*
X491500Y663730D02*
Y666270D01*
X435730Y393500D02*
X438270D01*
X437000Y392230D02*
Y394770D01*
X425730Y363500D02*
X428270D01*
X427000Y362230D02*
Y364770D01*
X486730Y697500D02*
X489270D01*
X488000Y696230D02*
Y698770D01*
X466730Y639000D02*
X469270D01*
X468000Y637730D02*
Y640270D01*
X466730Y647000D02*
X469270D01*
X468000Y645730D02*
Y648270D01*
X466730Y654500D02*
X469270D01*
X468000Y653230D02*
Y655770D01*
X478730Y697500D02*
X481270D01*
X480000Y696230D02*
Y698770D01*
X470730Y697500D02*
X473270D01*
X472000Y696230D02*
Y698770D01*
X419480Y373700D02*
X422020D01*
X420750Y372430D02*
Y374970D01*
X433530Y346200D02*
X436070D01*
X434800Y344930D02*
Y347470D01*
X410430Y336300D02*
X412970D01*
X411700Y335030D02*
Y337570D01*
X393030Y335700D02*
X395570D01*
X394300Y334430D02*
Y336970D01*
X378730Y339500D02*
X381270D01*
X380000Y338230D02*
Y340770D01*
X1140230Y873000D02*
X1142770D01*
X1141500Y871730D02*
Y874270D01*
X520230Y791500D02*
X522770D01*
X521500Y790230D02*
Y792770D01*
X539230Y751500D02*
X541770D01*
X540500Y750230D02*
Y752770D01*
X389519Y447170D02*
X392059D01*
X390789Y445900D02*
Y448441D01*
X496230Y781500D02*
X498770D01*
X497500Y780230D02*
Y782770D01*
X413730Y469000D02*
X416270D01*
X415000Y467730D02*
Y470270D01*
X453730Y468000D02*
X456270D01*
X455000Y466730D02*
Y469270D01*
X415230Y495000D02*
X417770D01*
X416500Y493730D02*
Y496270D01*
X415730Y501500D02*
X418270D01*
X417000Y500230D02*
Y502770D01*
X412730Y482500D02*
X415270D01*
X414000Y481230D02*
Y483770D01*
X437730Y652000D02*
X440270D01*
X439000Y650730D02*
Y653270D01*
X357368Y729865D02*
X359908D01*
X358638Y728596D02*
Y731135D01*
X357368Y723135D02*
X359908D01*
X358638Y721864D02*
Y724405D01*
X451730Y666500D02*
X454270D01*
X453000Y665230D02*
Y667770D01*
X441730Y666500D02*
X444270D01*
X443000Y665230D02*
Y667770D01*
X458730Y779000D02*
X461270D01*
X460000Y777730D02*
Y780270D01*
X449230Y779000D02*
X451770D01*
X450500Y777730D02*
Y780270D01*
X436730Y764000D02*
X439270D01*
X438000Y762730D02*
Y765270D01*
X436730Y773000D02*
X439270D01*
X438000Y771730D02*
Y774270D01*
X461230Y696500D02*
X463770D01*
X462500Y695230D02*
Y697770D01*
X451730Y696500D02*
X454270D01*
X453000Y695230D02*
Y697770D01*
X441730Y696500D02*
X444270D01*
X443000Y695230D02*
Y697770D01*
X708730Y571000D02*
X711270D01*
X710000Y569730D02*
Y572270D01*
X470730Y779000D02*
X473270D01*
X472000Y777730D02*
Y780270D01*
X479230Y779000D02*
X481770D01*
X480500Y777730D02*
Y780270D01*
X487730Y779000D02*
X490270D01*
X489000Y777730D02*
Y780270D01*
X514230Y755000D02*
X516770D01*
X515500Y753730D02*
Y756270D01*
X803730Y498500D02*
X806270D01*
X805000Y497230D02*
Y499770D01*
X848230Y524500D02*
X850770D01*
X849500Y523230D02*
Y525770D01*
X936030Y586700D02*
X938570D01*
X937300Y585430D02*
Y587970D01*
X953380Y564000D02*
X955920D01*
X954650Y562730D02*
Y565270D01*
X945730Y551000D02*
X948270D01*
X947000Y549730D02*
Y552270D01*
X926430Y586700D02*
X928970D01*
X927700Y585430D02*
Y587970D01*
X817230Y533000D02*
X819770D01*
X818500Y531730D02*
Y534270D01*
X808230Y568000D02*
X810770D01*
X809500Y566730D02*
Y569270D01*
X372530Y427800D02*
X375070D01*
X373800Y426530D02*
Y429070D01*
X359730Y489000D02*
X362270D01*
X361000Y487730D02*
Y490270D01*
X377530Y467200D02*
X380070D01*
X378800Y465930D02*
Y468470D01*
X359730Y479000D02*
X362270D01*
X361000Y477730D02*
Y480270D01*
X389730Y479500D02*
X392270D01*
X391000Y478230D02*
Y480770D01*
X380230Y479500D02*
X382770D01*
X381500Y478230D02*
Y480770D01*
X350730Y489000D02*
X353270D01*
X352000Y487730D02*
Y490270D01*
X380230Y489000D02*
X382770D01*
X381500Y487730D02*
Y490270D01*
X369730Y489000D02*
X372270D01*
X371000Y487730D02*
Y490270D01*
X342730Y511500D02*
X345270D01*
X344000Y510230D02*
Y512770D01*
X350730Y504000D02*
X353270D01*
X352000Y502730D02*
Y505270D01*
X342730Y521500D02*
X345270D01*
X344000Y520230D02*
Y522770D01*
X295230Y485225D02*
X297770D01*
X296500Y483955D02*
Y486495D01*
X275730Y484000D02*
X278270D01*
X277000Y482730D02*
Y485270D01*
X288530Y501800D02*
X291070D01*
X289800Y500530D02*
Y503070D01*
X350730Y539000D02*
X353270D01*
X352000Y537730D02*
Y540270D01*
X342730Y544500D02*
X345270D01*
X344000Y543230D02*
Y545770D01*
X360730Y516500D02*
X363270D01*
X362000Y515230D02*
Y517770D01*
X350730Y516500D02*
X353270D01*
X352000Y515230D02*
Y517770D01*
X350730Y550500D02*
X353270D01*
X352000Y549230D02*
Y551770D01*
X342730Y533000D02*
X345270D01*
X344000Y531730D02*
Y534270D01*
X370230Y517000D02*
X372770D01*
X371500Y515730D02*
Y518270D01*
X350730Y528000D02*
X353270D01*
X352000Y526730D02*
Y529270D01*
X366730Y657500D02*
X369270D01*
X368000Y656230D02*
Y658770D01*
X323730Y659000D02*
X326270D01*
X325000Y657730D02*
Y660270D01*
X382230Y638500D02*
X384770D01*
X383500Y637230D02*
Y639770D01*
X382230Y648000D02*
X384770D01*
X383500Y646730D02*
Y649270D01*
X358730Y461500D02*
X361270D01*
X360000Y460230D02*
Y462770D01*
X343230Y466000D02*
X345770D01*
X344500Y464730D02*
Y467270D01*
X351230Y457000D02*
X353770D01*
X352500Y455730D02*
Y458270D01*
X349730Y425000D02*
X352270D01*
X351000Y423730D02*
Y426270D01*
X315230Y443000D02*
X317770D01*
X316500Y441730D02*
Y444270D01*
X328730Y443000D02*
X331270D01*
X330000Y441730D02*
Y444270D01*
X472862Y530634D02*
X475402D01*
X474132Y529365D02*
Y531904D01*
X472862Y537365D02*
X475402D01*
X474132Y536096D02*
Y538635D01*
X589230Y559500D02*
X591770D01*
X590500Y558230D02*
Y560770D01*
X591904Y552132D02*
X594444D01*
X593174Y550862D02*
Y553401D01*
X915230Y400500D02*
X917770D01*
X916500Y399230D02*
Y401770D01*
X954230Y429500D02*
X956770D01*
X955500Y428230D02*
Y430770D01*
X935730Y430000D02*
X938270D01*
X937000Y428730D02*
Y431270D01*
X890230Y492000D02*
X892770D01*
X891500Y490730D02*
Y493270D01*
X939230Y486000D02*
X941770D01*
X940500Y484730D02*
Y487270D01*
X920730Y490000D02*
X923270D01*
X922000Y488730D02*
Y491270D01*
X941864Y434362D02*
X944405D01*
X943135Y433092D02*
Y435632D01*
X948596Y434362D02*
X951135D01*
X949865Y433092D02*
Y435632D01*
X927968Y491138D02*
X930508D01*
X929238Y489868D02*
Y492408D01*
X934698Y491138D02*
X937238D01*
X935968Y489868D02*
Y492408D01*
X896967Y494138D02*
X899508D01*
X898238Y492868D02*
Y495408D01*
X903699Y494138D02*
X906238D01*
X904968Y492868D02*
Y495408D01*
X926730Y654868D02*
X929270D01*
X928000Y653598D02*
Y656139D01*
X930852Y648868D02*
X933392D01*
X932122Y647598D02*
Y650138D01*
X937583Y648868D02*
X940123D01*
X938853Y647598D02*
Y650138D01*
X941730Y654868D02*
X944270D01*
X943000Y653598D02*
Y656139D01*
X892175Y510099D02*
X894715D01*
X893445Y508829D02*
Y511370D01*
X868230Y506000D02*
X870770D01*
X869500Y504730D02*
Y507270D01*
X846730Y506000D02*
X849270D01*
X848000Y504730D02*
Y507270D01*
X860698Y507638D02*
X863239D01*
X861969Y506368D02*
Y508908D01*
X853968Y507638D02*
X856507D01*
X855238Y506368D02*
Y508908D01*
X883699Y507638D02*
X886238D01*
X884968Y506368D02*
Y508908D01*
X876967Y507638D02*
X879508D01*
X878238Y506368D02*
Y508908D01*
X970095Y720362D02*
X972635D01*
X971365Y719092D02*
Y721632D01*
X963364Y720362D02*
X965904D01*
X964634Y719092D02*
Y721632D01*
X1008365Y751862D02*
X1010905D01*
X1009635Y750592D02*
Y753132D01*
X1015096Y751862D02*
X1017636D01*
X1016366Y750592D02*
Y753132D01*
X986794Y650866D02*
X989334D01*
X988064Y649596D02*
Y652136D01*
X1002293Y650366D02*
X1004834D01*
X1003564Y649096D02*
Y651636D01*
X997646Y644866D02*
X1000186D01*
X998916Y643596D02*
Y646136D01*
X990915Y644866D02*
X993455D01*
X992185Y643596D02*
Y646136D01*
X1005255Y745000D02*
X1007795D01*
X1006525Y743730D02*
Y746270D01*
X901365Y398362D02*
X903904D01*
X902635Y397092D02*
Y399632D01*
X908095Y398362D02*
X910636D01*
X909365Y397092D02*
Y399632D01*
X904730Y408750D02*
X907270D01*
X906000Y407480D02*
Y410020D01*
X889730Y408750D02*
X892270D01*
X891000Y407480D02*
Y410020D01*
X874730Y408750D02*
X877270D01*
X876000Y407480D02*
Y410020D01*
X859730Y408750D02*
X862270D01*
X861000Y407480D02*
Y410020D01*
X992364Y554608D02*
X994904D01*
X993634Y553338D02*
Y555878D01*
X825431Y720869D02*
X827971D01*
X826701Y719598D02*
Y722139D01*
X992364Y561339D02*
X994904D01*
X993634Y560069D02*
Y562609D01*
X832162Y720869D02*
X834702D01*
X833432Y719598D02*
Y722139D01*
X836730Y726500D02*
X839270D01*
X838000Y725230D02*
Y727770D01*
X819230Y725000D02*
X821770D01*
X820500Y723730D02*
Y726270D01*
X993730Y547500D02*
X996270D01*
X995000Y546230D02*
Y548770D01*
X987730Y567000D02*
X990270D01*
X989000Y565730D02*
Y568270D01*
X800730Y739500D02*
X803270D01*
X802000Y738230D02*
Y740770D01*
X803364Y746368D02*
X805904D01*
X804634Y745098D02*
Y747638D01*
X810096Y746368D02*
X812635D01*
X811366Y745098D02*
Y747638D01*
X774230Y741000D02*
X776770D01*
X775500Y739730D02*
Y742270D01*
X387230Y749500D02*
X389770D01*
X388500Y748230D02*
Y750770D01*
X387230Y763000D02*
X389770D01*
X388500Y761730D02*
Y764270D01*
X359730Y765000D02*
X362270D01*
X361000Y763730D02*
Y766270D01*
X376730Y656500D02*
X379270D01*
X378000Y655230D02*
Y657770D01*
X788230Y742000D02*
X790770D01*
X789500Y740730D02*
Y743270D01*
X352480Y674000D02*
X355020D01*
X353750Y672730D02*
Y675270D01*
X726730Y697500D02*
X729270D01*
X728000Y696230D02*
Y698770D01*
X699230Y667500D02*
X701770D01*
X700500Y666230D02*
Y668770D01*
X899230Y753270D02*
X901770D01*
X900500Y752000D02*
Y754539D01*
X780730Y712000D02*
X783270D01*
X782000Y710730D02*
Y713270D01*
X768230Y712000D02*
X770770D01*
X769500Y710730D02*
Y713270D01*
X752230Y703500D02*
X754770D01*
X753500Y702230D02*
Y704770D01*
X685864Y664862D02*
X688404D01*
X687134Y663592D02*
Y666132D01*
X692596Y664862D02*
X695135D01*
X693866Y663592D02*
Y666132D01*
X379868Y669865D02*
X382408D01*
X381138Y668596D02*
Y671135D01*
X379868Y663135D02*
X382408D01*
X381138Y661864D02*
Y664405D01*
X774230Y753500D02*
X776770D01*
X775500Y752230D02*
Y754770D01*
X759230Y753500D02*
X761770D01*
X760500Y752230D02*
Y754770D01*
X707730Y727000D02*
X710270D01*
X709000Y725730D02*
Y728270D01*
X695230Y741000D02*
X697770D01*
X696500Y739730D02*
Y742270D01*
X698365Y733862D02*
X700905D01*
X699635Y732592D02*
Y735132D01*
X705096Y733862D02*
X707636D01*
X706366Y732592D02*
Y735132D01*
X664916Y496868D02*
X667456D01*
X666186Y495598D02*
Y498138D01*
X658730Y501000D02*
X661270D01*
X660000Y499730D02*
Y502270D01*
X676230Y491000D02*
X678770D01*
X677500Y489730D02*
Y492270D01*
X731230Y571000D02*
X733770D01*
X732500Y569730D02*
Y572270D01*
X690096Y747868D02*
X692635D01*
X691366Y746599D02*
Y749138D01*
X683364Y747868D02*
X685904D01*
X684634Y746599D02*
Y749138D01*
X694230Y753270D02*
X696770D01*
X695500Y752000D02*
Y754539D01*
X679230Y753270D02*
X681770D01*
X680500Y752000D02*
Y754539D01*
X681730Y671000D02*
X684270D01*
X683000Y669730D02*
Y672270D01*
X682230Y480500D02*
X684770D01*
X683500Y479230D02*
Y481770D01*
X671647Y496868D02*
X674187D01*
X672917Y495598D02*
Y498138D01*
X668615Y479632D02*
X671154D01*
X669884Y478362D02*
Y480902D01*
X675346Y479632D02*
X677886D01*
X676616Y478362D02*
Y480902D01*
X703230Y448500D02*
X705770D01*
X704500Y447230D02*
Y449770D01*
X684230Y447000D02*
X686770D01*
X685500Y445730D02*
Y448270D01*
X738730Y429000D02*
X741270D01*
X740000Y427730D02*
Y430270D01*
X948364Y736086D02*
X950904D01*
X949634Y734816D02*
Y737356D01*
X955096Y736086D02*
X957635D01*
X956366Y734816D02*
Y737356D01*
X949230Y729000D02*
X951770D01*
X950500Y727730D02*
Y730270D01*
X908890Y717447D02*
X911430D01*
X910160Y716177D02*
Y718717D01*
X902159Y717447D02*
X904699D01*
X903429Y716177D02*
Y718717D01*
X894980Y717533D02*
X897520D01*
X896250Y716263D02*
Y718803D01*
X915980Y717533D02*
X918520D01*
X917250Y716263D02*
Y718803D01*
X895935Y734619D02*
X898475D01*
X897205Y733349D02*
Y735889D01*
X889204Y734619D02*
X891744D01*
X890474Y733349D02*
Y735889D01*
X882025Y734705D02*
X884565D01*
X883295Y733435D02*
Y735975D01*
X903025Y734705D02*
X905565D01*
X904295Y733435D02*
Y735975D01*
X610730Y472000D02*
X613270D01*
X612000Y470730D02*
Y473270D01*
X557365Y472914D02*
X559905D01*
X558634Y471644D02*
Y474184D01*
X564095Y472914D02*
X566636D01*
X565365Y471644D02*
Y474184D01*
X544095Y472914D02*
X546636D01*
X545365Y471644D02*
Y474184D01*
X883140Y750414D02*
X885680D01*
X884410Y749144D02*
Y751684D01*
X876409Y750414D02*
X878949D01*
X877679Y749144D02*
Y751684D01*
X869230Y750500D02*
X871770D01*
X870500Y749230D02*
Y751770D01*
X787865Y817000D02*
X790405D01*
X789135Y815730D02*
Y818270D01*
X794595Y817000D02*
X797135D01*
X795865Y815730D02*
Y818270D01*
X590730Y470000D02*
X593270D01*
X592000Y468730D02*
Y471270D01*
X570730Y469500D02*
X573270D01*
X572000Y468230D02*
Y470770D01*
X604095Y472914D02*
X606636D01*
X605365Y471644D02*
Y474184D01*
X597365Y472914D02*
X599905D01*
X598634Y471644D02*
Y474184D01*
X584095Y473114D02*
X586636D01*
X585365Y471844D02*
Y474384D01*
X577365Y473114D02*
X579905D01*
X578634Y471844D02*
Y474384D01*
X592230Y425500D02*
X594770D01*
X593500Y424230D02*
Y426770D01*
X577230Y425500D02*
X579770D01*
X578500Y424230D02*
Y426770D01*
X562230Y425500D02*
X564770D01*
X563500Y424230D02*
Y426770D01*
X547230Y425500D02*
X549770D01*
X548500Y424230D02*
Y426770D01*
X662596Y665470D02*
X665136D01*
X663866Y664200D02*
Y666740D01*
X655865Y665470D02*
X658405D01*
X657135Y664200D02*
Y666740D01*
X666731Y671271D02*
X669271D01*
X668001Y670001D02*
Y672541D01*
X651731Y671271D02*
X654271D01*
X653001Y670001D02*
Y672541D01*
X591730Y634500D02*
X594270D01*
X593000Y633230D02*
Y635770D01*
X621730Y653000D02*
X624270D01*
X623000Y651730D02*
Y654270D01*
X617596Y660086D02*
X620136D01*
X618866Y658816D02*
Y661356D01*
X610865Y660086D02*
X613405D01*
X612135Y658816D02*
Y661356D01*
X638230Y651000D02*
X640770D01*
X639500Y649730D02*
Y652270D01*
X632596Y646586D02*
X635136D01*
X633866Y645316D02*
Y647856D01*
X625865Y646586D02*
X628405D01*
X627135Y645316D02*
Y647856D01*
X587595Y651586D02*
X590135D01*
X588866Y650316D02*
Y652856D01*
X602595Y640673D02*
X605135D01*
X603866Y639403D02*
Y641943D01*
X595864Y640673D02*
X598405D01*
X597135Y639403D02*
Y641943D01*
X580864Y651586D02*
X583405D01*
X582135Y650316D02*
Y652856D01*
X646230Y746000D02*
X648770D01*
X647500Y744730D02*
Y747270D01*
X1150730Y825000D02*
X1153270D01*
X1152000Y823730D02*
Y826270D01*
X1227230Y587365D02*
X1229770D01*
X1228500Y586095D02*
Y588635D01*
X1227230Y580634D02*
X1229770D01*
X1228500Y579364D02*
Y581904D01*
X1091230Y600500D02*
X1093770D01*
X1092500Y599230D02*
Y601770D01*
X1076230Y601000D02*
X1078770D01*
X1077500Y599730D02*
Y602270D01*
X1080865Y606869D02*
X1083405D01*
X1082135Y605598D02*
Y608139D01*
X1087596Y606869D02*
X1090136D01*
X1088866Y605598D02*
Y608139D01*
X1076230Y620500D02*
X1078770D01*
X1077500Y619230D02*
Y621770D01*
X1058730Y629000D02*
X1061270D01*
X1060000Y627730D02*
Y630270D01*
X1065865Y626869D02*
X1068405D01*
X1067135Y625598D02*
Y628139D01*
X1072596Y626869D02*
X1075136D01*
X1073866Y625598D02*
Y628139D01*
X1042596Y669868D02*
X1045136D01*
X1043866Y668598D02*
Y671139D01*
X1035865Y669868D02*
X1038405D01*
X1037135Y668598D02*
Y671139D01*
X1234230Y772999D02*
X1236770D01*
X1235500Y771730D02*
Y774269D01*
X1234230Y761001D02*
X1236770D01*
X1235500Y759731D02*
Y762271D01*
X1227230Y770366D02*
X1229770D01*
X1228500Y769096D02*
Y771636D01*
X1227230Y763634D02*
X1229770D01*
X1228500Y762365D02*
Y764904D01*
X1046730Y663500D02*
X1049270D01*
X1048000Y662230D02*
Y664770D01*
X1015730Y644500D02*
X1018270D01*
X1017000Y643230D02*
Y645770D01*
X1032730Y663000D02*
X1035270D01*
X1034000Y661730D02*
Y664270D01*
X1050852Y649868D02*
X1053392D01*
X1052122Y648598D02*
Y651139D01*
X1057583Y649868D02*
X1060123D01*
X1058853Y648598D02*
Y651139D01*
X1027583Y649866D02*
X1030123D01*
X1028853Y648596D02*
Y651136D01*
X1020852Y649866D02*
X1023392D01*
X1022122Y648596D02*
Y651136D01*
X1031230Y643500D02*
X1033770D01*
X1032500Y642230D02*
Y644770D01*
X1047230Y643500D02*
X1049770D01*
X1048500Y642230D02*
Y644770D01*
X1061730Y644000D02*
X1064270D01*
X1063000Y642730D02*
Y645270D01*
X1094731Y786000D02*
X1097271D01*
X1096001Y784730D02*
Y787270D01*
X1079731Y786500D02*
X1082271D01*
X1081001Y785230D02*
Y787770D01*
X1090096Y780132D02*
X1092636D01*
X1091366Y778861D02*
Y781402D01*
X1083365Y780132D02*
X1085905D01*
X1084635Y778861D02*
Y781402D01*
X1064230Y726000D02*
X1066770D01*
X1065500Y724730D02*
Y727270D01*
X1049730Y725500D02*
X1052270D01*
X1051000Y724230D02*
Y726770D01*
X1033730Y725500D02*
X1036270D01*
X1035000Y724230D02*
Y726770D01*
X1023352Y731866D02*
X1025892D01*
X1024622Y730596D02*
Y733136D01*
X1030083Y731866D02*
X1032623D01*
X1031353Y730596D02*
Y733136D01*
X1060083Y731869D02*
X1062623D01*
X1061353Y730599D02*
Y733139D01*
X1053352Y731869D02*
X1055892D01*
X1054622Y730599D02*
Y733139D01*
X1078730Y745500D02*
X1081270D01*
X1080000Y744230D02*
Y746770D01*
X1068365Y751869D02*
X1070905D01*
X1069635Y750599D02*
Y753139D01*
X1075096Y751869D02*
X1077636D01*
X1076366Y750599D02*
Y753139D01*
X1063730Y746000D02*
X1066270D01*
X1065000Y744730D02*
Y747270D01*
X1049230Y778729D02*
X1051770D01*
X1050500Y777459D02*
Y779999D01*
X1064230Y778729D02*
X1066770D01*
X1065500Y777459D02*
Y779999D01*
X1035230Y745000D02*
X1037770D01*
X1036500Y743730D02*
Y746270D01*
X1018230Y726500D02*
X1020770D01*
X1019500Y725230D02*
Y727770D01*
X1045096Y751869D02*
X1047636D01*
X1046366Y750599D02*
Y753139D01*
X1038365Y751869D02*
X1040905D01*
X1039635Y750599D02*
Y753139D01*
X1049230Y745500D02*
X1051770D01*
X1050500Y744230D02*
Y746770D01*
X967583Y657500D02*
X970123D01*
X968853Y656230D02*
Y658770D01*
X960852Y657500D02*
X963392D01*
X962122Y656230D02*
Y658770D01*
X972730Y663000D02*
X975270D01*
X974000Y661730D02*
Y664270D01*
X956730Y663500D02*
X959270D01*
X958000Y662230D02*
Y664770D01*
X982596Y669868D02*
X985136D01*
X983866Y668598D02*
Y671139D01*
X975865Y669868D02*
X978405D01*
X977135Y668598D02*
Y671139D01*
X915864Y669868D02*
X918404D01*
X917134Y668598D02*
Y671139D01*
X922596Y669868D02*
X925135D01*
X923866Y668598D02*
Y671139D01*
X896730Y663500D02*
X899270D01*
X898000Y662230D02*
Y664770D01*
X912730Y663000D02*
X915270D01*
X914000Y661730D02*
Y664270D01*
X900852Y657500D02*
X903392D01*
X902122Y656230D02*
Y658770D01*
X907583Y657500D02*
X910123D01*
X908853Y656230D02*
Y658770D01*
X965096Y818000D02*
X967635D01*
X966366Y816730D02*
Y819270D01*
X958364Y818000D02*
X960904D01*
X959634Y816730D02*
Y819270D01*
X1234230Y589999D02*
X1236770D01*
X1235500Y588729D02*
Y591269D01*
X1234230Y578000D02*
X1236770D01*
X1235500Y576730D02*
Y579271D01*
X1272284Y593368D02*
X1274824D01*
X1273554Y592098D02*
Y594637D01*
X1272284Y586637D02*
X1274824D01*
X1273554Y585367D02*
Y587906D01*
X1282362Y581363D02*
X1284902D01*
X1283632Y580093D02*
Y582633D01*
X1282362Y574632D02*
X1284902D01*
X1283632Y573362D02*
Y575902D01*
X1265231Y584000D02*
X1267771D01*
X1266501Y582730D02*
Y585270D01*
X1282230Y588500D02*
X1284770D01*
X1283500Y587230D02*
Y589770D01*
X1289730Y573500D02*
X1292270D01*
X1291000Y572230D02*
Y574770D01*
X1270730Y600500D02*
X1273270D01*
X1272000Y599230D02*
Y601770D01*
X1272284Y776367D02*
X1274824D01*
X1273554Y775098D02*
Y777637D01*
X1272284Y769637D02*
X1274824D01*
X1273554Y768366D02*
Y770907D01*
X1282361Y764363D02*
X1284901D01*
X1283631Y763093D02*
Y765633D01*
X1282361Y757633D02*
X1284901D01*
X1283631Y756363D02*
Y758903D01*
X1265231Y767000D02*
X1267771D01*
X1266501Y765730D02*
Y768270D01*
X1282230Y771500D02*
X1284770D01*
X1283500Y770230D02*
Y772770D01*
X1289730Y757500D02*
X1292270D01*
X1291000Y756230D02*
Y758770D01*
X1270730Y783500D02*
X1273270D01*
X1272000Y782230D02*
Y784770D01*
X1138731Y825000D02*
X1141271D01*
X1140001Y823730D02*
Y826270D01*
X1135363Y863054D02*
X1137903D01*
X1136633Y861784D02*
Y864324D01*
X1142094Y863054D02*
X1144634D01*
X1143364Y861784D02*
Y864324D01*
X1147367Y873132D02*
X1149907D01*
X1148637Y871862D02*
Y874402D01*
X1154098Y873132D02*
X1156638D01*
X1155368Y871862D02*
Y874402D01*
X1144730Y856001D02*
X1147270D01*
X1146000Y854731D02*
Y857271D01*
X1157230Y879500D02*
X1159770D01*
X1158500Y878230D02*
Y880770D01*
X1128230Y861500D02*
X1130770D01*
X1129500Y860230D02*
Y862770D01*
X955731Y825000D02*
X958270D01*
X957001Y823730D02*
Y826270D01*
X967729Y825000D02*
X970269D01*
X968999Y823730D02*
Y826270D01*
X952363Y863054D02*
X954902D01*
X953633Y861784D02*
Y864324D01*
X959093Y863054D02*
X961634D01*
X960363Y861784D02*
Y864324D01*
X964367Y873131D02*
X966907D01*
X965637Y871861D02*
Y874401D01*
X971097Y873131D02*
X973637D01*
X972367Y871861D02*
Y874401D01*
X961730Y856001D02*
X964270D01*
X963000Y854731D02*
Y857271D01*
X957230Y873000D02*
X959770D01*
X958500Y871730D02*
Y874270D01*
X970730Y880500D02*
X973270D01*
X972000Y879230D02*
Y881770D01*
X945230Y861500D02*
X947770D01*
X946500Y860230D02*
Y862770D01*
X785230Y824000D02*
X787770D01*
X786500Y822730D02*
Y825270D01*
X797230Y824000D02*
X799770D01*
X798500Y822730D02*
Y825270D01*
X781862Y862054D02*
X784402D01*
X783132Y860784D02*
Y863324D01*
X788594Y862054D02*
X791133D01*
X789864Y860784D02*
Y863324D01*
X793867Y872132D02*
X796406D01*
X795136Y870862D02*
Y873401D01*
X800598Y872132D02*
X803138D01*
X801868Y870862D02*
Y873401D01*
X791230Y855001D02*
X793770D01*
X792500Y853731D02*
Y856271D01*
X786730Y872000D02*
X789270D01*
X788000Y870730D02*
Y873270D01*
X801730Y879500D02*
X804270D01*
X803000Y878230D02*
Y880770D01*
X774730Y860500D02*
X777270D01*
X776000Y859230D02*
Y861770D01*
X591730Y860500D02*
X594270D01*
X593000Y859230D02*
Y861770D01*
X615730Y879000D02*
X618270D01*
X617000Y877730D02*
Y880270D01*
X603730Y872000D02*
X606270D01*
X605000Y870730D02*
Y873270D01*
X608230Y855001D02*
X610770D01*
X609500Y853731D02*
Y856271D01*
X617598Y872132D02*
X620137D01*
X618867Y870862D02*
Y873401D01*
X610867Y872132D02*
X613406D01*
X612136Y870862D02*
Y873401D01*
X605593Y862054D02*
X608134D01*
X606864Y860784D02*
Y863324D01*
X598862Y862054D02*
X601403D01*
X600132Y860784D02*
Y863324D01*
X611595Y817000D02*
X614136D01*
X612865Y815730D02*
Y818270D01*
X602230Y824000D02*
X604771D01*
X603501Y822730D02*
Y825270D01*
X941730Y696729D02*
X944269D01*
X942999Y695459D02*
Y697999D01*
X690730Y821500D02*
X693270D01*
X692000Y820230D02*
Y822770D01*
X690730Y829500D02*
X693270D01*
X692000Y828230D02*
Y830770D01*
X683730Y829500D02*
X686270D01*
X685000Y828230D02*
Y830770D01*
X268730Y492500D02*
X271270D01*
X270000Y491230D02*
Y493770D01*
X291730Y420500D02*
X294270D01*
X293000Y419230D02*
Y421770D01*
X300230Y413500D02*
X302770D01*
X301500Y412230D02*
Y414770D01*
X310730Y413500D02*
X313270D01*
X312000Y412230D02*
Y414770D01*
X288730Y413500D02*
X291270D01*
X290000Y412230D02*
Y414770D01*
X664230Y753270D02*
X666770D01*
X665500Y752000D02*
Y754539D01*
X591731Y671271D02*
X594271D01*
X593001Y670001D02*
Y672541D01*
M02*
