M48
;Layer_Color=9474304
;FILE_FORMAT=4:4
METRIC,LZ
;TYPE=PLATED
T1F00S00C0.2000
;TYPE=NON_PLATED
T2F00S00C1.4000
%
T01
X0016764Y00014079
X00212844Y00123835
Y0015383
Y0016875
X0020828Y00200462
X00159811Y00206151
X0015923Y0019055
X0015494Y0017202
Y0016548
X0015746Y00235849
X00176328
X0016764Y0024625
X0017399Y00288839
X00186251
X00226277Y00288223
X00238538
X00094629
X00082368
X00051449
X00039188
X0012804Y0023383
X00131622Y0021683
X0011684Y002121
Y0020556
X00150858Y0019875
X0014478Y0015702
Y0015048
X0010648Y00152759
Y00146219
Y00014079
X0012065
X00136341
X00153013
T02
X00246159Y00113749
Y00203751
M30
