G04*
G04 #@! TF.GenerationSoftware,Altium Limited,Altium Designer,19.1.1 (5)*
G04*
G04 Layer_Physical_Order=1*
G04 Layer_Color=255*
%FSLAX44Y44*%
%MOMM*%
G71*
G01*
G75*
%ADD12C,0.2000*%
%ADD13R,0.5000X1.5500*%
%ADD14R,1.2000X2.0000*%
%ADD15R,2.5999X0.2799*%
%ADD16R,2.1999X1.3000*%
%ADD17R,1.4001X1.3000*%
%ADD18R,2.0000X0.6000*%
%ADD19R,4.1999X0.7000*%
%ADD28C,0.1500*%
%ADD29C,0.3000*%
%ADD30C,1.4001*%
%ADD31C,0.4000*%
G36*
X274715Y294652D02*
X272908Y293903D01*
X272658Y293736D01*
X272380Y293621D01*
X270332Y292253D01*
X270119Y292040D01*
X269869Y291872D01*
X268128Y290131D01*
X267960Y289881D01*
X267747Y289668D01*
X266379Y287620D01*
X266264Y287342D01*
X266097Y287092D01*
X265154Y284817D01*
X265096Y284521D01*
X264980Y284243D01*
X264500Y281828D01*
Y281527D01*
X264441Y281231D01*
Y278769D01*
X264500Y278473D01*
Y278172D01*
X264980Y275757D01*
X265096Y275479D01*
X265154Y275183D01*
X266097Y272908D01*
X266264Y272658D01*
X266379Y272380D01*
X267747Y270332D01*
X267960Y270119D01*
X268128Y269869D01*
X269869Y268128D01*
X270119Y267960D01*
X270332Y267747D01*
X272380Y266379D01*
X272658Y266264D01*
X272908Y266097D01*
X275183Y265154D01*
X275479Y265096D01*
X275757Y264980D01*
X278172Y264500D01*
X278473D01*
X278769Y264441D01*
X281231D01*
X281527Y264500D01*
X281828D01*
X284243Y264980D01*
X284521Y265096D01*
X284817Y265154D01*
X287092Y266097D01*
X287342Y266264D01*
X287620Y266379D01*
X289668Y267747D01*
X289881Y267960D01*
X290131Y268128D01*
X291872Y269869D01*
X292040Y270119D01*
X292253Y270332D01*
X293621Y272380D01*
X293736Y272658D01*
X293903Y272908D01*
X294652Y274715D01*
X295922Y274463D01*
Y25537D01*
X294652Y25285D01*
X293903Y27092D01*
X293736Y27342D01*
X293621Y27620D01*
X292253Y29668D01*
X292040Y29881D01*
X291872Y30131D01*
X290131Y31872D01*
X289881Y32040D01*
X289668Y32253D01*
X287620Y33621D01*
X287342Y33736D01*
X287092Y33903D01*
X284817Y34846D01*
X284521Y34904D01*
X284243Y35020D01*
X281828Y35500D01*
X281527D01*
X281231Y35559D01*
X278769D01*
X278473Y35500D01*
X278172D01*
X275757Y35020D01*
X275479Y34904D01*
X275183Y34846D01*
X272908Y33903D01*
X272658Y33736D01*
X272380Y33621D01*
X270332Y32253D01*
X270119Y32040D01*
X269869Y31872D01*
X268128Y30131D01*
X267960Y29881D01*
X267747Y29668D01*
X266379Y27620D01*
X266264Y27342D01*
X266097Y27092D01*
X265154Y24817D01*
X265096Y24521D01*
X264980Y24243D01*
X264500Y21828D01*
Y21527D01*
X264441Y21231D01*
Y18769D01*
X264500Y18473D01*
Y18172D01*
X264980Y15757D01*
X265096Y15479D01*
X265154Y15183D01*
X266097Y12909D01*
X266264Y12658D01*
X266379Y12380D01*
X267747Y10332D01*
X267960Y10119D01*
X268128Y9869D01*
X269869Y8128D01*
X270119Y7960D01*
X270332Y7747D01*
X272380Y6379D01*
X272658Y6264D01*
X272908Y6097D01*
X274715Y5348D01*
X274463Y4078D01*
X25537D01*
X25285Y5348D01*
X27092Y6097D01*
X27342Y6264D01*
X27620Y6379D01*
X29668Y7747D01*
X29881Y7960D01*
X30131Y8128D01*
X31872Y9869D01*
X32040Y10119D01*
X32253Y10332D01*
X33621Y12380D01*
X33736Y12658D01*
X33903Y12909D01*
X34846Y15183D01*
X34904Y15479D01*
X35020Y15757D01*
X35500Y18172D01*
Y18473D01*
X35559Y18769D01*
Y21231D01*
X35500Y21527D01*
Y21828D01*
X35020Y24243D01*
X34904Y24521D01*
X34846Y24817D01*
X33903Y27092D01*
X33736Y27342D01*
X33621Y27620D01*
X32253Y29668D01*
X32040Y29881D01*
X31872Y30131D01*
X30131Y31872D01*
X29881Y32040D01*
X29668Y32253D01*
X27620Y33621D01*
X27342Y33736D01*
X27092Y33903D01*
X24817Y34846D01*
X24521Y34904D01*
X24243Y35020D01*
X21828Y35500D01*
X21527D01*
X21231Y35559D01*
X18769D01*
X18473Y35500D01*
X18172D01*
X15757Y35020D01*
X15479Y34904D01*
X15183Y34846D01*
X12909Y33903D01*
X12658Y33736D01*
X12380Y33621D01*
X10332Y32253D01*
X10119Y32040D01*
X9869Y31872D01*
X8128Y30131D01*
X7960Y29881D01*
X7747Y29668D01*
X6379Y27620D01*
X6264Y27342D01*
X6097Y27092D01*
X5348Y25285D01*
X4078Y25537D01*
X4078Y274463D01*
X5348Y274715D01*
X6097Y272908D01*
X6264Y272658D01*
X6379Y272380D01*
X7747Y270332D01*
X7960Y270119D01*
X8128Y269869D01*
X9869Y268128D01*
X10119Y267960D01*
X10332Y267747D01*
X12380Y266379D01*
X12658Y266264D01*
X12909Y266097D01*
X15183Y265154D01*
X15479Y265096D01*
X15757Y264980D01*
X18172Y264500D01*
X18473D01*
X18769Y264441D01*
X21231D01*
X21527Y264500D01*
X21828D01*
X24243Y264980D01*
X24521Y265096D01*
X24817Y265154D01*
X27092Y266097D01*
X27342Y266264D01*
X27620Y266379D01*
X29668Y267747D01*
X29881Y267960D01*
X30131Y268128D01*
X31872Y269869D01*
X32040Y270119D01*
X32253Y270332D01*
X33621Y272380D01*
X33736Y272658D01*
X33903Y272908D01*
X34846Y275183D01*
X34904Y275479D01*
X35020Y275757D01*
X35500Y278172D01*
Y278473D01*
X35559Y278769D01*
Y281231D01*
X35500Y281527D01*
Y281828D01*
X35020Y284243D01*
X34904Y284521D01*
X34846Y284817D01*
X33903Y287092D01*
X33736Y287342D01*
X33621Y287620D01*
X32253Y289668D01*
X32040Y289881D01*
X31872Y290131D01*
X30131Y291872D01*
X29881Y292040D01*
X29668Y292253D01*
X27620Y293621D01*
X27342Y293736D01*
X27092Y293903D01*
X25285Y294652D01*
X25537Y295922D01*
X274463D01*
X274715Y294652D01*
D02*
G37*
%LPC*%
G36*
X81580Y219830D02*
X55580D01*
Y207830D01*
Y197830D01*
X81580D01*
Y199256D01*
X83900D01*
X85363Y199548D01*
X86604Y200376D01*
X89214Y202987D01*
X112546D01*
X113235Y201955D01*
X114889Y200850D01*
X116840Y200462D01*
X118791Y200850D01*
X120445Y201955D01*
X121550Y203609D01*
X121938Y205560D01*
X121550Y207511D01*
X120668Y208830D01*
X121550Y210149D01*
X121938Y212100D01*
X121550Y214051D01*
X120445Y215705D01*
X118791Y216810D01*
X116840Y217198D01*
X114889Y216810D01*
X113235Y215705D01*
X112546Y214673D01*
X89214D01*
X86604Y217283D01*
X85363Y218112D01*
X83900Y218403D01*
X81580D01*
Y219830D01*
D02*
G37*
G36*
X149960Y264750D02*
X118960D01*
Y243250D01*
X120382D01*
Y237410D01*
X120382Y237410D01*
X120692Y235849D01*
X121576Y234526D01*
X123108Y232994D01*
X123330Y231879D01*
X124435Y230225D01*
X126089Y229120D01*
X128040Y228732D01*
X128110Y228746D01*
X129452Y227761D01*
X129514Y227174D01*
X128738Y226399D01*
X127854Y225075D01*
X127543Y223515D01*
X127543Y223514D01*
Y219726D01*
X126912Y218780D01*
X126524Y216830D01*
X126912Y214879D01*
X128017Y213225D01*
X129671Y212120D01*
X131622Y211732D01*
X133147Y212035D01*
X133773Y210865D01*
X132233Y209325D01*
X131404Y208085D01*
X131113Y206621D01*
Y195271D01*
X120516Y184673D01*
X91754D01*
X89144Y187283D01*
X87903Y188112D01*
X86440Y188403D01*
X81580D01*
Y189830D01*
X55580D01*
Y177830D01*
Y167830D01*
X81580D01*
Y169256D01*
X86440D01*
X87903Y169548D01*
X89144Y170376D01*
X91754Y172987D01*
X123773D01*
X125236Y173278D01*
X126477Y174106D01*
X141680Y189310D01*
X142509Y190550D01*
X142800Y192013D01*
Y203364D01*
X152442Y213006D01*
X209587D01*
X215887Y206706D01*
Y190334D01*
X215148Y189595D01*
X211877D01*
X209707Y191765D01*
X208466Y192594D01*
X207003Y192885D01*
X202560D01*
Y198151D01*
X202560D01*
Y199352D01*
X202560D01*
Y208151D01*
X176328D01*
X175445Y209035D01*
X174121Y209919D01*
X172561Y210229D01*
X172561Y210229D01*
X162707D01*
X161762Y210861D01*
X159811Y211249D01*
X157860Y210861D01*
X156207Y209755D01*
X155101Y208102D01*
X154713Y206151D01*
X155061Y204403D01*
X154479Y203314D01*
X154360Y203145D01*
X153508Y202993D01*
X152809Y203460D01*
X150858Y203848D01*
X148907Y203460D01*
X147254Y202355D01*
X146148Y200701D01*
X145760Y198750D01*
X146148Y196799D01*
X147254Y195145D01*
X148907Y194040D01*
X150858Y193652D01*
X152809Y194040D01*
X153754Y194672D01*
X159772D01*
X163576Y190867D01*
X163576Y190867D01*
X164899Y189983D01*
X166460Y189673D01*
X170561D01*
Y184350D01*
X170561D01*
Y183149D01*
X170561D01*
Y177884D01*
X162940D01*
X161477Y177593D01*
X160236Y176764D01*
X159048Y175575D01*
X158545Y175625D01*
X156891Y176730D01*
X154940Y177118D01*
X152989Y176730D01*
X151335Y175625D01*
X150230Y173971D01*
X149842Y172020D01*
X150230Y170069D01*
X151111Y168750D01*
X150230Y167431D01*
X149842Y165480D01*
X150230Y163529D01*
X151335Y161875D01*
X151838Y161539D01*
X152109Y159830D01*
X151923Y159593D01*
X149074D01*
X148385Y160625D01*
X146731Y161730D01*
X144780Y162118D01*
X142829Y161730D01*
X141175Y160625D01*
X140070Y158971D01*
X139682Y157020D01*
X140070Y155069D01*
X140951Y153750D01*
X140070Y152431D01*
X139682Y150480D01*
X140070Y148529D01*
X141175Y146875D01*
X142829Y145770D01*
X143010Y145734D01*
X143379Y144519D01*
X126768Y127908D01*
X81580D01*
Y129830D01*
X55580D01*
Y117830D01*
Y107830D01*
Y97830D01*
Y87830D01*
Y77830D01*
X81580D01*
Y79242D01*
X131622D01*
X133378Y79591D01*
X134866Y80586D01*
X166184Y111904D01*
X167179Y113392D01*
X167235Y113676D01*
X168231Y114672D01*
X170561D01*
Y109349D01*
X202560D01*
Y109670D01*
X217349D01*
X217349Y109670D01*
X218910Y109981D01*
X220233Y110865D01*
X234024Y124656D01*
X234024Y124656D01*
X234908Y125979D01*
X235218Y127540D01*
X235218Y127540D01*
Y200869D01*
X236416Y201141D01*
X237424Y198708D01*
X239027Y196619D01*
X241116Y195016D01*
X243548Y194008D01*
X246159Y193665D01*
X248770Y194008D01*
X251202Y195016D01*
X253291Y196619D01*
X254894Y198708D01*
X255902Y201141D01*
X256245Y203751D01*
X255902Y206362D01*
X254894Y208794D01*
X253291Y210883D01*
X251202Y212486D01*
X248770Y213494D01*
X246159Y213838D01*
X243548Y213494D01*
X241116Y212486D01*
X239027Y210883D01*
X237424Y208794D01*
X236416Y206362D01*
X235218Y206634D01*
Y241300D01*
X234908Y242861D01*
X234024Y244184D01*
X234024Y244184D01*
X216244Y261964D01*
X214921Y262848D01*
X213360Y263158D01*
X213360Y263158D01*
X149960D01*
Y264750D01*
D02*
G37*
G36*
X81580Y159830D02*
X55580D01*
Y147830D01*
Y137830D01*
X81580D01*
Y140007D01*
X86531D01*
X87994Y140298D01*
X89235Y141126D01*
X91754Y143646D01*
X102186D01*
X102875Y142614D01*
X104529Y141509D01*
X106480Y141121D01*
X108431Y141509D01*
X110085Y142614D01*
X111190Y144268D01*
X111578Y146219D01*
X111190Y148170D01*
X110308Y149489D01*
X111190Y150808D01*
X111578Y152759D01*
X111190Y154710D01*
X110085Y156364D01*
X108431Y157469D01*
X106480Y157857D01*
X104529Y157469D01*
X102875Y156364D01*
X102186Y155333D01*
X91754D01*
X89235Y157852D01*
X87994Y158681D01*
X86531Y158972D01*
X81580D01*
Y159830D01*
D02*
G37*
G36*
X246159Y123835D02*
X243548Y123492D01*
X241116Y122484D01*
X239027Y120881D01*
X237424Y118792D01*
X236416Y116359D01*
X236073Y113749D01*
X236416Y111138D01*
X237424Y108706D01*
X239027Y106617D01*
X241116Y105014D01*
X243548Y104006D01*
X246159Y103662D01*
X248770Y104006D01*
X251202Y105014D01*
X253291Y106617D01*
X254894Y108706D01*
X255902Y111138D01*
X256245Y113749D01*
X255902Y116359D01*
X254894Y118792D01*
X253291Y120881D01*
X251202Y122484D01*
X248770Y123492D01*
X246159Y123835D01*
D02*
G37*
%LPD*%
G36*
X227062Y239611D02*
Y213855D01*
X225792Y213329D01*
X215547Y223573D01*
X214307Y224402D01*
X212844Y224693D01*
X149185D01*
X147722Y224402D01*
X146481Y223573D01*
X137587Y214679D01*
X136416Y215304D01*
X136720Y216830D01*
X136332Y218780D01*
X135700Y219726D01*
Y221825D01*
X137344Y223469D01*
X138228Y224792D01*
X138538Y226353D01*
X138538Y226353D01*
Y243250D01*
X149960D01*
Y255002D01*
X211671D01*
X227062Y239611D01*
D02*
G37*
G36*
Y183185D02*
Y129229D01*
X215660Y117827D01*
X202560D01*
Y123150D01*
X202560D01*
Y124351D01*
X202560D01*
Y134351D01*
Y144351D01*
Y153149D01*
X202560D01*
Y154351D01*
X202560D01*
Y159352D01*
Y168151D01*
X202560D01*
Y169352D01*
X202560D01*
Y174617D01*
X207003D01*
X208466Y174908D01*
X209707Y175737D01*
X211877Y177908D01*
X218405D01*
X219868Y178199D01*
X221108Y179028D01*
X225792Y183711D01*
X227062Y183185D01*
D02*
G37*
D12*
X145960Y259080D02*
X213360D01*
X144460Y257580D02*
X145960Y259080D01*
X144460Y254000D02*
Y257580D01*
X213360Y259080D02*
X231140Y241300D01*
Y127540D02*
Y241300D01*
X217349Y113749D02*
X231140Y127540D01*
X186560Y113749D02*
X217349D01*
X134460Y226353D02*
Y254000D01*
X131622Y223515D02*
X134460Y226353D01*
X131622Y216830D02*
Y223515D01*
X150858Y198750D02*
X161461D01*
X166460Y193751D01*
X186560D01*
X159811Y206151D02*
X172561D01*
X174960Y203751D01*
X124460Y237410D02*
Y254000D01*
Y237410D02*
X128040Y233830D01*
X174960Y203751D02*
X186560D01*
X128458Y123830D02*
X148376Y143749D01*
X186560D01*
X68580Y123830D02*
X128458D01*
X186560Y168750D02*
X212844D01*
X159230Y183751D02*
Y190550D01*
Y183751D02*
X186560D01*
Y198750D02*
X208280D01*
Y200462D01*
X186560Y153749D02*
X212844D01*
Y153830D01*
X186560Y123749D02*
X212844D01*
Y123835D01*
X162940Y115148D02*
X166542Y118750D01*
X186560D01*
X124310Y93830D02*
X159230Y128750D01*
X186560D01*
X68580Y93830D02*
X124310D01*
X68580Y103830D02*
X123680D01*
X153599Y133749D01*
X186560D01*
D13*
X124460Y254000D02*
D03*
X134460D02*
D03*
X144460D02*
D03*
D14*
X157460Y286250D02*
D03*
X111460D02*
D03*
D15*
X186560Y203751D02*
D03*
Y198750D02*
D03*
Y193751D02*
D03*
Y183751D02*
D03*
Y178750D02*
D03*
Y168750D02*
D03*
Y163751D02*
D03*
Y153749D02*
D03*
Y148750D02*
D03*
Y143749D02*
D03*
Y138750D02*
D03*
Y133749D02*
D03*
Y128750D02*
D03*
Y123749D02*
D03*
Y118750D02*
D03*
Y113749D02*
D03*
Y173751D02*
D03*
Y188750D02*
D03*
Y158750D02*
D03*
D16*
X194160Y239250D02*
D03*
Y78250D02*
D03*
D17*
X253761D02*
D03*
Y239250D02*
D03*
D18*
X68580Y143830D02*
D03*
Y153830D02*
D03*
Y183830D02*
D03*
Y173830D02*
D03*
Y213830D02*
D03*
Y203830D02*
D03*
Y223830D02*
D03*
Y193830D02*
D03*
Y163830D02*
D03*
Y133830D02*
D03*
Y123830D02*
D03*
Y113830D02*
D03*
Y103830D02*
D03*
Y93830D02*
D03*
Y83830D02*
D03*
D19*
X47579Y233830D02*
D03*
Y73830D02*
D03*
D28*
X166232Y159062D02*
X186249D01*
X162940Y155770D02*
X166232Y159062D01*
X186249D02*
X186560Y158750D01*
X162940Y163440D02*
X186249D01*
X159649Y166730D02*
X162940Y163440D01*
X186249D02*
X186560Y163751D01*
X104553Y151509D02*
X105803Y152759D01*
X106480D01*
X90170Y151509D02*
X104553D01*
X86531Y155148D02*
X90170Y151509D01*
X68580Y153830D02*
X69898Y155148D01*
X86531D01*
X186249Y148438D02*
X186560Y148750D01*
X166232Y148438D02*
X186249D01*
X162940Y151730D02*
X166232Y148438D01*
X104553Y147469D02*
X105803Y146219D01*
X106480D01*
X90170Y147469D02*
X104553D01*
X86531Y143830D02*
X90170Y147469D01*
X68580Y143830D02*
X86531D01*
X146706Y151730D02*
X162940D01*
X145456Y150480D02*
X146706Y151730D01*
X144780Y150480D02*
X145456D01*
X146706Y155770D02*
X162940D01*
X145456Y157020D02*
X146706Y155770D01*
X144780Y157020D02*
X145456D01*
X159649Y170770D02*
X162940Y174060D01*
X154940Y165480D02*
X156190Y166730D01*
X156190Y170770D02*
X159649D01*
X154940Y172020D02*
X156190Y170770D01*
X186251Y174060D02*
X186560Y173751D01*
X156190Y166730D02*
X159649D01*
X162940Y174060D02*
X186251D01*
X116164Y205560D02*
X116840D01*
X114914Y206810D02*
X116164Y205560D01*
X87630Y206810D02*
X114914D01*
X68580Y203830D02*
X69330Y203080D01*
X83900D02*
X87630Y206810D01*
X69330Y203080D02*
X83900D01*
X116164Y212100D02*
X116840D01*
X114914Y210850D02*
X116164Y212100D01*
X87630Y210850D02*
X114914D01*
X69330Y214580D02*
X83900D01*
X68580Y213830D02*
X69330Y214580D01*
X83900D02*
X87630Y210850D01*
X134937Y206621D02*
X149185Y220870D01*
X134937Y193687D02*
Y206621D01*
X69330Y184580D02*
X86440D01*
X90170Y180850D02*
X122100D01*
X68580Y183830D02*
X69330Y184580D01*
X122100Y180850D02*
X134937Y193687D01*
X86440Y184580D02*
X90170Y180850D01*
X138977Y204948D02*
X150858Y216830D01*
X138977Y192013D02*
Y204948D01*
X123773Y176810D02*
X138977Y192013D01*
X90170Y176810D02*
X123773D01*
X86440Y173080D02*
X90170Y176810D01*
X69330Y173080D02*
X86440D01*
X68580Y173830D02*
X69330Y173080D01*
X149185Y220870D02*
X212844D01*
X150858Y216830D02*
X211170D01*
X219710Y208290D01*
X186560Y178750D02*
X186870Y178441D01*
X216731Y185771D02*
X219710Y188750D01*
X186872Y189062D02*
X207003D01*
X210294Y181731D02*
X218405D01*
X219710Y188750D02*
Y208290D01*
X210294Y185771D02*
X216731D01*
X212844Y220870D02*
X223750Y209963D01*
X207003Y189062D02*
X210294Y185771D01*
X218405Y181731D02*
X223750Y187076D01*
X207003Y178441D02*
X210294Y181731D01*
X186560Y188750D02*
X186872Y189062D01*
X223750Y187076D02*
Y209963D01*
X186870Y178441D02*
X207003D01*
D29*
X68580Y83830D02*
X131622D01*
X162940Y115148D01*
D30*
X246159Y113749D02*
D03*
Y203751D02*
D03*
D31*
X167640Y246250D02*
D03*
X176328Y235849D02*
D03*
X157460D02*
D03*
X39188Y288223D02*
D03*
X51449D02*
D03*
X82368D02*
D03*
X94629D02*
D03*
X226277D02*
D03*
X238538D02*
D03*
X186251Y288839D02*
D03*
X131622Y216830D02*
D03*
X150858Y198750D02*
D03*
X159811Y206151D02*
D03*
X128040Y233830D02*
D03*
X212844Y168750D02*
D03*
X159230Y190550D02*
D03*
X208280Y200462D02*
D03*
X212844Y153830D02*
D03*
Y123835D02*
D03*
X167640Y14079D02*
D03*
X153013D02*
D03*
X136341D02*
D03*
X120650D02*
D03*
X106480D02*
D03*
X173990Y288839D02*
D03*
X106480Y152759D02*
D03*
Y146219D02*
D03*
X144780Y157020D02*
D03*
Y150480D02*
D03*
X116840Y205560D02*
D03*
X154940Y172020D02*
D03*
X116840Y212100D02*
D03*
X154940Y165480D02*
D03*
M02*
