G04*
G04 #@! TF.GenerationSoftware,Altium Limited,Altium Designer,19.1.1 (5)*
G04*
G04 Layer_Color=8421504*
%FSLAX44Y44*%
%MOMM*%
G71*
G01*
G75*
%ADD13R,0.5000X1.5500*%
%ADD14R,1.2000X2.0000*%
%ADD15R,2.5999X0.2799*%
%ADD16R,2.1999X1.3000*%
%ADD17R,1.4001X1.3000*%
%ADD18R,2.0000X0.6000*%
%ADD19R,4.1999X0.7000*%
D13*
X124460Y254000D02*
D03*
X134460D02*
D03*
X144460D02*
D03*
D14*
X157460Y286250D02*
D03*
X111460D02*
D03*
D15*
X186560Y203751D02*
D03*
Y198750D02*
D03*
Y193751D02*
D03*
Y183751D02*
D03*
Y178750D02*
D03*
Y168750D02*
D03*
Y163751D02*
D03*
Y153749D02*
D03*
Y148750D02*
D03*
Y143749D02*
D03*
Y138750D02*
D03*
Y133749D02*
D03*
Y128750D02*
D03*
Y123749D02*
D03*
Y118750D02*
D03*
Y113749D02*
D03*
Y173751D02*
D03*
Y188750D02*
D03*
Y158750D02*
D03*
D16*
X194160Y239250D02*
D03*
Y78250D02*
D03*
D17*
X253761D02*
D03*
Y239250D02*
D03*
D18*
X68580Y143830D02*
D03*
Y153830D02*
D03*
Y183830D02*
D03*
Y173830D02*
D03*
Y213830D02*
D03*
Y203830D02*
D03*
Y223830D02*
D03*
Y193830D02*
D03*
Y163830D02*
D03*
Y133830D02*
D03*
Y123830D02*
D03*
Y113830D02*
D03*
Y103830D02*
D03*
Y93830D02*
D03*
Y83830D02*
D03*
D19*
X47579Y233830D02*
D03*
Y73830D02*
D03*
M02*
