G04*
G04 #@! TF.GenerationSoftware,Altium Limited,Altium Designer,19.1.1 (5)*
G04*
G04 Layer_Color=8388736*
%FSLAX44Y44*%
%MOMM*%
G71*
G01*
G75*
%ADD20R,0.7032X1.7532*%
%ADD21R,1.4032X2.2032*%
%ADD22R,2.8031X0.4831*%
%ADD23R,2.4031X1.5032*%
%ADD24R,1.6033X1.5032*%
%ADD25R,2.2032X0.8032*%
%ADD26R,4.4031X0.9032*%
%ADD27C,1.6033*%
D20*
X124460Y254000D02*
D03*
X134460D02*
D03*
X144460D02*
D03*
D21*
X157460Y286250D02*
D03*
X111460D02*
D03*
D22*
X186560Y203751D02*
D03*
Y198750D02*
D03*
Y193751D02*
D03*
Y183751D02*
D03*
Y178750D02*
D03*
Y168750D02*
D03*
Y163751D02*
D03*
Y153749D02*
D03*
Y148750D02*
D03*
Y143749D02*
D03*
Y138750D02*
D03*
Y133749D02*
D03*
Y128750D02*
D03*
Y123749D02*
D03*
Y118750D02*
D03*
Y113749D02*
D03*
Y173751D02*
D03*
Y188750D02*
D03*
Y158750D02*
D03*
D23*
X194160Y239250D02*
D03*
Y78250D02*
D03*
D24*
X253761D02*
D03*
Y239250D02*
D03*
D25*
X68580Y143830D02*
D03*
Y153830D02*
D03*
Y183830D02*
D03*
Y173830D02*
D03*
Y213830D02*
D03*
Y203830D02*
D03*
Y223830D02*
D03*
Y193830D02*
D03*
Y163830D02*
D03*
Y133830D02*
D03*
Y123830D02*
D03*
Y113830D02*
D03*
Y103830D02*
D03*
Y93830D02*
D03*
Y83830D02*
D03*
D26*
X47579Y233830D02*
D03*
Y73830D02*
D03*
D27*
X246159Y113749D02*
D03*
Y203751D02*
D03*
M02*
