G04*
G04 #@! TF.GenerationSoftware,Altium Limited,Altium Designer,19.1.1 (5)*
G04*
G04 Layer_Physical_Order=2*
G04 Layer_Color=16711680*
%FSLAX44Y44*%
%MOMM*%
G71*
G01*
G75*
%ADD12C,0.2000*%
%ADD28C,0.1500*%
%ADD30C,1.4001*%
%ADD31C,0.4000*%
G36*
X274715Y294652D02*
X272908Y293903D01*
X272658Y293736D01*
X272380Y293621D01*
X270332Y292253D01*
X270119Y292040D01*
X269869Y291872D01*
X268128Y290131D01*
X267960Y289881D01*
X267747Y289668D01*
X266379Y287620D01*
X266264Y287342D01*
X266097Y287092D01*
X265154Y284817D01*
X265096Y284521D01*
X264980Y284243D01*
X264500Y281828D01*
Y281527D01*
X264441Y281231D01*
Y278769D01*
X264500Y278473D01*
Y278172D01*
X264980Y275757D01*
X265096Y275479D01*
X265154Y275183D01*
X266097Y272908D01*
X266264Y272658D01*
X266379Y272380D01*
X267747Y270332D01*
X267960Y270119D01*
X268128Y269869D01*
X269869Y268128D01*
X270119Y267960D01*
X270332Y267747D01*
X272380Y266379D01*
X272658Y266264D01*
X272908Y266097D01*
X275183Y265154D01*
X275479Y265096D01*
X275757Y264980D01*
X278172Y264500D01*
X278473D01*
X278769Y264441D01*
X281231D01*
X281527Y264500D01*
X281828D01*
X284243Y264980D01*
X284521Y265096D01*
X284817Y265154D01*
X287092Y266097D01*
X287342Y266264D01*
X287620Y266379D01*
X289668Y267747D01*
X289881Y267960D01*
X290131Y268128D01*
X291872Y269869D01*
X292040Y270119D01*
X292253Y270332D01*
X293621Y272380D01*
X293736Y272658D01*
X293903Y272908D01*
X294652Y274715D01*
X295922Y274463D01*
Y25537D01*
X294652Y25285D01*
X293903Y27092D01*
X293736Y27342D01*
X293621Y27620D01*
X292253Y29668D01*
X292040Y29881D01*
X291872Y30131D01*
X290131Y31872D01*
X289881Y32040D01*
X289668Y32253D01*
X287620Y33621D01*
X287342Y33736D01*
X287092Y33903D01*
X284817Y34846D01*
X284521Y34904D01*
X284243Y35020D01*
X281828Y35500D01*
X281527D01*
X281231Y35559D01*
X278769D01*
X278473Y35500D01*
X278172D01*
X275757Y35020D01*
X275479Y34904D01*
X275183Y34846D01*
X272908Y33903D01*
X272658Y33736D01*
X272380Y33621D01*
X270332Y32253D01*
X270119Y32040D01*
X269869Y31872D01*
X268128Y30131D01*
X267960Y29881D01*
X267747Y29668D01*
X266379Y27620D01*
X266264Y27342D01*
X266097Y27092D01*
X265154Y24817D01*
X265096Y24521D01*
X264980Y24243D01*
X264500Y21828D01*
Y21527D01*
X264441Y21231D01*
Y18769D01*
X264500Y18473D01*
Y18172D01*
X264980Y15757D01*
X265096Y15479D01*
X265154Y15183D01*
X266097Y12909D01*
X266264Y12658D01*
X266379Y12380D01*
X267747Y10332D01*
X267960Y10119D01*
X268128Y9869D01*
X269869Y8128D01*
X270119Y7960D01*
X270332Y7747D01*
X272380Y6379D01*
X272658Y6264D01*
X272908Y6097D01*
X274715Y5348D01*
X274463Y4078D01*
X25537D01*
X25285Y5348D01*
X27092Y6097D01*
X27342Y6264D01*
X27620Y6379D01*
X29668Y7747D01*
X29881Y7960D01*
X30131Y8128D01*
X31872Y9869D01*
X32040Y10119D01*
X32253Y10332D01*
X33621Y12380D01*
X33736Y12658D01*
X33903Y12909D01*
X34846Y15183D01*
X34904Y15479D01*
X35020Y15757D01*
X35500Y18172D01*
Y18473D01*
X35559Y18769D01*
Y21231D01*
X35500Y21527D01*
Y21828D01*
X35020Y24243D01*
X34904Y24521D01*
X34846Y24817D01*
X33903Y27092D01*
X33736Y27342D01*
X33621Y27620D01*
X32253Y29668D01*
X32040Y29881D01*
X31872Y30131D01*
X30131Y31872D01*
X29881Y32040D01*
X29668Y32253D01*
X27620Y33621D01*
X27342Y33736D01*
X27092Y33903D01*
X24817Y34846D01*
X24521Y34904D01*
X24243Y35020D01*
X21828Y35500D01*
X21527D01*
X21231Y35559D01*
X18769D01*
X18473Y35500D01*
X18172D01*
X15757Y35020D01*
X15479Y34904D01*
X15183Y34846D01*
X12909Y33903D01*
X12658Y33736D01*
X12380Y33621D01*
X10332Y32253D01*
X10119Y32040D01*
X9869Y31872D01*
X8128Y30131D01*
X7960Y29881D01*
X7747Y29668D01*
X6379Y27620D01*
X6264Y27342D01*
X6097Y27092D01*
X5348Y25285D01*
X4078Y25537D01*
X4078Y274463D01*
X5348Y274715D01*
X6097Y272908D01*
X6264Y272658D01*
X6379Y272380D01*
X7747Y270332D01*
X7960Y270119D01*
X8128Y269869D01*
X9869Y268128D01*
X10119Y267960D01*
X10332Y267747D01*
X12380Y266379D01*
X12658Y266264D01*
X12909Y266097D01*
X15183Y265154D01*
X15479Y265096D01*
X15757Y264980D01*
X18172Y264500D01*
X18473D01*
X18769Y264441D01*
X21231D01*
X21527Y264500D01*
X21828D01*
X24243Y264980D01*
X24521Y265096D01*
X24817Y265154D01*
X27092Y266097D01*
X27342Y266264D01*
X27620Y266379D01*
X29668Y267747D01*
X29881Y267960D01*
X30131Y268128D01*
X31872Y269869D01*
X32040Y270119D01*
X32253Y270332D01*
X33621Y272380D01*
X33736Y272658D01*
X33903Y272908D01*
X34846Y275183D01*
X34904Y275479D01*
X35020Y275757D01*
X35500Y278172D01*
Y278473D01*
X35559Y278769D01*
Y281231D01*
X35500Y281527D01*
Y281828D01*
X35020Y284243D01*
X34904Y284521D01*
X34846Y284817D01*
X33903Y287092D01*
X33736Y287342D01*
X33621Y287620D01*
X32253Y289668D01*
X32040Y289881D01*
X31872Y290131D01*
X30131Y291872D01*
X29881Y292040D01*
X29668Y292253D01*
X27620Y293621D01*
X27342Y293736D01*
X27092Y293903D01*
X25285Y294652D01*
X25537Y295922D01*
X274463D01*
X274715Y294652D01*
D02*
G37*
%LPC*%
G36*
X128040Y238928D02*
X126089Y238540D01*
X124435Y237435D01*
X123330Y235781D01*
X122942Y233830D01*
X123330Y231879D01*
X124435Y230225D01*
X126089Y229120D01*
X127216Y228896D01*
X133204Y222908D01*
X132578Y221737D01*
X131622Y221928D01*
X129671Y221539D01*
X128017Y220434D01*
X126912Y218780D01*
X126524Y216830D01*
X126912Y214879D01*
X128017Y213225D01*
X129671Y212120D01*
X131622Y211732D01*
X132028Y211812D01*
X145927Y197914D01*
X146148Y196799D01*
X147254Y195145D01*
X148907Y194040D01*
X150858Y193652D01*
X152809Y194040D01*
X154463Y195145D01*
X155568Y196799D01*
X155956Y198750D01*
X155568Y200701D01*
X155413Y200933D01*
X156179Y202072D01*
X156915D01*
X157860Y201441D01*
X159811Y201053D01*
X161762Y201441D01*
X163416Y202546D01*
X164521Y204200D01*
X164909Y206151D01*
X164521Y208102D01*
X163416Y209755D01*
X161762Y210861D01*
X159811Y211249D01*
X157860Y210861D01*
X157217Y210430D01*
X132969Y234678D01*
X132750Y235781D01*
X131645Y237435D01*
X129991Y238540D01*
X128040Y238928D01*
D02*
G37*
G36*
X116840Y217198D02*
X114889Y216810D01*
X113235Y215705D01*
X112546Y214673D01*
X104806D01*
X103343Y214382D01*
X102103Y213554D01*
X96126Y207577D01*
X95298Y206337D01*
X95007Y204873D01*
Y177397D01*
X95298Y175933D01*
X96126Y174693D01*
X106793Y164026D01*
X108034Y163198D01*
X109497Y162907D01*
X141763D01*
X141950Y162670D01*
X141678Y160961D01*
X141175Y160625D01*
X140486Y159593D01*
X134668D01*
X133204Y159302D01*
X131964Y158474D01*
X125337Y151846D01*
X124508Y150606D01*
X124217Y149143D01*
Y134384D01*
X121926Y132093D01*
X100414D01*
X96533Y135974D01*
Y140656D01*
X99523Y143646D01*
X102186D01*
X102875Y142614D01*
X104529Y141509D01*
X106480Y141121D01*
X108431Y141509D01*
X110085Y142614D01*
X111190Y144268D01*
X111578Y146219D01*
X111190Y148170D01*
X110308Y149489D01*
X111190Y150808D01*
X111578Y152759D01*
X111190Y154710D01*
X110085Y156364D01*
X108431Y157469D01*
X106480Y157857D01*
X104529Y157469D01*
X102875Y156364D01*
X102186Y155333D01*
X96266D01*
X94803Y155042D01*
X93562Y154213D01*
X85967Y146617D01*
X85138Y145377D01*
X84847Y143913D01*
Y132717D01*
X85138Y131253D01*
X85967Y130013D01*
X94453Y121526D01*
X95694Y120698D01*
X97157Y120407D01*
X125183D01*
X126646Y120698D01*
X127887Y121526D01*
X134784Y128423D01*
X135612Y129663D01*
X135904Y131127D01*
Y145885D01*
X137925Y147907D01*
X140486D01*
X141175Y146875D01*
X142829Y145770D01*
X144780Y145382D01*
X146731Y145770D01*
X148385Y146875D01*
X149490Y148529D01*
X149878Y150480D01*
X149490Y152431D01*
X148609Y153750D01*
X149490Y155069D01*
X149878Y157020D01*
X149490Y158971D01*
X148385Y160625D01*
X147882Y160961D01*
X147611Y162670D01*
X147797Y162907D01*
X150646D01*
X151335Y161875D01*
X152989Y160770D01*
X154940Y160382D01*
X156891Y160770D01*
X158545Y161875D01*
X159650Y163529D01*
X160038Y165480D01*
X159650Y167431D01*
X158769Y168750D01*
X159650Y170069D01*
X160038Y172020D01*
X159650Y173971D01*
X158545Y175625D01*
X156891Y176730D01*
X154940Y177118D01*
X152989Y176730D01*
X151335Y175625D01*
X150646Y174593D01*
X112754D01*
X106693Y180654D01*
Y201616D01*
X108064Y202987D01*
X112546D01*
X113235Y201955D01*
X114889Y200850D01*
X116840Y200462D01*
X118791Y200850D01*
X120445Y201955D01*
X121550Y203609D01*
X121938Y205560D01*
X121550Y207511D01*
X120668Y208830D01*
X121550Y210149D01*
X121938Y212100D01*
X121550Y214051D01*
X120445Y215705D01*
X118791Y216810D01*
X116840Y217198D01*
D02*
G37*
G36*
X246159Y213838D02*
X243548Y213494D01*
X241116Y212486D01*
X239027Y210883D01*
X237424Y208794D01*
X236416Y206362D01*
X236073Y203751D01*
X236416Y201141D01*
X237424Y198708D01*
X239027Y196619D01*
X241116Y195016D01*
X243548Y194008D01*
X246159Y193665D01*
X248770Y194008D01*
X251202Y195016D01*
X253291Y196619D01*
X254894Y198708D01*
X255902Y201141D01*
X256245Y203751D01*
X255902Y206362D01*
X254894Y208794D01*
X253291Y210883D01*
X251202Y212486D01*
X248770Y213494D01*
X246159Y213838D01*
D02*
G37*
G36*
Y123835D02*
X243548Y123492D01*
X241116Y122484D01*
X239027Y120881D01*
X237424Y118792D01*
X236416Y116359D01*
X236073Y113749D01*
X236416Y111138D01*
X237424Y108706D01*
X239027Y106617D01*
X241116Y105014D01*
X243548Y104006D01*
X246159Y103662D01*
X248770Y104006D01*
X251202Y105014D01*
X253291Y106617D01*
X254894Y108706D01*
X255902Y111138D01*
X256245Y113749D01*
X255902Y116359D01*
X254894Y118792D01*
X253291Y120881D01*
X251202Y122484D01*
X248770Y123492D01*
X246159Y123835D01*
D02*
G37*
%LPD*%
D12*
X131622Y216830D02*
X132004Y216447D01*
X133161D01*
X150858Y198750D01*
X128050Y233830D02*
X155729Y206151D01*
X159811D01*
X128040Y233830D02*
X128050D01*
D28*
X105803Y152759D02*
X106480D01*
X104553Y151509D02*
X105803Y152759D01*
X96266Y151509D02*
X104553D01*
X88670Y132717D02*
X97157Y124230D01*
X88670Y143913D02*
X96266Y151509D01*
X97157Y124230D02*
X114704D01*
X88670Y132717D02*
Y143913D01*
X105803Y146219D02*
X106480D01*
X97939Y147469D02*
X104553D01*
X105803Y146219D01*
X92710Y134390D02*
X98830Y128270D01*
X92710Y142240D02*
X97939Y147469D01*
X92710Y134390D02*
Y142240D01*
X114704Y124230D02*
X125183D01*
X98830Y128270D02*
X123510D01*
X132080Y131127D02*
Y147469D01*
X125183Y124230D02*
X132080Y131127D01*
X128040Y132800D02*
Y149143D01*
X123510Y128270D02*
X128040Y132800D01*
X144103Y150480D02*
X144780D01*
X142853Y151730D02*
X144103Y150480D01*
X136341Y151730D02*
X142853D01*
X132080Y147469D02*
X136341Y151730D01*
X144103Y157020D02*
X144780D01*
X142854Y155770D02*
X144103Y157020D01*
X134668Y155770D02*
X142854D01*
X128040Y149143D02*
X134668Y155770D01*
X153014Y170770D02*
X154263Y172020D01*
X111170Y170770D02*
X153014D01*
X102870Y179070D02*
X111170Y170770D01*
X116164Y205560D02*
X116840D01*
X154263Y172020D02*
X154940D01*
X114914Y206810D02*
X116164Y205560D01*
X106480Y206810D02*
X114914D01*
X102870Y203200D02*
X106480Y206810D01*
X102870Y179070D02*
Y203200D01*
X109497Y166730D02*
X153013D01*
X154263Y165480D01*
X98830Y177397D02*
X109497Y166730D01*
X154263Y165480D02*
X154940D01*
X116164Y212100D02*
X116840D01*
X114914Y210850D02*
X116164Y212100D01*
X104806Y210850D02*
X114914D01*
X98830Y204873D02*
X104806Y210850D01*
X98830Y177397D02*
Y204873D01*
D30*
X246159Y113749D02*
D03*
Y203751D02*
D03*
D31*
X167640Y246250D02*
D03*
X176328Y235849D02*
D03*
X157460D02*
D03*
X39188Y288223D02*
D03*
X51449D02*
D03*
X82368D02*
D03*
X94629D02*
D03*
X226277D02*
D03*
X238538D02*
D03*
X186251Y288839D02*
D03*
X131622Y216830D02*
D03*
X150858Y198750D02*
D03*
X159811Y206151D02*
D03*
X128040Y233830D02*
D03*
X212844Y168750D02*
D03*
X159230Y190550D02*
D03*
X208280Y200462D02*
D03*
X212844Y153830D02*
D03*
Y123835D02*
D03*
X167640Y14079D02*
D03*
X153013D02*
D03*
X136341D02*
D03*
X120650D02*
D03*
X106480D02*
D03*
X173990Y288839D02*
D03*
X106480Y152759D02*
D03*
Y146219D02*
D03*
X144780Y157020D02*
D03*
Y150480D02*
D03*
X116840Y205560D02*
D03*
X154940Y172020D02*
D03*
X116840Y212100D02*
D03*
X154940Y165480D02*
D03*
M02*
