M48
;Layer_Color=9474304
;FILE_FORMAT=4:4
METRIC,LZ
;TYPE=PLATED
T1F00S00C0.2000
T2F00S00C0.3000
T3F00S00C2.0000
%
T01
X00045575Y000152
X00045508Y00027326
X00058508
X00058575Y000152
X00071671
X00071604Y00027326
X00085839Y00028947
X00098839
X00111935
X00112413Y000152
X00099317
X00086318
X00145648Y00015519
X00160078Y00059466
X00160119Y0007142
X0017432
Y0008962
X00176137Y00110366
X00190542Y0011677
X0018923Y0013212
X00185341Y00128231
X00165918Y00149918
X0015992Y00150421
X0014192Y0014402
Y0013852
X00144121Y0013116
X00126744Y0010552
X0014782Y0009022
X00118321Y0007442
X0011557Y0006121
X0010015Y0011677
Y0012227
X00094278Y00129352
X00085781Y00150595
X00033981Y00150879
X00030092Y0014699
X00023Y0013927
X00030092Y0013116
X00033981Y00127271
X0006632Y0009312
X000166Y00072562
Y00059466
Y00046467
X0018901Y0005674
X00204079Y000765
X0020011Y00098915
X00224968Y00105021
X00243903Y00137472
X00210507Y00022621
Y0001097
X00223838Y00155859
X00204856Y00188684
X00190781
X00176419Y00174039
X0012592Y0017552
X00112413
X00095887Y00163829
Y00158329
X00061073Y00179551
X0004442
X00025463
X0003302Y0020492
X00045575Y0022585
Y0023535
X00058575
Y0022585
X00071671
Y0023535
X00126744Y002412
T02
X0004962Y0007292
X0004942Y0008202
X00070279
Y0007292
X00092667Y00084637
X0009259Y00095643
X00061073Y00101771
X0005165Y00103866
X00227319Y0012975
X00239668Y00204695
X0021498Y002108
X0016224Y0018469
X0006939Y00204695
X0004442Y00164421
T03
X0002Y0002
X0023
Y0023
X0002
M30
