M48
;Layer_Color=9474304
;FILE_FORMAT=4:4
METRIC,LZ
;TYPE=PLATED
T1F00S00C0.2000
T2F00S00C1.8001
T3F00S00C2.0000
;TYPE=NON_PLATED
T4F00S00C1.3000
%
T01
X0006018Y0001691
X0007005Y0001668
X0008161Y0001676
X0010422Y0001671
X0011409Y0001648
X0012565Y0001656
X0015262Y0001671
X0016249Y0001648
X0017405Y0001656
X0019612Y0001638
X0020599Y0001615
X0021755Y0001623
X0024191Y0001638
X0025178Y0001615
X0026334Y0001623
X002837Y0001705
X0029357Y0001682
X0030513Y000169
X0036426Y0005717
X0037413Y0005694
X003738Y0006797
X0036393Y000682
X003636Y0007823
X0037347Y00078
X0038503Y0007808
X0038536Y0006805
X0038569Y0005702
X0038492Y0010485
X0038515Y0011472
X0038507Y0012628
X0038247Y00191499
Y00196499
X00384585Y00208225
X0038105Y0021176
X0035563Y0021506
X003576Y0019677
X0032077Y0017211
X0029359Y001706
Y001756
X0029844Y001869
X0029156Y0019759
Y0020259
X0027968Y0019871
X002721Y002075
X0028827Y0021526
X002897Y0023044
X0031042Y0023507
X0031074Y0022523
X003209Y0022521
X0032067Y0023538
X002937Y0015906
Y0015406
X0029388Y0014135
Y0013635
X0030606Y0012608
X0031308Y0011723
X0028619Y0011474
X0028078Y0010385
X002518Y0013669
Y0014169
X0025207Y001542
Y001592
X00224061Y00150671
X00220526Y00147136
X0021706Y0016202
X0021533Y0018161
X0020673Y0018198
X0019879Y0017398
X001912Y0017365
X0018965Y0018604
X0019879Y001903
X0018944Y0020197
X001905Y0021419
X0019859Y0022221
X0019889Y0023013
X0019065Y0023785
X0018289Y0022991
X0017496Y0022984
X0016695Y0022982
X0015887Y0023002
X0015052Y0022993
X0015897Y0022155
X0016578Y0022172
X0013332Y0021802
Y00225959
X0013315Y0023392
X0013365Y0018204
X0013332Y0017007
X001427Y0016593
X0015078Y0016603
X0015887Y0016599
X001667Y0016605
X0017466Y0015819
Y0014973
X0019082Y0014982
X0019077Y0015809
X0018277Y0016593
X0017472Y0017428
X0015843Y0017362
X0015847Y0015846
Y0015007
X0015469Y0013953
X001522Y001346
X0014491Y0012961
X0014445Y0013931
X0012107Y0012329
X0012092Y001149
X0011105Y0011513
X001112Y0012352
X0010626Y0015314
X0010618Y001647
X0010641Y0017457
X0009119Y0017655
X0008128Y0019396
X000812Y0020552
X0008143Y0021539
X0004714Y002236
X0004553Y0020615
X0006254Y0011331
X0007241Y0011308
X0008397Y0011316
X0008617Y0008997
Y0008175
X0008621Y0007411
Y0006694
X0007635Y0009007
X0013736Y0008175
X0014723Y0008152
X0015879Y000816
X0016285Y0009742
X0017272Y0009719
X0018428Y0009727
X0018856Y0008258
X0019843Y0008235
X0020999Y0008243
X0021016Y0013253
Y0013753
X0020282Y0014579
X0021533Y0019748
X0023832Y0019656
X0021608Y0023393
X0034241Y0008897
X0003402Y0005286
X0002246Y0005278
X0001259Y0005301
X0001913Y0016659
X0001895Y00178
X0001913Y0018793
X0002914Y0019671
X0001045Y0022419
X0002386Y0024473
X0002079Y0025948
X0003181Y0028991
X0003395Y0033523
X0003414Y0034598
X0002258Y003459
X0001271Y0034613
X0001252Y0033538
X0002239Y0033515
X000672Y0031463
Y0030554
X0007707Y0030531
Y003144
X0008863Y0031448
Y0030539
X0008981Y0034391
X0009018Y0035206
X0010005Y0035183
X0009968Y0034368
X0011124Y0034376
X0011161Y0035191
X0013978Y0035814
X0014907
Y003653
X001573Y0035824
X0018154Y003808
X0018312Y0038876
X0019347Y0038892
X0019331Y0038136
X0020345Y0038169
X0020366Y0038913
X002032Y0037154
X0020784Y0034915
X0021189Y0034211
X0022018Y0033847
X0020748Y0033451
X0018524Y003348
X0018882Y0031353
X0019869Y003133
X0021025Y0031338
X0020489Y0028655
X0019347Y0028078
X0017896Y0028219
X0017884Y0027499
X0016302
Y0028207
X0014873Y0028934
X0013717Y0028926
X001273Y0028949
X0008706Y0025973
X0008717Y0025025
X0006979Y0024968
X0006188Y0024955
X0005356Y0024932
X0017884Y0024762
X0020212Y0026096
X0021366Y0025959
X0024362Y0026159
X0022249Y0028336
X0022912Y0032689
X0024068Y0032697
X0025055Y0032674
X0027083Y0031594
X0028966Y002858
X0029554Y0024714
X0035164Y0024468
X0038749Y0026398
X0038772Y0027385
X0038764Y0028541
X0038517Y0032574
X003854Y0033561
X0038532Y0034717
X0037096
X0037104Y0033561
X0037081Y0032574
X0035496Y0032524
X0035519Y0033511
X0035511Y0034667
X0034273Y0035834
X0033117Y0035826
X003213Y0035849
X0032112Y0037183
X0033099Y003716
X0034255Y0037168
X0034279Y0038457
X0033123Y0038449
X0032136Y0038472
X0030673Y0038457
X0029517Y0038449
X002853Y0038472
X0025756Y0036518
X0008251Y0037823
X0007095Y0037815
X0006108Y0037838
T02
X00113789Y00092251
X00235791
Y00304249
X00113789
T03
X0037Y0003
X0003
Y0037
X0037
T04
X00246789Y00112251
X00102791Y00284249
M30
