M48
;Layer_Color=9474304
;FILE_FORMAT=4:4
METRIC,TZ
;TYPE=PLATED
T1F00S00C0.2540
T2F00S00C0.4000
T4F00S00C0.6400
T6F00S00C0.8900
T7F00S00C0.9000
T9F00S00C1.0000
T11F00S00C1.0200
T12F00S00C1.7000
T13F00S00C3.7000
T14F00S00C3.8000
;TYPE=NON_PLATED
T15F00S00C1.1000
T16F00S00C1.6000
T17F00S00C3.2500
%
T01
X282000Y382000
X291500
X301500
X312000
X323000
X334000
X338000Y394000
Y403000
X334000Y413500
X322500
X312000
X301500
X290000
X282000
Y402500
Y392000
X293000Y420500
X287000Y448000
X294500Y455500
X287000Y463000
X302000
Y448000
X316500Y443000
X330000
X344500Y466000
X296500Y485225
X277000Y484000
X270000Y492500
X352000Y489000
X361000
Y479000
X360000Y461500
X352500Y457000
X351000Y425000
X373800Y427800
X390789Y447170
X378800Y467200
X381500Y479500
X391000
X381500Y489000
X371000
X414000Y482500
X415000Y469000
Y462000
X424000
Y469000
X455000Y468000
X465500Y446500
Y431500
Y416500
X477450Y415950
X496000Y422522
X509000Y412500
X508366Y402448
X501500Y388350
X484150Y365000
X441500Y371500
Y356500
X434800Y346200
X427000Y363500
X420750Y373700
X418000Y393000
X437000Y393500
X443000Y388000
X443500Y401500
X427000Y425500
X416500Y436000
Y495000
X497500Y500000
X505250Y493500
X498500Y480500
X492000Y467800
X492300Y458200
X516000Y477000
X528500Y483000
X532000Y470000
X538634Y472914
X545365
X558634Y472914
X565365
X572000Y469500
X578634Y473114
X585365
X592000Y470000
X598634Y472914
X605365
X612000Y472000
X635000Y473500
X635500Y482000
X633000Y459500
X644500Y442250
X642700Y423950
X629300Y423700
X615700
X616000Y405130
X633500Y408000
X625500Y384500
Y359000
X656000Y342500
X679700Y334300
X680000Y371500
X672500
X673000Y379500
X680000
X675000Y389500
X697000Y405000
X696000Y413500
X687500Y422000
X707500Y424000
X704500Y448500
X697616Y453368
X690884
X685500Y447000
X711885Y453368
X718615
X740869Y442788
Y436057
X740000Y429000
X743369Y423288
Y416557
X738500Y411000
X735865Y384632
X729134
X715000Y387500
X745001Y379501
X718500Y315500
X709500Y322000
X669500Y288500
X638000Y295500
X637500Y304000
X574000Y317000
X562000Y316500
X542000Y314000
X531000Y316000
X541500Y343500
X535500Y353000
X535000Y359000
X554000Y386500
X588500Y386000
X593500Y425500
X578500
X563500
X548500
X516500Y429500
X539500Y499000
X608500Y495000
X605500Y490500
X601500Y486500
X666186Y496868
X672917
X677500Y491000
X676616Y479632
X669884
X683500Y480500
X745000Y488000
X411700Y336300
X394300Y335700
X380000Y339500
X374500Y322500
X394500Y314500
X406800Y302300
X760712Y329369
X767443
X789726Y337500
X802500Y347500
X815274Y337500
X814500Y323500
X803000Y277500
X806800Y380300
X815000Y391000
Y404000
X797200Y397500
X789000Y373000
X762500Y383000
Y405500
X767000Y485000
Y496000
X777500Y491500
X786000Y487000
X805000Y498500
X891500Y492000
X898238Y494138
X904968
X922000Y490000
X929238Y491138
X935968
X940500Y486000
X943135Y434362
X949865
X955500Y429500
X937000Y430000
X931450Y439550
X928000Y418500
X916500Y400500
X909365Y398362
X902635
X906000Y408750
X891000
X876000
X861000
X865000Y450500
X903000Y450000
X995500Y451000
X1024000Y454500
Y434500
Y426000
X1048000Y419000
X1057500
X1057500Y427794
X1057500Y409500
X1048000
X1038500
X1003500Y393500
X974000Y394500
X960800Y389800
X943500Y368000
X951500Y332000
X947200Y315800
X974500Y327000
X981000Y347000
X1019000Y343000
X1033000Y360000
X1046000
X1064000Y335450
X1024500Y316500
X999500Y320000
X1072000Y386000
X1093700Y447000
X1114500
X1114000Y434500
X1053500Y494700
X1038000Y494500
X1010500
X1157700Y538800
X1209000Y537000
X1212500Y556500
X1226000Y570000
X1228500Y580634
Y587365
X1235500Y589999
Y578000
X1266501Y584000
X1273554Y586637
Y593368
X1272000Y600500
X1283500Y588500
X1283632Y581363
Y574632
X1291000Y573500
X1272500Y572001
X1258400Y542501
X1239000Y530500
X1292000Y542000
Y625999
X1281300Y630200
X1289000Y638500
X1263000Y633000
X1244250Y631250
X1241000Y684500
X1233000
Y692500
X1239000Y714500
X1258400Y725501
X1292000Y725000
X1291000Y757500
X1283631Y757633
Y764363
X1283500Y771500
X1273554Y769637
Y776367
X1272000Y783500
X1266501Y767000
X1272500Y755001
X1235500Y761001
X1228500Y763634
Y770366
X1235500Y772999
X1220500Y798500
X1212000Y800500
X1211500Y809000
X1206300Y833700
X1187499Y847900
X1188000Y881500
X1158500Y879500
X1155368Y873132
X1148637
X1143364Y863054
X1146000Y856001
X1157999Y862000
X1152000Y825000
X1154000Y810000
X1173850Y706500
X1212000Y724500
X1213000Y744000
X1200500Y668000
X1191000Y647000
X1171500Y605000
X1272500Y661500
X1275500Y701000
X1268000
X1304000Y691000
X1292000Y809000
X1140001Y825000
X1136633Y863054
X1129500Y861500
X1109000Y862500
X1099800Y870800
X1104000Y881500
X1091500Y878500
X1097000Y852500
X1068500Y862000
X1027500Y865000
Y857500
X1004499Y847900
X1012700Y830700
X1037500Y822500
X1045500
Y830500
X1050500Y778729
X1065500
X1084635Y780132
X1091366
X1096001Y786000
X1081001Y786500
X1076366Y751869
X1069635
X1065000Y746000
X1050500Y745500
X1046366Y751869
X1039635
X1036500Y745000
X1031353Y731866
X1024622
X1019500Y726500
X1019762Y713862
X1013031
X1007794Y719000
X1026000Y717500
X1035000Y725500
X1051000
X1054622Y731869
X1061353
X1065500Y726000
X1080000Y745500
X1086500Y750000
X1095500Y754000
X1114250Y777000
X1020500Y778000
X1005500
X975500
X949500Y781500
X931500
X911000Y780500
X900500Y753270
X893519Y750455
X884410Y750414
X877679
X870500Y750500
X860500Y749500
X883295Y734705
X890474Y734619
X897205
X904295Y734705
X903429Y717447
X910160
X917250Y717533
X896250
X857000Y708500
X833432Y720869
X826701
X820500Y725000
X814500Y719500
X820000Y710000
X838000Y726500
X811366Y746368
X804634
X802000Y739500
X789500Y742000
X786366Y735362
X779634
X775500Y741000
Y753500
X790500
X800500Y753500
X815412Y751517
X830500Y781500
X845500
Y830000
X833999Y846900
X834500Y880500
X803000Y879500
X801868Y872132
X795136
X788000Y872000
X789864Y862054
X783132
X776000Y860500
X792500Y855001
X804499Y861000
X798500Y824000
X795865Y817000
X789135
X786500Y824000
X759000
X771000Y788000
X760500Y753500
X772134Y718638
X778866
X782000Y712000
X769500
X763866Y709638
X757134
X753500Y703500
X753000Y662500
X761500Y668000
X789000Y663500
X783000Y656500
X798000Y671000
X849500Y669000
X856000Y627500
X848000Y596500
X837500Y597500
X839250Y589500
X829000
X801000Y578000
X809500Y568000
X797500Y553500
X818500Y533000
X849500Y524500
X848000Y506000
X855238Y507638
X861969
X869500Y506000
X878238Y507638
X884968
X893445Y510099
X948000Y534500
X947000Y551000
X955500Y552500
X954650Y564000
X954500Y576500
X937300Y586700
X927700
X960500Y609000
X964500Y618000
X955000
X962500Y627500
X971500Y631000
Y623000
X1008000Y622500
Y629000
X1017000Y644500
X1022122Y649866
X1028853
X1032500Y643500
X1048500
X1052122Y649868
X1058853
X1063000Y644000
X1060000Y629000
X1067135Y626869
X1073866
X1077500Y620500
X1082135Y606869
X1088866
X1092500Y600500
X1077500Y601000
X1050500Y595000
X1048500Y588500
X1036500Y599000
X1029750Y598250
X1030000Y560500
X1024000
X1012000
X1008500Y570000
X1000500
Y578000
X1008500Y578500
X989000Y567000
X993634Y561339
Y554608
X995000Y547500
X970000Y534500
X1038636Y536300
X1045462Y564200
X1050000Y510000
X1103700Y505800
X1131500Y542500
X1107500Y578483
X1103866Y584852
X1097135
X1092500Y578983
X1093000Y668000
X1078000Y670000
X1063000Y669500
X1043866Y669868
X1037135
X1034000Y663000
X1048000Y663500
X1018000Y659000
X1003564Y650366
X998916Y644866
X992185
X988064Y650866
X983866Y669868
X977135
X974000Y663000
X968853Y657500
X962122
X958000Y663500
X958000Y672000
X943000Y654868
X938853Y648868
X932122
X928000Y654868
X923866Y669868
X917134
X914000Y663000
X908853Y657500
X902122
X898000Y663500
X942999Y696729
X950500Y729000
X949634Y736086
X956366
X960500Y730000
X964634Y720362
X971365
X987862Y718468
Y711738
X990500Y753000
X1009635Y751862
X1016366
X1006525Y745000
X1003000Y667500
X1110500Y668500
X1141500Y873000
X1039000Y892500
X1005000Y881500
X972000Y880500
X972367Y873131
X965637
X958500Y873000
X960363Y863054
X953633
X946500Y861500
X963000Y856001
X974999Y862000
X968999Y825000
X966366Y818000
X959634
X957001Y825000
X977000Y815500
X919750Y863750
X921000Y881500
X750500Y880500
X746300Y869800
X764924Y543924
X779424Y529424
X747000Y521000
Y510000
X725000Y521000
X715000
X716500Y533000
Y540500
X744702Y548202
X732500Y571000
X710000
X714250Y590250
X693500Y579500
X688000Y572500
X677000Y583000
X655500Y562500
X651000Y556500
X637700Y542800
X628000Y515000
X644000Y510000
X660000Y501000
X685500Y520000
X696500
X630250Y578750
X613000Y581000
X606500
X597200Y567700
X590500Y559500
X593174Y552132
X599905
X605500Y557000
X579500Y565500
X580000Y571000
X571000Y569500
X573999Y564999
X573800Y594200
X580000Y589000
X561000Y587000
X560000Y592000
X557500Y601000
X560000Y611500
X552500Y614500
X544000
X540500Y606000
X532000
X518000Y613000
X520000Y587300
X503500Y586675
X498200Y565200
X518250Y558250
X516500Y540500
X474132Y537365
Y530634
X466000Y526500
X467500Y542500
X471500Y549000
Y555500
X397500Y554500
Y548500
Y535500
Y528000
X398000Y516000
Y509000
X386039Y515914
X371500Y517000
X362000Y516500
X352000
Y528000
Y539000
Y550500
Y504000
X417000Y501500
X418000Y522500
X404500Y616500
X406500Y623000
X399000Y623500
X390500
X376500Y624000
Y616000
Y608000
Y600000
X383500Y638500
Y648000
X378000Y656500
X381138Y663135
Y669865
X393500Y678500
X393000Y694500
X386138Y693135
Y699865
X391000Y704500
X388500Y749500
X395138Y753135
Y759865
X388500Y763000
X403000Y764500
Y770000
X438000Y773000
Y764000
X450500Y779000
X460000
X472000
X480500
X489000
X497500Y781500
X521500Y791500
X529000Y787500
X538250Y786750
X555500Y789000
X565500Y783000
X550703Y755044
X540500Y751500
X515500Y755000
X489000Y754500
X498500Y715500
X505138Y712763
Y706031
X499000Y702500
X488000Y697500
X480000
X472000
X462500Y696500
X453000
X443000
Y666500
X453000
X468000Y654500
Y647000
Y639000
X475000Y643000
Y651000
X491500Y656500
Y665000
X508750Y653250
X561500Y649500
X577000Y646586
X582135Y651586
X588866
X597135Y640673
X603866
X593000Y634500
X578000Y616500
X593001Y671271
X608000Y668000
X612135Y660086
X618866
X623000Y653000
X627135Y646586
X633866
X639500Y651000
X643000Y663000
X657135Y665470
X663866
X668001Y671271
X653001
X683000Y671000
X687134Y664862
X693866
X700500Y667500
X707738Y665138
X714469
X723687
X730418
X729000Y672500
X718500Y659500
X694000Y644000
X655500Y642500
X623000Y669500
X624640Y715687
Y722418
X618000Y725000
X617500Y741500
X634000Y740500
X642000Y741000
X647500Y746000
X654634Y747191
X661366
X665500Y753270
X680500
X684634Y747868
X691366
X695500Y753270
X696500Y741000
X699635Y733862
X706366
X709000Y727000
X710500Y747000
X725500
X732557Y704131
X739288
X728000Y697500
X713000Y695500
X698000Y695000
X681500Y728000
X676366Y732862
X669635
X664000Y728500
X631500Y713000
X609000Y753500
X602000Y748000
X590500Y755000
X606134Y817000
X612865
X615499Y824000
X603501
X623000Y816500
X621499Y861000
X618867Y872132
X612136
X605000Y872000
X604750Y882750
X617000Y879000
X606864Y862054
X600132
X593000Y860500
X609500Y855001
X650999Y846900
X663800Y833200
X685000Y829500
X692000
Y821500
X675000Y856500
Y862500
X715000
X738000Y877500
X743500Y851500
X685500Y892500
X651500Y880500
X567500
X544500Y864500
X518500Y860500
X507000
X512500Y867000
X507000Y873000
X518500
X517500Y834000
X509000
X498500Y831500
X490000
X485500Y844000
X477500Y850000
X485500Y862000
X469500Y866500
X447200Y870300
X447300Y879700
X447700Y860700
X424500Y855500
X411000Y850500
X419500Y834000
X429250Y833750
X353000Y832500
X361000Y805500
Y797000
X361500Y779000
X361000Y765000
X368500Y750000
X350000Y749000
X352500Y734000
X358638Y729865
Y723135
X352250Y719000
X354000Y689000
X353750Y674000
X368000Y657500
X429500Y647500
X424500Y640000
X439000
Y652000
X428000Y676500
X461500Y723000
X534500Y719000
X537638Y712468
Y705738
X531000Y703000
X519000Y702500
X528500Y832500
X537500
X485500Y888500
X464200Y889300
X547000Y576500
X548000Y571000
Y500500
X344000Y511500
Y521500
Y533000
Y544500
X289800Y501800
X302500Y639500
X300362Y678135
Y684865
Y708135
Y714865
Y738135
Y744865
Y768135
Y774865
X347000Y822500
X348000Y857000
X323500Y697000
X325000Y659000
T02
X708499Y349350
X716499
X724499
X720499Y356350
X728499
X736499
X744499
X740499Y349350
X712499Y356350
X704499
X752499
X760499
X756499Y349350
X748499
X860500Y341250
X869500
X878500
X887500
X896500
X905500
X910000Y333500
X892080
X874000
X856000
Y367000
X860500Y374750
X869500
X878500
X887500
X896500
X905500
X910000Y367000
X892080
X874000
T04
X396200Y384250
Y396750
Y409250
Y421750
T06
X1174100Y423000
X1199500
X1224900
X1250300
X1275700
X1263000Y448400
X1237600
X1212200
X1186800
X1161400
T07
X367600Y874000
X393000
X418400
X272500Y735250
Y692750
Y660750
Y618250
T09
X835500Y375000
X930500
T11
X1163940Y496700
X1189340
X1247840
X1273240
X896200Y857000
X870800
T12
X1139768Y390000
X1297332
T13
X304800Y294640
X458750Y305000
X1094750
X1265700Y294640
X1265700Y864360
X304800
T14
X784990Y449000
X1173850Y706500
T15
X505750Y549000
X432750Y725000
X391000Y806500
T16
X505750Y349000
X1120750Y725000
X391000Y606500
T17
X1161400Y359500
X1275700
M30
