M48
;Layer_Color=9474304
;FILE_FORMAT=4:4
METRIC,TZ
;TYPE=PLATED
T3F00S00C0.6000
T5F00S00C0.7000
T8F00S00C0.9000
T10F00S00C1.0000
;TYPE=NON_PLATED
%
G90
G05
T03
G00X505250Y271500
M15
G01Y276500
M16
G00X505250Y315500
M15
G01Y322500
M16
G00X613750Y315500
M15
G01Y322500
M16
G00X613750Y271500
M15
G01Y276500
M16
G00X689799Y294550
M15
G01Y300550
M16
G00X689799Y341850
M15
G01Y347850
M16
G00X775199Y341850
M15
G01Y347850
M16
G00X775199Y294550
M15
G01Y300550
M16
T05
G00X831000Y283300
M15
G01Y293700
M16
G00X935000Y283300
M15
G01Y293700
M16
T08
G00X828000Y336250
M15
G01Y350750
M16
G00X938000Y336250
M15
G01Y350750
M16
T10
G00X321000Y338500
M15
G01X301000
M16
G00X298500Y398500
M15
G01X323500
M16
G00X360000Y379000
M15
G01Y359000
M16
M17
M30
