G04*
G04 #@! TF.GenerationSoftware,Altium Limited,Altium Designer,19.1.1 (5)*
G04*
G04 Layer_Color=128*
%FSLAX25Y25*%
%MOIN*%
G70*
G01*
G75*
%ADD22R,0.02205X0.02362*%
%ADD23R,0.02400X0.01000*%
%ADD24R,0.02756X0.01181*%
%ADD25R,0.02200X0.01000*%
%ADD26R,0.02362X0.03543*%
%ADD27R,0.03150X0.03543*%
G04:AMPARAMS|DCode=28|XSize=48.82mil|YSize=21.65mil|CornerRadius=1.52mil|HoleSize=0mil|Usage=FLASHONLY|Rotation=90.000|XOffset=0mil|YOffset=0mil|HoleType=Round|Shape=RoundedRectangle|*
%AMROUNDEDRECTD28*
21,1,0.04882,0.01862,0,0,90.0*
21,1,0.04579,0.02165,0,0,90.0*
1,1,0.00303,0.00931,0.02290*
1,1,0.00303,0.00931,-0.02290*
1,1,0.00303,-0.00931,-0.02290*
1,1,0.00303,-0.00931,0.02290*
%
%ADD28ROUNDEDRECTD28*%
%ADD29R,0.08740X0.04882*%
%ADD30R,0.05000X0.03394*%
%ADD31R,0.02362X0.02205*%
%ADD32R,0.04000X0.05000*%
G04:AMPARAMS|DCode=33|XSize=23.23mil|YSize=53.94mil|CornerRadius=1.74mil|HoleSize=0mil|Usage=FLASHONLY|Rotation=90.000|XOffset=0mil|YOffset=0mil|HoleType=Round|Shape=RoundedRectangle|*
%AMROUNDEDRECTD33*
21,1,0.02323,0.05046,0,0,90.0*
21,1,0.01975,0.05394,0,0,90.0*
1,1,0.00348,0.02523,0.00987*
1,1,0.00348,0.02523,-0.00987*
1,1,0.00348,-0.02523,-0.00987*
1,1,0.00348,-0.02523,0.00987*
%
%ADD33ROUNDEDRECTD33*%
%ADD34R,0.03937X0.00906*%
%ADD35R,0.03346X0.00906*%
%ADD36R,0.05433X0.07087*%
%ADD37R,0.07874X0.06693*%
D22*
X63500Y31299D02*
D03*
X67500D02*
D03*
X53000Y29299D02*
D03*
X57000D02*
D03*
X89496Y37039D02*
D03*
X93496D02*
D03*
X80079Y77480D02*
D03*
X76079D02*
D03*
X67299D02*
D03*
X71299D02*
D03*
X58410Y78031D02*
D03*
X54409D02*
D03*
X45094Y78110D02*
D03*
X49095D02*
D03*
X65500Y46760D02*
D03*
X69500D02*
D03*
D23*
X61839Y41618D02*
D03*
Y39649D02*
D03*
Y37681D02*
D03*
X68539D02*
D03*
Y39649D02*
D03*
Y41618D02*
D03*
D24*
X43039Y64500D02*
D03*
Y62334D02*
D03*
X47961Y64500D02*
D03*
Y62334D02*
D03*
Y54460D02*
D03*
Y56626D02*
D03*
Y46133D02*
D03*
Y48299D02*
D03*
X43039Y54460D02*
D03*
Y56626D02*
D03*
Y48299D02*
D03*
Y46133D02*
D03*
D25*
X42194Y33894D02*
D03*
Y35862D02*
D03*
Y37831D02*
D03*
Y39799D02*
D03*
X53602D02*
D03*
Y37831D02*
D03*
Y35862D02*
D03*
Y33894D02*
D03*
D26*
X40600Y26937D02*
D03*
X34600D02*
D03*
X23638Y80559D02*
D03*
X17638D02*
D03*
D27*
X41046Y19858D02*
D03*
X35046D02*
D03*
D28*
X57342D02*
D03*
X49862D02*
D03*
Y10528D02*
D03*
X53602D02*
D03*
X57342D02*
D03*
D29*
X68539Y14047D02*
D03*
Y5465D02*
D03*
D30*
X77681Y6016D02*
D03*
Y13496D02*
D03*
D31*
X78661Y22181D02*
D03*
Y26181D02*
D03*
X92898Y50760D02*
D03*
Y46760D02*
D03*
X88125Y63417D02*
D03*
Y67417D02*
D03*
X77602Y64520D02*
D03*
Y68520D02*
D03*
D32*
X85362Y29786D02*
D03*
X92550Y29755D02*
D03*
X92519Y20630D02*
D03*
X85237Y20599D02*
D03*
D33*
X77539Y84016D02*
D03*
Y91496D02*
D03*
X68287D02*
D03*
Y87756D02*
D03*
Y84016D02*
D03*
X59154Y83819D02*
D03*
Y91299D02*
D03*
X49902D02*
D03*
Y87559D02*
D03*
Y83819D02*
D03*
D34*
X23799Y56406D02*
D03*
Y57981D02*
D03*
Y51681D02*
D03*
Y53256D02*
D03*
Y61130D02*
D03*
Y59555D02*
D03*
Y54831D02*
D03*
Y50107D02*
D03*
Y48532D02*
D03*
D35*
X28622Y54044D02*
D03*
Y55618D02*
D03*
Y61918D02*
D03*
Y60343D02*
D03*
Y58768D02*
D03*
Y57193D02*
D03*
Y52469D02*
D03*
Y50894D02*
D03*
Y49319D02*
D03*
Y47744D02*
D03*
D36*
X23051Y43611D02*
D03*
Y66051D02*
D03*
D37*
X9823Y43414D02*
D03*
Y66248D02*
D03*
M02*
