G04*
G04 #@! TF.GenerationSoftware,Altium Limited,Altium Designer,19.1.1 (5)*
G04*
G04 Layer_Color=32768*
%FSLAX25Y25*%
%MOIN*%
G70*
G01*
G75*
%ADD58C,0.00787*%
%ADD59C,0.00500*%
%ADD60C,0.00394*%
D58*
X39988Y62236D02*
G03*
X39988Y62236I-394J0D01*
G01*
X60886Y9287D02*
G03*
X60886Y9287I-394J0D01*
G01*
X64617Y84016D02*
G03*
X64617Y84016I-243J0D01*
G01*
X46232Y83819D02*
G03*
X46232Y83819I-243J0D01*
G01*
X31476Y61524D02*
G03*
X31476Y62311I0J393D01*
G01*
D02*
G03*
X31476Y61524I0J-393D01*
G01*
X39988Y54362D02*
G03*
X39988Y54362I-394J0D01*
G01*
Y46035D02*
G03*
X39988Y46035I-394J0D01*
G01*
D59*
X43039Y60484D02*
X47961D01*
X43039Y66350D02*
X47961D01*
X47893Y12043D02*
Y18343D01*
X59311Y12043D02*
Y18343D01*
X52027D02*
X55177D01*
X64208Y9165D02*
Y10347D01*
X72870Y9165D02*
Y10347D01*
X69567Y81654D02*
Y82047D01*
X76259Y81654D02*
Y82047D01*
Y93465D02*
Y93858D01*
X69567Y93465D02*
Y93858D01*
X76259D01*
X69567Y81654D02*
X76259D01*
X51182Y81457D02*
Y81850D01*
X57874Y81457D02*
Y81850D01*
Y93268D02*
Y93661D01*
X51182Y93268D02*
Y93661D01*
X57874D01*
X51182Y81457D02*
X57874D01*
X43039Y58476D02*
X47961D01*
X43039Y52610D02*
X47961D01*
X43039Y50149D02*
X47961D01*
X43039Y44283D02*
X47961D01*
D60*
X83433Y38650D02*
Y41051D01*
Y38650D02*
X92567D01*
Y41051D01*
X83433Y68611D02*
Y71012D01*
X92567D01*
Y68611D02*
Y71012D01*
X3130Y42036D02*
X3917D01*
X3130D02*
Y67626D01*
X3917D01*
X27539Y42036D02*
X29508D01*
Y44988D01*
Y64674D02*
Y67626D01*
X27539D02*
X29508D01*
M02*
