G04*
G04 #@! TF.GenerationSoftware,Altium Limited,Altium Designer,19.1.1 (5)*
G04*
G04 Layer_Color=16711935*
%FSLAX25Y25*%
%MOIN*%
G70*
G01*
G75*
%ADD14C,0.08674*%
%ADD38R,0.02756X0.02913*%
%ADD39R,0.03200X0.01800*%
%ADD40R,0.03556X0.01981*%
%ADD41R,0.03000X0.01800*%
%ADD42R,0.03162X0.04343*%
%ADD43R,0.03950X0.04343*%
G04:AMPARAMS|DCode=44|XSize=56.82mil|YSize=29.65mil|CornerRadius=5.52mil|HoleSize=0mil|Usage=FLASHONLY|Rotation=90.000|XOffset=0mil|YOffset=0mil|HoleType=Round|Shape=RoundedRectangle|*
%AMROUNDEDRECTD44*
21,1,0.05682,0.01862,0,0,90.0*
21,1,0.04579,0.02965,0,0,90.0*
1,1,0.01103,0.00931,0.02290*
1,1,0.01103,0.00931,-0.02290*
1,1,0.01103,-0.00931,-0.02290*
1,1,0.01103,-0.00931,0.02290*
%
%ADD44ROUNDEDRECTD44*%
%ADD45R,0.09540X0.05682*%
%ADD46R,0.05800X0.04194*%
%ADD47R,0.02913X0.02756*%
%ADD48R,0.04800X0.05800*%
G04:AMPARAMS|DCode=49|XSize=31.23mil|YSize=61.94mil|CornerRadius=5.74mil|HoleSize=0mil|Usage=FLASHONLY|Rotation=90.000|XOffset=0mil|YOffset=0mil|HoleType=Round|Shape=RoundedRectangle|*
%AMROUNDEDRECTD49*
21,1,0.03123,0.05046,0,0,90.0*
21,1,0.01975,0.06194,0,0,90.0*
1,1,0.01148,0.02523,0.00987*
1,1,0.01148,0.02523,-0.00987*
1,1,0.01148,-0.02523,-0.00987*
1,1,0.01148,-0.02523,0.00987*
%
%ADD49ROUNDEDRECTD49*%
%ADD50R,0.04737X0.01706*%
%ADD51R,0.04146X0.01706*%
%ADD52R,0.06233X0.07887*%
%ADD53R,0.08674X0.07493*%
D14*
X90551Y7874D02*
D03*
Y90551D02*
D03*
X7874Y7874D02*
D03*
Y90551D02*
D03*
D38*
X63500Y31299D02*
D03*
X67500D02*
D03*
X53000Y29299D02*
D03*
X57000D02*
D03*
X89496Y37039D02*
D03*
X93496D02*
D03*
X80079Y77480D02*
D03*
X76079D02*
D03*
X67299D02*
D03*
X71299D02*
D03*
X58410Y78031D02*
D03*
X54409D02*
D03*
X45094Y78110D02*
D03*
X49095D02*
D03*
X65500Y46760D02*
D03*
X69500D02*
D03*
D39*
X61839Y41618D02*
D03*
Y39649D02*
D03*
Y37681D02*
D03*
X68539D02*
D03*
Y39649D02*
D03*
Y41618D02*
D03*
D40*
X43039Y64500D02*
D03*
Y62334D02*
D03*
X47961Y64500D02*
D03*
Y62334D02*
D03*
Y54460D02*
D03*
Y56626D02*
D03*
Y46133D02*
D03*
Y48299D02*
D03*
X43039Y54460D02*
D03*
Y56626D02*
D03*
Y48299D02*
D03*
Y46133D02*
D03*
D41*
X42194Y33894D02*
D03*
Y35862D02*
D03*
Y37831D02*
D03*
Y39799D02*
D03*
X53602D02*
D03*
Y37831D02*
D03*
Y35862D02*
D03*
Y33894D02*
D03*
D42*
X40600Y26937D02*
D03*
X34600D02*
D03*
X23638Y80559D02*
D03*
X17638D02*
D03*
D43*
X41046Y19858D02*
D03*
X35046D02*
D03*
D44*
X57342D02*
D03*
X49862D02*
D03*
Y10528D02*
D03*
X53602D02*
D03*
X57342D02*
D03*
D45*
X68539Y14047D02*
D03*
Y5465D02*
D03*
D46*
X77681Y6016D02*
D03*
Y13496D02*
D03*
D47*
X78661Y22181D02*
D03*
Y26181D02*
D03*
X92898Y50760D02*
D03*
Y46760D02*
D03*
X88125Y63417D02*
D03*
Y67417D02*
D03*
X77602Y64520D02*
D03*
Y68520D02*
D03*
D48*
X85362Y29786D02*
D03*
X92550Y29755D02*
D03*
X92519Y20630D02*
D03*
X85237Y20599D02*
D03*
D49*
X77539Y84016D02*
D03*
Y91496D02*
D03*
X68287D02*
D03*
Y87756D02*
D03*
Y84016D02*
D03*
X59154Y83819D02*
D03*
Y91299D02*
D03*
X49902D02*
D03*
Y87559D02*
D03*
Y83819D02*
D03*
D50*
X23799Y56406D02*
D03*
Y57981D02*
D03*
Y51681D02*
D03*
Y53256D02*
D03*
Y61130D02*
D03*
Y59555D02*
D03*
Y54831D02*
D03*
Y50107D02*
D03*
Y48532D02*
D03*
D51*
X28622Y54044D02*
D03*
Y55618D02*
D03*
Y61918D02*
D03*
Y60343D02*
D03*
Y58768D02*
D03*
Y57193D02*
D03*
Y52469D02*
D03*
Y50894D02*
D03*
Y49319D02*
D03*
Y47744D02*
D03*
D52*
X23051Y43611D02*
D03*
Y66051D02*
D03*
D53*
X9823Y43414D02*
D03*
Y66248D02*
D03*
M02*
