G04*
G04 #@! TF.GenerationSoftware,Altium Limited,Altium Designer,19.1.1 (5)*
G04*
G04 Layer_Physical_Order=1*
G04 Layer_Color=255*
%FSLAX25Y25*%
%MOIN*%
G70*
G01*
G75*
%ADD12R,0.02480X0.00906*%
%ADD15C,0.01181*%
%ADD16C,0.00787*%
%ADD17C,0.00591*%
%ADD18C,0.01968*%
%ADD19C,0.07874*%
%ADD20C,0.01575*%
%ADD21C,0.02362*%
G36*
X48992Y96504D02*
X48611Y96249D01*
X48216Y95658D01*
X48077Y94961D01*
X48216Y94263D01*
X48478Y93870D01*
Y83943D01*
X44657Y80122D01*
X35628D01*
X29706Y86044D01*
X29245Y86352D01*
X28701Y86460D01*
X24134D01*
X23590Y86352D01*
X23129Y86044D01*
X21082Y83997D01*
X20774Y83536D01*
X20666Y82992D01*
Y77378D01*
X20774Y76834D01*
X21082Y76373D01*
X29633Y67822D01*
X30094Y67514D01*
X30638Y67406D01*
X38908D01*
X41028Y65285D01*
Y54809D01*
X38566Y52347D01*
X38208D01*
X37815Y52610D01*
X37117Y52748D01*
X36420Y52610D01*
X35829Y52215D01*
X35434Y51623D01*
X35295Y50926D01*
X35434Y50229D01*
X35829Y49637D01*
X35937Y49565D01*
X35785Y49065D01*
X30953D01*
X25927Y54091D01*
X25498Y54377D01*
X24993Y54478D01*
X24522D01*
X24370Y54978D01*
X24549Y55098D01*
X30859Y61408D01*
X36221D01*
X36462Y61046D01*
X37053Y60651D01*
X37751Y60512D01*
X38448Y60651D01*
X39040Y61046D01*
X39435Y61637D01*
X39573Y62334D01*
X39435Y63032D01*
X39177Y63417D01*
X39435Y63802D01*
X39573Y64500D01*
X39435Y65197D01*
X39040Y65788D01*
X38448Y66184D01*
X37751Y66322D01*
X37053Y66184D01*
X36462Y65788D01*
X36221Y65427D01*
X29741D01*
X29236Y65326D01*
X28808Y65040D01*
X22498Y58730D01*
X15508D01*
X15149Y59143D01*
X15201Y59401D01*
X15062Y60099D01*
X14667Y60690D01*
X14076Y61085D01*
X13378Y61224D01*
X12681Y61085D01*
X12090Y60690D01*
X11694Y60099D01*
X11604Y59644D01*
X11150Y59554D01*
X10559Y59159D01*
X10163Y58568D01*
X10025Y57870D01*
X10163Y57173D01*
X10559Y56581D01*
X11150Y56186D01*
X11847Y56048D01*
X12274Y56133D01*
X13309Y55098D01*
X13577Y54919D01*
X13485Y54391D01*
X13418Y54377D01*
X12989Y54091D01*
X12274Y53375D01*
X11847Y53460D01*
X11150Y53321D01*
X10559Y52926D01*
X10163Y52335D01*
X10025Y51638D01*
X10163Y50940D01*
X10559Y50349D01*
X11150Y49954D01*
X11604Y49864D01*
X11694Y49409D01*
X12090Y48818D01*
X12681Y48423D01*
X13378Y48284D01*
X14076Y48423D01*
X14667Y48818D01*
X15062Y49409D01*
X15201Y50107D01*
X15489Y50459D01*
X23875D01*
X28901Y45432D01*
X29330Y45146D01*
X29835Y45046D01*
X37899D01*
X38140Y44684D01*
X38732Y44289D01*
X39429Y44150D01*
X40126Y44289D01*
X40718Y44684D01*
X41113Y45275D01*
X41251Y45972D01*
X41113Y46670D01*
X40855Y47055D01*
X41113Y47440D01*
X41251Y48138D01*
X41113Y48835D01*
X40718Y49426D01*
X40509Y49566D01*
X40447Y50209D01*
X42449Y52211D01*
X51304Y43356D01*
X50985Y42968D01*
X50597Y43227D01*
X49899Y43366D01*
X49202Y43227D01*
X48809Y42964D01*
X30992D01*
X30992Y42964D01*
X30448Y42856D01*
X29987Y42548D01*
X25877Y38437D01*
X25413Y38345D01*
X24822Y37950D01*
X24427Y37359D01*
X24288Y36661D01*
X24427Y35964D01*
X24510Y35838D01*
X24275Y35397D01*
X19212D01*
X6572Y48037D01*
Y71388D01*
X14431Y79247D01*
X14869Y79903D01*
X15023Y80677D01*
X14869Y81451D01*
X14431Y82108D01*
X13774Y82546D01*
X13000Y82700D01*
X12226Y82546D01*
X11569Y82108D01*
X3119Y73657D01*
X2680Y73001D01*
X2526Y72226D01*
Y47199D01*
X2680Y46425D01*
X3119Y45768D01*
X16469Y32418D01*
Y27055D01*
X16546Y26665D01*
X16767Y26334D01*
X17098Y26113D01*
X17488Y26035D01*
X29457D01*
X29847Y26113D01*
X30178Y26334D01*
X30399Y26665D01*
X30476Y27055D01*
Y27526D01*
X30661Y27678D01*
X45793D01*
X45886Y27615D01*
X46583Y27477D01*
X47280Y27615D01*
X47872Y28011D01*
X48267Y28602D01*
X48405Y29299D01*
X48267Y29997D01*
X47872Y30588D01*
X47280Y30983D01*
X46583Y31122D01*
X45886Y30983D01*
X45793Y30921D01*
X31333D01*
X30476Y31778D01*
Y34378D01*
X30399Y34768D01*
X30178Y35099D01*
X29847Y35320D01*
X29457Y35397D01*
X27946D01*
X27710Y35838D01*
X27794Y35964D01*
X27886Y36428D01*
X31581Y40122D01*
X48809D01*
X49202Y39860D01*
X49899Y39721D01*
X50597Y39860D01*
X51188Y40255D01*
X51315Y40445D01*
X51815Y40293D01*
Y35400D01*
X50334Y33918D01*
X50026Y33457D01*
X49918Y32913D01*
Y15827D01*
X50026Y15283D01*
X50334Y14822D01*
X55921Y9235D01*
Y7201D01*
X55658Y6807D01*
X55519Y6110D01*
X55658Y5412D01*
X56053Y4821D01*
X56644Y4426D01*
X57342Y4287D01*
X58039Y4426D01*
X58630Y4821D01*
X59025Y5412D01*
X59164Y6110D01*
X59025Y6807D01*
X58763Y7201D01*
Y9824D01*
X58654Y10368D01*
X58346Y10829D01*
X52760Y16415D01*
Y32325D01*
X53637Y33202D01*
X54099Y33011D01*
Y30402D01*
X54207Y29858D01*
X54515Y29397D01*
X56798Y27113D01*
X57259Y26805D01*
X57803Y26697D01*
X61948D01*
X62342Y26434D01*
X63039Y26296D01*
X63736Y26434D01*
X64328Y26829D01*
X64723Y27421D01*
X64861Y28118D01*
X64723Y28815D01*
X64328Y29407D01*
X63736Y29802D01*
X63039Y29941D01*
X62342Y29802D01*
X61948Y29539D01*
X58392D01*
X56941Y30990D01*
Y33679D01*
X57382Y33915D01*
X57499Y33836D01*
X57963Y33744D01*
X59239Y32468D01*
X59700Y32160D01*
X60244Y32051D01*
X66819D01*
X67363Y32160D01*
X67824Y32468D01*
X68864Y33507D01*
X69327Y33600D01*
X69919Y33995D01*
X70314Y34586D01*
X70452Y35283D01*
X70314Y35981D01*
X69919Y36572D01*
X69327Y36967D01*
X68630Y37106D01*
X67932Y36967D01*
X67341Y36572D01*
X66946Y35981D01*
X66854Y35517D01*
X66230Y34893D01*
X60833D01*
X59973Y35753D01*
X59881Y36217D01*
X59486Y36808D01*
X58894Y37203D01*
X58197Y37342D01*
X57499Y37203D01*
X57382Y37125D01*
X56941Y37360D01*
Y44040D01*
X57441Y44247D01*
X59241Y42447D01*
X59702Y42138D01*
X60246Y42030D01*
X68255D01*
X68648Y41768D01*
X69345Y41629D01*
X70043Y41768D01*
X70634Y42163D01*
X71029Y42754D01*
X71168Y43451D01*
X71029Y44149D01*
X70634Y44740D01*
X70043Y45135D01*
X69345Y45274D01*
X68648Y45135D01*
X68255Y44872D01*
X60835D01*
X50996Y54712D01*
Y59301D01*
X56128Y64434D01*
X61177D01*
X62317Y63294D01*
X62778Y62986D01*
X63322Y62878D01*
X77251D01*
X77795Y62986D01*
X78256Y63294D01*
X79396Y64434D01*
X80543D01*
Y63083D01*
X80543Y62827D01*
X80482Y62352D01*
X64771D01*
X64266Y62251D01*
X63837Y61965D01*
X62904Y61032D01*
X62263Y60904D01*
X61672Y60509D01*
X61277Y59918D01*
X61138Y59221D01*
X61277Y58523D01*
X61672Y57932D01*
X62263Y57537D01*
X62961Y57398D01*
X63658Y57537D01*
X64009Y57771D01*
X64033Y57734D01*
X64625Y57339D01*
X65322Y57201D01*
X66019Y57339D01*
X66611Y57734D01*
X67006Y58326D01*
X67007Y58333D01*
X80120D01*
X80331Y57980D01*
X80120Y57628D01*
X70991D01*
X70486Y57527D01*
X70058Y57241D01*
X67033Y54217D01*
X66747Y53788D01*
X66647Y53283D01*
Y49774D01*
X66272Y49399D01*
X63888D01*
X63086Y50201D01*
Y53703D01*
X62986Y54208D01*
X62699Y54637D01*
X60095Y57241D01*
X59667Y57527D01*
X59161Y57628D01*
X57404D01*
X57163Y57990D01*
X56571Y58385D01*
X55874Y58523D01*
X55177Y58385D01*
X54585Y57990D01*
X54190Y57398D01*
X54052Y56701D01*
X54190Y56003D01*
X54448Y55618D01*
X54190Y55233D01*
X54052Y54536D01*
X54190Y53838D01*
X54585Y53247D01*
X55177Y52852D01*
X55874Y52713D01*
X56571Y52852D01*
X57163Y53247D01*
X57404Y53609D01*
X58043D01*
X59067Y52585D01*
Y49083D01*
X59167Y48578D01*
X59454Y48149D01*
X61836Y45767D01*
X62264Y45481D01*
X62770Y45380D01*
X67390D01*
X67895Y45481D01*
X68323Y45767D01*
X70279Y47723D01*
X70565Y48151D01*
X70666Y48656D01*
Y50337D01*
X71166Y50387D01*
X71285Y49787D01*
X71680Y49196D01*
X72272Y48801D01*
X72969Y48662D01*
X73396Y48747D01*
X73900Y48242D01*
X74329Y47956D01*
X74834Y47856D01*
X78461D01*
X78967Y47956D01*
X79395Y48242D01*
X79990Y48837D01*
X80494Y48782D01*
X80543Y48410D01*
X80543Y48154D01*
Y43929D01*
X85023D01*
Y48154D01*
X85023Y48410D01*
X85023Y48910D01*
Y53134D01*
X85023D01*
Y53378D01*
X85023D01*
Y57602D01*
X85023Y57859D01*
X85023Y58359D01*
X85023Y62432D01*
X85158Y62694D01*
X85396Y62889D01*
X85787Y62967D01*
X86248Y63275D01*
X87028Y64054D01*
X87447Y64013D01*
X87595Y63915D01*
X87867Y63643D01*
X87703Y63100D01*
X87428Y63046D01*
X86836Y62650D01*
X86441Y62059D01*
X86303Y61362D01*
X86441Y60664D01*
X86836Y60073D01*
X87428Y59678D01*
X88125Y59539D01*
X88823Y59678D01*
X88868Y59709D01*
X90977D01*
Y58359D01*
X90977Y58102D01*
X90676Y57726D01*
X90363D01*
X89857Y57626D01*
X89429Y57340D01*
X85984Y53895D01*
X85698Y53467D01*
X85597Y52961D01*
Y49549D01*
X85698Y49044D01*
X85984Y48616D01*
X87249Y47350D01*
Y42588D01*
X86887Y42044D01*
X86748Y41347D01*
X86887Y40649D01*
X87282Y40058D01*
X87873Y39663D01*
X88570Y39524D01*
X89268Y39663D01*
X89859Y40058D01*
X90254Y40649D01*
X90393Y41347D01*
X90254Y42044D01*
X89891Y42588D01*
Y47897D01*
X89790Y48403D01*
X89788Y48407D01*
X90018Y48963D01*
X90347Y49028D01*
X90536Y49155D01*
X90977Y48919D01*
X90977Y48654D01*
X90977Y48154D01*
Y43929D01*
X95457D01*
Y48154D01*
X95457Y48410D01*
X95457Y48910D01*
Y53134D01*
X90977D01*
Y53102D01*
X90520D01*
X90427Y53083D01*
X90347Y53137D01*
X89781Y53250D01*
X89617Y53792D01*
X90565Y54741D01*
X90977Y54953D01*
X95457D01*
X95457Y57699D01*
X95560Y57945D01*
X95828Y58171D01*
X96182Y58242D01*
X96504Y58457D01*
X97004Y58259D01*
Y1421D01*
X1421D01*
Y97004D01*
X48840D01*
X48992Y96504D01*
D02*
G37*
G36*
X97004Y63911D02*
X96504Y63762D01*
X96123Y64017D01*
X95579Y64126D01*
X95457D01*
Y67308D01*
X90977D01*
Y65206D01*
X90515Y65014D01*
X89991Y65538D01*
Y68682D01*
X89883Y69226D01*
X89575Y69687D01*
X86869Y72393D01*
X86408Y72701D01*
X85864Y72809D01*
X72325D01*
X71781Y72701D01*
X71320Y72393D01*
X69222Y70295D01*
X68759Y70203D01*
X68168Y69808D01*
X67772Y69217D01*
X67634Y68520D01*
X67730Y68034D01*
X67409Y67534D01*
X65554D01*
X63887Y69202D01*
X63426Y69510D01*
X62882Y69618D01*
X53512D01*
X52968Y69510D01*
X52507Y69202D01*
X46129Y62824D01*
X45821Y62363D01*
X45713Y61819D01*
Y53673D01*
X45213Y53466D01*
X43870Y54809D01*
Y65874D01*
X43762Y66418D01*
X43454Y66879D01*
X40501Y69832D01*
X40040Y70140D01*
X39789Y70189D01*
X39838Y70689D01*
X62976D01*
X63023Y70658D01*
X63874Y70489D01*
X64725Y70658D01*
X65447Y71140D01*
X65929Y71862D01*
X66098Y72713D01*
X65929Y73564D01*
X65447Y74285D01*
X64725Y74767D01*
X63874Y74936D01*
X63023Y74767D01*
X62976Y74736D01*
X36033D01*
X29384Y81384D01*
X29373Y81440D01*
X28950Y82074D01*
X29338Y82392D01*
X34035Y77696D01*
X34496Y77388D01*
X35039Y77280D01*
X45246D01*
X45790Y77388D01*
X46251Y77696D01*
X50904Y82349D01*
X51212Y82810D01*
X51320Y83354D01*
Y93870D01*
X51583Y94263D01*
X51722Y94961D01*
X51583Y95658D01*
X51188Y96249D01*
X50806Y96504D01*
X50958Y97004D01*
X97004D01*
Y63911D01*
D02*
G37*
G36*
X29457Y27055D02*
X17488D01*
Y34378D01*
X29457D01*
Y27055D01*
D02*
G37*
%LPC*%
G36*
X7874Y95531D02*
X6585Y95361D01*
X5384Y94864D01*
X4353Y94072D01*
X3562Y93041D01*
X3064Y91840D01*
X2894Y90551D01*
X3064Y89262D01*
X3562Y88061D01*
X4353Y87030D01*
X5384Y86239D01*
X6585Y85741D01*
X7874Y85572D01*
X9163Y85741D01*
X10364Y86239D01*
X11395Y87030D01*
X12186Y88061D01*
X12684Y89262D01*
X12854Y90551D01*
X12684Y91840D01*
X12186Y93041D01*
X11395Y94072D01*
X10364Y94864D01*
X9163Y95361D01*
X7874Y95531D01*
D02*
G37*
G36*
X68630Y29941D02*
X67932Y29802D01*
X67341Y29407D01*
X66946Y28815D01*
X66808Y28118D01*
X66946Y27421D01*
X67341Y26829D01*
X67932Y26434D01*
X68042Y26413D01*
X72709Y21746D01*
X72730Y21641D01*
X73125Y21050D01*
X73716Y20655D01*
X74413Y20516D01*
X75111Y20655D01*
X75702Y21050D01*
X76097Y21641D01*
X76236Y22338D01*
X76097Y23036D01*
X75702Y23627D01*
X75111Y24022D01*
X74997Y24045D01*
X70335Y28706D01*
X70314Y28815D01*
X69919Y29407D01*
X69327Y29802D01*
X68630Y29941D01*
D02*
G37*
G36*
X90551Y12854D02*
X89262Y12684D01*
X88061Y12186D01*
X87030Y11395D01*
X86239Y10364D01*
X85741Y9163D01*
X85572Y7874D01*
X85741Y6585D01*
X86239Y5384D01*
X87030Y4353D01*
X88061Y3562D01*
X89262Y3064D01*
X90551Y2894D01*
X91840Y3064D01*
X93041Y3562D01*
X94072Y4353D01*
X94864Y5384D01*
X95361Y6585D01*
X95531Y7874D01*
X95361Y9163D01*
X94864Y10364D01*
X94072Y11395D01*
X93041Y12186D01*
X91840Y12684D01*
X90551Y12854D01*
D02*
G37*
G36*
X7874D02*
X6585Y12684D01*
X5384Y12186D01*
X4353Y11395D01*
X3562Y10364D01*
X3064Y9163D01*
X2894Y7874D01*
X3064Y6585D01*
X3562Y5384D01*
X4353Y4353D01*
X5384Y3562D01*
X6585Y3064D01*
X7874Y2894D01*
X9163Y3064D01*
X10364Y3562D01*
X11395Y4353D01*
X12186Y5384D01*
X12684Y6585D01*
X12854Y7874D01*
X12684Y9163D01*
X12186Y10364D01*
X11395Y11395D01*
X10364Y12186D01*
X9163Y12684D01*
X7874Y12854D01*
D02*
G37*
G36*
X90551Y95531D02*
X89262Y95361D01*
X88061Y94864D01*
X87030Y94072D01*
X86239Y93041D01*
X85741Y91840D01*
X85572Y90551D01*
X85741Y89262D01*
X86239Y88061D01*
X87030Y87030D01*
X88061Y86239D01*
X89262Y85741D01*
X90551Y85572D01*
X91840Y85741D01*
X93041Y86239D01*
X94072Y87030D01*
X94864Y88061D01*
X95361Y89262D01*
X95531Y90551D01*
X95361Y91840D01*
X94864Y93041D01*
X94072Y94072D01*
X93041Y94864D01*
X91840Y95361D01*
X90551Y95531D01*
D02*
G37*
%LPD*%
D12*
X93217Y43807D02*
D03*
X82783D02*
D03*
X93217Y45382D02*
D03*
X82783D02*
D03*
X93217Y46957D02*
D03*
X82783D02*
D03*
X93217Y48532D02*
D03*
X82783D02*
D03*
X93217Y50107D02*
D03*
X82783D02*
D03*
X93217Y51681D02*
D03*
X82783D02*
D03*
X93217Y53256D02*
D03*
X82783D02*
D03*
X93217Y54831D02*
D03*
X82783D02*
D03*
X93217Y56406D02*
D03*
X82783D02*
D03*
X93217Y57981D02*
D03*
X82783D02*
D03*
X93217Y59555D02*
D03*
X82783D02*
D03*
X93217Y61130D02*
D03*
X82783D02*
D03*
X93217Y62705D02*
D03*
X82783D02*
D03*
X93217Y64280D02*
D03*
X82783D02*
D03*
X93217Y65855D02*
D03*
X82783D02*
D03*
D15*
X68630Y28118D02*
X74444Y22304D01*
X27669Y32291D02*
X30661Y29299D01*
X46583D01*
D16*
X88570Y64950D02*
Y68682D01*
X85864Y71388D02*
X88570Y68682D01*
X72325Y71388D02*
X85864D01*
X69456Y68520D02*
X72325Y71388D01*
X77251Y64299D02*
X78807Y65855D01*
X63322Y64299D02*
X77251D01*
X61765Y65855D02*
X63322Y64299D01*
X72215Y66113D02*
X75205Y69102D01*
X64966Y66113D02*
X72215D01*
X62882Y68197D02*
X64966Y66113D01*
X39154Y50926D02*
X42449Y54220D01*
X37117Y50926D02*
X39154D01*
X89496Y51083D02*
X89922D01*
X90520Y51681D01*
X93217D01*
X45246Y78701D02*
X49899Y83354D01*
Y94961D01*
X35039Y78701D02*
X45246D01*
X28701Y85039D02*
X35039Y78701D01*
X24134Y85039D02*
X28701D01*
X22087Y82992D02*
X24134Y85039D01*
X22087Y77378D02*
Y82992D01*
Y77378D02*
X30638Y68827D01*
X57342Y6110D02*
Y9824D01*
X51339Y15827D02*
X57342Y9824D01*
X51339Y15827D02*
Y32913D01*
X55843Y54505D02*
X56025Y54686D01*
X49575Y54123D02*
X60246Y43451D01*
X69345D01*
X49575Y54123D02*
Y59890D01*
X55540Y65855D01*
X61765D01*
X82782Y50106D02*
X82783Y50107D01*
X39278Y47987D02*
X39429Y48138D01*
X39278Y46123D02*
X39429Y45972D01*
X30992Y41543D02*
X49899D01*
X26110Y36661D02*
X30992Y41543D01*
X51339Y32913D02*
X53236Y34811D01*
Y43433D01*
X42449Y54220D02*
X53236Y43433D01*
X55520Y30402D02*
Y44722D01*
X47134Y53108D02*
X55520Y44722D01*
X47134Y53108D02*
Y61819D01*
X42449Y54220D02*
Y65874D01*
X39496Y68827D02*
X42449Y65874D01*
X30638Y68827D02*
X39496D01*
X57803Y28118D02*
X63039D01*
X55520Y30402D02*
X57803Y28118D01*
X47134Y61819D02*
X53512Y68197D01*
X62882D01*
X78807Y65855D02*
X82783D01*
X75205Y69102D02*
X85047D01*
X86583Y67567D01*
Y65619D02*
Y67567D01*
X85244Y64280D02*
X86583Y65619D01*
X82783Y64280D02*
X85244D01*
X88570Y64950D02*
X90796Y62724D01*
X93198D01*
X93217Y62705D01*
X95579D02*
X96099Y62184D01*
X93217Y62705D02*
X95579D01*
X96099Y60016D02*
Y62184D01*
X95638Y59555D02*
X96099Y60016D01*
X93217Y59555D02*
X95638D01*
X88125Y61362D02*
X88338D01*
X88570Y61130D01*
X93217D01*
X66819Y33472D02*
X68630Y35283D01*
X60244Y33472D02*
X66819D01*
X58197Y35520D02*
X60244Y33472D01*
D17*
X96025Y54123D02*
Y57148D01*
Y49896D02*
Y52450D01*
Y49896D02*
X96039Y49882D01*
Y49393D02*
Y49882D01*
X95336Y48689D02*
X96039Y49393D01*
X93375Y48689D02*
X95336D01*
X93217Y48532D02*
X93375Y48689D01*
X82783Y48532D02*
X85050D01*
X85396Y48878D01*
Y52183D01*
X84481Y53098D02*
X85396Y52183D01*
X82941Y53098D02*
X84481D01*
X82783Y53256D02*
X82941Y53098D01*
X88570Y41347D02*
Y47897D01*
X86918Y49549D02*
X88570Y47897D01*
X86918Y49549D02*
Y52961D01*
X90363Y56406D01*
X93217D01*
X74500Y52016D02*
X74688Y51827D01*
Y51271D02*
X75405Y50554D01*
X74688Y51271D02*
Y51827D01*
X87604Y57981D02*
X93217D01*
X82783D02*
X87604D01*
X78461Y57945D02*
X78932D01*
X78968Y57981D01*
X82783D01*
X65668Y59653D02*
X82684D01*
X64771Y61031D02*
X82684D01*
X62961Y59221D02*
X64771Y61031D01*
X65668Y59635D02*
Y59653D01*
X65322Y59289D02*
X65668Y59635D01*
X70991Y56307D02*
X82684D01*
X71562Y54929D02*
X82684D01*
X69345Y52712D02*
X71562Y54929D01*
X67967Y53283D02*
X70991Y56307D01*
X75017Y45972D02*
X78093D01*
X80652Y48532D01*
X82783D01*
X95343Y57830D02*
X96025Y57148D01*
X93368Y57830D02*
X95343D01*
X93217Y57981D02*
X93368Y57830D01*
X85877Y59708D02*
X87604Y57981D01*
X85877Y59708D02*
Y62087D01*
X85260Y62705D02*
X85877Y62087D01*
X82783Y62705D02*
X85260D01*
X30312Y62728D02*
X37091D01*
X23616Y56032D02*
X30312Y62728D01*
X12035Y57682D02*
X12592D01*
X11847Y57870D02*
X12035Y57682D01*
X14243Y56032D02*
X23616D01*
X12592Y57682D02*
X14243Y56032D01*
X29741Y64106D02*
X37091D01*
X23045Y57410D02*
X29741Y64106D01*
X13378Y59401D02*
X13567Y59213D01*
Y58656D02*
Y59213D01*
X14813Y57410D02*
X23045D01*
X13567Y58656D02*
X14813Y57410D01*
X82684Y54929D02*
X82783Y54831D01*
X58590Y54929D02*
X60387Y53132D01*
X69345Y48656D02*
Y52712D01*
X67390Y46701D02*
X69345Y48656D01*
X62770Y46701D02*
X67390D01*
X60387Y49083D02*
Y53132D01*
Y49083D02*
X62770Y46701D01*
X56534Y54929D02*
X58590D01*
X82684Y56307D02*
X82783Y56406D01*
X59161Y56307D02*
X61765Y53703D01*
X67967Y49227D02*
Y53283D01*
X66819Y48079D02*
X67967Y49227D01*
X63341Y48079D02*
X66819D01*
X61765Y49654D02*
Y53703D01*
Y49654D02*
X63341Y48079D01*
X56534Y56307D02*
X59161D01*
X82684Y59653D02*
X82783Y59555D01*
X82684Y61031D02*
X82783Y61130D01*
X82685Y50205D02*
X82783Y50107D01*
X79490Y50205D02*
X82685D01*
X78461Y49176D02*
X79490Y50205D01*
X74834Y49176D02*
X78461D01*
X73714Y50296D02*
X74834Y49176D01*
X73157Y50296D02*
X73714D01*
X72969Y50485D02*
X73157Y50296D01*
X82685Y51583D02*
X82783Y51681D01*
X78919Y51583D02*
X82685D01*
X77891Y50554D02*
X78919Y51583D01*
X75405Y50554D02*
X77891D01*
X39163Y48138D02*
X39429D01*
X38769Y47744D02*
X39163Y48138D01*
X30406Y47744D02*
X38769D01*
X24993Y53157D02*
X30406Y47744D01*
X39163Y45972D02*
X39429D01*
X38769Y46366D02*
X39163Y45972D01*
X24422Y51779D02*
X29835Y46366D01*
X38769D01*
X14494Y51779D02*
X24422D01*
X13567Y50852D02*
X14494Y51779D01*
X13567Y50295D02*
Y50852D01*
X13378Y50107D02*
X13567Y50295D01*
X13923Y53157D02*
X24993D01*
X12592Y51826D02*
X13923Y53157D01*
X12035Y51826D02*
X12592D01*
X11847Y51638D02*
X12035Y51826D01*
X65322Y59023D02*
Y59289D01*
D18*
X4549Y72226D02*
X13000Y80677D01*
X4549Y47199D02*
Y72226D01*
Y47199D02*
X19457Y32291D01*
X35195Y72713D02*
X63874D01*
X27319Y80589D02*
X35195Y72713D01*
D19*
X90551Y7874D02*
D03*
Y90551D02*
D03*
X7874Y7874D02*
D03*
Y90551D02*
D03*
D20*
X45500Y24099D02*
D03*
X24045Y70689D02*
D03*
X17488D02*
D03*
X10025D02*
D03*
X44257Y69102D02*
D03*
X49575D02*
D03*
X80652Y74285D02*
D03*
X75111D02*
D03*
X63023Y23412D02*
D03*
X78784Y38943D02*
D03*
X80346Y30118D02*
D03*
X82877Y8906D02*
D03*
Y4319D02*
D03*
X6535Y18294D02*
D03*
Y23412D02*
D03*
Y28568D02*
D03*
X33795Y11396D02*
D03*
X38913D02*
D03*
X44069D02*
D03*
X17917Y10758D02*
D03*
X23035D02*
D03*
X28191D02*
D03*
X33983Y5984D02*
D03*
X39101D02*
D03*
X44257D02*
D03*
X17943D02*
D03*
X23061D02*
D03*
X28217D02*
D03*
X17943Y88917D02*
D03*
X23061D02*
D03*
X28217D02*
D03*
Y92657D02*
D03*
X23061D02*
D03*
X17943D02*
D03*
X74500Y52016D02*
D03*
X75017Y45972D02*
D03*
X96025Y54123D02*
D03*
X33772Y59289D02*
D03*
X56741Y51638D02*
D03*
X37117Y50926D02*
D03*
X9055Y54831D02*
D03*
X49899Y94961D02*
D03*
X46583Y29299D02*
D03*
X88570Y41347D02*
D03*
X11847Y57870D02*
D03*
X13378Y59401D02*
D03*
X55874Y56701D02*
D03*
Y54536D02*
D03*
X72969Y50485D02*
D03*
X39429Y48138D02*
D03*
Y45972D02*
D03*
X11847Y51638D02*
D03*
X13378Y50107D02*
D03*
X37751Y64500D02*
D03*
Y62334D02*
D03*
X26110Y36661D02*
D03*
X57342Y6110D02*
D03*
X13000Y80677D02*
D03*
X74413Y22338D02*
D03*
X68630Y28118D02*
D03*
X63039D02*
D03*
X69345Y43451D02*
D03*
X69456Y68520D02*
D03*
X88125Y61362D02*
D03*
X49899Y41543D02*
D03*
X68630Y35283D02*
D03*
X58197Y35520D02*
D03*
X65322Y59023D02*
D03*
X62961Y59221D02*
D03*
D21*
X17488Y64733D02*
D03*
X94357Y80589D02*
D03*
X84638Y82992D02*
D03*
X36483Y33322D02*
D03*
X36453Y37655D02*
D03*
X24045Y40067D02*
D03*
X20335Y40892D02*
D03*
X89496Y51083D02*
D03*
X63874Y72713D02*
D03*
X27319Y80589D02*
D03*
X27669Y28709D02*
D03*
Y32291D02*
D03*
X19535Y28709D02*
D03*
X19457Y32291D02*
D03*
M02*
