G04*
G04 #@! TF.GenerationSoftware,Altium Limited,Altium Designer,20.1.12 (249)*
G04*
G04 Layer_Color=8388736*
%FSLAX44Y44*%
%MOMM*%
G71*
G04*
G04 #@! TF.SameCoordinates,92C3D8CC-84FC-494B-B6CF-3A4A02D2A6DE*
G04*
G04*
G04 #@! TF.FilePolarity,Negative*
G04*
G01*
G75*
%ADD31R,0.3000X0.5500*%
%ADD96R,1.5032X1.3032*%
%ADD97R,1.4032X2.2032*%
%ADD98R,1.3000X2.1000*%
%ADD99R,1.2000X1.5000*%
%ADD100R,0.6700X0.7200*%
%ADD101R,1.0600X1.0700*%
%ADD102R,0.7200X0.6700*%
%ADD103O,0.5500X1.7000*%
%ADD104R,0.4000X0.6500*%
%ADD105R,0.5000X0.6500*%
%ADD106R,0.5032X1.4032*%
%ADD107R,0.4032X1.2032*%
%ADD108R,0.6500X1.6000*%
%ADD109R,0.3300X1.1000*%
%ADD110R,0.4000X1.5500*%
%ADD111R,0.7532X1.2032*%
%ADD112R,1.1000X1.0700*%
%ADD113R,1.0700X1.1000*%
%ADD114R,0.5000X0.6000*%
%ADD115R,0.6500X0.3500*%
%ADD116R,2.0032X0.9532*%
%ADD117R,3.4600X4.9600*%
%ADD118R,1.4900X1.5000*%
%ADD119R,0.6900X0.5500*%
%ADD120R,1.1160X1.8000*%
%ADD121R,1.1160X1.8000*%
%ADD122R,0.7000X0.3500*%
%ADD123R,0.3500X0.7000*%
%ADD124R,2.2000X2.2000*%
%ADD125R,1.1000X0.7000*%
%ADD126O,1.4000X0.4500*%
%ADD127O,1.8000X0.4500*%
%ADD128R,1.0000X0.5000*%
%ADD129O,0.6000X1.7000*%
%ADD130R,0.9500X0.4500*%
%ADD131R,0.5500X1.4800*%
%ADD132R,1.5000X2.2000*%
%ADD133R,2.4700X2.0000*%
%ADD134R,1.2750X2.0000*%
%ADD135R,2.5000X3.5000*%
%ADD136R,1.8526X0.8112*%
%ADD137R,2.1000X3.6000*%
%ADD138R,0.4000X1.8500*%
%ADD139R,1.1000X0.6500*%
G04:AMPARAMS|DCode=140|XSize=0.85mm|YSize=1.7mm|CornerRadius=0.125mm|HoleSize=0mm|Usage=FLASHONLY|Rotation=90.000|XOffset=0mm|YOffset=0mm|HoleType=Round|Shape=RoundedRectangle|*
%AMROUNDEDRECTD140*
21,1,0.8500,1.4500,0,0,90.0*
21,1,0.6000,1.7000,0,0,90.0*
1,1,0.2500,0.7250,0.3000*
1,1,0.2500,0.7250,-0.3000*
1,1,0.2500,-0.7250,-0.3000*
1,1,0.2500,-0.7250,0.3000*
%
%ADD140ROUNDEDRECTD140*%
G04:AMPARAMS|DCode=141|XSize=0.7mm|YSize=1.9mm|CornerRadius=0.11mm|HoleSize=0mm|Usage=FLASHONLY|Rotation=90.000|XOffset=0mm|YOffset=0mm|HoleType=Round|Shape=RoundedRectangle|*
%AMROUNDEDRECTD141*
21,1,0.7000,1.6800,0,0,90.0*
21,1,0.4800,1.9000,0,0,90.0*
1,1,0.2200,0.8400,0.2400*
1,1,0.2200,0.8400,-0.2400*
1,1,0.2200,-0.8400,-0.2400*
1,1,0.2200,-0.8400,0.2400*
%
%ADD141ROUNDEDRECTD141*%
G04:AMPARAMS|DCode=142|XSize=1.4mm|YSize=0.8mm|CornerRadius=0.12mm|HoleSize=0mm|Usage=FLASHONLY|Rotation=90.000|XOffset=0mm|YOffset=0mm|HoleType=Round|Shape=RoundedRectangle|*
%AMROUNDEDRECTD142*
21,1,1.4000,0.5600,0,0,90.0*
21,1,1.1600,0.8000,0,0,90.0*
1,1,0.2400,0.2800,0.5800*
1,1,0.2400,0.2800,-0.5800*
1,1,0.2400,-0.2800,-0.5800*
1,1,0.2400,-0.2800,0.5800*
%
%ADD142ROUNDEDRECTD142*%
%ADD143R,1.0500X0.5000*%
%ADD144R,0.8620X0.8620*%
%ADD145R,3.1000X2.7000*%
%ADD146R,0.4560X0.9500*%
%ADD147R,0.5500X0.3000*%
%ADD148R,0.6000X0.3000*%
%ADD149R,0.3000X0.6000*%
%ADD150R,3.3000X1.3000*%
%ADD151R,1.1000X0.3301*%
%ADD152R,0.9499X0.3301*%
%ADD153R,1.4800X1.9001*%
%ADD154R,2.1000X1.8000*%
%ADD155R,1.0700X1.0600*%
%ADD156R,2.1000X1.3000*%
%ADD157R,0.7000X1.1000*%
%ADD158R,1.1632X1.1732*%
%ADD159R,1.8000X1.1160*%
%ADD160R,1.8000X1.1160*%
%ADD161R,0.8000X0.5000*%
%ADD162R,0.3500X0.5000*%
%ADD163R,0.7732X0.8232*%
%ADD164R,0.8620X0.8620*%
%ADD165R,0.4500X0.9500*%
%ADD166R,0.6500X1.1000*%
%ADD167R,0.8232X0.7732*%
%ADD168R,0.3301X1.1000*%
%ADD169R,0.3301X0.9499*%
%ADD170R,1.9001X1.4800*%
%ADD171R,1.8000X2.1000*%
%ADD172C,1.2192*%
%ADD173C,0.2032*%
%ADD174C,1.7000*%
%ADD175C,1.2000*%
%ADD176C,0.8532*%
%ADD177O,1.2032X1.8032*%
%ADD178O,1.3000X1.8000*%
%ADD179O,1.3000X2.0000*%
%ADD180C,1.1400*%
%ADD181R,1.6000X1.6000*%
%ADD182C,1.6000*%
%ADD183C,0.7500*%
%ADD184C,0.8500*%
%ADD185O,1.5000X2.9500*%
%ADD186O,1.3000X2.3500*%
%ADD187C,1.8000*%
%ADD188C,2.7000*%
%ADD189C,1.7500*%
%ADD190C,3.3500*%
%ADD191R,1.8000X1.8000*%
%ADD192O,4.6000X2.1000*%
%ADD193O,2.1000X4.1000*%
%ADD194O,4.1000X2.1000*%
%ADD195C,2.0000*%
%ADD196C,0.6000*%
%ADD197C,6.1000*%
%ADD198C,0.3332*%
%ADD199C,0.1000*%
%ADD200C,0.7112*%
D31*
X667500Y507750D02*
D03*
Y532300D02*
D03*
X703500D02*
D03*
Y507750D02*
D03*
D96*
X392000Y846500D02*
D03*
X369000D02*
D03*
Y827500D02*
D03*
X392000D02*
D03*
D97*
X703000Y825000D02*
D03*
X728000D02*
D03*
D98*
X1081500Y826000D02*
D03*
X1056500D02*
D03*
D99*
X1037250Y614000D02*
D03*
X1054750D02*
D03*
X744250Y537000D02*
D03*
X726750D02*
D03*
X1110250Y395000D02*
D03*
X1092750D02*
D03*
D100*
X819500Y506500D02*
D03*
X829100D02*
D03*
X517200Y417500D02*
D03*
X526800D02*
D03*
X517200Y402500D02*
D03*
X526800D02*
D03*
X445800Y468000D02*
D03*
X436200D02*
D03*
X1271700Y638500D02*
D03*
X1281300D02*
D03*
X1286700Y691000D02*
D03*
X1296300D02*
D03*
X960800Y368000D02*
D03*
X951200D02*
D03*
Y382500D02*
D03*
X960800D02*
D03*
X931450Y446500D02*
D03*
X941050D02*
D03*
X1248800Y722000D02*
D03*
X1239200D02*
D03*
X1193200Y819500D02*
D03*
X1202800D02*
D03*
X1182300D02*
D03*
X1172700D02*
D03*
X1073300Y886500D02*
D03*
X1063700D02*
D03*
X1013200Y816500D02*
D03*
X1022800D02*
D03*
X1002800D02*
D03*
X993200D02*
D03*
X837922Y816072D02*
D03*
X847522D02*
D03*
X827800Y816000D02*
D03*
X818200D02*
D03*
X719800Y885500D02*
D03*
X710200D02*
D03*
X669200Y816500D02*
D03*
X678800D02*
D03*
X659300D02*
D03*
X649700D02*
D03*
X564200Y601000D02*
D03*
X573800D02*
D03*
X597200Y574000D02*
D03*
X606800D02*
D03*
X647300Y533000D02*
D03*
X637700D02*
D03*
X646800Y520000D02*
D03*
X637200D02*
D03*
X740800Y521000D02*
D03*
X731200D02*
D03*
X740800Y510000D02*
D03*
X731200D02*
D03*
Y499000D02*
D03*
X740800D02*
D03*
X731200Y488000D02*
D03*
X740800D02*
D03*
X927700Y578500D02*
D03*
X937300D02*
D03*
X863700Y583000D02*
D03*
X854100D02*
D03*
X816700Y581000D02*
D03*
X826300D02*
D03*
X816700Y568000D02*
D03*
X826300D02*
D03*
X816700Y553500D02*
D03*
X826300D02*
D03*
X816700Y541000D02*
D03*
X826300D02*
D03*
X1248300Y538000D02*
D03*
X1238700D02*
D03*
X1093700Y457500D02*
D03*
X1103300D02*
D03*
Y434500D02*
D03*
X1093700D02*
D03*
X806800Y391000D02*
D03*
X797200D02*
D03*
X806800Y404000D02*
D03*
X797200D02*
D03*
X806800Y373000D02*
D03*
X797200D02*
D03*
X806500Y323500D02*
D03*
X796900D02*
D03*
X397200Y292500D02*
D03*
X406800D02*
D03*
X400300Y454500D02*
D03*
X390700D02*
D03*
Y465500D02*
D03*
X400300D02*
D03*
X373800Y418500D02*
D03*
X364200D02*
D03*
X337800Y464000D02*
D03*
X328200D02*
D03*
Y476000D02*
D03*
X337800D02*
D03*
X402800Y777500D02*
D03*
X393200D02*
D03*
D101*
X717000Y428650D02*
D03*
Y412350D02*
D03*
X1039000Y841350D02*
D03*
Y857650D02*
D03*
X494000Y511350D02*
D03*
Y527650D02*
D03*
D102*
X741500Y393200D02*
D03*
Y402800D02*
D03*
X649000Y423700D02*
D03*
Y433300D02*
D03*
X635000Y423700D02*
D03*
Y433300D02*
D03*
X622000D02*
D03*
Y423700D02*
D03*
X484000Y467800D02*
D03*
Y458200D02*
D03*
X496000Y405500D02*
D03*
Y415100D02*
D03*
X1063500Y595300D02*
D03*
Y585700D02*
D03*
X1020000Y609200D02*
D03*
Y618800D02*
D03*
X1197000Y843300D02*
D03*
Y833700D02*
D03*
X553000Y577200D02*
D03*
Y586800D02*
D03*
X547000Y367200D02*
D03*
Y376800D02*
D03*
X1297000Y656700D02*
D03*
Y666300D02*
D03*
X1227500Y719300D02*
D03*
Y709700D02*
D03*
Y730200D02*
D03*
Y739800D02*
D03*
X1091500Y861200D02*
D03*
Y870800D02*
D03*
X1039000Y876200D02*
D03*
Y885800D02*
D03*
X1006000Y830700D02*
D03*
Y840300D02*
D03*
X836000Y839600D02*
D03*
Y830000D02*
D03*
X738000Y860200D02*
D03*
Y869800D02*
D03*
X685500Y875200D02*
D03*
Y884800D02*
D03*
X655500Y842800D02*
D03*
Y833200D02*
D03*
X477500Y867800D02*
D03*
Y858200D02*
D03*
X456000Y860700D02*
D03*
Y870300D02*
D03*
Y889300D02*
D03*
Y879700D02*
D03*
X538500Y587300D02*
D03*
Y577700D02*
D03*
X527000D02*
D03*
Y587300D02*
D03*
X506000Y565200D02*
D03*
Y574800D02*
D03*
X567000Y514800D02*
D03*
Y505200D02*
D03*
X548000Y505700D02*
D03*
Y515300D02*
D03*
X392000Y501000D02*
D03*
Y491400D02*
D03*
X427000Y441300D02*
D03*
Y431700D02*
D03*
Y419300D02*
D03*
Y409700D02*
D03*
X427500Y373700D02*
D03*
Y383300D02*
D03*
X427000Y346200D02*
D03*
Y355800D02*
D03*
X625500Y376800D02*
D03*
Y367200D02*
D03*
X607000D02*
D03*
Y376800D02*
D03*
X597000Y367200D02*
D03*
Y376800D02*
D03*
X577000Y367200D02*
D03*
Y376800D02*
D03*
X587000Y367200D02*
D03*
Y376800D02*
D03*
X567000Y367200D02*
D03*
Y376800D02*
D03*
X557000Y367200D02*
D03*
Y376800D02*
D03*
X537000Y367200D02*
D03*
Y376800D02*
D03*
X509500Y380600D02*
D03*
Y371000D02*
D03*
X521500Y380600D02*
D03*
Y371000D02*
D03*
X720500Y462200D02*
D03*
Y471800D02*
D03*
X710000Y462200D02*
D03*
Y471800D02*
D03*
X699500Y462200D02*
D03*
Y471800D02*
D03*
X689000Y462200D02*
D03*
Y471800D02*
D03*
X678500Y462200D02*
D03*
Y471800D02*
D03*
X668000Y462200D02*
D03*
Y471800D02*
D03*
X657500Y462200D02*
D03*
Y471800D02*
D03*
X646500Y462200D02*
D03*
Y471800D02*
D03*
X732500Y564800D02*
D03*
Y555200D02*
D03*
X744000Y564800D02*
D03*
Y555200D02*
D03*
X721000Y564800D02*
D03*
Y555200D02*
D03*
X710000D02*
D03*
Y564800D02*
D03*
X699000Y555200D02*
D03*
Y564800D02*
D03*
X688000Y555200D02*
D03*
Y564800D02*
D03*
X677000D02*
D03*
Y555200D02*
D03*
X662000Y564800D02*
D03*
Y555200D02*
D03*
X1068500Y573800D02*
D03*
Y564200D02*
D03*
X1056000D02*
D03*
Y573800D02*
D03*
X1029500Y536300D02*
D03*
Y526700D02*
D03*
X1018000Y560200D02*
D03*
Y569800D02*
D03*
X995500Y459200D02*
D03*
Y468800D02*
D03*
X1226000Y546700D02*
D03*
Y556300D02*
D03*
Y536800D02*
D03*
Y527200D02*
D03*
X1184000Y538800D02*
D03*
Y529200D02*
D03*
X1169500Y538800D02*
D03*
Y529200D02*
D03*
X1115500Y505800D02*
D03*
Y496200D02*
D03*
X1053500Y479200D02*
D03*
Y488800D02*
D03*
X1038000Y479200D02*
D03*
Y488800D02*
D03*
X1046000Y352600D02*
D03*
Y343000D02*
D03*
X1060000Y343200D02*
D03*
Y352800D02*
D03*
X1072000D02*
D03*
Y343200D02*
D03*
X1033000Y343000D02*
D03*
Y352600D02*
D03*
X957000Y306200D02*
D03*
Y315800D02*
D03*
X952000Y472300D02*
D03*
Y462700D02*
D03*
X941000Y472300D02*
D03*
Y462700D02*
D03*
X923500D02*
D03*
Y472300D02*
D03*
X912500Y462700D02*
D03*
Y472300D02*
D03*
X901500Y462700D02*
D03*
Y472300D02*
D03*
X890500Y462700D02*
D03*
Y472300D02*
D03*
X879500Y462700D02*
D03*
Y472300D02*
D03*
X868500Y462700D02*
D03*
Y472300D02*
D03*
X857500Y462700D02*
D03*
Y472300D02*
D03*
X846500Y462700D02*
D03*
Y472300D02*
D03*
X670000Y324700D02*
D03*
Y334300D02*
D03*
X656000D02*
D03*
Y324700D02*
D03*
X641000Y334300D02*
D03*
Y324700D02*
D03*
X607000Y447700D02*
D03*
Y457300D02*
D03*
X597000Y447700D02*
D03*
Y457300D02*
D03*
X587000Y447700D02*
D03*
Y457300D02*
D03*
X577000Y447700D02*
D03*
Y457300D02*
D03*
X567000Y447700D02*
D03*
Y457300D02*
D03*
X557000Y447700D02*
D03*
Y457300D02*
D03*
X547000Y447700D02*
D03*
Y457300D02*
D03*
X380000Y355800D02*
D03*
Y346200D02*
D03*
X351000Y466400D02*
D03*
Y476000D02*
D03*
X369500Y467200D02*
D03*
Y476800D02*
D03*
X364000Y433200D02*
D03*
Y442800D02*
D03*
X351000D02*
D03*
Y433200D02*
D03*
X336000Y442800D02*
D03*
Y433200D02*
D03*
X324000D02*
D03*
Y442800D02*
D03*
D103*
X643250Y360250D02*
D03*
X649750D02*
D03*
X656250D02*
D03*
X662750D02*
D03*
X643250Y402750D02*
D03*
X649750D02*
D03*
X656250D02*
D03*
X662750D02*
D03*
D104*
X692000Y397850D02*
D03*
X687000D02*
D03*
X707000Y390150D02*
D03*
X702000D02*
D03*
X692000D02*
D03*
X687000D02*
D03*
X702000Y397850D02*
D03*
X707000D02*
D03*
X767500Y390150D02*
D03*
X772500D02*
D03*
X752500Y397850D02*
D03*
X757500D02*
D03*
X767500D02*
D03*
X772500D02*
D03*
X757500Y390150D02*
D03*
X752500D02*
D03*
D105*
X697000Y397850D02*
D03*
Y390150D02*
D03*
X762500D02*
D03*
Y397850D02*
D03*
D106*
X709999Y368850D02*
D03*
X714999D02*
D03*
X759999D02*
D03*
X754999D02*
D03*
X749999D02*
D03*
X744999D02*
D03*
X739999D02*
D03*
X734999D02*
D03*
X729999D02*
D03*
X724999D02*
D03*
X719999D02*
D03*
X704999D02*
D03*
D107*
X732499Y292050D02*
D03*
Y323050D02*
D03*
D108*
X718000Y581000D02*
D03*
X708500Y600000D02*
D03*
X727500D02*
D03*
D109*
X595500Y329500D02*
D03*
X583500D02*
D03*
X571500D02*
D03*
X559500D02*
D03*
X547500D02*
D03*
X543500D02*
D03*
X539500D02*
D03*
X535500D02*
D03*
X531500D02*
D03*
X527500D02*
D03*
X523500D02*
D03*
X555500D02*
D03*
X551500D02*
D03*
X579500D02*
D03*
X575500D02*
D03*
X591500D02*
D03*
X587500D02*
D03*
X567500D02*
D03*
X563500D02*
D03*
D110*
X556000Y397000D02*
D03*
X571000D02*
D03*
X586000D02*
D03*
X548500Y415500D02*
D03*
X563500D02*
D03*
X578500D02*
D03*
X593500D02*
D03*
X588500D02*
D03*
X598500D02*
D03*
X558500D02*
D03*
X568500D02*
D03*
X543500D02*
D03*
X553500D02*
D03*
X573500D02*
D03*
X583500D02*
D03*
X898500Y437250D02*
D03*
X883500D02*
D03*
X868500D02*
D03*
X906000Y418750D02*
D03*
X891000D02*
D03*
X876000D02*
D03*
X861000D02*
D03*
X866000D02*
D03*
X856000D02*
D03*
X896000D02*
D03*
X886000D02*
D03*
X911000D02*
D03*
X901000D02*
D03*
X881000D02*
D03*
X871000D02*
D03*
D111*
X514500Y460000D02*
D03*
X524000Y441000D02*
D03*
X505000D02*
D03*
D112*
X464150Y350500D02*
D03*
X478850D02*
D03*
X1038850Y327500D02*
D03*
X1024150D02*
D03*
X939150Y418500D02*
D03*
X953850D02*
D03*
D113*
X477450Y403700D02*
D03*
Y389000D02*
D03*
X577000Y543150D02*
D03*
Y557850D02*
D03*
D114*
X484000Y447500D02*
D03*
X490500Y428500D02*
D03*
X477500D02*
D03*
X388000Y303500D02*
D03*
X381500Y322500D02*
D03*
X394500D02*
D03*
X963500Y351000D02*
D03*
X970000Y332000D02*
D03*
X957000D02*
D03*
D115*
X1029750Y578500D02*
D03*
Y583500D02*
D03*
Y588500D02*
D03*
Y593500D02*
D03*
X1043250D02*
D03*
Y588500D02*
D03*
Y583500D02*
D03*
Y578500D02*
D03*
D116*
X347000Y781000D02*
D03*
Y796000D02*
D03*
D117*
X346000Y621000D02*
D03*
D118*
X336602Y660624D02*
D03*
X355398D02*
D03*
D119*
X886550Y599500D02*
D03*
X865450D02*
D03*
X477450Y371000D02*
D03*
X498550D02*
D03*
X997450Y526000D02*
D03*
X1018550D02*
D03*
X936950Y401000D02*
D03*
X958050D02*
D03*
D120*
X417000Y603500D02*
D03*
X479000Y629000D02*
D03*
Y652000D02*
D03*
D121*
X449000Y603500D02*
D03*
X449000Y629000D02*
D03*
Y652000D02*
D03*
D122*
X493500Y854500D02*
D03*
Y859500D02*
D03*
Y864500D02*
D03*
Y869500D02*
D03*
Y874500D02*
D03*
Y879500D02*
D03*
X531500D02*
D03*
Y874500D02*
D03*
Y869500D02*
D03*
Y864500D02*
D03*
Y859500D02*
D03*
Y854500D02*
D03*
D123*
X500000Y886000D02*
D03*
X505000D02*
D03*
X510000D02*
D03*
X515000D02*
D03*
X520000D02*
D03*
X525000D02*
D03*
X525000Y848000D02*
D03*
X520000D02*
D03*
X515000D02*
D03*
X510000D02*
D03*
X505000D02*
D03*
X500000D02*
D03*
D124*
X512500Y867000D02*
D03*
D125*
X997500Y485000D02*
D03*
Y504000D02*
D03*
X1020500D02*
D03*
Y494500D02*
D03*
Y485000D02*
D03*
X1283000Y652000D02*
D03*
Y661500D02*
D03*
Y671000D02*
D03*
X1260000D02*
D03*
Y652000D02*
D03*
D126*
X1070000Y411750D02*
D03*
Y418250D02*
D03*
Y424750D02*
D03*
Y431250D02*
D03*
Y437750D02*
D03*
Y444250D02*
D03*
Y450750D02*
D03*
Y457250D02*
D03*
X1013000Y411750D02*
D03*
Y418250D02*
D03*
Y424750D02*
D03*
Y431250D02*
D03*
Y437750D02*
D03*
Y444250D02*
D03*
Y450750D02*
D03*
Y457250D02*
D03*
D127*
X850500Y568000D02*
D03*
Y561500D02*
D03*
Y555000D02*
D03*
Y548500D02*
D03*
Y542000D02*
D03*
Y535500D02*
D03*
Y529000D02*
D03*
X907500Y568000D02*
D03*
Y561500D02*
D03*
Y555000D02*
D03*
Y548500D02*
D03*
Y542000D02*
D03*
Y535500D02*
D03*
Y529000D02*
D03*
D128*
X805000Y519500D02*
D03*
Y506500D02*
D03*
X786000D02*
D03*
Y513000D02*
D03*
Y519500D02*
D03*
D129*
X538500Y538500D02*
D03*
X548000D02*
D03*
X557500D02*
D03*
X538500Y560500D02*
D03*
X548000D02*
D03*
X557500D02*
D03*
D130*
X612500Y588000D02*
D03*
Y594500D02*
D03*
Y601000D02*
D03*
X590500D02*
D03*
Y588000D02*
D03*
X405000Y489000D02*
D03*
Y482500D02*
D03*
Y476000D02*
D03*
X427000D02*
D03*
Y489000D02*
D03*
D131*
X1005500Y304130D02*
D03*
X1012000D02*
D03*
X999000D02*
D03*
X1018500D02*
D03*
X1025000D02*
D03*
D132*
X1037400Y300530D02*
D03*
X984060D02*
D03*
D133*
X1041100Y277530D02*
D03*
X982900D02*
D03*
D134*
X1020375D02*
D03*
X1003625D02*
D03*
D135*
X290000Y538500D02*
D03*
X372000D02*
D03*
D136*
X981205Y597000D02*
D03*
X1002795D02*
D03*
D137*
X399500Y645000D02*
D03*
X1154500Y605000D02*
D03*
D138*
X1110500Y766000D02*
D03*
X1105500D02*
D03*
X1100500D02*
D03*
X1095500D02*
D03*
X1090500D02*
D03*
X1108000Y684000D02*
D03*
X1093000D02*
D03*
X1088000D02*
D03*
X1063000D02*
D03*
X1078000D02*
D03*
X1083000D02*
D03*
X1048000D02*
D03*
X1065500Y766000D02*
D03*
X1080500D02*
D03*
X1085500D02*
D03*
X1050500D02*
D03*
X755500D02*
D03*
X753000Y684000D02*
D03*
X760500Y766000D02*
D03*
X758000Y684000D02*
D03*
X765500Y766000D02*
D03*
X763000Y684000D02*
D03*
X770500Y766000D02*
D03*
X768000Y684000D02*
D03*
X775500Y766000D02*
D03*
X773000Y684000D02*
D03*
X780500Y766000D02*
D03*
X778000Y684000D02*
D03*
X785500Y766000D02*
D03*
X783000Y684000D02*
D03*
X790500Y766000D02*
D03*
X788000Y684000D02*
D03*
X795500Y766000D02*
D03*
X793000Y684000D02*
D03*
X800500Y766000D02*
D03*
X798000Y684000D02*
D03*
X805500Y766000D02*
D03*
X803000Y684000D02*
D03*
X810500Y766000D02*
D03*
X808000Y684000D02*
D03*
X815500Y766000D02*
D03*
X813000Y684000D02*
D03*
X820500Y766000D02*
D03*
X818000Y684000D02*
D03*
X825500Y766000D02*
D03*
X823000Y684000D02*
D03*
X830500Y766000D02*
D03*
X828000Y684000D02*
D03*
X833000D02*
D03*
X838000D02*
D03*
X845500Y766000D02*
D03*
X843000Y684000D02*
D03*
X850500Y766000D02*
D03*
X848000Y684000D02*
D03*
X855500Y766000D02*
D03*
X853000Y684000D02*
D03*
X860500Y766000D02*
D03*
X858000Y684000D02*
D03*
X865500Y766000D02*
D03*
X863000Y684000D02*
D03*
X870500Y766000D02*
D03*
X868000Y684000D02*
D03*
X875500Y766000D02*
D03*
X873000Y684000D02*
D03*
X880500Y766000D02*
D03*
X878000Y684000D02*
D03*
X885500Y766000D02*
D03*
X883000Y684000D02*
D03*
X890500Y766000D02*
D03*
X888000Y684000D02*
D03*
X895500Y766000D02*
D03*
X893000Y684000D02*
D03*
X900500Y766000D02*
D03*
X898000Y684000D02*
D03*
X905500Y766000D02*
D03*
X903000Y684000D02*
D03*
X910500Y766000D02*
D03*
X908000Y684000D02*
D03*
X915500Y766000D02*
D03*
X913000Y684000D02*
D03*
X920500Y766000D02*
D03*
X918000Y684000D02*
D03*
X925500Y766000D02*
D03*
X923000Y684000D02*
D03*
X930500Y766000D02*
D03*
X928000Y684000D02*
D03*
X935500Y766000D02*
D03*
X933000Y684000D02*
D03*
X940500Y766000D02*
D03*
X938000Y684000D02*
D03*
X945500Y766000D02*
D03*
X943000Y684000D02*
D03*
X960500Y766000D02*
D03*
X958000Y684000D02*
D03*
X965500Y766000D02*
D03*
X970500D02*
D03*
X975500D02*
D03*
X973000Y684000D02*
D03*
X1005500Y766000D02*
D03*
X1000500D02*
D03*
X995500D02*
D03*
X990500D02*
D03*
X985500D02*
D03*
X980500D02*
D03*
X1035500D02*
D03*
X1020500D02*
D03*
X1003000Y684000D02*
D03*
X988000D02*
D03*
X1033000D02*
D03*
X1018000D02*
D03*
X703000D02*
D03*
X708000D02*
D03*
X713000D02*
D03*
X718000D02*
D03*
X723000D02*
D03*
X728000D02*
D03*
X668000D02*
D03*
X683000D02*
D03*
X688000D02*
D03*
X693000D02*
D03*
X698000D02*
D03*
X705500Y766000D02*
D03*
X710500D02*
D03*
X715500D02*
D03*
X720500D02*
D03*
X725500D02*
D03*
X730500D02*
D03*
X670500D02*
D03*
X675500D02*
D03*
X680500D02*
D03*
X695500D02*
D03*
X700500D02*
D03*
X663000Y684000D02*
D03*
X665500Y766000D02*
D03*
X658000Y684000D02*
D03*
X660500Y766000D02*
D03*
X653000Y684000D02*
D03*
X655500Y766000D02*
D03*
X648000Y684000D02*
D03*
X650500Y766000D02*
D03*
X643000Y684000D02*
D03*
X645500Y766000D02*
D03*
X638000Y684000D02*
D03*
X640500Y766000D02*
D03*
X635500D02*
D03*
X630500D02*
D03*
X623000Y684000D02*
D03*
X625500Y766000D02*
D03*
X618000Y684000D02*
D03*
X620500Y766000D02*
D03*
X613000Y684000D02*
D03*
X615500Y766000D02*
D03*
X608000Y684000D02*
D03*
X610500Y766000D02*
D03*
X603000Y684000D02*
D03*
X605500Y766000D02*
D03*
X598000Y684000D02*
D03*
X600500Y766000D02*
D03*
X593000Y684000D02*
D03*
X595500Y766000D02*
D03*
X588000Y684000D02*
D03*
X590500Y766000D02*
D03*
X583000Y684000D02*
D03*
X585500Y766000D02*
D03*
X578000Y684000D02*
D03*
X580500Y766000D02*
D03*
X573000Y684000D02*
D03*
X575500Y766000D02*
D03*
X568000Y684000D02*
D03*
X570500Y766000D02*
D03*
X563000Y684000D02*
D03*
X565500Y766000D02*
D03*
X558000Y684000D02*
D03*
X560500Y766000D02*
D03*
X553000Y684000D02*
D03*
X555500Y766000D02*
D03*
X548000Y684000D02*
D03*
X550500Y766000D02*
D03*
X543000Y684000D02*
D03*
X545500Y766000D02*
D03*
X538000Y684000D02*
D03*
X540500Y766000D02*
D03*
X533000Y684000D02*
D03*
X535500Y766000D02*
D03*
X528000Y684000D02*
D03*
X530500Y766000D02*
D03*
X523000Y684000D02*
D03*
X525500Y766000D02*
D03*
X518000Y684000D02*
D03*
X520500Y766000D02*
D03*
X513000Y684000D02*
D03*
X515500Y766000D02*
D03*
X508000Y684000D02*
D03*
X510500Y766000D02*
D03*
X503000Y684000D02*
D03*
X505500Y766000D02*
D03*
X498000Y684000D02*
D03*
X500500Y766000D02*
D03*
X493000Y684000D02*
D03*
X495500Y766000D02*
D03*
X488000Y684000D02*
D03*
X490500Y766000D02*
D03*
X483000Y684000D02*
D03*
X485500Y766000D02*
D03*
X478000Y684000D02*
D03*
X480500Y766000D02*
D03*
X473000Y684000D02*
D03*
X475500Y766000D02*
D03*
X468000Y684000D02*
D03*
X470500Y766000D02*
D03*
X463000Y684000D02*
D03*
X465500Y766000D02*
D03*
X458000Y684000D02*
D03*
X460500Y766000D02*
D03*
X453000Y684000D02*
D03*
X455500Y766000D02*
D03*
X448000Y684000D02*
D03*
X450500Y766000D02*
D03*
X443000Y684000D02*
D03*
X445500Y766000D02*
D03*
X1015500D02*
D03*
X1010500D02*
D03*
X955500D02*
D03*
X950500D02*
D03*
X690500D02*
D03*
X685500D02*
D03*
X1075500D02*
D03*
X1070500D02*
D03*
X840500D02*
D03*
X835500D02*
D03*
X678000Y684000D02*
D03*
X673000D02*
D03*
X633000D02*
D03*
X628000D02*
D03*
X1030500Y766000D02*
D03*
X1025500D02*
D03*
X1045500D02*
D03*
X1040500D02*
D03*
X1060500D02*
D03*
X1055500D02*
D03*
X1103000Y684000D02*
D03*
X1098000D02*
D03*
X1073000D02*
D03*
X1068000D02*
D03*
X1028000D02*
D03*
X1023000D02*
D03*
X1043000D02*
D03*
X1038000D02*
D03*
X1058000D02*
D03*
X1053000D02*
D03*
X1013000D02*
D03*
X1008000D02*
D03*
X998000D02*
D03*
X993000D02*
D03*
X983000D02*
D03*
X978000D02*
D03*
X968000D02*
D03*
X963000D02*
D03*
X953000D02*
D03*
X948000D02*
D03*
D139*
X1060000Y367000D02*
D03*
Y386000D02*
D03*
X1041000Y376500D02*
D03*
X993000Y366500D02*
D03*
Y385500D02*
D03*
X974000Y376000D02*
D03*
X509000Y511000D02*
D03*
X528000Y520500D02*
D03*
Y501500D02*
D03*
X981000Y340000D02*
D03*
X1000000Y349500D02*
D03*
Y330500D02*
D03*
X650500Y308000D02*
D03*
Y289000D02*
D03*
X669500Y298500D02*
D03*
D140*
X284500Y627250D02*
D03*
Y651750D02*
D03*
Y701750D02*
D03*
Y726250D02*
D03*
D141*
Y639500D02*
D03*
Y714000D02*
D03*
D142*
X262000Y621000D02*
D03*
Y658000D02*
D03*
Y695500D02*
D03*
Y732500D02*
D03*
D143*
X394300Y343000D02*
D03*
Y349500D02*
D03*
Y356000D02*
D03*
X411700Y343000D02*
D03*
Y349500D02*
D03*
Y356000D02*
D03*
D144*
X396985Y276000D02*
D03*
X383015D02*
D03*
X660485Y272000D02*
D03*
X646515D02*
D03*
D145*
X294500Y455500D02*
D03*
D146*
Y435500D02*
D03*
X286500D02*
D03*
X278500D02*
D03*
X302500D02*
D03*
X310500D02*
D03*
Y475500D02*
D03*
X302500D02*
D03*
X278500D02*
D03*
X286500D02*
D03*
X294500D02*
D03*
D147*
X663500Y512000D02*
D03*
Y528000D02*
D03*
X707500Y512000D02*
D03*
Y528000D02*
D03*
D148*
X663500Y516000D02*
D03*
Y524000D02*
D03*
Y520000D02*
D03*
X707500Y516000D02*
D03*
Y520000D02*
D03*
Y524000D02*
D03*
D149*
X671500Y508000D02*
D03*
X675500D02*
D03*
X679500D02*
D03*
X683500D02*
D03*
X687500D02*
D03*
X679500Y532000D02*
D03*
X683500D02*
D03*
X671500D02*
D03*
X699500D02*
D03*
X695500D02*
D03*
X691500D02*
D03*
X687500D02*
D03*
X675500D02*
D03*
X691500Y508000D02*
D03*
X695500D02*
D03*
X699500D02*
D03*
D150*
X685500Y520000D02*
D03*
D151*
X1256500Y771001D02*
D03*
Y775001D02*
D03*
Y758999D02*
D03*
Y762999D02*
D03*
Y782999D02*
D03*
Y778999D02*
D03*
Y767000D02*
D03*
Y755001D02*
D03*
Y751001D02*
D03*
X1256501Y588000D02*
D03*
Y592001D02*
D03*
Y575999D02*
D03*
Y579999D02*
D03*
Y599999D02*
D03*
Y595999D02*
D03*
Y584000D02*
D03*
Y572001D02*
D03*
Y568000D02*
D03*
D152*
X1244250Y765001D02*
D03*
Y768999D02*
D03*
Y785001D02*
D03*
Y781001D02*
D03*
Y777000D02*
D03*
Y772999D02*
D03*
Y761001D02*
D03*
Y757000D02*
D03*
Y752999D02*
D03*
Y748999D02*
D03*
X1244250Y582001D02*
D03*
Y585999D02*
D03*
Y602001D02*
D03*
Y598000D02*
D03*
Y594000D02*
D03*
Y589999D02*
D03*
Y578000D02*
D03*
Y574000D02*
D03*
Y570000D02*
D03*
Y565999D02*
D03*
D153*
X1258400Y738501D02*
D03*
Y795499D02*
D03*
X1258400Y555501D02*
D03*
Y612499D02*
D03*
D154*
X1292000Y738001D02*
D03*
Y795999D02*
D03*
X1292000Y555001D02*
D03*
Y612999D02*
D03*
D155*
X1251850Y691000D02*
D03*
X1268150D02*
D03*
X981350Y627500D02*
D03*
X997650D02*
D03*
X929000Y564000D02*
D03*
X945300D02*
D03*
D156*
X1236500Y648500D02*
D03*
Y673500D02*
D03*
D157*
X1078000Y872500D02*
D03*
X1068500D02*
D03*
X1059000D02*
D03*
Y849500D02*
D03*
X1078000D02*
D03*
X724500Y871500D02*
D03*
X715000D02*
D03*
X705500D02*
D03*
Y848500D02*
D03*
X724500D02*
D03*
D158*
X685500Y856650D02*
D03*
Y840350D02*
D03*
D159*
X588500Y524000D02*
D03*
D160*
X588500Y494000D02*
D03*
D161*
X427000Y400000D02*
D03*
D162*
X424750Y393000D02*
D03*
X429250D02*
D03*
D163*
X929200Y551000D02*
D03*
X938800D02*
D03*
X878700Y583000D02*
D03*
X888300D02*
D03*
X961550Y446500D02*
D03*
X951950D02*
D03*
D164*
X957000Y269515D02*
D03*
Y283485D02*
D03*
D165*
X796000Y337500D02*
D03*
X802500D02*
D03*
X809000D02*
D03*
Y359500D02*
D03*
X796000D02*
D03*
D166*
X812500Y307500D02*
D03*
X793500D02*
D03*
X803000Y288500D02*
D03*
D167*
X537000Y447700D02*
D03*
Y457300D02*
D03*
D168*
X1142000Y846001D02*
D03*
X1137999D02*
D03*
X1154001D02*
D03*
X1150001D02*
D03*
X1130001D02*
D03*
X1134001D02*
D03*
X1146000D02*
D03*
X1157999D02*
D03*
X1162000D02*
D03*
X958999Y846001D02*
D03*
X954999D02*
D03*
X971001D02*
D03*
X967001D02*
D03*
X947001D02*
D03*
X951001D02*
D03*
X963000D02*
D03*
X974999D02*
D03*
X978999D02*
D03*
X788500Y845001D02*
D03*
X784499D02*
D03*
X800501D02*
D03*
X796500D02*
D03*
X776500D02*
D03*
X780501D02*
D03*
X792500D02*
D03*
X804499D02*
D03*
X808499D02*
D03*
X605499D02*
D03*
X601499D02*
D03*
X617501D02*
D03*
X613501D02*
D03*
X593501D02*
D03*
X597501D02*
D03*
X609500D02*
D03*
X621499D02*
D03*
X625499D02*
D03*
D169*
X1147999Y833750D02*
D03*
X1144001D02*
D03*
X1127999D02*
D03*
X1132000D02*
D03*
X1136000D02*
D03*
X1140001D02*
D03*
X1152000D02*
D03*
X1156000D02*
D03*
X1160001D02*
D03*
X1164001D02*
D03*
X964999Y833750D02*
D03*
X961001D02*
D03*
X944999D02*
D03*
X948999D02*
D03*
X953000D02*
D03*
X957001D02*
D03*
X968999D02*
D03*
X973000D02*
D03*
X977001D02*
D03*
X981001D02*
D03*
X794499Y832750D02*
D03*
X790501D02*
D03*
X774499D02*
D03*
X778500D02*
D03*
X782500D02*
D03*
X786500D02*
D03*
X798500D02*
D03*
X802500D02*
D03*
X806500D02*
D03*
X810501D02*
D03*
X611499D02*
D03*
X607501D02*
D03*
X591499D02*
D03*
X595499D02*
D03*
X599500D02*
D03*
X603501D02*
D03*
X615499D02*
D03*
X619500D02*
D03*
X623501D02*
D03*
X627501D02*
D03*
D170*
X1174499Y847900D02*
D03*
X1117501D02*
D03*
X991499Y847900D02*
D03*
X934501D02*
D03*
X820999Y846900D02*
D03*
X764001D02*
D03*
X637999D02*
D03*
X581001D02*
D03*
D171*
X1174999Y881500D02*
D03*
X1117001D02*
D03*
X991999Y881500D02*
D03*
X934001D02*
D03*
X821499Y880500D02*
D03*
X763501D02*
D03*
X638499D02*
D03*
X580501D02*
D03*
D172*
X365500Y931500D02*
D03*
X1184651Y931500D02*
D03*
X350000Y226500D02*
D03*
X1156451Y226500D02*
D03*
D173*
X784990Y449000D02*
D03*
X1173850Y706500D02*
D03*
X304800Y294640D02*
D03*
D174*
X391000Y606500D02*
D03*
D175*
Y806500D02*
D03*
D176*
X728499Y356350D02*
D03*
X736499D02*
D03*
X708499Y349350D02*
D03*
X716499D02*
D03*
X748499D02*
D03*
X756499D02*
D03*
X720499Y356350D02*
D03*
X744499D02*
D03*
X712499D02*
D03*
X752499D02*
D03*
X704499D02*
D03*
X760499D02*
D03*
X724499Y349350D02*
D03*
X740499D02*
D03*
D177*
X775199Y344850D02*
D03*
X689799D02*
D03*
X775199Y297550D02*
D03*
X689799D02*
D03*
D178*
X613750Y274000D02*
D03*
X505250D02*
D03*
D179*
X613750Y319000D02*
D03*
X505250D02*
D03*
D180*
X396200Y384250D02*
D03*
Y396750D02*
D03*
Y409250D02*
D03*
Y421750D02*
D03*
D181*
X896200Y857000D02*
D03*
X367600Y874000D02*
D03*
D182*
X870800Y857000D02*
D03*
X432750Y725000D02*
D03*
X393000Y874000D02*
D03*
X418400D02*
D03*
D183*
X910000Y333500D02*
D03*
X874000D02*
D03*
X892080D02*
D03*
X856000D02*
D03*
Y367000D02*
D03*
X892080D02*
D03*
X874000D02*
D03*
X910000D02*
D03*
X869500Y374750D02*
D03*
X860500D02*
D03*
X905500Y341250D02*
D03*
X896500D02*
D03*
X887500Y374750D02*
D03*
X878500D02*
D03*
X905500D02*
D03*
X896500D02*
D03*
X869500Y341250D02*
D03*
X860500D02*
D03*
X887500D02*
D03*
X878500D02*
D03*
D184*
X835500Y375000D02*
D03*
X930500D02*
D03*
D185*
X828000Y343500D02*
D03*
X938000D02*
D03*
D186*
X831000Y288500D02*
D03*
X935000D02*
D03*
D187*
X1237600Y448400D02*
D03*
X1212200D02*
D03*
X1186800D02*
D03*
X1199500Y423000D02*
D03*
X1224900D02*
D03*
X1250300D02*
D03*
X1263000Y448400D02*
D03*
X1174100Y423000D02*
D03*
X1161400Y448400D02*
D03*
D188*
X1139768Y390000D02*
D03*
X1297332D02*
D03*
D189*
X1163940Y496700D02*
D03*
X1273240D02*
D03*
X1189340D02*
D03*
X1247840D02*
D03*
D190*
X1161400Y359500D02*
D03*
X1275700D02*
D03*
D191*
Y423000D02*
D03*
D192*
X311000Y398500D02*
D03*
D193*
X360000Y369000D02*
D03*
D194*
X311000Y338500D02*
D03*
D195*
X1120750Y725000D02*
D03*
D196*
X272500Y618250D02*
D03*
Y660750D02*
D03*
Y692750D02*
D03*
Y735250D02*
D03*
D197*
X458750Y305000D02*
D03*
X1094750D02*
D03*
D198*
X505750Y349000D02*
D03*
Y549000D02*
D03*
D199*
X304800Y864360D02*
D03*
X1265700D02*
D03*
X1265700Y294640D02*
D03*
D200*
X1173850Y706500D02*
D03*
X1030000Y560500D02*
D03*
X1024000D02*
D03*
X1012000D02*
D03*
X707500Y424000D02*
D03*
X461500Y723000D02*
D03*
X519000Y702500D02*
D03*
M02*
