G04*
G04 #@! TF.GenerationSoftware,Altium Limited,Altium Designer,20.1.12 (249)*
G04*
G04 Layer_Color=8421504*
%FSLAX44Y44*%
%MOMM*%
G71*
G04*
G04 #@! TF.SameCoordinates,92C3D8CC-84FC-494B-B6CF-3A4A02D2A6DE*
G04*
G04*
G04 #@! TF.FilePolarity,Positive*
G04*
G01*
G75*
%ADD24R,1.3000X1.1000*%
%ADD25R,1.2000X2.0000*%
%ADD26R,1.1000X1.4000*%
%ADD27R,0.5700X0.6200*%
%ADD28R,0.9600X0.9700*%
%ADD29R,0.6200X0.5700*%
%ADD30O,0.4500X1.6000*%
%ADD31R,0.3000X0.5500*%
%ADD32R,0.4000X0.5500*%
%ADD33R,0.3000X1.2000*%
%ADD34R,0.2000X1.0000*%
%ADD35R,0.5500X1.5000*%
%ADD36R,0.2300X1.0000*%
%ADD37R,0.3000X1.4500*%
%ADD38R,0.5500X1.0000*%
%ADD39R,1.0000X0.9700*%
%ADD40R,0.9700X1.0000*%
%ADD41R,0.4000X0.5000*%
%ADD42R,0.5500X0.2500*%
%ADD43R,1.8000X0.7500*%
%ADD44R,3.3600X4.8600*%
%ADD45R,1.3900X1.4000*%
%ADD46R,0.5900X0.4500*%
%ADD47R,1.0160X1.7000*%
%ADD48R,1.0160X1.7000*%
%ADD49R,0.6000X0.2500*%
%ADD50R,0.2500X0.6000*%
%ADD51R,2.1000X2.1000*%
%ADD52R,1.0000X0.6000*%
%ADD53O,1.3000X0.3500*%
%ADD54O,1.7000X0.3500*%
%ADD55R,0.9000X0.4000*%
%ADD56O,0.5000X1.6000*%
%ADD57R,0.8500X0.3500*%
%ADD58R,0.4500X1.3800*%
%ADD59R,1.4000X2.1000*%
%ADD60R,2.3700X1.9000*%
%ADD61R,1.1750X1.9000*%
%ADD62R,2.4000X3.4000*%
%ADD63R,1.7526X0.7112*%
%ADD64R,2.0000X3.5000*%
%ADD65R,0.3000X1.7500*%
%ADD66R,1.0000X0.5500*%
G04:AMPARAMS|DCode=67|XSize=0.75mm|YSize=1.6mm|CornerRadius=0.075mm|HoleSize=0mm|Usage=FLASHONLY|Rotation=90.000|XOffset=0mm|YOffset=0mm|HoleType=Round|Shape=RoundedRectangle|*
%AMROUNDEDRECTD67*
21,1,0.7500,1.4500,0,0,90.0*
21,1,0.6000,1.6000,0,0,90.0*
1,1,0.1500,0.7250,0.3000*
1,1,0.1500,0.7250,-0.3000*
1,1,0.1500,-0.7250,-0.3000*
1,1,0.1500,-0.7250,0.3000*
%
%ADD67ROUNDEDRECTD67*%
G04:AMPARAMS|DCode=68|XSize=0.6mm|YSize=1.8mm|CornerRadius=0.06mm|HoleSize=0mm|Usage=FLASHONLY|Rotation=90.000|XOffset=0mm|YOffset=0mm|HoleType=Round|Shape=RoundedRectangle|*
%AMROUNDEDRECTD68*
21,1,0.6000,1.6800,0,0,90.0*
21,1,0.4800,1.8000,0,0,90.0*
1,1,0.1200,0.8400,0.2400*
1,1,0.1200,0.8400,-0.2400*
1,1,0.1200,-0.8400,-0.2400*
1,1,0.1200,-0.8400,0.2400*
%
%ADD68ROUNDEDRECTD68*%
G04:AMPARAMS|DCode=69|XSize=1.3mm|YSize=0.7mm|CornerRadius=0.07mm|HoleSize=0mm|Usage=FLASHONLY|Rotation=90.000|XOffset=0mm|YOffset=0mm|HoleType=Round|Shape=RoundedRectangle|*
%AMROUNDEDRECTD69*
21,1,1.3000,0.5600,0,0,90.0*
21,1,1.1600,0.7000,0,0,90.0*
1,1,0.1400,0.2800,0.5800*
1,1,0.1400,0.2800,-0.5800*
1,1,0.1400,-0.2800,-0.5800*
1,1,0.1400,-0.2800,0.5800*
%
%ADD69ROUNDEDRECTD69*%
%ADD70R,0.9500X0.4000*%
%ADD71R,0.7620X0.7620*%
%ADD72R,3.0000X2.6000*%
%ADD73R,0.3560X0.8500*%
%ADD74R,0.4500X0.2000*%
%ADD75R,0.5000X0.2000*%
%ADD76R,0.2000X0.4500*%
%ADD77R,0.2000X0.5000*%
%ADD78R,3.2000X1.2000*%
%ADD79R,1.0000X0.2301*%
%ADD80R,0.8499X0.2301*%
%ADD81R,1.3800X1.8001*%
%ADD82R,2.0000X1.7000*%
%ADD83R,0.9700X0.9600*%
%ADD84R,2.0000X1.2000*%
%ADD85R,0.6000X1.0000*%
%ADD86R,1.7000X1.0160*%
%ADD87R,1.7000X1.0160*%
%ADD88R,0.7000X0.4000*%
%ADD89R,0.2500X0.4000*%
%ADD90R,0.7620X0.7620*%
%ADD91R,0.3500X0.8500*%
%ADD92R,0.2301X1.0000*%
%ADD93R,0.2301X0.8499*%
%ADD94R,1.8001X1.3800*%
%ADD95R,1.7000X2.0000*%
G36*
X440281Y303722D02*
X431277Y303722D01*
X431376Y302269D01*
X431527Y301053D01*
X431691Y300052D01*
X431859Y299260D01*
X432010Y298549D01*
X432253Y297596D01*
X432571Y296560D01*
X432879Y295677D01*
X433202Y294808D01*
X433764Y293450D01*
X435248Y290673D01*
X437166Y287804D01*
X438928Y285896D01*
X440856Y284114D01*
X442432Y282820D01*
X444217Y281626D01*
X445455Y280964D01*
X445925Y280712D01*
X446391Y280463D01*
X447356Y279947D01*
X448445Y279515D01*
X450306Y278825D01*
X452092Y278322D01*
X454027Y277914D01*
X455599Y277689D01*
X457478Y277544D01*
X457489Y286542D01*
X457065Y286577D01*
X456852Y286598D01*
X456646Y286622D01*
X456093Y286694D01*
X455824Y286734D01*
X455556Y286780D01*
X455022Y286881D01*
X454482Y287000D01*
X454199Y287067D01*
X454052Y287107D01*
X453765Y287184D01*
X453478Y287267D01*
X453197Y287355D01*
X452874Y287460D01*
X452555Y287571D01*
X452393Y287627D01*
X452230Y287689D01*
X451926Y287804D01*
X451453Y288000D01*
X450996Y288203D01*
X450544Y288420D01*
X450095Y288648D01*
X449222Y289141D01*
X448754Y289433D01*
X448325Y289716D01*
X447917Y290005D01*
X447464Y290340D01*
X447238Y290521D01*
X446716Y290951D01*
X446458Y291174D01*
X446199Y291398D01*
X445268Y292327D01*
X444712Y292955D01*
X444217Y293542D01*
X443810Y294112D01*
X443539Y294456D01*
X443064Y295164D01*
X442691Y295829D01*
X442354Y296431D01*
X442033Y297060D01*
X441577Y298122D01*
X441259Y298968D01*
X440846Y300296D01*
X440754Y300661D01*
X440476Y302082D01*
X440281Y303722D01*
D02*
G37*
G36*
X457472Y323469D02*
X457472Y332473D01*
X456019Y332374D01*
X454803Y332223D01*
X453802Y332059D01*
X453010Y331891D01*
X452299Y331740D01*
X451347Y331497D01*
X450310Y331178D01*
X449427Y330871D01*
X448558Y330548D01*
X447200Y329986D01*
X444423Y328502D01*
X441554Y326584D01*
X439646Y324822D01*
X437864Y322894D01*
X436570Y321318D01*
X435376Y319533D01*
X434714Y318295D01*
X434463Y317825D01*
X434213Y317359D01*
X433697Y316394D01*
X433265Y315305D01*
X432576Y313444D01*
X432072Y311658D01*
X431664Y309723D01*
X431439Y308151D01*
X431295Y306271D01*
X440293Y306260D01*
X440327Y306685D01*
X440349Y306898D01*
X440372Y307104D01*
X440444Y307657D01*
X440484Y307926D01*
X440530Y308194D01*
X440631Y308728D01*
X440750Y309268D01*
X440818Y309551D01*
X440857Y309698D01*
X440934Y309985D01*
X441017Y310272D01*
X441105Y310553D01*
X441211Y310876D01*
X441321Y311195D01*
X441377Y311357D01*
X441439Y311520D01*
X441554Y311824D01*
X441750Y312297D01*
X441953Y312754D01*
X442170Y313206D01*
X442398Y313655D01*
X442891Y314528D01*
X443183Y314996D01*
X443466Y315425D01*
X443755Y315833D01*
X444090Y316286D01*
X444271Y316512D01*
X444701Y317034D01*
X444924Y317292D01*
X445148Y317551D01*
X446077Y318482D01*
X446705Y319038D01*
X447292Y319533D01*
X447863Y319940D01*
X448206Y320211D01*
X448914Y320686D01*
X449579Y321059D01*
X450181Y321396D01*
X450811Y321717D01*
X451872Y322172D01*
X452718Y322491D01*
X454047Y322904D01*
X454411Y322996D01*
X455832Y323274D01*
X457472Y323469D01*
D02*
G37*
G36*
X460028Y286531D02*
X460028Y277527D01*
X461481Y277626D01*
X462697Y277777D01*
X463698Y277940D01*
X464490Y278109D01*
X465201Y278260D01*
X466153Y278503D01*
X467190Y278821D01*
X468073Y279129D01*
X468942Y279452D01*
X470300Y280014D01*
X473077Y281498D01*
X475946Y283416D01*
X477854Y285178D01*
X479636Y287105D01*
X480930Y288682D01*
X482124Y290467D01*
X482786Y291705D01*
X483037Y292174D01*
X483287Y292641D01*
X483803Y293605D01*
X484235Y294695D01*
X484924Y296556D01*
X485428Y298342D01*
X485836Y300277D01*
X486061Y301849D01*
X486205Y303728D01*
X477207Y303739D01*
X477173Y303315D01*
X477151Y303102D01*
X477128Y302896D01*
X477056Y302343D01*
X477016Y302074D01*
X476970Y301806D01*
X476869Y301272D01*
X476750Y300732D01*
X476682Y300448D01*
X476643Y300302D01*
X476566Y300015D01*
X476483Y299728D01*
X476395Y299447D01*
X476289Y299124D01*
X476179Y298805D01*
X476123Y298643D01*
X476061Y298480D01*
X475946Y298176D01*
X475750Y297703D01*
X475547Y297246D01*
X475330Y296794D01*
X475102Y296345D01*
X474609Y295472D01*
X474317Y295004D01*
X474034Y294575D01*
X473745Y294167D01*
X473410Y293714D01*
X473229Y293488D01*
X472799Y292966D01*
X472576Y292708D01*
X472352Y292448D01*
X471423Y291517D01*
X470795Y290962D01*
X470208Y290466D01*
X469637Y290059D01*
X469294Y289788D01*
X468586Y289313D01*
X467921Y288941D01*
X467319Y288603D01*
X466689Y288282D01*
X465628Y287827D01*
X464782Y287509D01*
X463453Y287096D01*
X463089Y287004D01*
X461668Y286726D01*
X460028Y286531D01*
D02*
G37*
G36*
X477219Y306278D02*
X486223Y306278D01*
X486124Y307731D01*
X485973Y308947D01*
X485809Y309947D01*
X485641Y310740D01*
X485490Y311451D01*
X485247Y312403D01*
X484929Y313440D01*
X484621Y314323D01*
X484298Y315192D01*
X483736Y316550D01*
X482252Y319326D01*
X480334Y322196D01*
X478572Y324104D01*
X476644Y325885D01*
X475068Y327179D01*
X473283Y328374D01*
X472045Y329036D01*
X471575Y329287D01*
X471109Y329537D01*
X470144Y330053D01*
X469055Y330485D01*
X467194Y331174D01*
X465408Y331678D01*
X463473Y332086D01*
X461901Y332310D01*
X460022Y332455D01*
X460011Y323457D01*
X460435Y323423D01*
X460648Y323401D01*
X460854Y323378D01*
X461407Y323306D01*
X461676Y323266D01*
X461944Y323220D01*
X462478Y323119D01*
X463018Y323000D01*
X463301Y322932D01*
X463448Y322893D01*
X463735Y322816D01*
X464022Y322733D01*
X464303Y322645D01*
X464626Y322539D01*
X464945Y322429D01*
X465107Y322372D01*
X465270Y322311D01*
X465574Y322196D01*
X466047Y322000D01*
X466504Y321797D01*
X466956Y321580D01*
X467405Y321352D01*
X468278Y320859D01*
X468746Y320567D01*
X469175Y320284D01*
X469583Y319995D01*
X470036Y319660D01*
X470262Y319479D01*
X470784Y319049D01*
X471042Y318826D01*
X471301Y318601D01*
X472232Y317672D01*
X472788Y317045D01*
X473283Y316458D01*
X473690Y315887D01*
X473961Y315544D01*
X474436Y314835D01*
X474809Y314171D01*
X475146Y313569D01*
X475467Y312939D01*
X475923Y311877D01*
X476241Y311032D01*
X476654Y309703D01*
X476746Y309339D01*
X477024Y307918D01*
X477219Y306278D01*
D02*
G37*
G36*
X1076281Y303722D02*
X1067277Y303722D01*
X1067376Y302269D01*
X1067527Y301053D01*
X1067691Y300052D01*
X1067859Y299260D01*
X1068010Y298549D01*
X1068253Y297596D01*
X1068572Y296560D01*
X1068879Y295677D01*
X1069202Y294808D01*
X1069765Y293450D01*
X1071249Y290673D01*
X1073166Y287804D01*
X1074928Y285896D01*
X1076856Y284114D01*
X1078432Y282820D01*
X1080217Y281626D01*
X1081455Y280964D01*
X1081925Y280712D01*
X1082391Y280463D01*
X1083356Y279947D01*
X1084445Y279515D01*
X1086306Y278825D01*
X1088092Y278322D01*
X1090027Y277914D01*
X1091599Y277689D01*
X1093479Y277544D01*
X1093490Y286542D01*
X1093065Y286577D01*
X1092852Y286598D01*
X1092646Y286622D01*
X1092093Y286694D01*
X1091824Y286734D01*
X1091556Y286780D01*
X1091022Y286881D01*
X1090482Y287000D01*
X1090199Y287067D01*
X1090052Y287107D01*
X1089765Y287184D01*
X1089478Y287267D01*
X1089197Y287355D01*
X1088875Y287460D01*
X1088555Y287571D01*
X1088393Y287627D01*
X1088230Y287689D01*
X1087926Y287804D01*
X1087453Y288000D01*
X1086996Y288203D01*
X1086544Y288420D01*
X1086095Y288648D01*
X1085222Y289141D01*
X1084754Y289433D01*
X1084325Y289716D01*
X1083917Y290005D01*
X1083464Y290340D01*
X1083238Y290521D01*
X1082716Y290951D01*
X1082458Y291174D01*
X1082199Y291398D01*
X1081268Y292327D01*
X1080712Y292955D01*
X1080217Y293542D01*
X1079810Y294112D01*
X1079539Y294456D01*
X1079064Y295164D01*
X1078691Y295829D01*
X1078354Y296431D01*
X1078033Y297060D01*
X1077578Y298122D01*
X1077259Y298968D01*
X1076846Y300296D01*
X1076754Y300661D01*
X1076476Y302082D01*
X1076281Y303722D01*
D02*
G37*
G36*
X1093472Y323469D02*
X1093472Y332473D01*
X1092019Y332374D01*
X1090803Y332223D01*
X1089803Y332059D01*
X1089010Y331891D01*
X1088300Y331740D01*
X1087347Y331497D01*
X1086310Y331178D01*
X1085427Y330871D01*
X1084558Y330548D01*
X1083200Y329986D01*
X1080424Y328502D01*
X1077554Y326584D01*
X1075646Y324822D01*
X1073865Y322894D01*
X1072571Y321318D01*
X1071376Y319533D01*
X1070714Y318295D01*
X1070463Y317825D01*
X1070213Y317359D01*
X1069697Y316394D01*
X1069265Y315305D01*
X1068576Y313444D01*
X1068073Y311658D01*
X1067664Y309723D01*
X1067440Y308151D01*
X1067295Y306271D01*
X1076293Y306260D01*
X1076327Y306685D01*
X1076349Y306898D01*
X1076372Y307104D01*
X1076444Y307657D01*
X1076485Y307926D01*
X1076530Y308194D01*
X1076631Y308728D01*
X1076750Y309268D01*
X1076818Y309551D01*
X1076857Y309698D01*
X1076934Y309985D01*
X1077017Y310272D01*
X1077105Y310553D01*
X1077211Y310876D01*
X1077321Y311195D01*
X1077378Y311357D01*
X1077439Y311520D01*
X1077554Y311824D01*
X1077750Y312297D01*
X1077953Y312754D01*
X1078170Y313206D01*
X1078398Y313655D01*
X1078891Y314528D01*
X1079183Y314996D01*
X1079466Y315425D01*
X1079755Y315833D01*
X1080090Y316286D01*
X1080271Y316512D01*
X1080701Y317034D01*
X1080924Y317292D01*
X1081149Y317551D01*
X1082078Y318482D01*
X1082705Y319038D01*
X1083293Y319533D01*
X1083863Y319940D01*
X1084206Y320211D01*
X1084915Y320686D01*
X1085579Y321059D01*
X1086181Y321396D01*
X1086811Y321717D01*
X1087873Y322172D01*
X1088718Y322491D01*
X1090047Y322904D01*
X1090411Y322996D01*
X1091832Y323274D01*
X1093472Y323469D01*
D02*
G37*
G36*
X1096028Y286531D02*
X1096028Y277527D01*
X1097481Y277626D01*
X1098697Y277777D01*
X1099698Y277940D01*
X1100490Y278109D01*
X1101201Y278260D01*
X1102154Y278503D01*
X1103190Y278821D01*
X1104073Y279129D01*
X1104942Y279452D01*
X1106300Y280014D01*
X1109077Y281498D01*
X1111946Y283416D01*
X1113854Y285178D01*
X1115636Y287105D01*
X1116930Y288682D01*
X1118124Y290467D01*
X1118786Y291705D01*
X1119038Y292174D01*
X1119287Y292641D01*
X1119803Y293605D01*
X1120236Y294695D01*
X1120925Y296556D01*
X1121428Y298342D01*
X1121836Y300277D01*
X1122061Y301849D01*
X1122206Y303728D01*
X1113208Y303739D01*
X1113173Y303315D01*
X1113152Y303102D01*
X1113128Y302896D01*
X1113056Y302343D01*
X1113016Y302074D01*
X1112970Y301806D01*
X1112869Y301272D01*
X1112750Y300732D01*
X1112683Y300448D01*
X1112643Y300302D01*
X1112566Y300015D01*
X1112483Y299728D01*
X1112395Y299447D01*
X1112290Y299124D01*
X1112179Y298805D01*
X1112123Y298643D01*
X1112061Y298480D01*
X1111946Y298176D01*
X1111750Y297703D01*
X1111547Y297246D01*
X1111330Y296794D01*
X1111102Y296345D01*
X1110609Y295472D01*
X1110317Y295004D01*
X1110034Y294575D01*
X1109745Y294167D01*
X1109410Y293714D01*
X1109229Y293488D01*
X1108799Y292966D01*
X1108576Y292708D01*
X1108352Y292448D01*
X1107423Y291517D01*
X1106795Y290962D01*
X1106208Y290466D01*
X1105638Y290059D01*
X1105294Y289788D01*
X1104586Y289313D01*
X1103921Y288941D01*
X1103319Y288603D01*
X1102690Y288282D01*
X1101628Y287827D01*
X1100782Y287509D01*
X1099454Y287096D01*
X1099090Y287004D01*
X1097668Y286726D01*
X1096028Y286531D01*
D02*
G37*
G36*
X1113219Y306278D02*
X1122223Y306278D01*
X1122124Y307731D01*
X1121973Y308947D01*
X1121810Y309947D01*
X1121641Y310740D01*
X1121490Y311451D01*
X1121247Y312403D01*
X1120929Y313440D01*
X1120621Y314323D01*
X1120298Y315192D01*
X1119736Y316550D01*
X1118252Y319326D01*
X1116334Y322196D01*
X1114572Y324104D01*
X1112645Y325885D01*
X1111068Y327179D01*
X1109283Y328374D01*
X1108046Y329036D01*
X1107576Y329287D01*
X1107109Y329537D01*
X1106145Y330053D01*
X1105055Y330485D01*
X1103195Y331174D01*
X1101408Y331678D01*
X1099473Y332086D01*
X1097901Y332310D01*
X1096022Y332455D01*
X1096011Y323457D01*
X1096435Y323423D01*
X1096648Y323401D01*
X1096854Y323378D01*
X1097407Y323306D01*
X1097676Y323266D01*
X1097944Y323220D01*
X1098478Y323119D01*
X1099018Y323000D01*
X1099302Y322932D01*
X1099448Y322893D01*
X1099735Y322816D01*
X1100022Y322733D01*
X1100303Y322645D01*
X1100626Y322539D01*
X1100945Y322429D01*
X1101107Y322372D01*
X1101270Y322311D01*
X1101574Y322196D01*
X1102047Y322000D01*
X1102504Y321797D01*
X1102956Y321580D01*
X1103405Y321352D01*
X1104278Y320859D01*
X1104746Y320567D01*
X1105175Y320284D01*
X1105583Y319995D01*
X1106036Y319660D01*
X1106262Y319479D01*
X1106784Y319049D01*
X1107042Y318826D01*
X1107302Y318601D01*
X1108233Y317672D01*
X1108788Y317045D01*
X1109284Y316458D01*
X1109691Y315887D01*
X1109962Y315544D01*
X1110437Y314835D01*
X1110809Y314171D01*
X1111147Y313569D01*
X1111468Y312939D01*
X1111923Y311877D01*
X1112241Y311032D01*
X1112655Y309703D01*
X1112746Y309339D01*
X1113024Y307918D01*
X1113219Y306278D01*
D02*
G37*
D24*
X392000Y846500D02*
D03*
X369000D02*
D03*
Y827500D02*
D03*
X392000D02*
D03*
D25*
X703000Y825000D02*
D03*
X728000D02*
D03*
X1081500Y826000D02*
D03*
X1056500D02*
D03*
D26*
X1037250Y614000D02*
D03*
X1054750D02*
D03*
X744250Y537000D02*
D03*
X726750D02*
D03*
X1110250Y395000D02*
D03*
X1092750D02*
D03*
D27*
X819500Y506500D02*
D03*
X829100D02*
D03*
X517200Y417500D02*
D03*
X526800D02*
D03*
X517200Y402500D02*
D03*
X526800D02*
D03*
X445800Y468000D02*
D03*
X436200D02*
D03*
X1271700Y638500D02*
D03*
X1281300D02*
D03*
X1286700Y691000D02*
D03*
X1296300D02*
D03*
X960800Y368000D02*
D03*
X951200D02*
D03*
Y382500D02*
D03*
X960800D02*
D03*
X931450Y446500D02*
D03*
X941050D02*
D03*
X1248800Y722000D02*
D03*
X1239200D02*
D03*
X1193200Y819500D02*
D03*
X1202800D02*
D03*
X1182300D02*
D03*
X1172700D02*
D03*
X1073300Y886500D02*
D03*
X1063700D02*
D03*
X1013200Y816500D02*
D03*
X1022800D02*
D03*
X1002800D02*
D03*
X993200D02*
D03*
X837922Y816072D02*
D03*
X847522D02*
D03*
X827800Y816000D02*
D03*
X818200D02*
D03*
X719800Y885500D02*
D03*
X710200D02*
D03*
X669200Y816500D02*
D03*
X678800D02*
D03*
X659300D02*
D03*
X649700D02*
D03*
X564200Y601000D02*
D03*
X573800D02*
D03*
X597200Y574000D02*
D03*
X606800D02*
D03*
X647300Y533000D02*
D03*
X637700D02*
D03*
X646800Y520000D02*
D03*
X637200D02*
D03*
X740800Y521000D02*
D03*
X731200D02*
D03*
X740800Y510000D02*
D03*
X731200D02*
D03*
Y499000D02*
D03*
X740800D02*
D03*
X731200Y488000D02*
D03*
X740800D02*
D03*
X929200Y551000D02*
D03*
X938800D02*
D03*
X927700Y578500D02*
D03*
X937300D02*
D03*
X878700Y583000D02*
D03*
X888300D02*
D03*
X863700D02*
D03*
X854100D02*
D03*
X816700Y581000D02*
D03*
X826300D02*
D03*
X816700Y568000D02*
D03*
X826300D02*
D03*
X816700Y553500D02*
D03*
X826300D02*
D03*
X816700Y541000D02*
D03*
X826300D02*
D03*
X1248300Y538000D02*
D03*
X1238700D02*
D03*
X1093700Y457500D02*
D03*
X1103300D02*
D03*
Y434500D02*
D03*
X1093700D02*
D03*
X961550Y446500D02*
D03*
X951950D02*
D03*
X806800Y391000D02*
D03*
X797200D02*
D03*
X806800Y404000D02*
D03*
X797200D02*
D03*
X806800Y373000D02*
D03*
X797200D02*
D03*
X806500Y323500D02*
D03*
X796900D02*
D03*
X397200Y292500D02*
D03*
X406800D02*
D03*
X400300Y454500D02*
D03*
X390700D02*
D03*
Y465500D02*
D03*
X400300D02*
D03*
X373800Y418500D02*
D03*
X364200D02*
D03*
X337800Y464000D02*
D03*
X328200D02*
D03*
Y476000D02*
D03*
X337800D02*
D03*
X402800Y777500D02*
D03*
X393200D02*
D03*
D28*
X717000Y428650D02*
D03*
Y412350D02*
D03*
X1039000Y841350D02*
D03*
Y857650D02*
D03*
X685500Y856650D02*
D03*
Y840350D02*
D03*
X494000Y511350D02*
D03*
Y527650D02*
D03*
D29*
X741500Y393200D02*
D03*
Y402800D02*
D03*
X649000Y423700D02*
D03*
Y433300D02*
D03*
X635000Y423700D02*
D03*
Y433300D02*
D03*
X622000D02*
D03*
Y423700D02*
D03*
X484000Y467800D02*
D03*
Y458200D02*
D03*
X496000Y405500D02*
D03*
Y415100D02*
D03*
X1063500Y595300D02*
D03*
Y585700D02*
D03*
X1020000Y609200D02*
D03*
Y618800D02*
D03*
X1197000Y843300D02*
D03*
Y833700D02*
D03*
X553000Y577200D02*
D03*
Y586800D02*
D03*
X547000Y367200D02*
D03*
Y376800D02*
D03*
X1297000Y656700D02*
D03*
Y666300D02*
D03*
X1227500Y719300D02*
D03*
Y709700D02*
D03*
Y730200D02*
D03*
Y739800D02*
D03*
X1091500Y861200D02*
D03*
Y870800D02*
D03*
X1039000Y876200D02*
D03*
Y885800D02*
D03*
X1006000Y830700D02*
D03*
Y840300D02*
D03*
X836000Y839600D02*
D03*
Y830000D02*
D03*
X738000Y860200D02*
D03*
Y869800D02*
D03*
X685500Y875200D02*
D03*
Y884800D02*
D03*
X655500Y842800D02*
D03*
Y833200D02*
D03*
X477500Y867800D02*
D03*
Y858200D02*
D03*
X456000Y860700D02*
D03*
Y870300D02*
D03*
Y889300D02*
D03*
Y879700D02*
D03*
X538500Y587300D02*
D03*
Y577700D02*
D03*
X527000D02*
D03*
Y587300D02*
D03*
X506000Y565200D02*
D03*
Y574800D02*
D03*
X567000Y514800D02*
D03*
Y505200D02*
D03*
X548000Y505700D02*
D03*
Y515300D02*
D03*
X392000Y501000D02*
D03*
Y491400D02*
D03*
X427000Y441300D02*
D03*
Y431700D02*
D03*
Y419300D02*
D03*
Y409700D02*
D03*
X427500Y373700D02*
D03*
Y383300D02*
D03*
X427000Y346200D02*
D03*
Y355800D02*
D03*
X625500Y376800D02*
D03*
Y367200D02*
D03*
X607000D02*
D03*
Y376800D02*
D03*
X597000Y367200D02*
D03*
Y376800D02*
D03*
X577000Y367200D02*
D03*
Y376800D02*
D03*
X587000Y367200D02*
D03*
Y376800D02*
D03*
X567000Y367200D02*
D03*
Y376800D02*
D03*
X557000Y367200D02*
D03*
Y376800D02*
D03*
X537000Y367200D02*
D03*
Y376800D02*
D03*
X509500Y380600D02*
D03*
Y371000D02*
D03*
X521500Y380600D02*
D03*
Y371000D02*
D03*
X720500Y462200D02*
D03*
Y471800D02*
D03*
X710000Y462200D02*
D03*
Y471800D02*
D03*
X699500Y462200D02*
D03*
Y471800D02*
D03*
X689000Y462200D02*
D03*
Y471800D02*
D03*
X678500Y462200D02*
D03*
Y471800D02*
D03*
X668000Y462200D02*
D03*
Y471800D02*
D03*
X657500Y462200D02*
D03*
Y471800D02*
D03*
X646500Y462200D02*
D03*
Y471800D02*
D03*
X732500Y564800D02*
D03*
Y555200D02*
D03*
X744000Y564800D02*
D03*
Y555200D02*
D03*
X721000Y564800D02*
D03*
Y555200D02*
D03*
X710000D02*
D03*
Y564800D02*
D03*
X699000Y555200D02*
D03*
Y564800D02*
D03*
X688000Y555200D02*
D03*
Y564800D02*
D03*
X677000D02*
D03*
Y555200D02*
D03*
X662000Y564800D02*
D03*
Y555200D02*
D03*
X1068500Y573800D02*
D03*
Y564200D02*
D03*
X1056000D02*
D03*
Y573800D02*
D03*
X1029500Y536300D02*
D03*
Y526700D02*
D03*
X1018000Y560200D02*
D03*
Y569800D02*
D03*
X995500Y459200D02*
D03*
Y468800D02*
D03*
X1226000Y546700D02*
D03*
Y556300D02*
D03*
Y536800D02*
D03*
Y527200D02*
D03*
X1184000Y538800D02*
D03*
Y529200D02*
D03*
X1169500Y538800D02*
D03*
Y529200D02*
D03*
X1115500Y505800D02*
D03*
Y496200D02*
D03*
X1053500Y479200D02*
D03*
Y488800D02*
D03*
X1038000Y479200D02*
D03*
Y488800D02*
D03*
X1046000Y352600D02*
D03*
Y343000D02*
D03*
X1060000Y343200D02*
D03*
Y352800D02*
D03*
X1072000D02*
D03*
Y343200D02*
D03*
X1033000Y343000D02*
D03*
Y352600D02*
D03*
X957000Y306200D02*
D03*
Y315800D02*
D03*
X952000Y472300D02*
D03*
Y462700D02*
D03*
X941000Y472300D02*
D03*
Y462700D02*
D03*
X923500D02*
D03*
Y472300D02*
D03*
X912500Y462700D02*
D03*
Y472300D02*
D03*
X901500Y462700D02*
D03*
Y472300D02*
D03*
X890500Y462700D02*
D03*
Y472300D02*
D03*
X879500Y462700D02*
D03*
Y472300D02*
D03*
X868500Y462700D02*
D03*
Y472300D02*
D03*
X857500Y462700D02*
D03*
Y472300D02*
D03*
X846500Y462700D02*
D03*
Y472300D02*
D03*
X670000Y324700D02*
D03*
Y334300D02*
D03*
X656000D02*
D03*
Y324700D02*
D03*
X641000Y334300D02*
D03*
Y324700D02*
D03*
X607000Y447700D02*
D03*
Y457300D02*
D03*
X597000Y447700D02*
D03*
Y457300D02*
D03*
X587000Y447700D02*
D03*
Y457300D02*
D03*
X577000Y447700D02*
D03*
Y457300D02*
D03*
X567000Y447700D02*
D03*
Y457300D02*
D03*
X557000Y447700D02*
D03*
Y457300D02*
D03*
X547000Y447700D02*
D03*
Y457300D02*
D03*
X537000Y447700D02*
D03*
Y457300D02*
D03*
X380000Y355800D02*
D03*
Y346200D02*
D03*
X351000Y466400D02*
D03*
Y476000D02*
D03*
X369500Y467200D02*
D03*
Y476800D02*
D03*
X364000Y433200D02*
D03*
Y442800D02*
D03*
X351000D02*
D03*
Y433200D02*
D03*
X336000Y442800D02*
D03*
Y433200D02*
D03*
X324000D02*
D03*
Y442800D02*
D03*
D30*
X643250Y360250D02*
D03*
X649750D02*
D03*
X656250D02*
D03*
X662750D02*
D03*
X643250Y402750D02*
D03*
X649750D02*
D03*
X656250D02*
D03*
X662750D02*
D03*
D31*
X692000Y397850D02*
D03*
X687000D02*
D03*
X707000Y390150D02*
D03*
X702000D02*
D03*
X692000D02*
D03*
X687000D02*
D03*
X702000Y397850D02*
D03*
X707000D02*
D03*
X767500Y390150D02*
D03*
X772500D02*
D03*
X752500Y397850D02*
D03*
X757500D02*
D03*
X767500D02*
D03*
X772500D02*
D03*
X757500Y390150D02*
D03*
X752500D02*
D03*
D32*
X697000Y397850D02*
D03*
Y390150D02*
D03*
X762500D02*
D03*
Y397850D02*
D03*
D33*
X709999Y368850D02*
D03*
X714999D02*
D03*
X759999D02*
D03*
X754999D02*
D03*
X749999D02*
D03*
X744999D02*
D03*
X739999D02*
D03*
X734999D02*
D03*
X729999D02*
D03*
X724999D02*
D03*
X719999D02*
D03*
X704999D02*
D03*
D34*
X732499Y292050D02*
D03*
Y323050D02*
D03*
D35*
X718000Y581000D02*
D03*
X708500Y600000D02*
D03*
X727500D02*
D03*
D36*
X595500Y329500D02*
D03*
X583500D02*
D03*
X571500D02*
D03*
X559500D02*
D03*
X547500D02*
D03*
X543500D02*
D03*
X539500D02*
D03*
X535500D02*
D03*
X531500D02*
D03*
X527500D02*
D03*
X523500D02*
D03*
X555500D02*
D03*
X551500D02*
D03*
X579500D02*
D03*
X575500D02*
D03*
X591500D02*
D03*
X587500D02*
D03*
X567500D02*
D03*
X563500D02*
D03*
D37*
X556000Y397000D02*
D03*
X571000D02*
D03*
X586000D02*
D03*
X548500Y415500D02*
D03*
X563500D02*
D03*
X578500D02*
D03*
X593500D02*
D03*
X588500D02*
D03*
X598500D02*
D03*
X558500D02*
D03*
X568500D02*
D03*
X543500D02*
D03*
X553500D02*
D03*
X573500D02*
D03*
X583500D02*
D03*
X898500Y437250D02*
D03*
X883500D02*
D03*
X868500D02*
D03*
X906000Y418750D02*
D03*
X891000D02*
D03*
X876000D02*
D03*
X861000D02*
D03*
X866000D02*
D03*
X856000D02*
D03*
X896000D02*
D03*
X886000D02*
D03*
X911000D02*
D03*
X901000D02*
D03*
X881000D02*
D03*
X871000D02*
D03*
D38*
X514500Y460000D02*
D03*
X524000Y441000D02*
D03*
X505000D02*
D03*
X812500Y307500D02*
D03*
X793500D02*
D03*
X803000Y288500D02*
D03*
D39*
X464150Y350500D02*
D03*
X478850D02*
D03*
X1038850Y327500D02*
D03*
X1024150D02*
D03*
X939150Y418500D02*
D03*
X953850D02*
D03*
D40*
X477450Y403700D02*
D03*
Y389000D02*
D03*
X577000Y543150D02*
D03*
Y557850D02*
D03*
D41*
X484000Y447500D02*
D03*
X490500Y428500D02*
D03*
X477500D02*
D03*
X388000Y303500D02*
D03*
X381500Y322500D02*
D03*
X394500D02*
D03*
X963500Y351000D02*
D03*
X970000Y332000D02*
D03*
X957000D02*
D03*
D42*
X1029750Y578500D02*
D03*
Y583500D02*
D03*
Y588500D02*
D03*
Y593500D02*
D03*
X1043250D02*
D03*
Y588500D02*
D03*
Y583500D02*
D03*
Y578500D02*
D03*
D43*
X347000Y781000D02*
D03*
Y796000D02*
D03*
D44*
X346000Y621000D02*
D03*
D45*
X336602Y660624D02*
D03*
X355398D02*
D03*
D46*
X886550Y599500D02*
D03*
X865450D02*
D03*
X477450Y371000D02*
D03*
X498550D02*
D03*
X997450Y526000D02*
D03*
X1018550D02*
D03*
X936950Y401000D02*
D03*
X958050D02*
D03*
D47*
X417000Y603500D02*
D03*
X479000Y629000D02*
D03*
Y652000D02*
D03*
D48*
X449000Y603500D02*
D03*
X449000Y629000D02*
D03*
Y652000D02*
D03*
D49*
X493500Y854500D02*
D03*
Y859500D02*
D03*
Y864500D02*
D03*
Y869500D02*
D03*
Y874500D02*
D03*
Y879500D02*
D03*
X531500D02*
D03*
Y874500D02*
D03*
Y869500D02*
D03*
Y864500D02*
D03*
Y859500D02*
D03*
Y854500D02*
D03*
D50*
X500000Y886000D02*
D03*
X505000D02*
D03*
X510000D02*
D03*
X515000D02*
D03*
X520000D02*
D03*
X525000D02*
D03*
X525000Y848000D02*
D03*
X520000D02*
D03*
X515000D02*
D03*
X510000D02*
D03*
X505000D02*
D03*
X500000D02*
D03*
D51*
X512500Y867000D02*
D03*
D52*
X997500Y485000D02*
D03*
Y504000D02*
D03*
X1020500D02*
D03*
Y494500D02*
D03*
Y485000D02*
D03*
X1283000Y652000D02*
D03*
Y661500D02*
D03*
Y671000D02*
D03*
X1260000D02*
D03*
Y652000D02*
D03*
D53*
X1070000Y411750D02*
D03*
Y418250D02*
D03*
Y424750D02*
D03*
Y431250D02*
D03*
Y437750D02*
D03*
Y444250D02*
D03*
Y450750D02*
D03*
Y457250D02*
D03*
X1013000Y411750D02*
D03*
Y418250D02*
D03*
Y424750D02*
D03*
Y431250D02*
D03*
Y437750D02*
D03*
Y444250D02*
D03*
Y450750D02*
D03*
Y457250D02*
D03*
D54*
X850500Y568000D02*
D03*
Y561500D02*
D03*
Y555000D02*
D03*
Y548500D02*
D03*
Y542000D02*
D03*
Y535500D02*
D03*
Y529000D02*
D03*
X907500Y568000D02*
D03*
Y561500D02*
D03*
Y555000D02*
D03*
Y548500D02*
D03*
Y542000D02*
D03*
Y535500D02*
D03*
Y529000D02*
D03*
D55*
X805000Y519500D02*
D03*
Y506500D02*
D03*
X786000D02*
D03*
Y513000D02*
D03*
Y519500D02*
D03*
D56*
X538500Y538500D02*
D03*
X548000D02*
D03*
X557500D02*
D03*
X538500Y560500D02*
D03*
X548000D02*
D03*
X557500D02*
D03*
D57*
X612500Y588000D02*
D03*
Y594500D02*
D03*
Y601000D02*
D03*
X590500D02*
D03*
Y588000D02*
D03*
X405000Y489000D02*
D03*
Y482500D02*
D03*
Y476000D02*
D03*
X427000D02*
D03*
Y489000D02*
D03*
D58*
X1005500Y304130D02*
D03*
X1012000D02*
D03*
X999000D02*
D03*
X1018500D02*
D03*
X1025000D02*
D03*
D59*
X1037400Y300530D02*
D03*
X984060D02*
D03*
D60*
X1041100Y277530D02*
D03*
X982900D02*
D03*
D61*
X1020375D02*
D03*
X1003625D02*
D03*
D62*
X290000Y538500D02*
D03*
X372000D02*
D03*
D63*
X981205Y597000D02*
D03*
X1002795D02*
D03*
D64*
X399500Y645000D02*
D03*
X1154500Y605000D02*
D03*
D65*
X1110500Y766000D02*
D03*
X1105500D02*
D03*
X1100500D02*
D03*
X1095500D02*
D03*
X1090500D02*
D03*
X1108000Y684000D02*
D03*
X1093000D02*
D03*
X1088000D02*
D03*
X1063000D02*
D03*
X1078000D02*
D03*
X1083000D02*
D03*
X1048000D02*
D03*
X1065500Y766000D02*
D03*
X1080500D02*
D03*
X1085500D02*
D03*
X1050500D02*
D03*
X755500D02*
D03*
X753000Y684000D02*
D03*
X760500Y766000D02*
D03*
X758000Y684000D02*
D03*
X765500Y766000D02*
D03*
X763000Y684000D02*
D03*
X770500Y766000D02*
D03*
X768000Y684000D02*
D03*
X775500Y766000D02*
D03*
X773000Y684000D02*
D03*
X780500Y766000D02*
D03*
X778000Y684000D02*
D03*
X785500Y766000D02*
D03*
X783000Y684000D02*
D03*
X790500Y766000D02*
D03*
X788000Y684000D02*
D03*
X795500Y766000D02*
D03*
X793000Y684000D02*
D03*
X800500Y766000D02*
D03*
X798000Y684000D02*
D03*
X805500Y766000D02*
D03*
X803000Y684000D02*
D03*
X810500Y766000D02*
D03*
X808000Y684000D02*
D03*
X815500Y766000D02*
D03*
X813000Y684000D02*
D03*
X820500Y766000D02*
D03*
X818000Y684000D02*
D03*
X825500Y766000D02*
D03*
X823000Y684000D02*
D03*
X830500Y766000D02*
D03*
X828000Y684000D02*
D03*
X833000D02*
D03*
X838000D02*
D03*
X845500Y766000D02*
D03*
X843000Y684000D02*
D03*
X850500Y766000D02*
D03*
X848000Y684000D02*
D03*
X855500Y766000D02*
D03*
X853000Y684000D02*
D03*
X860500Y766000D02*
D03*
X858000Y684000D02*
D03*
X865500Y766000D02*
D03*
X863000Y684000D02*
D03*
X870500Y766000D02*
D03*
X868000Y684000D02*
D03*
X875500Y766000D02*
D03*
X873000Y684000D02*
D03*
X880500Y766000D02*
D03*
X878000Y684000D02*
D03*
X885500Y766000D02*
D03*
X883000Y684000D02*
D03*
X890500Y766000D02*
D03*
X888000Y684000D02*
D03*
X895500Y766000D02*
D03*
X893000Y684000D02*
D03*
X900500Y766000D02*
D03*
X898000Y684000D02*
D03*
X905500Y766000D02*
D03*
X903000Y684000D02*
D03*
X910500Y766000D02*
D03*
X908000Y684000D02*
D03*
X915500Y766000D02*
D03*
X913000Y684000D02*
D03*
X920500Y766000D02*
D03*
X918000Y684000D02*
D03*
X925500Y766000D02*
D03*
X923000Y684000D02*
D03*
X930500Y766000D02*
D03*
X928000Y684000D02*
D03*
X935500Y766000D02*
D03*
X933000Y684000D02*
D03*
X940500Y766000D02*
D03*
X938000Y684000D02*
D03*
X945500Y766000D02*
D03*
X943000Y684000D02*
D03*
X960500Y766000D02*
D03*
X958000Y684000D02*
D03*
X965500Y766000D02*
D03*
X970500D02*
D03*
X975500D02*
D03*
X973000Y684000D02*
D03*
X1005500Y766000D02*
D03*
X1000500D02*
D03*
X995500D02*
D03*
X990500D02*
D03*
X985500D02*
D03*
X980500D02*
D03*
X1035500D02*
D03*
X1020500D02*
D03*
X1003000Y684000D02*
D03*
X988000D02*
D03*
X1033000D02*
D03*
X1018000D02*
D03*
X703000D02*
D03*
X708000D02*
D03*
X713000D02*
D03*
X718000D02*
D03*
X723000D02*
D03*
X728000D02*
D03*
X668000D02*
D03*
X683000D02*
D03*
X688000D02*
D03*
X693000D02*
D03*
X698000D02*
D03*
X705500Y766000D02*
D03*
X710500D02*
D03*
X715500D02*
D03*
X720500D02*
D03*
X725500D02*
D03*
X730500D02*
D03*
X670500D02*
D03*
X675500D02*
D03*
X680500D02*
D03*
X695500D02*
D03*
X700500D02*
D03*
X663000Y684000D02*
D03*
X665500Y766000D02*
D03*
X658000Y684000D02*
D03*
X660500Y766000D02*
D03*
X653000Y684000D02*
D03*
X655500Y766000D02*
D03*
X648000Y684000D02*
D03*
X650500Y766000D02*
D03*
X643000Y684000D02*
D03*
X645500Y766000D02*
D03*
X638000Y684000D02*
D03*
X640500Y766000D02*
D03*
X635500D02*
D03*
X630500D02*
D03*
X623000Y684000D02*
D03*
X625500Y766000D02*
D03*
X618000Y684000D02*
D03*
X620500Y766000D02*
D03*
X613000Y684000D02*
D03*
X615500Y766000D02*
D03*
X608000Y684000D02*
D03*
X610500Y766000D02*
D03*
X603000Y684000D02*
D03*
X605500Y766000D02*
D03*
X598000Y684000D02*
D03*
X600500Y766000D02*
D03*
X593000Y684000D02*
D03*
X595500Y766000D02*
D03*
X588000Y684000D02*
D03*
X590500Y766000D02*
D03*
X583000Y684000D02*
D03*
X585500Y766000D02*
D03*
X578000Y684000D02*
D03*
X580500Y766000D02*
D03*
X573000Y684000D02*
D03*
X575500Y766000D02*
D03*
X568000Y684000D02*
D03*
X570500Y766000D02*
D03*
X563000Y684000D02*
D03*
X565500Y766000D02*
D03*
X558000Y684000D02*
D03*
X560500Y766000D02*
D03*
X553000Y684000D02*
D03*
X555500Y766000D02*
D03*
X548000Y684000D02*
D03*
X550500Y766000D02*
D03*
X543000Y684000D02*
D03*
X545500Y766000D02*
D03*
X538000Y684000D02*
D03*
X540500Y766000D02*
D03*
X533000Y684000D02*
D03*
X535500Y766000D02*
D03*
X528000Y684000D02*
D03*
X530500Y766000D02*
D03*
X523000Y684000D02*
D03*
X525500Y766000D02*
D03*
X518000Y684000D02*
D03*
X520500Y766000D02*
D03*
X513000Y684000D02*
D03*
X515500Y766000D02*
D03*
X508000Y684000D02*
D03*
X510500Y766000D02*
D03*
X503000Y684000D02*
D03*
X505500Y766000D02*
D03*
X498000Y684000D02*
D03*
X500500Y766000D02*
D03*
X493000Y684000D02*
D03*
X495500Y766000D02*
D03*
X488000Y684000D02*
D03*
X490500Y766000D02*
D03*
X483000Y684000D02*
D03*
X485500Y766000D02*
D03*
X478000Y684000D02*
D03*
X480500Y766000D02*
D03*
X473000Y684000D02*
D03*
X475500Y766000D02*
D03*
X468000Y684000D02*
D03*
X470500Y766000D02*
D03*
X463000Y684000D02*
D03*
X465500Y766000D02*
D03*
X458000Y684000D02*
D03*
X460500Y766000D02*
D03*
X453000Y684000D02*
D03*
X455500Y766000D02*
D03*
X448000Y684000D02*
D03*
X450500Y766000D02*
D03*
X443000Y684000D02*
D03*
X445500Y766000D02*
D03*
X1015500D02*
D03*
X1010500D02*
D03*
X955500D02*
D03*
X950500D02*
D03*
X690500D02*
D03*
X685500D02*
D03*
X1075500D02*
D03*
X1070500D02*
D03*
X840500D02*
D03*
X835500D02*
D03*
X678000Y684000D02*
D03*
X673000D02*
D03*
X633000D02*
D03*
X628000D02*
D03*
X1030500Y766000D02*
D03*
X1025500D02*
D03*
X1045500D02*
D03*
X1040500D02*
D03*
X1060500D02*
D03*
X1055500D02*
D03*
X1103000Y684000D02*
D03*
X1098000D02*
D03*
X1073000D02*
D03*
X1068000D02*
D03*
X1028000D02*
D03*
X1023000D02*
D03*
X1043000D02*
D03*
X1038000D02*
D03*
X1058000D02*
D03*
X1053000D02*
D03*
X1013000D02*
D03*
X1008000D02*
D03*
X998000D02*
D03*
X993000D02*
D03*
X983000D02*
D03*
X978000D02*
D03*
X968000D02*
D03*
X963000D02*
D03*
X953000D02*
D03*
X948000D02*
D03*
D66*
X1060000Y367000D02*
D03*
Y386000D02*
D03*
X1041000Y376500D02*
D03*
X993000Y366500D02*
D03*
Y385500D02*
D03*
X974000Y376000D02*
D03*
X509000Y511000D02*
D03*
X528000Y520500D02*
D03*
Y501500D02*
D03*
X981000Y340000D02*
D03*
X1000000Y349500D02*
D03*
Y330500D02*
D03*
X650500Y308000D02*
D03*
Y289000D02*
D03*
X669500Y298500D02*
D03*
D67*
X284500Y627250D02*
D03*
Y651750D02*
D03*
Y701750D02*
D03*
Y726250D02*
D03*
D68*
Y639500D02*
D03*
Y714000D02*
D03*
D69*
X262000Y621000D02*
D03*
Y658000D02*
D03*
Y695500D02*
D03*
Y732500D02*
D03*
D70*
X394300Y343000D02*
D03*
Y349500D02*
D03*
Y356000D02*
D03*
X411700Y343000D02*
D03*
Y349500D02*
D03*
Y356000D02*
D03*
D71*
X396985Y276000D02*
D03*
X383015D02*
D03*
X660485Y272000D02*
D03*
X646515D02*
D03*
D72*
X294500Y455500D02*
D03*
D73*
Y435500D02*
D03*
X286500D02*
D03*
X278500D02*
D03*
X302500D02*
D03*
X310500D02*
D03*
Y475500D02*
D03*
X302500D02*
D03*
X278500D02*
D03*
X286500D02*
D03*
X294500D02*
D03*
D74*
X663500Y512000D02*
D03*
Y528000D02*
D03*
X707500Y512000D02*
D03*
Y528000D02*
D03*
D75*
X663500Y516000D02*
D03*
Y524000D02*
D03*
Y520000D02*
D03*
X707500Y516000D02*
D03*
Y520000D02*
D03*
Y524000D02*
D03*
D76*
X667500Y507750D02*
D03*
Y532300D02*
D03*
X703500D02*
D03*
Y507750D02*
D03*
D77*
X671500Y508000D02*
D03*
X675500D02*
D03*
X679500D02*
D03*
X683500D02*
D03*
X687500D02*
D03*
X679500Y532000D02*
D03*
X683500D02*
D03*
X671500D02*
D03*
X699500D02*
D03*
X695500D02*
D03*
X691500D02*
D03*
X687500D02*
D03*
X675500D02*
D03*
X691500Y508000D02*
D03*
X695500D02*
D03*
X699500D02*
D03*
D78*
X685500Y520000D02*
D03*
D79*
X1256500Y771001D02*
D03*
Y775001D02*
D03*
Y758999D02*
D03*
Y762999D02*
D03*
Y782999D02*
D03*
Y778999D02*
D03*
Y767000D02*
D03*
Y755001D02*
D03*
Y751001D02*
D03*
X1256501Y588000D02*
D03*
Y592001D02*
D03*
Y575999D02*
D03*
Y579999D02*
D03*
Y599999D02*
D03*
Y595999D02*
D03*
Y584000D02*
D03*
Y572001D02*
D03*
Y568000D02*
D03*
D80*
X1244250Y765001D02*
D03*
Y768999D02*
D03*
Y785001D02*
D03*
Y781001D02*
D03*
Y777000D02*
D03*
Y772999D02*
D03*
Y761001D02*
D03*
Y757000D02*
D03*
Y752999D02*
D03*
Y748999D02*
D03*
X1244250Y582001D02*
D03*
Y585999D02*
D03*
Y602001D02*
D03*
Y598000D02*
D03*
Y594000D02*
D03*
Y589999D02*
D03*
Y578000D02*
D03*
Y574000D02*
D03*
Y570000D02*
D03*
Y565999D02*
D03*
D81*
X1258400Y738501D02*
D03*
Y795499D02*
D03*
X1258400Y555501D02*
D03*
Y612499D02*
D03*
D82*
X1292000Y738001D02*
D03*
Y795999D02*
D03*
X1292000Y555001D02*
D03*
Y612999D02*
D03*
D83*
X1251850Y691000D02*
D03*
X1268150D02*
D03*
X981350Y627500D02*
D03*
X997650D02*
D03*
X929000Y564000D02*
D03*
X945300D02*
D03*
D84*
X1236500Y648500D02*
D03*
Y673500D02*
D03*
D85*
X1078000Y872500D02*
D03*
X1068500D02*
D03*
X1059000D02*
D03*
Y849500D02*
D03*
X1078000D02*
D03*
X724500Y871500D02*
D03*
X715000D02*
D03*
X705500D02*
D03*
Y848500D02*
D03*
X724500D02*
D03*
D86*
X588500Y524000D02*
D03*
D87*
X588500Y494000D02*
D03*
D88*
X427000Y400000D02*
D03*
D89*
X424750Y393000D02*
D03*
X429250D02*
D03*
D90*
X957000Y269515D02*
D03*
Y283485D02*
D03*
D91*
X796000Y337500D02*
D03*
X802500D02*
D03*
X809000D02*
D03*
Y359500D02*
D03*
X796000D02*
D03*
D92*
X1142000Y846001D02*
D03*
X1137999D02*
D03*
X1154001D02*
D03*
X1150001D02*
D03*
X1130001D02*
D03*
X1134001D02*
D03*
X1146000D02*
D03*
X1157999D02*
D03*
X1162000D02*
D03*
X958999Y846001D02*
D03*
X954999D02*
D03*
X971001D02*
D03*
X967001D02*
D03*
X947001D02*
D03*
X951001D02*
D03*
X963000D02*
D03*
X974999D02*
D03*
X978999D02*
D03*
X788500Y845001D02*
D03*
X784499D02*
D03*
X800501D02*
D03*
X796500D02*
D03*
X776500D02*
D03*
X780501D02*
D03*
X792500D02*
D03*
X804499D02*
D03*
X808499D02*
D03*
X605499D02*
D03*
X601499D02*
D03*
X617501D02*
D03*
X613501D02*
D03*
X593501D02*
D03*
X597501D02*
D03*
X609500D02*
D03*
X621499D02*
D03*
X625499D02*
D03*
D93*
X1147999Y833750D02*
D03*
X1144001D02*
D03*
X1127999D02*
D03*
X1132000D02*
D03*
X1136000D02*
D03*
X1140001D02*
D03*
X1152000D02*
D03*
X1156000D02*
D03*
X1160001D02*
D03*
X1164001D02*
D03*
X964999Y833750D02*
D03*
X961001D02*
D03*
X944999D02*
D03*
X948999D02*
D03*
X953000D02*
D03*
X957001D02*
D03*
X968999D02*
D03*
X973000D02*
D03*
X977001D02*
D03*
X981001D02*
D03*
X794499Y832750D02*
D03*
X790501D02*
D03*
X774499D02*
D03*
X778500D02*
D03*
X782500D02*
D03*
X786500D02*
D03*
X798500D02*
D03*
X802500D02*
D03*
X806500D02*
D03*
X810501D02*
D03*
X611499D02*
D03*
X607501D02*
D03*
X591499D02*
D03*
X595499D02*
D03*
X599500D02*
D03*
X603501D02*
D03*
X615499D02*
D03*
X619500D02*
D03*
X623501D02*
D03*
X627501D02*
D03*
D94*
X1174499Y847900D02*
D03*
X1117501D02*
D03*
X991499Y847900D02*
D03*
X934501D02*
D03*
X820999Y846900D02*
D03*
X764001D02*
D03*
X637999D02*
D03*
X581001D02*
D03*
D95*
X1174999Y881500D02*
D03*
X1117001D02*
D03*
X991999Y881500D02*
D03*
X934001D02*
D03*
X821499Y880500D02*
D03*
X763501D02*
D03*
X638499D02*
D03*
X580501D02*
D03*
M02*
